<?xml version="1.0" encoding="UTF-8" standalone="no"?>
<svg
   version="1.0"
   width="150.61035pt"
   height="296pt"
   viewBox="0 0 150.61035 296"
   preserveAspectRatio="xMidYMid"
   id="svg522"
   sodipodi:docname="iStock_1321221451_1733912860171 - VŠE.svg"
   inkscape:version="1.2 (dc2aedaf03, 2022-05-15)"
   xml:space="preserve"
   xmlns:inkscape="http://www.inkscape.org/namespaces/inkscape"
   xmlns:sodipodi="http://sodipodi.sourceforge.net/DTD/sodipodi-0.dtd"
   xmlns="http://www.w3.org/2000/svg"
   xmlns:svg="http://www.w3.org/2000/svg"><defs
     id="defs526" /><sodipodi:namedview
     id="namedview524"
     pagecolor="#ffffff"
     bordercolor="#666666"
     borderopacity="1.0"
     inkscape:showpageshadow="2"
     inkscape:pageopacity="0.0"
     inkscape:pagecheckerboard="0"
     inkscape:deskcolor="#d1d1d1"
     inkscape:document-units="pt"
     showgrid="false"
     inkscape:zoom="0.2503158"
     inkscape:cx="7166.9467"
     inkscape:cy="1300.3574"
     inkscape:window-width="1920"
     inkscape:window-height="1001"
     inkscape:window-x="-9"
     inkscape:window-y="-9"
     inkscape:window-maximized="1"
     inkscape:current-layer="svg522" /><metadata
     id="metadata2">
Created by potrace 1.16, written by Peter Selinger 2001-2019
</metadata><g
     id="g2833"
     transform="translate(-4865.062,-1421.2535)"
     style="fill:#493323;fill-opacity:1;stroke:none;stroke-opacity:1"><path
       d="m 4923.9851,1423.0537 c -3.6,1.9 -7.3,6.1 -9.8,11.1 -3.3,6.3 -6.7,22.2 -7.3,33.9 l -0.6,11.2 -4.2,-6.2 c -6.1,-9 -15.3,-17.5 -19.9,-18.4 -4.4,-0.8 -8.1,1.4 -10.6,6.2 -2.1,4.1 -1.9,19.1 0.4,26.9 4,13.6 11.7,27.8 21.3,39.2 2.3,2.8 4.3,5.4 4.3,5.8 0,0.4 -2.1,2.6 -4.6,4.8 -12.6,11.1 -22,30.8 -26.5,55.7 -2.1,11.1 -1.8,44.8 0.4,57 8,44.2 31.9,67 70.2,67 30.3,0 55.1,-14.6 67.5,-39.5 23,-46.5 8.6,-121.3 -28.3,-146.9 l -6.7,-4.7 5.4,-6.7 c 17.9,-22.3 30.2,-50.9 26.2,-60.7 -3,-7.2 -11.9,-6.3 -22.3,2.3 -2.4,1.9 -4.3,3.3 -4.3,3 0,-0.2 1.3,-3.8 3,-8 4.3,-11.4 6.5,-22.9 5,-27.3 -3.5,-10.6 -14.5,-9.3 -23.8,2.8 -4.2,5.4 -10.2,16.4 -13.1,24.3 l -1.8,4.6 -0.6,-10.3 c -0.6,-10.5 -2.6,-19.3 -5.3,-23.5 -1.6,-2.3 -7.1,-5.4 -9.6,-5.4 -0.7,0.1 -2.7,0.9 -4.4,1.8 z m 7.5,5.2 c 1,0.5 2.7,2.9 3.7,5.2 1.6,3.7 1.9,8.1 2.4,29.3 0.5,24 0.6,25 2.5,25 1.6,0 2.4,-1.6 4.6,-10.5 1.5,-5.8 3.9,-13.6 5.3,-17.3 6.9,-18.3 17.3,-32.7 23.4,-32.7 7.6,0 5.3,12.6 -8,43.8 -3.8,9 -6.7,17 -6.4,17.9 1.1,2.8 4,0.8 8.7,-6.2 9.8,-14.4 20.4,-23.9 25.9,-23.3 2.1,0.3 2.5,0.9 2.8,4.2 0.9,10.2 -14.3,39.9 -28.2,55.2 l -4.3,4.9 -5.9,-1.9 c -3.3,-1.1 -10.2,-2.1 -15.5,-2.4 -11.7,-0.6 -21.1,1.3 -32.2,6.5 l -7.8,3.7 -2.5,-3 c -9.3,-11 -17.6,-25.1 -21.6,-36.4 -2.8,-7.9 -3.6,-24.1 -1.4,-27.5 0.9,-1.4 2.6,-2.5 3.7,-2.5 5.3,0 15.3,11.7 23.4,27.2 3,5.9 4.8,8.3 6.1,8.3 1.8,0 1.9,-0.8 1.6,-10.5 -0.9,-24.8 4.8,-49.9 12.5,-56 2.9,-2.2 4.6,-2.5 7.2,-1 z m 27.1,99.7 c 7.6,2.7 18,8.8 18,10.6 0,0.5 -3,4.1 -6.8,7.9 l -6.7,6.9 -11.6,-8.3 c -6.4,-4.6 -12.8,-9.2 -14.2,-10.3 l -2.6,-2 3.4,-4.1 c 3.3,-4 3.7,-4.1 8.2,-3.7 2.7,0.2 8.2,1.6 12.3,3 z m -26.5,-0.7 c -1.4,1.5 -2.1,1.7 -3.1,0.9 -1.9,-1.6 -0.8,-2.9 2.3,-2.9 2.5,0 2.6,0 0.8,2 z m -8.3,3.7 2.7,2.8 -9.5,10.5 c -5.2,5.8 -9.9,10.6 -10.3,10.8 -0.4,0.1 -3.8,-1.9 -7.4,-4.6 -7.6,-5.5 -7.6,-5.1 0.9,-12 5.2,-4.2 16.6,-10.2 19.5,-10.2 0.8,0 2.7,1.2 4.1,2.7 z m 9.3,7.3 c 0.3,0.5 6.1,4.9 12.8,9.6 6.7,4.8 12.4,8.9 12.6,9.1 0.5,0.4 -15.7,15.7 -19,18.1 -1.6,1.1 -3.5,0.2 -14.9,-7.2 -7.1,-4.7 -13,-8.8 -13,-9.2 0,-1 19.1,-21.4 20.1,-21.4 0.4,0 1.1,0.4 1.4,1 z m 59.1,17.9 c 2.5,4.1 5.4,9.6 6.4,12.2 1.6,4.1 1.7,4.9 0.5,5.9 -1.6,1.3 -1.6,1.3 -20.4,-10.8 l -11.4,-7.4 6.9,-6.9 6.8,-6.9 3.4,3.3 c 1.8,1.7 5.4,6.5 7.8,10.6 z m -95.8,-0.9 6.2,4.4 -9.7,9.8 c -5.4,5.4 -10.2,9.8 -10.8,9.8 -0.5,-0.1 -2.1,-0.9 -3.3,-2 -2.2,-1.8 -2.3,-2.2 -1.1,-5.7 2.5,-7.9 10.3,-21.8 11.8,-21.1 0.3,0.2 3.4,2.3 6.9,4.8 z m 82.6,15 14.9,9.4 -3.5,3.1 c -1.9,1.6 -6.7,5.8 -10.5,9.2 l -7,6.3 -13.9,-8.6 c -7.6,-4.7 -14.3,-9 -14.8,-9.5 -0.9,-0.8 18.2,-20.1 19.4,-19.6 0.3,0.1 7.3,4.5 15.4,9.7 z m -58.4,1.6 c 7.3,4.7 12.8,9 12.3,9.4 -0.4,0.4 -5.5,4.9 -11.1,9.8 l -10.4,9 -11.6,-8.1 c -6.5,-4.4 -11.9,-8.2 -12.1,-8.4 -0.4,-0.3 18.9,-20.3 19.6,-20.3 0.1,0 6.1,3.9 13.3,8.6 z m -44.1,14 c -2.5,2.7 -3.5,1.8 -2.5,-2.2 0.6,-2.1 0.9,-2.3 2.7,-1.3 l 2.1,1.1 z m 90.6,16.4 c 0,0.5 -5.1,5.2 -11.4,10.5 l -11.5,9.5 -2.6,-1.8 c -13.9,-9 -24.9,-16.8 -24.7,-17.4 0.1,-0.4 5,-5 10.9,-10.2 l 10.8,-9.4 14.2,8.9 c 7.9,4.9 14.3,9.3 14.3,9.9 z m 35.7,-16.7 c 2.9,2.4 5.1,10.4 6.4,22.7 0.5,5.6 0.4,6.7 -1.2,8.2 -1.8,1.6 -2.6,1.2 -15.7,-6.5 -7.5,-4.5 -13.7,-8.4 -13.7,-8.8 0,-1.1 19.1,-17.9 20.4,-17.9 0.6,0 2.3,1 3.8,2.3 z m -106.9,10.5 c 8.5,5.8 10.5,7.7 9.7,8.7 -0.6,0.8 -5.4,4.8 -10.6,9 l -9.4,7.7 -7.6,-4.7 -7.6,-4.8 0.4,-7 0.4,-7 5.9,-5.3 c 3.2,-2.9 6.4,-5 6.9,-4.7 0.6,0.4 6,4 11.9,8.1 z m 91.7,17.4 c 7.7,4.6 14,8.6 14,8.9 0,1.1 -22.9,22.1 -23.8,21.7 -2.8,-1.1 -28.2,-18.2 -28,-18.8 0.3,-0.8 22.9,-20 23.5,-20 0.2,0 6.7,3.7 14.3,8.2 z m -61.9,2.9 c 7.4,5.1 13.5,9.3 13.7,9.4 0.6,0.5 -18.2,15 -19.2,14.7 -2.7,-0.8 -28.6,-15.8 -28.4,-16.4 0.4,-0.9 19.1,-16.7 19.9,-16.8 0.3,0 6.6,4.1 14,9.1 z m -46.7,7.5 c 1.7,1.1 1.4,1.5 -3,4.8 l -4.9,3.5 -0.7,-4.2 c -0.3,-2.3 -0.7,-5.5 -0.7,-7 l -0.1,-2.9 3.8,2.3 c 2,1.2 4.5,2.8 5.6,3.5 z m 130.5,2.8 c 0.9,1.1 0.9,4 0.1,11.6 -0.5,5.6 -1,10.6 -1,11.1 0,1.2 -7,8.9 -8.1,8.9 -0.8,0 -16.9,-9.9 -16.9,-10.4 0,-0.9 22.7,-22.6 23.6,-22.6 0.6,0 1.7,0.6 2.3,1.4 z m -108.4,9.7 c 7.9,4.5 14.2,8.5 13.9,9 -0.3,0.5 -6.2,5.3 -13.1,10.6 l -12.6,9.7 -7.6,-4 c -7.6,-4 -7.6,-4 -8.8,-9.4 -0.6,-3 -1.3,-7.2 -1.5,-9.3 -0.2,-3.7 0,-4.1 6.7,-9.2 3.9,-3 7.3,-5.4 7.7,-5.4 0.4,-0.1 7.3,3.6 15.3,8 z m 58,2.4 c 8,5.2 14.5,9.6 14.5,9.9 0,0.2 -3.3,3.3 -7.3,6.9 l -7.3,6.5 -15.8,-8.7 c -8.7,-4.7 -15.8,-9 -15.8,-9.5 0,-0.7 16,-14.5 16.9,-14.6 0.1,0 6.8,4.3 14.8,9.5 z m -20.5,18.4 16,8.8 -8.7,7.5 c -4.9,4.1 -10.3,8.7 -12,10.2 l -3.3,2.8 -17.5,-8.6 c -9.6,-4.7 -17.5,-9 -17.5,-9.4 0,-0.5 5.2,-4.8 11.5,-9.6 6.3,-4.8 11.7,-9.2 12,-9.7 1.2,-1.8 3.5,-0.8 19.5,8 z m 49.7,0.4 8.3,5.3 -6.4,6.3 -6.3,6.2 -9.8,-5.2 -9.9,-5.3 6.9,-6.3 c 3.8,-3.5 7.4,-6.3 8,-6.3 0.5,0 4.7,2.4 9.2,5.3 z m -106.8,13 c -2.5,2 -3.4,1.5 -4.4,-2.6 l -0.7,-2.8 3.7,1.8 3.7,1.7 z m 122.1,-3.7 c 0,1.2 -6.3,13.5 -7.1,14 -0.5,0.3 -2.3,-0.3 -4,-1.2 l -3.2,-1.6 5.9,-5.9 c 5.1,-5.2 8.4,-7.2 8.4,-5.3 z m -33,7.6 9.4,5.1 -10.4,9.8 c -5.8,5.4 -11,9.9 -11.6,9.9 -0.6,0 -5.7,-2.3 -11.4,-5.1 -12,-5.8 -12.4,-3.7 3,-16.8 5.2,-4.5 10,-8.1 10.5,-8.1 0.6,0 5.3,2.3 10.5,5.2 z m -62.9,6.9 18.1,9 -6.9,5.4 c -3.7,3 -8.2,6.2 -10,7.1 -3.8,2.1 -5.4,1.5 -13.1,-5.2 -4.8,-4.2 -14.2,-16.9 -14.2,-19.2 0,-0.9 6.7,-6.2 7.7,-6.2 0.2,0 8.5,4.1 18.4,9.1 z m 81.3,3 3.6,2.1 -2,2.8 c -2.8,3.9 -8.6,8.8 -15.3,12.8 -4.8,2.9 -5.7,3.1 -8.1,2.1 -1.4,-0.7 -2.6,-1.5 -2.6,-1.9 0,-0.8 19.6,-20 20.4,-20 0.3,0 2.1,0.9 4,2.1 z m -45.6,14.2 10.3,5.2 -3.8,3.7 c -2.8,2.7 -5,3.8 -8.3,4.3 -5.1,0.7 -20,-0.9 -25.4,-2.8 l -3.7,-1.3 9.2,-7.2 c 5.1,-4 9.8,-7.2 10.3,-7.1 0.6,0 5.7,2.4 11.4,5.2 z m 18,8.6 c 1,0.6 0.8,1 -1,1.4 -3.6,1 -4.2,0.8 -2.8,-0.8 1.4,-1.7 2,-1.8 3.8,-0.6 z"
       id="path444-4"
       style="fill:#493323;fill-opacity:1;stroke:none;stroke-width:0.1;stroke-opacity:1" /></g></svg>
