<?xml version="1.0" encoding="UTF-8" standalone="no"?>
<svg
   version="1.0"
   width="484.57687pt"
   height="165.17627pt"
   viewBox="0 0 484.57687 165.17627"
   preserveAspectRatio="xMidYMid"
   id="svg522"
   sodipodi:docname="iStock_1321221451_1733912860171 - VŠE.svg"
   inkscape:version="1.2 (dc2aedaf03, 2022-05-15)"
   xml:space="preserve"
   xmlns:inkscape="http://www.inkscape.org/namespaces/inkscape"
   xmlns:sodipodi="http://sodipodi.sourceforge.net/DTD/sodipodi-0.dtd"
   xmlns="http://www.w3.org/2000/svg"
   xmlns:svg="http://www.w3.org/2000/svg"><defs
     id="defs526" /><sodipodi:namedview
     id="namedview524"
     pagecolor="#ffffff"
     bordercolor="#666666"
     borderopacity="1.0"
     inkscape:showpageshadow="2"
     inkscape:pageopacity="0.0"
     inkscape:pagecheckerboard="0"
     inkscape:deskcolor="#d1d1d1"
     inkscape:document-units="pt"
     showgrid="false"
     inkscape:zoom="0.2503158"
     inkscape:cx="7166.9467"
     inkscape:cy="1300.3574"
     inkscape:window-width="1920"
     inkscape:window-height="1001"
     inkscape:window-x="-9"
     inkscape:window-y="-9"
     inkscape:window-maximized="1"
     inkscape:current-layer="svg522" /><metadata
     id="metadata2">
Created by potrace 1.16, written by Peter Selinger 2001-2019
</metadata><g
     id="g2694"
     transform="translate(-3608.0081,-1558.6536)"
     style="fill:#493323;fill-opacity:1;stroke:none;stroke-opacity:1"><path
       d="m 3830.5851,1558.8537 c -39.9,2.3 -67.3,4.7 -75,6.6 -9.2,2.2 -14.6,6.2 -17.4,12.8 -0.8,1.9 -2.1,9.3 -3,16.5 -3.2,25.1 -4.3,29 -9.3,32.2 -2.5,1.6 -7.1,1.9 -49.3,2.4 -51.2,0.6 -52.8,0.8 -60.3,7 -4.9,4 -6.4,7.2 -7.7,15.7 -2,12.5 1.4,28.6 7.1,33.9 5.1,4.7 9.4,5.6 27.7,6.1 16.9,0.4 17.2,0.5 17.2,2.6 0,8.3 9,20.6 18.4,25 10.6,5 24.8,5.3 35.3,0.6 8.9,-3.9 17.4,-14.6 18.9,-23.7 l 0.6,-3.8 h 109.8 109.9 l 1.1,4.4 c 3.5,14 13.8,23.5 28.2,26.1 19.1,3.6 39.8,-10.1 43.4,-28.6 l 0.6,-3.1 20.8,-0.6 c 23,-0.8 27.1,-1.6 31.5,-6.9 3.8,-4.5 4.8,-10 4.7,-24.6 0,-7.2 0.3,-13.2 0.8,-13.2 0.5,0 2.5,-1.6 4.5,-3.5 2.6,-2.7 3.5,-4.4 3.5,-7 0,-4.4 -3.8,-8.9 -9.3,-10.8 -2.3,-0.8 -5.9,-2.6 -8.1,-4 -2.1,-1.5 -5.4,-3 -7.5,-3.4 -4.6,-1 -23.6,-1 -67.6,0.1 -36.6,0.9 -41.4,0.6 -44.8,-3.2 -1.2,-1.3 -2.2,-6.6 -3.7,-18.3 -3.7,-30.5 -3.9,-31.2 -12.5,-35.1 -5,-2.3 -5.1,-2.3 -54,-2.4 -26.9,0 -51.5,0.1 -54.5,0.2 z m 95.1,5.3 c 11.3,1 15.3,2.8 16.8,7.3 0.5,1.8 1.7,9.6 2.6,17.3 3.1,27.4 4.3,30.8 12.2,33.3 6.4,2.1 27.3,2.4 62.8,0.9 30.9,-1.3 46.6,-1 49.5,0.8 0.5,0.3 -0.8,2.3 -3,4.4 -3.2,3.1 -4,4.5 -4,7.4 0,5.2 4.1,9.5 10.5,11.2 l 5,1.2 0.3,11.2 c 0.3,12.8 -0.8,18.3 -4.7,22.1 -3.3,3.4 -6.5,3.8 -29.5,4.2 l -16.9,0.3 -1.4,-5.5 c -2.8,-11 -9.5,-18.6 -20.3,-23.1 -7.9,-3.3 -23,-3.3 -31.3,0 -11,4.3 -20.7,17.1 -20.7,27.1 v 3 h -109.9 -109.9 l -0.7,-3.8 c -1,-5.5 -4.8,-13.3 -8.6,-17.6 -10.7,-12.2 -29.4,-15 -45.5,-6.8 -8.4,4.3 -18.4,18.6 -18.4,26.2 0,1.9 -0.7,1.9 -14.7,1.4 -8.2,-0.3 -16.9,-1 -19.4,-1.5 -8.1,-1.8 -11.5,-7.3 -12.6,-20.5 -1.4,-16.9 2.1,-24.2 13.4,-27.9 5.2,-1.7 10.2,-1.9 51.8,-2.4 53.2,-0.7 50.8,-0.3 55.7,-10.1 2.2,-4.4 3.2,-9.1 5.2,-24.2 2.6,-19.7 3,-21 6.8,-24.4 5.3,-4.8 11.9,-6.1 46.8,-9 31.4,-2.6 113.4,-4.1 132.1,-2.5 z m 159.7,68.6 c 2.1,2.4 2.1,2.9 0.9,4.9 -0.8,1.1 -3.2,2.7 -5.4,3.5 -3.6,1.3 -4.3,1.2 -7.8,-0.5 -6.1,-3 -6.7,-4.9 -2.6,-8.6 3,-2.7 3.9,-3 8,-2.5 3.3,0.4 5.2,1.2 6.9,3.2 z m -374.3,30 c 12.8,5.8 20,21.3 16.2,34.6 -2.4,8.2 -6.7,13.3 -14.5,17.1 -6,3 -7.5,3.3 -15.7,3.3 -7.6,0 -9.9,-0.4 -14.5,-2.6 -11.6,-5.5 -16.5,-12.7 -16.5,-24.4 0,-22.9 23.8,-37.7 45,-28 z m 285.1,-2.4 c 12,2.2 21.1,9.7 24,19.8 3.9,13.4 -3.1,28.3 -16.4,34.8 -5,2.4 -6.9,2.8 -14.7,2.8 -7.6,0 -9.8,-0.4 -13.8,-2.5 -16.7,-8.5 -21.8,-31.2 -10.1,-44.8 4.2,-5 9.8,-8.1 17.4,-9.8 7.1,-1.6 6.7,-1.6 13.6,-0.3 z"
       id="path462-6"
       style="fill:#493323;fill-opacity:1;stroke:none;stroke-width:0.1;stroke-opacity:1" /><path
       d="m 3781.6851,1583.3537 c -16.2,1.2 -15.7,0.6 -16.3,18.1 -0.3,7.9 -0.2,17.4 0.1,21.3 0.9,10.1 0.3,10 33.1,9.9 30.5,0 39.3,-0.7 42.1,-3.5 1.7,-1.7 1.9,-3.5 1.9,-22.2 0,-16 -0.3,-20.7 -1.4,-22.3 -1.3,-1.8 -2.9,-1.9 -24.8,-2.1 -12.8,0 -28.4,0.3 -34.7,0.8 z m 54.9,23.8 v 18.8 l -8.2,0.6 c -10.7,0.9 -50.6,0.9 -54.7,0.1 l -3.1,-0.7 v -17.8 c 0,-17.7 0,-17.9 2.3,-18.4 4.3,-0.9 10.5,-1.2 37,-1.3 l 26.7,-0.2 z"
       id="path464-6"
       style="fill:#493323;fill-opacity:1;stroke:none;stroke-width:0.1;stroke-opacity:1" /><path
       d="m 3859.8851,1582.9537 c -4.5,0.9 -4.8,2.4 -4.7,23.5 0.1,17.1 0.3,20.2 1.7,21.6 1.4,1.3 4.5,1.7 17.7,2 21.1,0.6 44.3,-0.6 46.7,-2.3 1.6,-1.2 1.8,-3.2 1.8,-20.9 0,-16.3 -0.3,-19.8 -1.5,-21.1 -2.2,-2.2 -17.8,-3.5 -40.5,-3.3 -10.4,0 -20,0.3 -21.2,0.5 z m 53,6 4.7,0.6 v 16.7 c 0,16.5 0,16.8 -2.2,17.4 -1.3,0.3 -14.1,0.6 -28.5,0.6 h -26.3 v -17.9 -18 l 4.8,-0.4 c 5.8,-0.6 41,0.2 47.5,1 z"
       id="path466-1"
       style="fill:#493323;fill-opacity:1;stroke:none;stroke-width:0.1;stroke-opacity:1" /><path
       d="m 3782.2851,1645.7537 c -2.1,2.5 -5.4,5.2 -7.3,6 -5.7,2.4 -3.8,6.6 2.4,5 3.8,-0.9 12.2,-9.8 12.2,-13 0,-3.9 -3.1,-3.1 -7.3,2 z"
       id="path468-0"
       style="fill:#493323;fill-opacity:1;stroke:none;stroke-width:0.1;stroke-opacity:1" /><path
       d="m 3878.1851,1643.7537 c -2.4,3.6 -5.7,6.5 -9.3,8 -5.6,2.4 -3.5,6.5 2.4,5 4.1,-1 12.3,-9.6 12.3,-12.9 0,-3.4 -3.2,-3.5 -5.4,-0.1 z"
       id="path470-7"
       style="fill:#493323;fill-opacity:1;stroke:none;stroke-width:0.1;stroke-opacity:1" /><path
       d="m 3691.0851,1683.7537 c -3,2.9 -3.2,7.4 -0.6,10.6 1.5,1.9 2.9,2.4 6.6,2.4 3.7,0 5.1,-0.5 6.6,-2.4 2.5,-3 2.4,-7.2 -0.2,-10.5 -2.8,-3.6 -8.9,-3.7 -12.4,-0.1 z"
       id="path472-5"
       style="fill:#493323;fill-opacity:1;stroke:none;stroke-width:0.1;stroke-opacity:1" /><path
       d="m 3983.7851,1683.5537 c -4.5,4.8 -1.8,12.3 4.9,13.3 4.8,0.8 9.9,-3.3 9.9,-8 0,-7 -9.9,-10.5 -14.8,-5.3 z"
       id="path474-3"
       style="fill:#493323;fill-opacity:1;stroke:none;stroke-width:0.1;stroke-opacity:1" /></g></svg>
