<?xml version="1.0" encoding="UTF-8" standalone="no"?>
<svg
   version="1.0"
   width="153.68434pt"
   height="378.43701pt"
   viewBox="0 0 153.68434 378.43701"
   preserveAspectRatio="xMidYMid"
   id="svg522"
   sodipodi:docname="iStock_1321221451_1733912860171 - VŠE.svg"
   inkscape:version="1.2 (dc2aedaf03, 2022-05-15)"
   xml:space="preserve"
   xmlns:inkscape="http://www.inkscape.org/namespaces/inkscape"
   xmlns:sodipodi="http://sodipodi.sourceforge.net/DTD/sodipodi-0.dtd"
   xmlns="http://www.w3.org/2000/svg"
   xmlns:svg="http://www.w3.org/2000/svg"><defs
     id="defs526" /><sodipodi:namedview
     id="namedview524"
     pagecolor="#ffffff"
     bordercolor="#666666"
     borderopacity="1.0"
     inkscape:showpageshadow="2"
     inkscape:pageopacity="0.0"
     inkscape:pagecheckerboard="0"
     inkscape:deskcolor="#d1d1d1"
     inkscape:document-units="pt"
     showgrid="false"
     inkscape:zoom="0.2503158"
     inkscape:cx="7166.9467"
     inkscape:cy="1300.3574"
     inkscape:window-width="1920"
     inkscape:window-height="1001"
     inkscape:window-x="-9"
     inkscape:window-y="-9"
     inkscape:window-maximized="1"
     inkscape:current-layer="svg522" /><metadata
     id="metadata2">
Created by potrace 1.16, written by Peter Selinger 2001-2019
</metadata><g
     id="g2698"
     transform="translate(-4213.7501,-272.40305)"
     style="fill:#493323;fill-opacity:1;stroke:none;stroke-opacity:1"><path
       d="m 4275.7851,273.8537 c -25.5,5.6 -44.7,22 -54.6,46.7 -5.2,13.1 -6.7,21.1 -7.3,38.7 -0.3,10 -0.1,19.9 0.6,25 3.6,26.9 17,48.2 39.1,62.5 7,4.5 20,9.9 26.6,11 l 4.1,0.6 -3.3,8.2 c -4,9.7 -4.2,12.6 -1.1,15.5 3.5,3.2 6.9,3.6 12.1,1.3 2.5,-1.1 4.6,-1.7 4.6,-1.3 0,2.2 -3.3,12 -6.9,21.1 -5.5,13.6 -7.1,20.7 -7.1,31.7 0,9.8 1.2,15.1 7.9,34.5 7.3,21 7.8,38.1 1.4,50.7 -3.5,7.1 -14.8,18.6 -22.5,23.1 -6.8,3.8 -7.6,4.8 -5.5,6.8 1.3,1.3 1.9,1.2 5.3,-0.5 6.2,-3.2 15.6,-10.6 20,-15.9 9.4,-11.1 12.4,-19.5 12.4,-34.3 0,-12 -1.7,-19.7 -8.2,-38.5 -4.8,-14 -5.1,-15.6 -5.2,-25 -0.1,-11.9 1.1,-17 7.5,-33 2.6,-6.6 5.1,-14.4 5.5,-17.3 l 0.7,-5.3 6.1,0.6 c 15.5,1.7 18.5,-6.2 7.9,-20.2 l -3.2,-4.2 3.7,-1.2 c 6.6,-2.1 16.6,-7.7 22,-12.2 17.8,-14.8 27.4,-37.5 28.9,-68.4 1.5,-33.2 -8.3,-60.1 -29.4,-80.4 -18.6,-17.9 -40.4,-25.1 -62.1,-20.3 z m 30.6,6.9 c 15,4.7 30.3,16.9 40,31.8 10.9,16.7 15.5,33.2 15.5,55.7 0,48.9 -22.1,79.4 -61.5,84.9 -21.3,3 -47.3,-8.6 -63.2,-28.1 -8.9,-10.9 -15.6,-27.7 -17.6,-43.8 -4.3,-35.7 6.3,-70.4 26.6,-87.4 16.5,-13.8 41,-19.2 60.2,-13.1 z m 5.9,184.3 c 2.4,3.5 4.3,7.3 4.3,8.4 0,2 -0.3,2.1 -9,1.5 -8.4,-0.6 -9.5,-0.5 -14,1.8 -2.7,1.4 -6.1,2.5 -7.5,2.5 -3.5,0 -3.3,-3.1 0.6,-12.5 l 3.1,-7.4 5.7,-0.4 c 12.1,-0.8 12,-0.8 16.8,6.1 z"
       id="path130-2"
       style="fill:#493323;fill-opacity:1;stroke:none;stroke-width:0.1;stroke-opacity:1" /><path
       d="m 4337.1851,358.4537 c -0.2,0.7 -0.9,7 -1.5,13.9 -2.1,22.8 -7.6,36.4 -19.6,48.5 -4.7,4.8 -9.2,8.1 -13.8,10.4 -7.8,3.8 -8.5,4.6 -6.4,6.8 1.5,1.4 2.3,1.2 9.4,-2.3 10.5,-5.2 20.4,-15 26,-26 6.9,-13.5 10.7,-30.2 10.1,-44.5 -0.2,-6.2 -0.6,-7.5 -2.1,-7.8 -0.9,-0.2 -1.9,0.2 -2.1,1 z"
       id="path132-4"
       style="fill:#493323;fill-opacity:1;stroke:none;stroke-width:0.1;stroke-opacity:1" /></g></svg>
