<?xml version="1.0" encoding="UTF-8" standalone="no"?>
<svg
   version="1.0"
   width="159.73938pt"
   height="171.83594pt"
   viewBox="0 0 159.73938 171.83594"
   preserveAspectRatio="xMidYMid"
   id="svg522"
   sodipodi:docname="iStock_1321221451_1733912860171 - VŠE.svg"
   inkscape:version="1.2 (dc2aedaf03, 2022-05-15)"
   xml:space="preserve"
   xmlns:inkscape="http://www.inkscape.org/namespaces/inkscape"
   xmlns:sodipodi="http://sodipodi.sourceforge.net/DTD/sodipodi-0.dtd"
   xmlns="http://www.w3.org/2000/svg"
   xmlns:svg="http://www.w3.org/2000/svg"><defs
     id="defs526" /><sodipodi:namedview
     id="namedview524"
     pagecolor="#ffffff"
     bordercolor="#666666"
     borderopacity="1.0"
     inkscape:showpageshadow="2"
     inkscape:pageopacity="0.0"
     inkscape:pagecheckerboard="0"
     inkscape:deskcolor="#d1d1d1"
     inkscape:document-units="pt"
     showgrid="false"
     inkscape:zoom="0.2503158"
     inkscape:cx="7166.9467"
     inkscape:cy="1300.3574"
     inkscape:window-width="1920"
     inkscape:window-height="1001"
     inkscape:window-x="-9"
     inkscape:window-y="-9"
     inkscape:window-maximized="1"
     inkscape:current-layer="svg522" /><metadata
     id="metadata2">
Created by potrace 1.16, written by Peter Selinger 2001-2019
</metadata><g
     id="g2735"
     transform="translate(-3946.8457,-840.39511)"
     style="fill:#493323;fill-opacity:1;stroke:none;stroke-opacity:1"><path
       d="m 4003.7851,842.1537 c -6.2,2.1 -8.9,4.4 -10.8,9 -2,4.7 -1.7,15.4 0.6,23.6 l 1.9,7 -3.7,3.8 -3.8,3.8 -4.6,-2.1 c -16.3,-7.2 -29.2,-6 -33.8,3 -3.3,6.5 -3.6,12.1 -1,17.5 2.8,5.9 6.9,8.5 13.3,8.5 5.7,0 8.7,-1.4 8.7,-4 0,-1.7 -0.7,-1.9 -6.6,-1.7 -6.1,0.2 -6.7,0 -9,-2.6 -4.2,-4.8 -2.7,-15.9 2.5,-18.7 4.3,-2.2 14.3,-1 23.6,3 l 4.4,1.9 -1.4,3.5 c -4.2,10 -3.8,25.3 1.2,40.9 1.3,4.3 2.3,8.1 2.1,8.3 -0.3,0.2 -4.9,0.9 -10.4,1.5 -10.9,1.4 -13.9,2.8 -11.2,5.5 1.4,1.4 2.6,1.4 13.4,-0.1 11.3,-1.7 11.9,-1.7 12.9,0 0.5,1 3.8,5.6 7.2,10.1 l 6.1,8.3 -4.4,8.6 c -5,9.7 -5.9,15.5 -2.4,15.5 1.1,0 2.3,-0.8 2.6,-1.8 1.6,-4.8 5.7,-14 7.3,-16.1 l 1.8,-2.4 2.9,2 c 1.6,1.1 5.3,3.2 8.2,4.7 4,2 5.2,3.1 4.8,4.4 -1.4,4.6 -3.6,16.8 -3.6,20.2 0,7.1 4.4,6.4 5.3,-0.8 0.3,-2.6 1.3,-8 2.2,-12 1.6,-6.8 1.9,-7.3 3.9,-6.8 5.7,1.7 18.3,1.8 24.9,0.2 9.2,-2.2 13.6,-4.6 18.9,-10.5 8.1,-9 12.6,-22.6 11.3,-33.6 l -0.7,-5.3 7.3,-1.2 c 8.4,-1.4 10.9,-2.4 10.9,-4.6 0,-2.4 -2.2,-2.6 -10.9,-1.1 -7.5,1.3 -8.3,1.3 -8.8,-0.2 -1.8,-5.2 -7.6,-16.8 -10.9,-21.6 l -3.7,-5.7 6.8,-6.2 c 5,-4.6 6.7,-6.7 6.2,-7.9 -1.1,-2.8 -3,-2 -10.2,4.2 l -6.9,5.8 -6.1,-4.6 c -4.9,-3.7 -9.1,-6.3 -16.3,-9.8 -0.2,0 0.8,-3.8 2.2,-8.2 3.6,-11.2 4.2,-15.7 2.4,-16.4 -2.7,-1 -3.8,0.8 -6.7,11.1 -1.5,5.7 -3,10.5 -3.3,10.7 -0.2,0.2 -3.3,-0.5 -6.8,-1.7 -5.2,-1.8 -9.1,-2.2 -20,-2.3 l -13.5,-0.2 -1.7,-6.9 c -2,-8.6 -2.2,-13.5 -0.5,-17.7 1.8,-4.2 3.3,-5.3 8.8,-6.8 7.8,-2.1 11.2,0.1 12.1,8.1 0.2,1.7 0.9,2.5 2.3,2.5 1.7,0 2,-0.8 2.3,-4.6 0.3,-5.3 -2.2,-9.3 -7.4,-11.5 -4.3,-1.8 -5.8,-1.7 -12.2,0.5 z m 27.7,44.1 c 6,1.7 14.4,5.1 16,6.6 0.2,0.2 -1.8,4.7 -4.4,10.1 -6.7,13.5 -15.5,22.3 -28.7,28.7 -5.1,2.4 -12.3,5.1 -16.1,5.9 -7.7,1.7 -7.3,2 -9.8,-6.8 -1.7,-6.2 -1.8,-23.6 -0.2,-29.1 2.7,-8.9 9.1,-15.5 16.7,-17.5 4.8,-1.3 18.3,-0.2 26.5,2.1 z m 33.7,19.2 c 19.9,21 23.9,49.3 9.6,67.7 -1.8,2.3 -1.9,2.3 -5.2,0.6 -12.5,-6.5 -33.1,-25.7 -41.5,-38.7 l -1.7,-2.8 7.4,-7.4 c 5.9,-5.8 14.8,-18 14.8,-20.1 0,-0.2 0.9,-2.4 2,-5 l 2,-4.6 4.2,3 c 2.4,1.6 6.1,4.9 8.4,7.3 z m -39.5,35.5 c 9.4,12.7 29.6,31.5 39.4,36.6 l 3,1.6 -4,1.7 c -2.5,1.1 -7.7,1.9 -14.2,2.2 -8.4,0.4 -11.3,0.1 -17,-1.6 -14.4,-4.5 -26.2,-14.2 -35.1,-29.2 -2.4,-4 -4.1,-7.4 -3.9,-7.7 0.3,-0.2 3.1,-1 6.3,-1.8 3.3,-0.8 9.1,-2.7 12.9,-4.3 3.9,-1.7 7.3,-3 7.6,-3.1 0.4,-0.1 2.6,2.5 5,5.6 z"
       id="path306-7"
       style="fill:#493323;fill-opacity:1;stroke:none;stroke-width:0.1;stroke-opacity:1" /><path
       d="m 4016.7851,894.4537 c -1.7,1.7 -1.5,6.4 0.4,8.2 2.1,2.1 4.7,2 6.8,-0.3 1.8,-2 1.5,-5.1 -0.6,-7.9 -1.3,-1.5 -5,-1.6 -6.6,0 z"
       id="path308-7"
       style="fill:#493323;fill-opacity:1;stroke:none;stroke-width:0.1;stroke-opacity:1" /><path
       d="m 3997.0851,909.8537 c -1.7,1.8 -1.4,5.6 0.7,8.1 1.3,1.6 5,1.7 6.6,0.1 1.8,-1.8 1.4,-6.3 -0.6,-8.1 -2.3,-2.1 -4.6,-2.1 -6.7,-0.1 z"
       id="path310-7"
       style="fill:#493323;fill-opacity:1;stroke:none;stroke-width:0.1;stroke-opacity:1" /><path
       d="m 4053.0851,915.2537 c -2.1,2.3 -1.5,4.3 1.9,6.5 5.1,3.4 9.4,-3.4 4.4,-6.9 -2.9,-2.1 -4.1,-2 -6.3,0.4 z"
       id="path312-3"
       style="fill:#493323;fill-opacity:1;stroke:none;stroke-width:0.1;stroke-opacity:1" /><path
       d="m 4048.3851,936.3537 c -2.1,1.2 -2.4,5.9 -0.6,7.7 0.7,0.7 2.1,1.2 3.3,1.2 4.5,0 5.9,-4.6 2.5,-8 -2.3,-2.3 -2.8,-2.4 -5.2,-0.9 z"
       id="path314-6"
       style="fill:#493323;fill-opacity:1;stroke:none;stroke-width:0.1;stroke-opacity:1" /><path
       d="m 4066.7851,943.4537 c -2.5,2.5 -0.4,8.8 2.9,8.8 2.3,0 4.9,-2.2 4.9,-4.1 0,-5 -4.7,-7.8 -7.8,-4.7 z"
       id="path316-8"
       style="fill:#493323;fill-opacity:1;stroke:none;stroke-width:0.1;stroke-opacity:1" /><path
       d="m 4009.8851,950.9537 c -2.2,0.8 -1.6,7.1 0.7,8.3 4.7,2.5 8.5,-2 5.6,-6.5 -1.6,-2.4 -3.6,-3 -6.3,-1.8 z"
       id="path318-7"
       style="fill:#493323;fill-opacity:1;stroke:none;stroke-width:0.1;stroke-opacity:1" /><path
       d="m 4032.6851,967.3537 c -1.6,4.6 1.1,8.6 5.3,7.5 4.8,-1.2 3.5,-8.8 -1.7,-9.4 -2.1,-0.3 -2.9,0.2 -3.6,1.9 z"
       id="path320-3"
       style="fill:#493323;fill-opacity:1;stroke:none;stroke-width:0.1;stroke-opacity:1" /></g></svg>
