<?xml version="1.0" encoding="UTF-8" standalone="no"?>
<svg
   version="1.0"
   width="183.5pt"
   height="195.73389pt"
   viewBox="0 0 183.5 195.73388"
   preserveAspectRatio="xMidYMid"
   id="svg522"
   sodipodi:docname="iStock_1321221451_1733912860171 - VŠE.svg"
   inkscape:version="1.2 (dc2aedaf03, 2022-05-15)"
   xml:space="preserve"
   xmlns:inkscape="http://www.inkscape.org/namespaces/inkscape"
   xmlns:sodipodi="http://sodipodi.sourceforge.net/DTD/sodipodi-0.dtd"
   xmlns="http://www.w3.org/2000/svg"
   xmlns:svg="http://www.w3.org/2000/svg"><defs
     id="defs526" /><sodipodi:namedview
     id="namedview524"
     pagecolor="#ffffff"
     bordercolor="#666666"
     borderopacity="1.0"
     inkscape:showpageshadow="2"
     inkscape:pageopacity="0.0"
     inkscape:pagecheckerboard="0"
     inkscape:deskcolor="#d1d1d1"
     inkscape:document-units="pt"
     showgrid="false"
     inkscape:zoom="0.2503158"
     inkscape:cx="7166.9467"
     inkscape:cy="1300.3574"
     inkscape:window-width="1920"
     inkscape:window-height="1001"
     inkscape:window-x="-9"
     inkscape:window-y="-9"
     inkscape:window-maximized="1"
     inkscape:current-layer="svg522" /><metadata
     id="metadata2">
Created by potrace 1.16, written by Peter Selinger 2001-2019
</metadata><g
     id="g2847"
     transform="translate(-5789.0852,-463.36859)"
     style="fill:#493323;fill-opacity:1;stroke:none;stroke-opacity:1"><path
       d="m 5932.7851,465.9537 c -1,1.6 -3.1,5 -4.6,7.6 l -2.7,4.8 -4.3,-2.5 c -14,-8.2 -35.6,-10.8 -55.6,-6.6 -5.7,1.2 -14.7,3.7 -20,5.7 -20.5,7.6 -56.5,28.5 -56.5,32.8 0,1.7 0.6,2 4.5,1.8 9.9,-0.5 17.4,4.1 21.6,13.2 2.9,6 3.2,16.5 0.9,22.2 -1.3,3.2 -1.4,3.9 -0.1,5.1 1.1,1.1 1.8,1.2 3.6,0.2 3.7,-2 13.5,-3 17.7,-1.7 10.2,3 20.3,12.5 26.1,24.5 2.8,6 3.8,7.3 5.4,6.9 2.4,-0.7 3.2,-2.6 -8.6,20.2 -7.1,13.7 -10.4,19.1 -11.7,19.1 -3.7,0 -5.1,1.5 -10.5,11.1 -5.6,10.1 -8.6,12.9 -13.7,12.9 -4.3,0 -9,-4.1 -11,-9.5 -3,-8.2 -7.6,-9.8 -12.8,-4.6 -3.5,3.6 -3.6,6 -0.5,12.6 6.2,13.1 20,20 33,16.4 5.2,-1.4 13.6,-9.5 19.1,-18.3 5.4,-8.7 6.2,-11.8 4.2,-15 -1.6,-2.3 -1.2,-3.2 10.1,-25 l 11.7,-22.6 h 4.1 c 5.5,0 11.9,2.4 17.5,6.4 4.8,3.5 11.3,12.3 13.1,17.8 1.5,4.8 3.5,6.1 6.3,4.2 3.6,-2.3 8.5,-3.5 15.3,-3.5 8.7,0 17.3,4 23.3,11 6.5,7.6 7.4,7.1 10.7,-6.4 2.7,-10.5 4.2,-22.9 4.2,-33.3 0,-16.9 -5.6,-40.4 -13.2,-55.6 -5,-9.9 -16.1,-24.6 -23.3,-30.9 -3,-2.7 -5.5,-5.2 -5.5,-5.6 0,-0.5 1.9,-4 4.1,-8 3.4,-5.8 3.9,-7.4 2.9,-8.6 -1.8,-2.1 -2.6,-1.9 -4.8,1.2 z m -29.7,8.7 c 2.8,0.7 6.8,2.1 9,3.1 l 4,1.7 -6.9,2.3 c -19.9,6.8 -45.8,23.8 -82.6,54.2 l -2.7,2.2 -0.6,-6.5 c -1.3,-13.2 -8.6,-23.1 -20.2,-26.9 -1.6,-0.5 -0.8,-1.3 4.5,-4.7 21.9,-13.9 46.9,-24.1 66,-26.9 7.2,-1 23.2,-0.2 29.5,1.5 z m 7,28.5 c -16.2,24.8 -28,43.7 -35.1,56.1 -3.1,5.5 -6.1,10 -6.5,10 -0.5,0 -1.8,-1.8 -2.9,-4.1 -3,-5.8 -13.6,-15.9 -20,-19.2 -3.1,-1.5 -8.2,-3.1 -11.5,-3.5 l -6,-0.7 10.5,-8.6 c 31,-25.5 63.5,-45.3 78,-47.8 3,-0.5 5.6,-0.9 5.7,-1 0.1,0 -5.4,8.4 -12.2,18.8 z m 20.9,17.6 c 0,17 -0.5,23.5 -2.2,34 -2.5,14.3 -5.8,27.8 -9.2,36.8 l -2.2,5.9 -2.8,-4.9 c -3.8,-6.7 -12.9,-14.9 -19.7,-18 -4.3,-1.8 -7.7,-2.5 -13,-2.7 -4,0 -7.3,-0.4 -7.3,-0.7 0,-1.9 31,-51.5 47.4,-75.9 l 5,-7.5 2,6 c 1.8,5.3 2,8.6 2,27 z m 12.6,-17.5 c 10.9,14.4 19.3,34.5 22,53.1 1.7,11.4 0.9,35.9 -1.5,45.5 l -1.8,7.1 -6.2,-4.7 c -7.9,-6 -16.6,-8.6 -26,-7.7 -3.6,0.4 -6.5,0.5 -6.5,0.3 0,-0.1 1.1,-3.6 2.5,-7.7 8,-23.2 12.6,-59 10.5,-81.3 -0.5,-6.3 -1.3,-12.3 -1.7,-13.3 -1.2,-3.2 2.4,0.4 8.7,8.7 z m -93,123.6 c 1.7,1.9 -0.7,7.1 -7.4,16.1 -8,11 -18.4,13.8 -28.1,7.8 -5.6,-3.5 -11.5,-11.5 -11.5,-15.5 0,-3.5 2.9,-5 3.7,-2 2.4,9.1 9.1,15 17.1,15 7.9,0 12.2,-3.6 18.8,-16 3.9,-7.2 5.2,-8.1 7.4,-5.4 z"
       id="path184-2"
       style="fill:#493323;fill-opacity:1;stroke:none;stroke-width:0.1;stroke-opacity:1" /></g></svg>
