<?xml version="1.0" encoding="UTF-8" standalone="no"?>
<svg
   version="1.0"
   width="441.37875pt"
   height="447.32422pt"
   viewBox="0 0 441.37875 447.32421"
   preserveAspectRatio="xMidYMid"
   id="svg522"
   sodipodi:docname="iStock_1321221451_1733912860171 - VŠE.svg"
   inkscape:version="1.2 (dc2aedaf03, 2022-05-15)"
   xml:space="preserve"
   xmlns:inkscape="http://www.inkscape.org/namespaces/inkscape"
   xmlns:sodipodi="http://sodipodi.sourceforge.net/DTD/sodipodi-0.dtd"
   xmlns="http://www.w3.org/2000/svg"
   xmlns:svg="http://www.w3.org/2000/svg"><defs
     id="defs526" /><sodipodi:namedview
     id="namedview524"
     pagecolor="#ffffff"
     bordercolor="#666666"
     borderopacity="1.0"
     inkscape:showpageshadow="2"
     inkscape:pageopacity="0.0"
     inkscape:pagecheckerboard="0"
     inkscape:deskcolor="#d1d1d1"
     inkscape:document-units="pt"
     showgrid="false"
     inkscape:zoom="0.2503158"
     inkscape:cx="7166.9467"
     inkscape:cy="1300.3574"
     inkscape:window-width="1920"
     inkscape:window-height="1001"
     inkscape:window-x="-9"
     inkscape:window-y="-9"
     inkscape:window-maximized="1"
     inkscape:current-layer="svg522" /><metadata
     id="metadata2">
Created by potrace 1.16, written by Peter Selinger 2001-2019
</metadata><g
     id="g2725"
     transform="translate(-3828.5852,-1027.4147)"
     style="fill:#493323;fill-opacity:1;stroke:none;stroke-opacity:1"><path
       d="m 4216.5851,1029.2537 c -10.7,2.3 -19.9,6.1 -26.8,11 -5.7,4.2 -14.3,13.3 -16.7,18 -1.3,2.5 -2.1,2.8 -8.2,3.5 -13.8,1.5 -25.6,7.7 -36,19 l -6.8,7.3 -5.7,-1.4 c -19.9,-5.1 -40,12.7 -38.6,34.1 0.5,8.6 3.9,13.4 12.2,17.5 6.5,3.2 9.6,3.2 9.6,-0.1 0,-1.2 -1.6,-2.5 -4.7,-3.9 -11.5,-5.1 -14.4,-13.2 -9.3,-26.4 4.1,-10.8 18.8,-18.6 29.7,-15.7 l 4.1,1.1 -2.4,5.9 c -8.4,20.9 -2.6,36 13.4,34.8 5.9,-0.4 9.4,-2.5 13,-7.7 5.1,-7.6 1,-20.5 -9.8,-30.3 l -6,-5.4 5.2,-5.8 c 8.3,-9.2 19.3,-15.3 31.2,-17 l 4.5,-0.7 -2,6.2 c -4.5,14.5 -0.7,27.5 9.5,32.1 8.2,3.7 17.9,1.4 23.2,-5.6 2.3,-3 2.9,-5 3.2,-10.2 0.6,-8.3 -1.6,-13.9 -7.2,-19.1 -3.7,-3.4 -13.5,-8.2 -16.7,-8.2 -1.4,0 1.6,-4.6 6.1,-9.6 14.8,-16.3 44.1,-24 61.1,-16.2 7.4,3.4 12.3,7.9 15.3,14.1 4.8,9.9 4.4,18 -1.3,25.1 -4.8,6.1 -1.2,9.4 4.2,3.8 12.1,-12.6 5.3,-37.3 -13,-46.9 -10.5,-5.6 -19.8,-6.5 -34.3,-3.3 z m -32,41.1 c 8.5,3.8 12.2,9.2 12.3,17.4 0.1,8.2 -4.9,13.5 -12.8,13.5 -10.3,0 -15.7,-9.3 -13,-22.5 0.8,-3.5 1.9,-7.3 2.5,-8.4 1.4,-2.7 5.1,-2.7 11,0 z m -51.5,33 c 7.1,8.5 8.5,17 3.6,22 -3.9,3.9 -10.9,4.1 -14.6,0.5 -4.4,-4.4 -4.3,-14.6 0.5,-25.2 l 2,-4.6 2.9,2.1 c 1.6,1.2 4.1,3.5 5.6,5.2 z"
       id="path356-1"
       style="fill:#493323;fill-opacity:1;stroke:none;stroke-width:0.1;stroke-opacity:1" /><path
       d="m 4050.0851,1151.1537 c -1.2,0.5 -2.6,1.5 -3.2,2.2 -0.9,1.2 -7.2,25.4 -9.8,37.7 -0.4,2.2 -1.3,3.3 -2.8,3.6 -1.2,0.3 -20.4,1.6 -42.7,3.1 -38.8,2.5 -67.4,4.7 -78.8,6.1 l -5.4,0.7 -23.2,29.1 c -12.7,16 -30.5,38.4 -39.4,49.7 l -16.2,20.7 6,59.3 c 7.4,73.6 9.9,96.9 10.6,99.1 0.7,2.4 -0.1,2.2 38.4,6.3 64.5,6.7 58.6,6.5 133.5,5.4 78.5,-1 112.3,-2.3 114.1,-4.2 0.7,-0.6 3.5,-15.4 6.3,-32.7 5,-31.1 18.4,-117.2 19.6,-126.1 0.7,-4.5 0.6,-4.7 -19.8,-38.5 -21.9,-36.4 -38,-62.5 -45.9,-74.2 l -4.9,-7.3 -8.7,0.7 -8.7,0.6 1.6,-17.3 c 1,-10.8 1.2,-18.1 0.6,-19.2 -0.5,-1 -2.3,-2.5 -4.1,-3.2 -4.2,-1.8 -14.5,-2.7 -17.1,-1.6 z m 12,6.2 c 4,1 4.4,1.4 4,3.8 -0.2,1.4 -1.9,18.3 -3.7,37.5 l -3.2,34.9 -10.9,-0.7 c -12,-0.8 -13.7,-1.2 -13.7,-3.2 0,-1.8 13.6,-61.5 15.5,-68.2 1.4,-4.8 1.8,-5.2 4.6,-5.2 1.7,0 5,0.5 7.4,1.1 z m 25.3,45.6 c 6.5,9.7 23.5,37.1 43.3,70 17.3,28.7 18.7,31.3 16.6,31.7 -4.5,0.9 -187.1,6.6 -187.8,5.9 -0.9,-1.1 -46,-100.6 -45.7,-100.9 0.6,-0.5 38,-3.5 73.8,-5.9 20.6,-1.3 39.6,-2.7 42.3,-2.9 2.7,-0.3 4.7,-0.1 4.7,0.5 0,0.5 -1.6,8 -3.6,16.6 -3.1,13.6 -3.3,15.8 -2.1,17.1 1.9,1.9 7.6,2.9 21.7,3.7 9.3,0.6 11.8,0.4 12.7,-0.7 0.7,-0.8 1.9,-8.6 2.8,-17.3 2.3,-24.2 1.7,-22.3 7.3,-22.8 10.7,-0.8 9.8,-1.1 14,5 z m -156.4,59.2 c 11.9,26.1 21.4,47.7 21.1,47.9 -0.2,0.2 -6.4,-0.1 -13.7,-0.7 -7.3,-0.6 -32.8,-2.5 -56.7,-4.1 -23.8,-1.6 -43.5,-3 -43.6,-3.2 -0.4,-0.3 5.3,-7.6 43.3,-55.6 14.6,-18.4 26.8,-33 27.2,-32.5 0.5,0.4 10.6,22.1 22.4,48.2 z m -54.4,48.6 c 36.9,2.5 77.3,5.5 77.7,5.9 0.1,0.1 -0.4,7.8 -1.2,17.1 -0.8,9.4 -3,40.4 -4.9,69 -2,28.6 -3.8,55.2 -4.1,59 l -0.6,7.1 -12.2,-1.2 c -6.7,-0.7 -12.7,-1.3 -13.4,-1.3 -0.6,-0.1 -0.9,-0.9 -0.7,-1.9 1.2,-5.1 11.4,-101.7 10.9,-103.2 -0.3,-1.1 -2,-2.3 -3.8,-2.9 -5.4,-1.7 -23,-3.1 -39.7,-3.1 -13.5,0 -16.1,0.2 -17.5,1.7 -1.5,1.5 -1.6,3.7 -1.1,21.2 2.1,62.6 2.7,80.7 3.2,82 0.3,1.1 -0.7,1.2 -5.3,0.7 -13.2,-1.5 -13.2,-1.5 -13.8,-4.9 -0.6,-3.8 -6.1,-56.6 -11,-105.7 -1.9,-19.5 -3.7,-37 -3.9,-38.8 -0.4,-2.8 -0.2,-3.2 1.7,-3.2 1.2,0 19.1,1.1 39.7,2.5 z m 274.4,2.2 c -0.2,1.6 -3.8,24.4 -7.9,50.8 -16,104 -15.5,101.4 -18.4,101.9 -3.4,0.7 -70.5,2.4 -129,3.2 l -46.4,0.6 0.7,-9.3 c 0.4,-5.2 2.2,-32.1 4.1,-59.9 4.8,-68.9 5.7,-80.7 6.5,-82 0.5,-0.9 20.6,-1.9 70.1,-3.6 38.2,-1.3 79.1,-2.8 90.9,-3.2 11.8,-0.5 23.4,-1 25.7,-1 4.1,-0.2 4.2,-0.1 3.7,2.5 z m -238.4,49.5 c 5.2,0.5 9.6,1.1 9.8,1.3 0.4,0.4 -10.9,100.9 -11.4,101.4 -0.7,0.7 -34.8,-2.9 -35.6,-3.7 -0.6,-0.7 -2.2,-35 -3.4,-77.4 l -0.7,-22.6 2.4,-0.5 c 3.4,-0.7 27.7,0.2 38.9,1.5 z"
       id="path380-8"
       style="fill:#493323;fill-opacity:1;stroke:none;stroke-width:0.1;stroke-opacity:1" /><path
       d="m 4070.0851,1213.3537 c -0.4,0.5 4.9,13 11.8,27.7 6.9,14.7 14.2,30.2 16.1,34.5 2.7,6 4,7.8 5.3,7.5 1,-0.2 1.9,-1.2 2.1,-2.4 0.3,-1.9 -8.5,-21.7 -24.6,-55.7 -4.8,-10 -6.5,-12.7 -8.1,-12.7 -1.1,0 -2.3,0.5 -2.6,1.1 z"
       id="path382-1"
       style="fill:#493323;fill-opacity:1;stroke:none;stroke-width:0.1;stroke-opacity:1" /><path
       d="m 3956.1851,1220.0537 c -0.5,1.6 21.9,61.4 26.7,71.2 1.5,3.1 2.8,4.5 4.2,4.5 1.5,0 2,-0.6 1.8,-2.5 -0.1,-2.7 -26.8,-71.7 -28.5,-73.8 -1.5,-1.7 -3.6,-1.5 -4.2,0.6 z"
       id="path384-9"
       style="fill:#493323;fill-opacity:1;stroke:none;stroke-width:0.1;stroke-opacity:1" /><path
       d="m 3997.9851,1222.5537 c -0.4,1.2 17.7,49.8 21.8,58.4 1.6,3.4 5.8,4.5 5.8,1.5 0,-1 -5.1,-15.1 -11.4,-31.3 -9.6,-24.7 -11.7,-29.5 -13.5,-29.7 -1.2,-0.2 -2.4,0.3 -2.7,1.1 z"
       id="path386-8"
       style="fill:#493323;fill-opacity:1;stroke:none;stroke-width:0.1;stroke-opacity:1" /><path
       d="m 4053.8851,1250.8537 c -0.6,1.7 10.1,36.9 11.9,39.1 1.8,2.2 4.8,1.6 4.8,-1 0,-2.2 -10.9,-36.1 -12.4,-38.5 -1,-1.7 -3.5,-1.5 -4.3,0.4 z"
       id="path388-2"
       style="fill:#493323;fill-opacity:1;stroke:none;stroke-width:0.1;stroke-opacity:1" /><path
       d="m 4028.7851,1358.3537 c -17.6,0.4 -22.5,0.8 -23.5,2 -1.1,1.1 -1,7.8 0.5,37.9 1,20.1 2.3,37.5 2.8,38.8 l 1,2.2 40.2,-0.2 40.3,-0.3 0.5,-38.5 c 0.3,-21.2 0.2,-39.3 -0.3,-40.2 -0.6,-1.5 -3,-1.8 -20,-2 -10.5,-0.2 -29.2,-0.1 -41.5,0.3 z m 56.3,6.1 c 0.3,0.3 0.2,6.5 -0.1,13.8 l -0.7,13.3 -15.6,-0.8 c -8.6,-0.4 -15.6,-0.8 -15.6,-0.8 -0.1,-0.1 0.1,-6.2 0.3,-13.6 l 0.4,-13.4 15.4,0.5 c 8.5,0.3 15.6,0.7 15.9,1 z m -37.5,12.4 v 12.7 l -17.7,-0.7 c -9.8,-0.4 -18,-1 -18.3,-1.2 -0.6,-0.7 -1.7,-22.4 -1.1,-23 0.2,-0.2 8.7,-0.4 18.8,-0.4 h 18.3 z m -7.2,18.3 6.2,0.1 v 12.9 c 0,7 -0.3,15.6 -0.6,19 l -0.7,6.1 h -15.7 -15.8 l -0.6,-7.3 c -0.3,-3.9 -0.8,-12.8 -1.2,-19.7 l -0.6,-12.5 11.3,0.7 c 6.3,0.3 14.2,0.7 17.7,0.7 z m 34.5,1.8 9.7,0.6 v 17.9 17.8 h -16.7 -16.6 l 0.6,-10.7 c 0.4,-5.8 0.7,-14.1 0.7,-18.5 v -7.8 h 6.3 c 3.4,0 10.6,0.3 16,0.7 z"
       id="path390-6"
       style="fill:#493323;fill-opacity:1;stroke:none;stroke-width:0.1;stroke-opacity:1" /></g></svg>
