<?xml version="1.0" encoding="UTF-8" standalone="no"?>
<svg
   version="1.0"
   width="319.63135pt"
   height="323.89355pt"
   viewBox="0 0 319.63135 323.89355"
   preserveAspectRatio="xMidYMid"
   id="svg522"
   sodipodi:docname="iStock_1321221451_1733912860171 - VŠE.svg"
   inkscape:version="1.2 (dc2aedaf03, 2022-05-15)"
   xml:space="preserve"
   xmlns:inkscape="http://www.inkscape.org/namespaces/inkscape"
   xmlns:sodipodi="http://sodipodi.sourceforge.net/DTD/sodipodi-0.dtd"
   xmlns="http://www.w3.org/2000/svg"
   xmlns:svg="http://www.w3.org/2000/svg"><defs
     id="defs526" /><sodipodi:namedview
     id="namedview524"
     pagecolor="#ffffff"
     bordercolor="#666666"
     borderopacity="1.0"
     inkscape:showpageshadow="2"
     inkscape:pageopacity="0.0"
     inkscape:pagecheckerboard="0"
     inkscape:deskcolor="#d1d1d1"
     inkscape:document-units="pt"
     showgrid="false"
     inkscape:zoom="0.2503158"
     inkscape:cx="7166.9467"
     inkscape:cy="1300.3574"
     inkscape:window-width="1920"
     inkscape:window-height="1001"
     inkscape:window-x="-9"
     inkscape:window-y="-9"
     inkscape:window-maximized="1"
     inkscape:current-layer="svg522" /><metadata
     id="metadata2">
Created by potrace 1.16, written by Peter Selinger 2001-2019
</metadata><g
     id="g2841"
     transform="translate(-5903.7839,-975.25356)"
     style="fill:#493323;fill-opacity:1;stroke:none;stroke-opacity:1"><path
       d="m 6053.0851,979.5537 c -38.2,32.3 -149.7,131.7 -149.3,132.9 0.8,2.2 3.5,2.7 18,3.4 l 14.7,0.6 0.5,6.2 c 0.3,3.3 1.2,22.3 2.1,42.1 1.8,40.6 5,97.5 6.5,114 0.6,6.5 1.5,11.4 2.3,12.2 4,4.1 56.1,7.1 136.7,8 59.1,0.6 77,-0.1 80.1,-3.4 2.4,-2.5 4.2,-15.7 16.9,-122.8 3.3,-28.1 6.3,-52.2 6.6,-53.7 l 0.5,-2.6 12.7,-0.7 c 18.2,-1.1 21.6,-1.7 22,-3.9 0.2,-1 -0.6,-2.5 -2,-3.4 -9.6,-6.7 -95.4,-77.4 -143.2,-118 -9.8,-8.4 -18.3,-15.2 -19,-15.2 -0.6,0 -3.3,1.9 -6.1,4.3 z m 45.1,34.8 c 39.4,33.2 81.1,67.7 100.7,83.4 12.9,10.2 13.7,11 11.2,11.6 -3.6,1 -55,2.7 -102,3.4 -46.3,0.7 -192.5,-1.6 -194.3,-3 -0.4,-0.3 93.9,-83.7 139.3,-123.1 l 5.9,-5.2 2.7,2.2 c 1.5,1.1 17.9,15 36.5,30.7 z m -58.1,103.5 c 47.9,0.3 99.4,0.1 114.5,-0.3 15.1,-0.5 27.7,-0.8 27.8,-0.7 0.4,0.3 -14.5,125.4 -18.4,154.9 -1.4,10.4 -2.9,19.4 -3.4,19.9 -1.8,1.8 -45.7,2.9 -85.2,2 -21.8,-0.5 -39.9,-1.2 -40.3,-1.6 -0.4,-0.3 0.1,-20.3 1,-44.5 2,-52.8 2,-53.3 -1.8,-55.1 -4.7,-2.3 -23.5,-3.4 -37.1,-2.3 -14.6,1.2 -18.4,2.3 -19.3,5.9 -0.6,2.6 2.2,79 3.4,89 l 0.5,5.3 -7.3,-0.6 c -8.5,-0.7 -22.2,-2.4 -22.5,-2.8 -1.1,-1 -6.5,-94.9 -9,-154.6 l -0.7,-16.4 5.4,0.6 c 3,0.4 44.6,0.9 92.4,1.3 z m -13.2,78.3 c 2.6,0.4 4.9,1 5.1,1.2 0.7,0.7 -2.9,93.8 -3.7,94.5 -0.7,0.7 -40.4,-1 -41.1,-1.7 -0.2,-0.2 -1.1,-17.5 -2,-38.4 -0.9,-20.9 -1.8,-41.7 -2,-46.2 l -0.5,-8.2 4.7,-0.6 c 2.6,-0.4 5.2,-0.8 5.7,-1 2,-0.7 29.1,-0.4 33.8,0.4 z"
       id="path350-1"
       style="fill:#493323;fill-opacity:1;stroke:none;stroke-width:0.1;stroke-opacity:1" /><path
       d="m 6047.6851,1030.3537 c -7.8,4.1 -13.9,11.1 -17.1,19.6 -2.8,7.4 -2.5,18.6 0.8,24.9 8.6,16.7 35.4,21 50,7.9 5.6,-5.1 7.7,-8.9 9.4,-17.1 2.1,-10.4 -1.4,-21.4 -9.4,-29.1 -5.6,-5.4 -12.6,-8.5 -20.8,-9.1 -5.9,-0.4 -7.1,-0.1 -12.9,2.9 z m 8.3,6.6 c -0.2,2.1 -0.6,7.7 -1,12.5 l -0.6,8.8 h -9.9 c -9.7,0 -9.9,0 -9.9,-2.4 0,-3.1 4.4,-11.3 8.3,-15.3 3,-3.2 10,-7.3 12.4,-7.3 0.7,0 1,1.4 0.7,3.7 z m 15.4,-1.1 c 3.2,1.6 6.6,4.4 8.6,7 3.4,4.4 6.5,12.9 5.2,14.2 -0.4,0.4 -6.1,0.9 -12.7,1 l -11.9,0.4 v -6.5 c 0,-3.5 0.3,-9.2 0.6,-12.6 0.6,-5.4 0.9,-6.1 2.8,-6.1 1.2,0 4.6,1.2 7.4,2.6 z m -16.8,37.9 c 0,11.9 -0.1,12 -7.5,8.6 -6.9,-3.1 -11,-8.3 -12.9,-16.4 l -0.6,-2.7 h 10.5 10.5 z m 30.6,-7.3 c -1.8,9.2 -10.5,16.8 -20.8,18.3 l -4.8,0.7 v -7.3 c 0,-4.1 0.3,-9.1 0.6,-11.2 l 0.7,-3.7 h 12.5 12.5 z"
       id="path352-1"
       style="fill:#493323;fill-opacity:1;stroke:none;stroke-width:0.1;stroke-opacity:1" /><path
       d="m 6073.7851,1151.8537 c -1.2,0.3 -3,1.6 -3.8,2.9 -1.4,2.2 -1.5,6.3 -0.5,39.5 0.6,20.3 1.6,38.1 2.1,39.4 0.6,1.7 2.1,2.8 4.9,3.6 9.7,2.6 50.4,3.3 56.5,1 1.5,-0.5 3,-2 3.5,-3.2 0.9,-2.5 3.3,-29.2 5.3,-58.6 1.4,-21.6 1.7,-20.9 -9.4,-22.9 -7.3,-1.4 -54,-2.7 -58.6,-1.7 z m 27.2,20.6 c -0.3,9 -0.7,16.4 -0.8,16.5 -0.1,0.1 -5.9,-0.1 -12.9,-0.4 l -12.7,-0.6 v -15.3 -15.3 l 3.3,-0.4 c 1.7,-0.2 7.8,-0.5 13.5,-0.5 l 10.4,-0.2 z m 25.6,-14.2 c 11.1,1.5 11.2,1.6 10.6,5.8 -0.3,2.1 -0.8,8.5 -1.1,14.4 l -0.7,10.8 h -14.4 -14.4 v -16 -16 h 6.3 c 3.4,0 9.6,0.5 13.7,1 z m -26,56.1 v 20.1 l -6.7,-0.6 c -3.8,-0.4 -9.1,-0.9 -12,-1.2 l -5.2,-0.6 -0.5,-6.2 c -0.3,-3.3 -0.7,-11.8 -1,-18.9 l -0.4,-12.7 h 12.9 12.9 z m 33.9,-18.5 c 0.7,0.6 -2.6,36.5 -3.4,37.2 -0.4,0.4 -6.3,0.9 -13.1,1.1 l -12.4,0.3 v -15.5 c 0,-8.5 0.3,-17.5 0.6,-20.1 l 0.7,-4.7 13.6,0.7 c 7.5,0.3 13.8,0.8 14,1 z"
       id="path354-0"
       style="fill:#493323;fill-opacity:1;stroke:none;stroke-width:0.1;stroke-opacity:1" /></g></svg>
