<?xml version="1.0" encoding="UTF-8" standalone="no"?>
<svg
   version="1.0"
   width="229.6162pt"
   height="412.43457pt"
   viewBox="0 0 229.6162 412.43457"
   preserveAspectRatio="xMidYMid"
   id="svg522"
   sodipodi:docname="iStock_1321221451_1733912860171 - VŠE.svg"
   inkscape:version="1.2 (dc2aedaf03, 2022-05-15)"
   xml:space="preserve"
   xmlns:inkscape="http://www.inkscape.org/namespaces/inkscape"
   xmlns:sodipodi="http://sodipodi.sourceforge.net/DTD/sodipodi-0.dtd"
   xmlns="http://www.w3.org/2000/svg"
   xmlns:svg="http://www.w3.org/2000/svg"><defs
     id="defs526" /><sodipodi:namedview
     id="namedview524"
     pagecolor="#ffffff"
     bordercolor="#666666"
     borderopacity="1.0"
     inkscape:showpageshadow="2"
     inkscape:pageopacity="0.0"
     inkscape:pagecheckerboard="0"
     inkscape:deskcolor="#d1d1d1"
     inkscape:document-units="pt"
     showgrid="false"
     inkscape:zoom="0.2503158"
     inkscape:cx="7166.9467"
     inkscape:cy="1300.3574"
     inkscape:window-width="1920"
     inkscape:window-height="1001"
     inkscape:window-x="-9"
     inkscape:window-y="-9"
     inkscape:window-maximized="1"
     inkscape:current-layer="svg522" /><metadata
     id="metadata2">
Created by potrace 1.16, written by Peter Selinger 2001-2019
</metadata><g
     id="g2844"
     transform="translate(-5993.5849,-599.31883)"
     style="fill:#493323;fill-opacity:1;stroke:none;stroke-opacity:1"><path
       d="m 6028.1851,600.4537 c -0.2,0.7 -1,5.8 -1.9,11.3 -2.7,16.8 -15.6,60.9 -27.6,94 -2.8,7.6 -5.1,14.4 -5.1,15.1 0,0.6 2.8,2.1 6.3,3.4 18.3,6.5 51.8,27.3 78.1,48.4 10.9,8.7 27.6,24.8 29.4,28.3 1.2,2.1 1,2.1 -11.3,2.8 -25.4,1.5 -27.9,1.8 -28.3,3.9 -0.4,1.7 16.7,28.1 19.2,29.8 1.6,1.1 2.9,-0.1 14.6,-14 6.1,-7.2 11.3,-13.2 11.4,-13.2 0.2,0 4.2,5.1 8.9,11.4 4.7,6.3 11.8,15 15.8,19.5 3.9,4.5 7,8.4 6.7,8.6 -0.2,0.2 -8.5,3.4 -18.3,7 -9.9,3.6 -18.6,7.2 -19.3,7.9 -1.2,1.1 -0.4,2.5 4.4,8.2 17.1,20.3 21.8,25.4 23.5,25.4 1.5,0 3,-3.9 8.5,-20.8 3.6,-11.4 6.8,-20.9 7,-21.2 0.6,-0.5 24.7,23.4 27.4,27.1 l 1.9,2.6 -13.1,2.7 c -7.3,1.4 -13.9,3.2 -14.6,4 -1.2,1.2 0,4.3 7.6,20.7 12.1,25.9 11.4,25.9 20.2,-0.5 l 6.6,-19.8 2.5,3.3 c 5.3,7 10.6,19.4 12.9,30.4 0.6,2.7 1.5,16 1.9,29.5 0.8,24.2 0.8,24.6 3.9,32.5 4.7,12 11.3,23 13.7,23 3.2,0 2.8,-2.7 -1.4,-10 -2.2,-3.8 -5.4,-10.5 -6.9,-14.9 -2.8,-7.8 -3,-9 -3.5,-30.1 -0.6,-22.4 -1.8,-31.7 -5.5,-42.5 -2.4,-6.9 -7.7,-17.5 -10.9,-21.7 -2.9,-3.7 -4.1,-3.1 14.2,-6.9 15.8,-3.2 16.8,-3.9 13.2,-9.1 -8.9,-12.7 -21.5,-27.8 -23.2,-27.8 -1.5,0 -2.8,3 -7.2,16.2 -3,9 -5.8,16.3 -6.3,16.3 -1,0 -28.4,-28.9 -27.9,-29.4 0.2,-0.2 6.4,-2.4 13.6,-5.1 7.3,-2.6 13.8,-5.4 14.4,-6.1 0.9,-1.1 0,-2.7 -4.3,-7.6 -13.6,-15.5 -18.4,-20.2 -20.1,-19.5 -1.1,0.4 -3.3,5.7 -6.4,15.7 -2.6,8.2 -5,15 -5.3,14.9 -1,-0.2 -13.8,-15.6 -21,-25.3 -5,-6.7 -6.9,-10.1 -6.1,-10.6 0.7,-0.4 7.4,-1 14.9,-1.4 7.5,-0.4 14.1,-1.1 14.7,-1.7 0.6,-0.6 -0.7,-6 -3.9,-15.7 -4.8,-14.8 -6.5,-18 -8.5,-16.8 -1,0.7 -20.7,23.6 -22.3,26 -1.5,2.2 -1.7,-0.3 -0.7,-10.4 2.6,-29.4 14,-86.9 21.7,-110.2 2,-6.1 1.5,-8.8 -1.8,-8.8 -1,0 -8.3,-3.3 -16.2,-7.3 -23.8,-12 -62.2,-38.8 -79.8,-55.7 -7.1,-6.8 -9.7,-8.3 -10.4,-5.8 z m 35.8,33.8 c 14.1,10.4 34.3,23.4 46.8,30 6.2,3.3 10.9,6 10.3,6 -7.8,0.2 -37.7,6.4 -51.3,10.7 -4.5,1.4 -8.4,2.4 -8.6,2.2 -1.4,-1.5 -25.6,-69.1 -25.6,-71.5 0,-0.2 4.3,3.2 9.6,7.7 5.3,4.4 13.7,11.1 18.8,14.9 z m -26.9,-0.3 c 2.9,8.7 8.3,23.6 11.9,33 3.6,9.4 6.6,17.4 6.6,17.9 0,0.5 -3.3,2.2 -7.3,3.8 -11.1,4.4 -30.5,13.8 -38.1,18.5 -3.7,2.3 -6.9,4.1 -7.1,3.9 -0.1,-0.2 3.5,-11.5 8.1,-25.3 8.3,-24.9 17.9,-57.6 19.1,-64.8 0.3,-2.1 0.8,-3.6 1,-3.3 0.2,0.2 2.8,7.5 5.8,16.3 z m 92.3,48 c -6.4,22.9 -14.5,61.9 -17.8,86.3 -3.5,25.6 -2.4,24.4 -9.2,10 -12.4,-25.9 -39.5,-88.7 -38.6,-89.4 0.1,-0.2 3.2,-1.3 6.8,-2.4 17.2,-5.5 41.2,-10.1 57.6,-11 l 3.1,-0.2 z m -67.8,17 c 12.6,30.5 20.4,48.4 33.4,76.6 l 3.6,7.8 -8.4,-7.5 c -19.8,-17.6 -50.6,-38.5 -74.1,-50.3 -7.1,-3.5 -13.1,-6.6 -13.3,-6.8 -0.7,-0.6 16.7,-10.9 27.3,-16 11.7,-5.7 25.2,-11.4 27.2,-11.5 0.6,0 2.6,3.5 4.3,7.7 z m 79.4,92.6 c 1.5,4.9 2.6,9 2.4,9.2 -0.1,0.1 -5.7,0.6 -12.3,1 l -11.9,0.7 4.9,-5.8 c 2.7,-3.3 6.8,-8 9,-10.6 2.2,-2.6 4.2,-4.4 4.5,-4 0.3,0.4 1.8,4.7 3.4,9.5 z m -35.1,18.1 c -1.2,2.1 -16.7,20.5 -17.3,20.5 -0.7,0 -13.4,-18.9 -12.9,-19.3 0.2,-0.2 7.2,-0.8 15.4,-1.4 8.3,-0.5 15.1,-1 15.3,-1 0.2,-0.1 -0.1,0.4 -0.5,1.2 z m 69.9,28.7 c -1.3,1.1 -21.3,8.1 -21.8,7.6 -0.3,-0.3 1.2,-6 3.3,-12.7 l 3.8,-12.2 7.7,8.3 c 4.2,4.6 7.4,8.7 7,9 z m -32.2,18.9 c 0,1 -9.8,32.2 -10.3,32.6 -0.3,0.4 -18.3,-20.6 -18.8,-22 -0.2,-0.4 5.9,-3.2 13.6,-6.1 15.7,-5.9 15.5,-5.9 15.5,-4.5 z m 64.4,12 c 3.5,4.7 6.2,8.8 5.8,9.1 -1,0.8 -23.2,5.2 -23.7,4.7 -0.3,-0.2 1.4,-6.1 3.7,-13.1 4.9,-14.7 3.5,-14.6 14.2,-0.7 z m -27.5,23.2 c 0,0.7 -2.4,8 -5.2,16.1 l -5.3,14.8 -5.7,-12.3 c -3.1,-6.8 -5.8,-12.9 -5.9,-13.7 -0.2,-1 2.4,-2 9.7,-3.6 12.4,-2.8 12.5,-2.8 12.4,-1.3 z"
       id="path278-6"
       style="fill:#493323;fill-opacity:1;stroke:none;stroke-width:0.1;stroke-opacity:1" /></g></svg>
