<?xml version="1.0" encoding="UTF-8" standalone="no"?>
<svg
   version="1.0"
   width="539.70508pt"
   height="211.63232pt"
   viewBox="0 0 539.70508 211.63232"
   preserveAspectRatio="xMidYMid"
   id="svg522"
   sodipodi:docname="iStock_1321221451_1733912860171 - VŠE.svg"
   inkscape:version="1.2 (dc2aedaf03, 2022-05-15)"
   xml:space="preserve"
   xmlns:inkscape="http://www.inkscape.org/namespaces/inkscape"
   xmlns:sodipodi="http://sodipodi.sourceforge.net/DTD/sodipodi-0.dtd"
   xmlns="http://www.w3.org/2000/svg"
   xmlns:svg="http://www.w3.org/2000/svg"><defs
     id="defs526" /><sodipodi:namedview
     id="namedview524"
     pagecolor="#ffffff"
     bordercolor="#666666"
     borderopacity="1.0"
     inkscape:showpageshadow="2"
     inkscape:pageopacity="0.0"
     inkscape:pagecheckerboard="0"
     inkscape:deskcolor="#d1d1d1"
     inkscape:document-units="pt"
     showgrid="false"
     inkscape:zoom="0.2503158"
     inkscape:cx="7166.9467"
     inkscape:cy="1300.3574"
     inkscape:window-width="1920"
     inkscape:window-height="1001"
     inkscape:window-x="-9"
     inkscape:window-y="-9"
     inkscape:window-maximized="1"
     inkscape:current-layer="svg522" /><metadata
     id="metadata2">
Created by potrace 1.16, written by Peter Selinger 2001-2019
</metadata><g
     id="g2781"
     transform="translate(-4139.1836,-757.55747)"
     style="fill:#493323;fill-opacity:1;stroke:none;stroke-opacity:1"><path
       d="m 4392.5851,757.8537 c -36,4 -64.7,13.1 -91.5,29.2 -19,11.3 -43.1,33.5 -56,51.6 l -7,9.8 -5.4,-0.6 c -18.8,-1.8 -36.1,9.8 -40.1,27.1 -0.7,2.9 -0.9,7.1 -0.5,9.8 l 0.7,4.6 -2.8,-0.8 c -1.6,-0.4 -6.3,-0.7 -10.4,-0.7 -23.2,0.4 -40.6,19.7 -40.4,44.9 0,9.8 2.5,15.7 9,21.4 8.7,7.6 23.8,9.3 35.7,3.8 l 5.3,-2.4 2.2,3.8 c 6.9,12 28.7,13.1 40.1,2.1 l 3.7,-3.7 3.5,3.9 c 11.2,12.8 31.4,8.7 38.5,-7.8 1,-2.3 1.9,-4.3 2,-4.5 0.2,-0.2 2.2,1.3 4.5,3.3 5,4.2 12.3,7.1 21.7,8.7 23.4,3.9 43.9,-17.6 36.7,-38.2 -3.1,-8.6 -12.3,-14.9 -21.9,-14.9 h -3.1 l 0.1,-10 c 0.1,-9.8 0.2,-10.1 3.9,-15.7 5.3,-8 21.3,-23.5 32,-31.1 9.8,-7 27.3,-15.9 37.4,-19.1 27.2,-8.8 61,-7.2 90.6,4.1 14,5.3 26.6,12.8 38.7,23.2 9.3,7.9 9.8,9 5.1,11.5 -13.1,6.7 -18.6,26.8 -11.3,41.1 2.5,4.9 9.8,11.5 14.5,13 4.9,1.6 13.6,0.7 18,-1.9 l 3.4,-2 1.9,3.7 c 2.4,4.6 10.2,10.6 15.9,12.2 6.5,1.9 16.8,0.8 22.9,-2.3 2.8,-1.4 7.1,-4.8 9.6,-7.5 l 4.4,-5 4.5,4.5 c 9.3,9.5 25.7,14 34.5,9.5 2.3,-1.2 5.6,-3.8 7.4,-5.8 2.8,-3.3 3.8,-3.8 7,-3.5 10.9,0.8 21,-9.9 21.3,-22.4 0.2,-10.3 -8.4,-17.5 -20.9,-17.5 h -6.2 l 1,-3.8 c 1.5,-5.2 0.5,-14.8 -2.2,-21 -3.8,-8.8 -10.6,-13.2 -20.6,-13.2 -4.2,0 -14.1,2.5 -16,4.1 -0.8,0.7 -1.3,-0.6 -1.8,-4.3 -1.1,-8.8 -3.5,-14.5 -8.3,-19.8 -7,-7.8 -12.7,-10.2 -24.4,-10.1 -7.4,0 -16.3,3 -22.1,7.5 l -3.4,2.5 -6.9,-7.9 c -28,-32 -67.4,-53.9 -110,-61.5 -8.6,-1.5 -37.1,-2.8 -44.5,-1.9 z m 49.5,8.4 c 38.2,8.1 74.9,29.3 100.2,57.7 7.4,8.3 8.6,10.9 5.8,12 -1,0.3 -3.7,-1.5 -7.8,-5.4 -23.8,-22.8 -58.9,-39.6 -97.2,-46.4 -11.2,-2 -16.3,-2.3 -37,-2.3 -25.1,0 -33.4,0.9 -50.5,5.5 -37.3,10.2 -68.4,31.2 -93.3,63.1 l -6.7,8.6 -3.3,-2.9 c -1.7,-1.7 -4.5,-3.7 -6,-4.5 l -2.8,-1.5 2.2,-3.2 c 10.8,-15.6 28.5,-34.1 42.9,-44.8 25.8,-19.3 56.5,-31.9 91,-37.3 14.2,-2.3 49,-1.5 62.5,1.4 z m -5.6,22.5 c 39.3,5.6 74.1,21.6 101,46.2 l 7.3,6.8 -1.8,4 c -1,2.2 -1.9,4.2 -2.1,4.4 -0.1,0.2 -4.2,-2.8 -9,-6.6 -32.2,-25.5 -67.2,-38.4 -108.8,-40 -11.6,-0.4 -17.2,-0.2 -24.5,1.1 -25.6,4.5 -52.9,18 -76.7,37.9 -9.7,8.2 -19.9,18.8 -24,24.8 -2.3,3.6 -2.6,3.7 -8.7,3.7 -7.3,0.1 -14.5,2.7 -21.2,7.8 -4.4,3.4 -5.4,3.1 -5.4,-1.7 0,-1.1 -0.9,-4.4 -1.9,-7.4 l -1.9,-5.4 6,-8.2 c 29.9,-40.1 71.6,-63.6 122.3,-68.8 11.5,-1.2 36,-0.5 49.4,1.4 z m -6.2,20.5 c 37,3.3 68.1,15.3 96.3,37.1 13.4,10.4 12.7,9.6 13.2,17.1 0.2,3.8 0,6.8 -0.4,6.8 -0.5,0 -5.6,-4.5 -11.4,-10 -11.4,-10.8 -20.8,-17.7 -31.9,-23.2 -34.5,-17.2 -76.1,-20.5 -110.6,-8.7 -15.6,5.3 -34.2,16.3 -48.2,28.6 -7.9,6.9 -18.5,18.6 -21.5,23.5 l -1.6,2.7 -4.6,-4.3 c -2.5,-2.3 -5.4,-4.7 -6.5,-5.3 -1.8,-1.1 -1.8,-1.2 0.9,-5.2 1.6,-2.3 7.5,-8.5 13,-13.9 25.9,-24.7 58,-41.3 87.1,-45.1 9.8,-1.2 13.4,-1.2 26.2,-0.1 z m 162.7,18 c 5.5,2.8 7.6,5 10.8,11 2,3.8 2.3,6.1 2.4,15 0.1,12 1,13.1 6.3,8.1 4.9,-4.5 10.8,-6.4 19,-5.9 8,0.4 11,2.4 14.2,9.3 2.6,5.6 2.5,17.5 -0.1,23.3 -2.3,5 -1.7,7.7 1.4,6.7 11.8,-3.4 18.8,-2.7 23.8,2.7 8.3,8.9 -3.4,27.2 -15.2,23.8 -4.8,-1.4 -4.5,-1.5 -7.5,3.6 -4.9,8.4 -14,10.4 -25.1,5.5 -6.8,-3 -11.3,-7 -14.6,-12.8 -1.6,-2.9 -3.6,-5.3 -4.4,-5.3 -0.7,0 -2.5,2.2 -3.8,4.8 -5.2,10.3 -13.4,15.6 -24.1,15.6 -11.2,0 -19.2,-5.5 -21.7,-15 -1.6,-5.7 -3.3,-6.2 -7.4,-2 -6.5,6.7 -17.3,6.6 -24.1,-0.1 -4.7,-4.7 -6.5,-8.8 -7,-15.8 -0.7,-8.1 2.3,-16 7.8,-21 3.9,-3.5 4.3,-3.6 10.2,-3.2 3.4,0.2 7.6,1 9.4,1.7 1.8,0.8 3.5,1.1 3.9,0.7 0.4,-0.4 0.1,-3.1 -0.6,-6.1 -2,-8.2 -0.9,-20 2.5,-26.6 5,-9.9 14.1,-17.6 23.9,-20.1 5.3,-1.4 15,-0.3 20,2.1 z m -353,27.7 c 6,2.2 11.4,7.3 14.6,13.9 2.1,4.2 2.4,6.5 2.5,15.7 0.2,11.9 1.1,14.2 4.4,10.6 1.1,-1.3 2.1,-2.7 2.1,-3.1 0,-1.9 8.8,-10.2 13.5,-12.6 6.8,-3.6 17.9,-3.8 24.2,-0.4 9.9,5.2 13.7,18.8 8.7,30.8 -0.8,1.9 -1.2,3.9 -0.9,4.5 0.4,0.5 3.7,0.7 8.4,0.3 6.6,-0.6 8.3,-0.4 11.7,1.4 4.9,2.5 7,5.5 8.4,11.8 2.1,9.5 -3.1,19.3 -13.1,24.9 -4.8,2.7 -6.3,3 -13.9,3 -13.8,0 -21.3,-3.7 -30.4,-15 -2,-2.4 -2.6,-2.7 -3.9,-1.7 -0.8,0.7 -1.7,3.4 -2.1,6.1 -0.9,6.9 -5.8,13.9 -11.9,17 -4.4,2.2 -5.1,2.3 -10.1,1.2 -6.3,-1.4 -10,-4.6 -12.8,-10.9 -2.4,-5.3 -4.6,-5.4 -7.6,-0.2 -6.2,10.9 -22.3,15 -31.9,8.2 -2.9,-2 -4.4,-4.3 -6.3,-9.5 -1.2,-3.3 -3,-3.4 -7.8,-0.2 -2,1.3 -6.6,3.2 -10.1,4.1 -12.8,3.2 -23.8,-1.3 -29.3,-12.1 -1.8,-3.3 -2,-5.2 -1.5,-12.5 0.3,-5.3 1.3,-10.6 2.7,-14.2 3,-7.6 10.4,-15.8 17.7,-19.4 5.1,-2.5 6.9,-2.9 15.3,-2.9 7.4,0 10.3,0.4 12.9,1.8 2.9,1.7 3.5,1.7 4.8,0.4 1.2,-1.2 1.3,-2.2 0.4,-5.3 -3.9,-14.2 3.1,-29.3 15.9,-34.6 7.7,-3.2 18.3,-3.6 25.4,-1.1 z"
       id="path290-8"
       style="fill:#493323;fill-opacity:1;stroke:none;stroke-width:0.1;stroke-opacity:1" /></g></svg>
