<?xml version="1.0" encoding="UTF-8" standalone="no"?>
<svg
   version="1.0"
   width="181.47925pt"
   height="202.77979pt"
   viewBox="0 0 181.47925 202.77978"
   preserveAspectRatio="xMidYMid"
   id="svg522"
   sodipodi:docname="iStock_1321221451_1733912860171 - VŠE.svg"
   inkscape:version="1.2 (dc2aedaf03, 2022-05-15)"
   xml:space="preserve"
   xmlns:inkscape="http://www.inkscape.org/namespaces/inkscape"
   xmlns:sodipodi="http://sodipodi.sourceforge.net/DTD/sodipodi-0.dtd"
   xmlns="http://www.w3.org/2000/svg"
   xmlns:svg="http://www.w3.org/2000/svg"><defs
     id="defs526" /><sodipodi:namedview
     id="namedview524"
     pagecolor="#ffffff"
     bordercolor="#666666"
     borderopacity="1.0"
     inkscape:showpageshadow="2"
     inkscape:pageopacity="0.0"
     inkscape:pagecheckerboard="0"
     inkscape:deskcolor="#d1d1d1"
     inkscape:document-units="pt"
     showgrid="false"
     inkscape:zoom="0.1251579"
     inkscape:cx="-1877.6282"
     inkscape:cy="5413.1621"
     inkscape:window-width="1920"
     inkscape:window-height="1001"
     inkscape:window-x="-9"
     inkscape:window-y="-9"
     inkscape:window-maximized="1"
     inkscape:current-layer="svg522" /><metadata
     id="metadata2">
Created by potrace 1.16, written by Peter Selinger 2001-2019
</metadata><g
     id="g2898"
     transform="translate(-5195.9484,-1095.3264)"
     style="fill:#493323;fill-opacity:1"><path
       d="m 5325.4851,1097.2537 c -13.3,7 -30.5,40.4 -37.5,73 -1.4,6.3 -2.6,11.5 -2.7,11.6 -0.1,0 -2.6,-1 -5.4,-2.3 -3.8,-1.7 -5.3,-3 -5.3,-4.4 0,-9.7 -10.7,-14.9 -18.3,-8.9 l -2.5,2 -4.5,-3.5 c -8.4,-6.4 -11.3,-14.6 -7,-20.2 2.1,-2.8 4.8,-3.3 13.3,-2.1 1.9,0.2 2.6,-0.2 2.8,-1.8 0.3,-1.8 -0.6,-2.5 -4.2,-3.9 -13.2,-5 -23.9,7.6 -17.7,21 1.9,4.3 10.4,13.1 13.3,14.1 2.4,0.7 2.3,4.1 -0.1,4.9 -1.2,0.4 -2.9,-0.5 -5.2,-2.5 -5.4,-5.1 -10.7,-7.4 -17.4,-7.4 -5.1,-0.1 -6.6,0.3 -10.1,2.9 -9.8,7 -12.2,17.8 -5.8,25.5 4.6,5.5 8.4,2.6 4.3,-3.2 -6.1,-8.5 1.1,-20.1 12.3,-20 4,0.1 11.2,3.6 13.8,6.7 1.1,1.4 1.1,2.1 -0.3,4.5 -2.6,4.3 -2.1,8.4 1.3,12.4 3.4,3.8 8.8,5.4 13.1,3.8 2.2,-0.9 2.9,-0.4 7.7,5.4 2.9,3.5 5.2,6.5 5.2,6.8 0,0.2 -2.1,1.1 -4.7,2.1 -9,3.4 -21.8,10.3 -30.5,16.5 -12.1,8.6 -26.4,23.6 -31.1,32.7 -7,13.5 -8.4,27.7 -3.2,32.9 3.1,3.1 4.9,3 11.5,-0.3 8.4,-4.2 38.1,-35.1 60.7,-63.1 6.7,-8.4 7.7,-9.2 9.1,-7.9 1.3,1.4 1,2.1 -3,6.9 -18.1,21.6 -25.9,54.8 -14.5,62.3 3.6,2.3 6.9,1.1 12,-4.3 6.8,-7.4 17,-26.6 21.3,-40.5 1,-3.1 2,-5.7 2.4,-5.7 0.3,0 1.5,0.8 2.6,1.7 11.4,10.4 32.3,24.8 43.9,30.3 15.1,7.2 24.4,7.5 29.9,0.9 6,-7.1 1,-18.6 -15.6,-36.4 -7.2,-7.7 -22,-21.1 -32.8,-29.8 l -3.5,-2.7 2.5,-1.8 c 17.4,-12.2 29.2,-23.2 32.6,-30.5 2.8,-6.1 2.9,-7.8 0.9,-11.6 -2.6,-5.1 -10.9,-5.6 -20.3,-1.1 -7.8,3.7 -19.7,15.3 -26.9,26.3 l -4.9,7.5 -2.6,-2 -2.7,-1.9 7.2,-9.7 c 15.2,-20.4 30.6,-47.5 33.1,-58.2 4.9,-20.8 -3.1,-34.1 -16.5,-27 z m 9.5,5.3 c 4.2,4.2 4.2,14.1 0.1,25.7 -3.5,9.9 -25.7,45.9 -34.9,56.5 -3.4,4 -3.4,4 -6.3,2.3 -3.2,-1.9 -3.2,-3 -0.7,-15.8 5.7,-28.5 23.4,-63 35.9,-69.8 2.8,-1.6 3.3,-1.5 5.9,1.1 z m 18,62.3 c 4.5,1.7 -0.7,12 -10.4,20.6 -6.7,5.9 -23.1,17.8 -24.5,17.8 -0.5,0 -2.2,-1 -3.7,-2.3 l -2.7,-2.2 4.6,-7 c 11.7,-17.6 28.7,-30 36.7,-26.9 z m -85,6.6 c 0.7,1.1 0.7,2.6 0,4.5 -1.7,5 -10.4,4.2 -10.4,-1 0,-5.1 7.7,-7.7 10.4,-3.5 z m -10.8,13.3 c 1.4,2.1 1.4,3 0.4,5.5 -2,4.8 -9.6,5.4 -12,1 -1.2,-2.2 0.9,-7.4 3.2,-8.3 3.4,-1.4 6.8,-0.6 8.4,1.8 z m 15.5,-0.8 c -0.5,1 -3.1,4 -5.6,6.8 -3.9,4.2 -4.5,4.6 -4.1,2.5 0.3,-1.4 0.6,-3.6 0.6,-5 0,-1.8 0.9,-3 3.3,-4.1 4.6,-2.3 7,-2.4 5.8,-0.2 z m 10,3 c 1.6,1 2.9,2 2.9,2.3 0,1.5 -13.8,17.8 -14.3,16.9 -0.1,-0.2 -1.3,-1.6 -2.5,-3.1 l -2.4,-2.6 6.3,-7.6 c 3.5,-4.2 6.5,-7.6 6.7,-7.6 0.2,0 1.7,0.8 3.3,1.7 z m 12.9,7.9 4,2.7 -3,4.1 c -5,6.7 -13.3,16.6 -14.1,16.6 -0.9,0 -6.9,-6.8 -6.9,-7.8 0,-0.5 1.6,-2.4 3.6,-4.3 1.9,-1.8 5.4,-5.8 7.6,-8.7 2.2,-2.8 4.2,-5.2 4.4,-5.2 0.3,0 2.2,1.2 4.4,2.6 z m 12.3,8.6 c 1.8,1.2 3.4,2.3 3.6,2.4 0.8,0.7 -17.6,23.4 -19,23.4 -0.4,0 -2,-1.6 -3.5,-3.6 l -2.7,-3.5 4.5,-4.7 c 2.5,-2.6 6.4,-7.3 8.7,-10.5 2.3,-3.1 4.4,-5.7 4.7,-5.7 0.3,0 2,1 3.7,2.2 z m 14.7,10.6 3.4,2.9 -4.4,5.8 c -2.4,3.1 -7.1,8.6 -10.4,12.1 l -6.1,6.4 -4.3,-4.1 -4.3,-4 5.4,-5.8 c 2.9,-3.2 7.3,-8.5 9.7,-11.8 4.9,-6.7 4.9,-6.7 11,-1.5 z m -48.5,4.5 c 0,2.9 -25.5,33.1 -46.5,55.1 -10.2,10.6 -20.1,18.6 -23.1,18.6 -2.5,0 -3.3,-3.7 -2.5,-11.1 2.2,-21.9 29.5,-48.7 63.1,-62 7.6,-3 9,-3.1 9,-0.6 z m 62,6.5 3.7,3.3 -2.5,3.5 c -3.9,5.6 -16.7,20.4 -17.6,20.4 -0.4,0 -2.9,-1.6 -5.4,-3.6 l -4.7,-3.7 5.5,-6.1 c 3,-3.4 7.6,-8.9 10.2,-12.2 2.7,-3.5 5.3,-5.9 5.9,-5.5 0.6,0.3 2.8,2.1 4.9,3.9 z m -46.2,9.3 3.9,4.1 -2.6,8.1 c -4.8,15.4 -18.5,40.3 -23.2,42.1 -4.6,1.8 -6.3,-6.1 -3.9,-17.9 1.8,-8.5 5.1,-16.9 9.9,-25 3.3,-5.5 10.8,-15.5 11.6,-15.5 0.3,0 2.2,1.8 4.3,4.1 z m 58.1,8.6 c -1.6,2.1 -6,7 -9.7,11 l -6.9,7.2 -3.4,-2.2 c -1.8,-1.2 -3.4,-2.4 -3.4,-2.7 0,-0.3 2.7,-3.7 6.1,-7.5 3.3,-3.9 7.7,-9.1 9.7,-11.8 l 3.6,-4.7 3.5,3.4 3.4,3.5 z m 12.6,6.3 c 0,0.9 -16,19 -16.8,19 -0.4,0 -2.2,-0.9 -4.1,-2.1 l -3.3,-2 5.4,-5.7 c 2.9,-3.1 7.1,-7.9 9.2,-10.5 l 3.9,-4.8 2.9,2.7 c 1.5,1.5 2.8,3 2.8,3.4 z m 7.9,10.9 c 3.6,6.9 4.1,12.5 1.2,14.1 -3.1,1.6 -9.6,1.2 -15.6,-1.1 l -5.5,-2 7.7,-8.5 c 4.3,-4.6 8.1,-8.4 8.4,-8.4 0.3,0 2,2.7 3.8,5.9 z"
       id="path368-1"
       style="fill:#493323;fill-opacity:1;stroke:none;stroke-width:0.1" /><path
       d="m 5261.0851,1172.8537 c -1.2,1.2 -1.3,1.9 -0.4,3 1.5,1.8 3.3,1.8 4.9,-0.1 1,-1.2 1,-1.8 0,-3 -1.6,-1.9 -2.5,-1.9 -4.5,0.1 z"
       id="path370-3"
       style="fill:#493323;fill-opacity:1;stroke:none;stroke-width:0.1" /><path
       d="m 5250.0851,1186.9537 c -1.5,1.4 -1.5,1.8 -0.1,3.1 1.8,1.9 4.6,0.9 4.6,-1.7 0,-2.6 -2.6,-3.4 -4.5,-1.4 z"
       id="path372-5"
       style="fill:#493323;fill-opacity:1;stroke:none;stroke-width:0.1" /></g></svg>
