<?xml version="1.0" encoding="UTF-8" standalone="no"?>
<svg
   version="1.0"
   width="288.91382pt"
   height="385.4043pt"
   viewBox="0 0 288.91382 385.40429"
   preserveAspectRatio="xMidYMid"
   id="svg522"
   sodipodi:docname="iStock_1321221451_1733912860171 - VŠE.svg"
   inkscape:version="1.2 (dc2aedaf03, 2022-05-15)"
   xml:space="preserve"
   xmlns:inkscape="http://www.inkscape.org/namespaces/inkscape"
   xmlns:sodipodi="http://sodipodi.sourceforge.net/DTD/sodipodi-0.dtd"
   xmlns="http://www.w3.org/2000/svg"
   xmlns:svg="http://www.w3.org/2000/svg"><defs
     id="defs526" /><sodipodi:namedview
     id="namedview524"
     pagecolor="#ffffff"
     bordercolor="#666666"
     borderopacity="1.0"
     inkscape:showpageshadow="2"
     inkscape:pageopacity="0.0"
     inkscape:pagecheckerboard="0"
     inkscape:deskcolor="#d1d1d1"
     inkscape:document-units="pt"
     showgrid="false"
     inkscape:zoom="0.2503158"
     inkscape:cx="7166.9467"
     inkscape:cy="1300.3574"
     inkscape:window-width="1920"
     inkscape:window-height="1001"
     inkscape:window-x="-9"
     inkscape:window-y="-9"
     inkscape:window-maximized="1"
     inkscape:current-layer="svg522" /><metadata
     id="metadata2">
Created by potrace 1.16, written by Peter Selinger 2001-2019
</metadata><g
     id="g2626"
     transform="translate(-3632.5023,-930.32721)"
     style="fill:#493323;fill-opacity:1;stroke:none;stroke-opacity:1"><path
       d="m 3886.0851,931.6537 c -1.6,0.7 -3.9,2.3 -4.9,3.5 -1.1,1.1 -2.8,2.1 -3.8,2.1 -5.1,0 -14.1,7.3 -15.4,12.5 -0.3,1.4 -1.4,2.7 -2.4,3 -1,0.3 -3.3,2.2 -5,4.2 -3,3.3 -3.2,4.1 -2.8,9.4 0.4,5.2 0.2,5.9 -1.8,6.8 -1.2,0.5 -2.8,2.3 -3.5,3.9 -1.2,2.8 -1.4,2.9 -4.8,1.9 -5,-1.4 -21.3,-1.3 -29.3,0.2 -3.8,0.7 -10.1,3 -14.2,5.1 -7.3,3.7 -7.5,3.8 -9.2,1.9 -0.9,-1 -2.4,-2.1 -3.3,-2.4 -1.2,-0.4 -1.6,-1.8 -1.6,-5.9 0,-6.3 -1.8,-8.9 -8.1,-11.7 -2.2,-1 -4.7,-3 -5.4,-4.4 -2.1,-3.9 -8.8,-7.5 -14.1,-7.5 -2.4,0 -5.3,-0.7 -6.3,-1.5 -2.7,-2.1 -11.2,-2 -12,0.1 -0.9,2.3 0.2,3.4 3.3,3.4 3.8,0 4.3,0.8 2.5,4.1 -2.9,5.6 1.1,11 7,9.5 2.7,-0.7 5.6,-5.1 5.6,-8.4 0,-2.4 3.3,-2 7,0.8 l 2.4,1.8 -3.7,3.5 c -2.6,2.4 -3.7,4.3 -3.7,6.4 0,3.4 3.6,7.3 6.7,7.3 3,0 7.1,-3.6 7.8,-7 0.4,-1.7 1,-3 1.4,-3 1.4,0 3.9,3.4 4.1,5.5 0.4,4 -0.1,5.5 -3.1,9 l -3.1,3.5 -2.9,-2.4 c -1.5,-1.3 -4.6,-2.7 -6.9,-3.1 -2.2,-0.4 -4,-1 -4,-1.5 0,-1.9 -9,-5.1 -13.7,-5 -2.7,0.2 -6.5,-0.5 -8.5,-1.4 -4.7,-2 -9,-2 -12.9,-0.1 -3.4,1.8 -6.9,6.9 -6.9,10.2 0,3.3 2.8,8.5 5.6,10.6 5,3.7 7.5,-1 2.9,-5.3 -4.7,-4.5 -2,-11.3 4.5,-11.3 4,0 4.6,0.8 2.6,3.7 -5.3,8.2 3.3,16.8 10,10 2.1,-2 2.5,-3.3 2.2,-6.4 -0.4,-4.1 0.7,-5.4 3.7,-4.5 5.1,1.6 5,1.4 2.7,3.6 -2.7,2.4 -2.9,7 -0.4,9.2 3.8,3.4 11.2,1 11.2,-3.6 0,-2.6 1.6,-2.8 4.3,-0.7 2.2,1.7 2.4,2.3 1.4,4.4 -1,2 -1.7,2.3 -4.4,1.9 -2.2,-0.4 -4.3,0.1 -6.8,1.6 -2,1.1 -4.7,2.1 -6.1,2.1 -3.5,0 -10.1,3.6 -12,6.5 -1.1,1.7 -2.5,2.5 -4.6,2.5 -9,0 -15,8.9 -11.5,17.1 1.7,4.2 7.5,7.4 11.3,6.5 3.9,-1 2.9,-4.8 -1.5,-5.7 -1.8,-0.4 -3.7,-1.3 -4.2,-2.1 -1.6,-2.5 -1,-6.6 1.3,-8.2 2.8,-2 5.9,-2.1 5.2,-0.2 -0.3,0.7 0.1,3 1,4.9 2.4,5.9 10.2,6.4 12.6,0.8 1.5,-3.6 0.6,-6.7 -2.9,-9.8 l -2.6,-2.5 2.4,-1.9 c 3.4,-2.7 5.1,-2.4 5.1,0.9 0,3.7 2.8,6.2 6.8,6.2 3.4,0 6.2,-2.9 6.2,-6.5 0,-1.1 -0.7,-3.1 -1.6,-4.3 -1.4,-2.1 -1.4,-2.2 1,-2.2 1.7,0 2.6,0.6 2.6,1.6 0,0.8 1.3,2.8 2.8,4.4 l 2.8,2.8 -1.7,4.3 c -1,2.4 -1.8,6.6 -1.9,9.4 v 5 l -5,2.2 c -12.4,5.4 -12.1,21 0.4,25.8 2.5,1 5.7,1.5 7.2,1.2 2.2,-0.4 2.8,0 4,2.8 0.7,1.9 2.7,5.7 4.4,8.5 2.4,4 2.8,5.5 1.9,6.6 -0.6,0.7 -4.8,8 -9.3,16.1 l -8.2,14.8 -11.9,1.2 c -15.3,1.5 -25.9,4.3 -34.7,9 -16.5,8.9 -22.6,18.6 -16.3,26.1 5,6 13.8,4.5 17.6,-3 1.1,-2.2 2.8,-7.7 3.8,-12.2 l 1.8,-8.1 4.7,-1.8 c 9.1,-3.3 30.6,-6.1 30.6,-3.9 0,2.2 -11.3,16.5 -27.6,34.7 -23.3,26.3 -27.4,31.3 -27.4,33.4 0,2.5 5.7,10.8 9.6,13.9 1.9,1.5 3.4,3 3.4,3.4 0,1.6 -11.7,4 -19.2,4 -6.6,0 -8.5,-0.4 -12.2,-2.6 -5.2,-3 -10.8,-10.3 -13.7,-17.8 -4.6,-12 -8.2,-15.8 -14.5,-15.8 -4.8,0 -11.7,5.6 -19,15.4 -4.5,6 -5.7,10.9 -3.2,13.4 3.1,3.1 14.2,0 24.8,-6.9 3.4,-2.2 6.3,-3.9 6.5,-3.7 0.1,0.2 1.5,2.7 3.1,5.7 3.6,6.7 9.6,13 14.9,15.6 7.6,3.7 27.1,2.6 35.3,-1.9 2.2,-1.2 3.2,-0.7 13.4,6.9 6.1,4.6 15.8,11.1 21.5,14.6 5.7,3.5 11.2,6.9 12.1,7.6 2.5,1.7 2.4,20.3 -0.1,25.1 -1,1.8 -6.9,8.7 -13.2,15.3 -6.3,6.6 -11.8,13.1 -12.1,14.4 -1.5,6.1 14.4,21.3 25.6,24.5 10.3,2.9 12.8,-8 3.8,-16.8 -4,-4 -7.4,-5.6 -17.6,-8.2 l -4.3,-1.1 10.5,-10.9 c 5.8,-6 11.3,-12.4 12.3,-14.2 1.2,-2.4 1.8,-6.3 2.1,-14 l 0.4,-10.7 2.7,1.3 c 4.2,2.2 11.2,3.8 13.8,3.1 6,-1.5 21,-32.4 30.1,-62 4.1,-13.3 8.6,-31.7 10.6,-44 1,-5.5 1.9,-11 2.2,-12.3 l 0.5,-2.3 3.7,2.9 c 13.7,10.9 24,14 47.9,14.4 16.3,0.2 16.9,0.2 21.3,-2.2 8.7,-4.9 12,-15.1 6.5,-20.5 -1.3,-1.4 -3,-2.5 -3.7,-2.5 -3.6,0.1 -10.1,4.5 -16.7,11.6 -7.4,7.7 -7.5,7.8 -13,8.2 -12.5,0.8 -29.6,-5.3 -39.9,-14.4 l -5.3,-4.7 0.6,-7.6 c 1.2,-14.5 1.3,-14.9 4.8,-15.7 6.1,-1.3 16.2,-7.2 21.8,-12.8 6,-6 11,-14.4 14.4,-24.1 1.9,-5.6 2.3,-6 5.7,-6.6 7.7,-1.2 12.7,-7.4 11.4,-14.2 -0.8,-4.2 -7.2,-10.5 -11.7,-11.4 -2.8,-0.5 -3,-0.8 -2.4,-3.7 1.9,-9.1 1.8,-9.9 -2.3,-16.6 -4,-6.4 -4,-6.5 -2.1,-8.6 1.3,-1.4 1.9,-3.5 1.9,-6.7 0,-3.5 0.4,-4.7 1.5,-4.7 1.1,0 1.3,0.7 0.9,2.9 -0.6,2.8 0.9,6.9 3,8.3 0.6,0.4 2.3,0.8 3.8,0.8 3.3,0 5.8,-3.3 5.8,-7.7 0,-1.8 0.5,-3.3 1.1,-3.3 0.9,0 4.8,1.7 5.8,2.6 0.2,0.2 -0.6,1.5 -1.8,3 -2.9,3.6 -2.7,7.9 0.5,11 4.9,5 11.8,0.5 11.2,-7.3 -0.3,-3.8 -0.1,-4.3 1.8,-4.3 2.5,0 6.1,2.8 6.6,5 0.2,0.8 -0.4,3.4 -1.1,5.8 -1.3,3.7 -1.3,4.5 -0.1,5.2 3.7,2.3 7.6,-4.4 6.7,-11.3 -0.9,-6.4 -5.1,-9.7 -12.3,-9.7 -4.1,0 -6.3,-0.5 -8.1,-2 -2.9,-2.3 -9.9,-4.4 -11.4,-3.4 -0.6,0.3 -2.7,0.3 -4.7,-0.1 -3.4,-0.7 -3.5,-0.8 -1.4,-1.6 4.6,-1.7 4.5,-9 -0.1,-10.5 -2.1,-0.7 -2.1,-0.7 0.2,-2.5 3.6,-2.9 6.1,-2.5 6.1,1 0,4.3 3.5,8.1 7.3,8.1 3.8,0 5,-0.7 6.6,-3.8 1.5,-2.8 0.6,-5.9 -2.6,-9.3 l -2.4,-2.7 3.2,-1.1 c 2.7,-0.9 3.7,-0.8 6.3,0.7 1.7,1 3.5,3.1 4,4.8 1.4,4.7 2.2,5.9 4.2,5.9 1.6,0 1.9,-0.7 1.7,-4.3 -0.5,-11.5 -13.3,-17 -22.7,-9.8 -1.9,1.4 -4.8,2.6 -6.4,2.6 -1.6,0 -5,1.1 -7.6,2.5 l -4.6,2.4 v -2.2 c 0,-2.9 -3.2,-6.5 -6.5,-7.3 -1.4,-0.3 -2.5,-0.9 -2.5,-1.3 0,-1.3 5,-5.5 7.8,-6.6 2.5,-1.1 2.8,-0.9 3.7,1.9 1.2,3.7 5.2,5.4 9.3,4 3.6,-1.3 4.4,-7.2 1.2,-10.4 -2.2,-2.2 -1.7,-2.7 3.5,-3.2 2,-0.2 3.1,-0.9 3.3,-2.2 0.7,-3.5 -4.6,-4.7 -10.3,-2.2 z m 0.3,12.4 c 0.6,1.8 -1.5,1.4 -2.2,-0.4 -0.4,-1 -0.1,-1.4 0.6,-1.2 0.6,0.2 1.4,1 1.6,1.6 z m -15.9,14.5 c 0.6,0.8 0.8,1.6 0.5,2 -1,0.9 -3.4,-0.4 -3.4,-1.9 0,-1.8 1.4,-1.8 2.9,-0.1 z m -5,6.4 c 0.9,0.7 2.3,1.3 3.2,1.3 1.2,0 0.7,1 -2,3.8 -2.7,2.8 -4,3.6 -5.3,3 -4,-1.9 -5.3,-9.4 -2.3,-12.8 l 1.9,-2.1 1.5,2.8 c 0.8,1.5 2.1,3.3 3,4 z m -115.3,-1 c -1,1 -1.9,-0.5 -1,-1.8 0.6,-1.1 0.8,-1.1 1.2,0 0.2,0.7 0.1,1.5 -0.2,1.8 z m 148.4,3 c 0,2.4 -2.5,0.9 -2.8,-1.7 -0.3,-2.1 -0.2,-2.2 1.2,-1.1 0.9,0.7 1.6,2 1.6,2.8 z m -131,5.7 c 0,1.6 -1.8,3.1 -2.7,2.2 -0.8,-0.8 0.5,-3.6 1.7,-3.6 0.5,0 1,0.6 1,1.4 z m 107.3,2.1 c 1.8,2.5 1.8,2.5 -0.9,3.5 -2.1,0.9 -3.1,0.8 -4.3,-0.4 -1.3,-1.4 -1.3,-1.8 0.4,-3.6 2.3,-2.5 2.6,-2.5 4.8,0.5 z m -13.4,5 c 5.3,2.6 9.4,7 8.9,9.4 -0.5,2.7 -3.5,2.3 -8.6,-1.2 -2.7,-1.8 -6.3,-3.9 -8,-4.6 -3.6,-1.5 -3.9,-2.3 -1.6,-4.5 2.1,-2.2 3.6,-2 9.3,0.9 z m -16.8,5.9 c 7.9,2.5 13.1,5.6 19,11.5 3.1,3.1 6.6,7.6 7.8,9.9 3.6,7.1 2.2,11.9 -2.8,9.3 -1.7,-1 -1.8,-1.5 -1,-4 0.7,-2.1 0.7,-3.6 0,-5 -3.8,-7 -12.8,-3.4 -10.2,4.1 1.4,3.9 0.7,4.8 -3.3,4.8 -3,0 -3.2,-0.2 -2.8,-3.4 0.3,-2.6 -0.1,-3.7 -1.9,-5 -3.3,-2.3 -5.6,-2 -7.6,1 -1.4,2.2 -1.5,3.1 -0.5,5.8 1.1,2.8 1,3.3 -0.9,4.8 -1.2,1 -3.2,1.8 -4.5,1.8 -2.1,0 -2.4,-0.5 -2.4,-3.5 0,-2.6 -0.6,-3.9 -2.6,-5.2 -2.4,-1.5 -2.9,-1.5 -5.3,-0.2 -2.9,1.6 -3.9,5.6 -2.1,8.8 0.9,1.7 0.6,2.2 -2,3.6 -1.8,0.9 -4,1.3 -5.5,0.9 -2.1,-0.5 -2.5,-1.2 -2.5,-4.3 0,-4.4 -1.4,-6.1 -5.1,-6.1 -5.3,0 -7.4,4.4 -4.2,8.9 1.6,2.3 1.5,2.5 -0.6,4.3 -1.3,1 -3.6,1.8 -5.2,1.8 -2.6,0 -2.9,-0.3 -2.9,-3.3 0,-6.8 -5.7,-10 -10,-5.7 -2.4,2.4 -2.5,4.8 -0.4,7.8 1.5,2.2 1.5,2.4 -0.2,3.7 -3.1,2.3 -8.2,1.8 -11.1,-1.1 -2.1,-2.2 -2.5,-3.2 -2,-6.6 1,-7.4 6.5,-16.7 14.6,-24.9 8.4,-8.5 16.6,-13.2 26.5,-15.5 7.5,-1.7 25.1,-1.2 31.7,1 z m -105.8,3.3 c -0.3,0.7 -0.8,1.3 -1.2,1.3 -1.6,0 -2,-1.4 -1,-3.3 0.9,-1.5 1.3,-1.7 1.9,-0.7 0.5,0.7 0.6,1.9 0.3,2.7 z m 146.7,-0.6 c 0,0.5 -0.4,0.9 -1,0.9 -0.5,0 -1,-0.7 -1,-1.6 0,-0.8 0.5,-1.2 1,-0.9 0.6,0.3 1,1 1,1.6 z m -129.8,3.1 c -0.7,0.7 -1.2,0.8 -1.2,0.2 0,-1.4 1.2,-2.6 1.9,-1.9 0.2,0.3 -0.1,1.1 -0.7,1.7 z m 29.4,-0.7 c 0.6,1.4 -11.1,15.5 -12.9,15.5 -1.3,0 -2,-2.8 -1.3,-5.5 0.9,-3.6 8.8,-11.5 11.5,-11.5 1.2,0 2.4,0.7 2.7,1.5 z m 116.8,4.8 c -0.3,0.9 -1,1.7 -1.5,1.7 -1.1,0 -1.2,-3.4 -0.2,-4.4 1.1,-1.1 2.4,0.9 1.7,2.7 z m -145.4,14.3 c 0,0.8 -0.4,1.2 -1,0.9 -0.5,-0.3 -1,-1 -1,-1.6 0,-0.5 0.5,-0.9 1,-0.9 0.6,0 1,0.7 1,1.6 z m -14.2,10.2 c 0.3,1.6 -0.1,2 -1.2,1.6 -1.9,-0.7 -2.2,-4.8 -0.3,-4.2 0.6,0.3 1.3,1.4 1.5,2.6 z m 123.7,1.2 c 2.2,1.1 4.5,2 5.1,2 2,0 2.8,10.3 1.4,18.8 -3.9,24.4 -17,40.5 -36.9,45.7 -23.7,6.1 -45.8,-3.5 -55.7,-24.1 -2.8,-5.8 -6.4,-19 -6.4,-23.4 0,-0.4 2.4,-0.7 5.3,-0.6 4.2,0.1 6.2,-0.5 9.3,-2.5 2.8,-1.8 4.5,-2.4 5.9,-1.8 4.4,1.7 8.3,0.9 12.8,-2.5 3,-2.3 4.9,-3.1 5.8,-2.5 2.9,1.8 9.3,1 13.3,-1.7 3,-2 4.5,-2.5 7.2,-1.9 3.5,0.6 11.4,-2.1 12.8,-4.3 0.4,-0.7 2.5,-0.9 5.5,-0.5 3.3,0.4 5.6,0.1 7.7,-1 1.6,-0.9 2.9,-1.6 2.9,-1.7 0.1,0 1.8,0.9 4,2 z m 17.4,10.6 c 4.3,3.6 4.3,7.7 -0.1,10.4 -1.8,1.1 -3.7,2 -4.3,2 -0.6,0 -0.9,-2.9 -0.7,-7.5 0.2,-4.1 0.7,-7.5 1.2,-7.5 0.5,0 2.2,1.2 3.9,2.6 z m -114.6,12.1 c 0.2,3.8 0.8,7.6 1.2,8.5 0.6,1.5 0.1,1.8 -3,1.8 -2.7,0 -4.4,-0.8 -6.6,-2.9 -1.6,-1.6 -2.9,-3.7 -2.9,-4.6 0,-4.1 4.8,-9.4 8.6,-9.5 1.9,0 2.2,0.7 2.7,6.7 z m 21.1,41.1 c 8.9,6.6 20,10.1 32.4,10.2 8.5,0 7.9,-1.7 5.7,17.5 -4.1,35.1 -12.8,68.7 -25.5,98.2 l -5.2,12.1 -3.6,-2.5 c -3,-2 -4.6,-2.4 -8.5,-2 -4.2,0.4 -5,0.2 -5.7,-1.7 -1.5,-3.9 -4.8,-5.9 -10.5,-6.4 -4.6,-0.4 -5.5,-0.8 -5.5,-2.4 0,-3.2 -2.9,-7.7 -6,-9.3 -1.6,-0.8 -4.9,-1.5 -7.4,-1.5 -4.1,0 -4.5,-0.3 -6.3,-3.7 -2.2,-4.2 -7.3,-7.3 -12,-7.3 -2.4,0 -3.3,-0.5 -3.9,-2.3 -1.1,-3.7 -4.2,-7.3 -7.5,-8.9 l -3.1,-1.6 11.9,-13.3 c 20.2,-22.7 26.1,-29.9 31,-37.6 l 4.8,-7.6 9.5,0.7 c 16.7,1.2 16.4,1.2 16.8,-0.6 0.5,-2.5 -2.4,-3.6 -12.9,-4.9 -5.2,-0.6 -9.5,-1.3 -9.7,-1.4 -0.2,-0.1 0.6,-1.8 1.6,-3.6 1.1,-1.9 4.5,-8 7.6,-13.7 3.2,-5.6 6,-10.2 6.3,-10.2 0.3,0 2.9,1.7 5.7,3.8 z m 119.4,38.7 c 0.4,3.1 -3.5,8.5 -7.3,10.1 -1.9,0.8 -5.1,1.4 -7.2,1.4 h -3.8 l 7.2,-7.1 c 7.3,-7.2 10.5,-8.4 11.1,-4.4 z m -194.8,7 c -1.8,7.9 -3.6,11.4 -6.4,12.1 -6.4,1.6 -7.6,-5.3 -1.8,-10.7 4,-3.9 8.4,-7.1 8.9,-6.5 0.2,0.2 -0.1,2.5 -0.7,5.1 z m -54,46.5 c 1.1,1.1 2,2.4 2,2.9 0,2.6 -14.5,11.2 -22.8,13.6 -2.3,0.7 -2.3,0.6 -0.8,-2.4 0.9,-1.6 4.4,-5.9 7.9,-9.5 6.8,-7.2 10,-8.3 13.7,-4.6 z m 59.1,3.9 c 1.6,1.3 2.4,3.3 2.8,6.7 l 0.6,4.9 6.2,-0.3 c 7.3,-0.4 10.3,1.6 10.3,7.1 0,4.9 1.5,5.9 6.1,4 7.3,-2.9 13.5,1 12.6,7.8 -0.7,5 0.7,6.1 6,4.7 5.8,-1.4 9.5,0.5 10.7,5.4 1,4.1 2.8,5.3 5.6,3.8 2.6,-1.4 9.3,-1.3 10.8,0.2 3,3 -0.9,12.8 -5.1,12.8 -9.6,-0.1 -53.7,-28.3 -71.1,-45.4 -3.6,-3.6 -6.6,-7.1 -6.6,-7.8 0,-2 4.2,-5.8 6.6,-5.8 1.2,0 3.2,0.8 4.5,1.9 z m 36.1,116.1 c 6.5,2 12.1,6.3 13.3,10.2 1.1,3.1 -0.2,3.3 -5.6,0.8 -5,-2.4 -17.4,-12.9 -15.3,-13 0.7,0 4.1,0.9 7.6,2 z"
       id="path334-2"
       style="fill:#493323;fill-opacity:1;stroke:none;stroke-width:0.1;stroke-opacity:1" /><path
       d="m 3834.2851,1037.8537 c -1.6,1.7 -0.6,5.5 1.8,6.6 3.2,1.4 5.7,-0.5 5.3,-4.1 -0.2,-2.1 -0.9,-2.7 -3.3,-2.9 -1.7,-0.2 -3.4,0 -3.8,0.4 z"
       id="path336-0"
       style="fill:#493323;fill-opacity:1;stroke:none;stroke-width:0.1;stroke-opacity:1" /><path
       d="m 3805.1851,1042.8537 c -2.2,2.1 -2,5.1 0.4,6.4 4.2,2.2 8.2,-3.4 4.8,-6.8 -1.6,-1.6 -3.3,-1.5 -5.2,0.4 z"
       id="path338-6"
       style="fill:#493323;fill-opacity:1;stroke:none;stroke-width:0.1;stroke-opacity:1" /><path
       d="m 3843.5851,1052.7537 c -0.5,1.4 -1.3,3.7 -1.6,5 -1.1,4.6 -8.1,11.2 -13.5,13 -9,3 -16,0.7 -23.1,-7.5 -4.7,-5.5 -7.8,-6.5 -7.8,-2.6 0,3.3 8,11.9 13.5,14.5 9.8,4.6 23.1,1.8 30.6,-6.6 6.2,-6.8 8.9,-17.3 4.7,-18.1 -1.2,-0.2 -2.1,0.6 -2.8,2.3 z"
       id="path340-4"
       style="fill:#493323;fill-opacity:1;stroke:none;stroke-width:0.1;stroke-opacity:1" /></g></svg>
