<?xml version="1.0" encoding="UTF-8" standalone="no"?>
<svg
   version="1.0"
   width="241.5576pt"
   height="393.63477pt"
   viewBox="0 0 241.5576 393.63476"
   preserveAspectRatio="xMidYMid"
   id="svg522"
   sodipodi:docname="iStock_1321221451_1733912860171 - VŠE.svg"
   inkscape:version="1.2 (dc2aedaf03, 2022-05-15)"
   xml:space="preserve"
   xmlns:inkscape="http://www.inkscape.org/namespaces/inkscape"
   xmlns:sodipodi="http://sodipodi.sourceforge.net/DTD/sodipodi-0.dtd"
   xmlns="http://www.w3.org/2000/svg"
   xmlns:svg="http://www.w3.org/2000/svg"><defs
     id="defs526" /><sodipodi:namedview
     id="namedview524"
     pagecolor="#ffffff"
     bordercolor="#666666"
     borderopacity="1.0"
     inkscape:showpageshadow="2"
     inkscape:pageopacity="0.0"
     inkscape:pagecheckerboard="0"
     inkscape:deskcolor="#d1d1d1"
     inkscape:document-units="pt"
     showgrid="false"
     inkscape:zoom="0.2503158"
     inkscape:cx="7166.9467"
     inkscape:cy="1300.3574"
     inkscape:window-width="1920"
     inkscape:window-height="1001"
     inkscape:window-x="-9"
     inkscape:window-y="-9"
     inkscape:window-maximized="1"
     inkscape:current-layer="svg522" /><metadata
     id="metadata2">
Created by potrace 1.16, written by Peter Selinger 2001-2019
</metadata><g
     id="g2768"
     transform="translate(-4703.5849,-124.49456)"
     style="fill:#493323;fill-opacity:1;stroke:none;stroke-opacity:1"
     inkscape:export-filename="holka tralala 2.svg"
     inkscape:export-xdpi="300"
     inkscape:export-ydpi="300"><path
       d="m 4772.5851,125.3537 c -12,2 -22.3,9.3 -27.8,19.6 -6.4,12.1 -8,25.7 -5.8,48.2 1.9,18.3 2,30.7 0.5,38.5 -1.4,6.7 -0.6,8.2 3.8,7.2 4.9,-1.3 12.3,-10.4 19.8,-24.5 10.1,-19 11.9,-21.6 17.2,-25.5 4.9,-3.6 13.1,-6.3 15.8,-5.2 2.1,0.8 1,4.9 -2.5,10.1 -3.7,5.4 -7.5,14.7 -8.9,21.6 -1.1,5.4 -1.4,5.7 -5.6,7.3 -2.4,1 -5.8,3.3 -7.4,5.1 -9,10.2 -2,23.5 12.3,23.5 3.8,0 4.6,0.4 5.2,2.2 1,3.4 6.8,12.1 11,16.7 4.7,5.3 4.1,7.1 -2.6,7.1 -6.4,0 -9.3,2.5 -8.8,7.7 0.2,3.1 -0.1,3.6 -3.1,4.9 -3.2,1.4 -3.6,1.3 -12.1,-3.2 -12.4,-6.5 -24.3,-15.9 -36.4,-28.4 l -10.4,-10.9 0.5,-10.3 c 0.4,-8.9 0.2,-10.8 -1.5,-13.8 -2.8,-5.1 -7.5,-8 -13.2,-8 -5.9,0 -9,2.9 -9,8.4 0,5.6 3.3,11 13,21 4.8,5 12.6,13.1 17.1,18 12.6,13.3 29.8,26.2 42.7,32 2.5,1.1 4.2,2.6 4.2,3.6 0,0.9 0.5,2.1 1.2,2.8 0.9,0.9 0.7,1.7 -1,3.5 -1.2,1.3 -2.2,3.2 -2.2,4.3 0,2.1 2.7,5.6 5.5,7.2 1.4,0.7 0.5,4 -6.4,24.8 -12.4,37 -19.9,65.1 -18.7,69.8 1.3,5.1 14.5,8.5 39.4,10.1 11.4,0.8 12,1.2 17.9,11.2 l 2.6,4.5 -7.4,7.4 c -4.1,4.2 -10,9.2 -13.1,11.3 -5.5,3.7 -5.8,3.8 -12.7,3.3 -9.5,-0.6 -15,1 -21.1,6.5 -10.5,9.4 -13.3,23.3 -5.3,26.4 4.5,1.7 10.6,-2.3 23.2,-15 6.3,-6.3 14.2,-13.3 17.5,-15.4 6.1,-3.9 21.9,-18.6 23.7,-22 1.1,-1.9 -1.4,-8.5 -5.1,-13.6 -1.1,-1.6 -2,-3.2 -2,-3.5 0,-0.3 3.6,-0.6 8,-0.6 h 8 v 2.7 c 0,4.2 -9.7,60.7 -12,69.7 -2.5,10 -2.5,13.7 0,16.9 2.7,3.5 12.7,6.7 22.7,7.4 9.2,0.6 11.3,-0.2 11.3,-4.6 0,-5.8 -9.7,-13.6 -23.2,-18.6 -4,-1.5 -4.7,-2.1 -4.3,-3.9 0.9,-3.8 7.3,-40.8 9.6,-55.3 l 2.2,-14.2 5.1,-0.5 c 2.8,-0.3 10.1,-1 16.2,-1.6 12.9,-1.2 21.9,-3.3 25.4,-5.9 2.2,-1.7 2.5,-2.5 2.3,-8.2 -0.1,-7 -3.5,-24.9 -12,-64.2 l -5.6,-25.8 2.6,-2.7 c 4.7,-5 5.4,-10.7 1.5,-13.3 -1.9,-1.2 1.5,-5.7 6,-7.8 16.4,-8 34.6,-32.2 45,-59.9 2.6,-6.7 4.7,-10.8 6.5,-12.2 4.1,-3.3 11.6,-13.8 12.7,-18.1 0.8,-3 0.8,-4.5 -0.4,-6.8 -1.7,-3.2 -3.4,-4.1 -7.7,-4.1 -7.8,0 -11.8,6.8 -12.9,21.9 -0.8,11.5 -2.7,17.5 -10.1,32.4 -8.9,17.7 -20.7,32.2 -32.9,40.1 -7.2,4.8 -9.3,4.8 -8.4,0.1 0.4,-2.2 0.2,-4.1 -0.6,-5 -1.4,-1.7 -5.3,-2 -8.1,-0.5 -1,0.6 -1.9,0.8 -1.9,0.6 0,-0.3 1.8,-1.5 4,-2.6 5.3,-2.7 11.3,-8.2 16.1,-14.6 4.3,-5.9 6.5,-10.4 8.9,-18.8 1.6,-5.8 1.8,-6 6.2,-7.3 5.9,-1.7 10.8,-7 10.8,-11.7 0,-4.9 -3.7,-9.7 -9.9,-12.9 -5,-2.5 -5.6,-3.2 -7.1,-8 -6.8,-21.7 -25.8,-35.8 -48.3,-35.7 -3.4,0 -7.8,0.4 -9.9,0.9 -2.8,0.7 -4.6,0.4 -8,-1.2 l -4.4,-2 -0.1,-7.6 c -0.1,-24 -19.6,-37.5 -47.3,-33 z m 21.9,6.4 c 11.2,2.9 18.8,11.9 19.8,23.3 l 0.5,5.8 -3.9,-0.4 c -3.5,-0.3 -4.3,0 -6.6,2.8 -1.5,1.7 -2.7,3.9 -2.7,4.8 0,0.9 -1.5,2.4 -3.3,3.2 -1.7,0.8 -3.8,2.7 -4.5,4.1 -0.8,1.9 -2.3,2.9 -5,3.4 -5.4,1 -13.6,6 -17.7,10.8 -1.9,2.2 -6.1,9.1 -9.2,15.1 -5.6,11.1 -13.3,23.9 -15,24.9 -0.5,0.3 -0.9,-5.7 -1,-13.6 -0.1,-7.8 -0.6,-18 -1.2,-22.7 -5.2,-40.3 7.9,-62.7 36.9,-62.9 4.1,-0.1 9.9,0.6 12.9,1.4 z m 17.7,36.2 c 1.2,5.5 1.1,5.5 5.8,4.8 3.9,-0.6 4.6,-0.4 5.6,1.5 1.5,2.9 -0.2,7 -2.9,7 -3.1,0 -4.6,2.6 -3.1,5.4 1.5,2.8 0.7,4.6 -2.1,4.6 -1.2,0 -2.3,-1 -2.9,-2.5 -1.4,-3.7 -3.9,-4.3 -6.1,-1.4 -1.3,1.7 -2.1,2.1 -2.9,1.3 -1.2,-1.2 -0.4,-4.4 1.1,-4.4 0.5,0 0.9,-1.1 0.9,-2.5 0,-1.9 -0.5,-2.5 -2.2,-2.5 -1.3,0 -3,-0.4 -3.8,-1 -1.2,-0.8 -1.2,-1 0.3,-1.6 0.9,-0.3 2.6,-0.4 3.7,-0.1 2.5,0.7 4.4,-1.7 3.6,-4.6 -0.5,-2.3 1.7,-6.7 3.4,-6.7 0.5,0 1.2,1.2 1.6,2.7 z m 38.9,6.7 c 14.1,3 24.8,11.3 31,24 1.9,3.9 3.7,8.3 4.1,9.8 0.6,2.7 0.5,2.8 -3.8,2.8 -6.6,0 -15.4,-2.5 -24.1,-7 -8.6,-4.4 -10.5,-4.8 -11.3,-2.5 -0.9,2.1 -11.9,10.2 -18.6,13.6 -8.4,4.3 -22.2,8 -30.5,8.2 -3.9,0.1 -7.5,-0.1 -7.9,-0.6 -1.4,-1.4 1.5,-13 5.3,-20.6 l 3.8,-7.6 4.7,-0.5 c 3,-0.4 5.3,-0.1 6.4,0.7 1,0.7 3.5,1.3 5.6,1.3 4.7,0 9.1,-3.8 8.7,-7.3 -0.2,-1.3 0.7,-3.2 2.4,-4.9 1.7,-1.7 2.7,-3.8 2.7,-5.7 0,-2.7 0.4,-3.1 3.8,-3.6 2,-0.4 4.4,-0.8 5.2,-1 3.2,-0.6 6.7,-0.4 12.5,0.9 z m 88.2,22.2 c 0.3,0.9 -0.2,3.2 -1.1,5.1 -2,4.2 -7.6,11.3 -8.9,11.3 -1,0 -0.2,-6.5 1.4,-11.7 1.6,-5.1 7.2,-8.2 8.6,-4.7 z m -81.9,13.3 c 8,4 15.5,6 23.4,6.3 6.5,0.3 6.8,0.4 7.4,3.2 0.3,1.5 0.3,5.3 -0.1,8.5 -3.8,32.1 -22.3,50.4 -51,50.6 -12.2,0 -20.6,-2.6 -28.8,-9.1 -9.3,-7.3 -16.9,-21.6 -19.1,-36.2 l -0.6,-4.2 h 7.2 c 14.8,0 35.1,-7.1 47.3,-16.5 3.9,-2.9 7.4,-5.4 7.8,-5.4 0.4,-0.1 3.4,1.2 6.5,2.8 z m 42,9.4 c 3.1,2.8 2.9,7 -0.4,9.6 -4.7,3.7 -5.4,2.9 -5.4,-5.4 0,-8.2 0.7,-8.7 5.8,-4.2 z m -181,3 c 3.5,2.8 5.3,12.1 3.3,17.1 -0.6,1.6 -1.4,1.1 -5.9,-4 -5.9,-6.6 -8.1,-11.6 -6.1,-14 1.4,-1.7 6.1,-1.3 8.7,0.9 z m 65.7,11.4 c 1.3,12.2 1.4,11.8 -2,11.6 -4.6,-0.4 -8,-3.4 -8.3,-7.7 -0.3,-3.1 0.2,-4.2 3.1,-7.1 5.2,-5.2 6.3,-4.7 7.2,3.2 z m 50,50.1 c 7.8,0.3 12.7,0 16.7,-1.1 5.3,-1.4 5.8,-1.4 6.2,0.2 3.3,11 19.8,87.5 23.6,108.9 1.1,6.4 2.3,12.7 2.6,14 0.4,1.9 -0.2,2.5 -3.3,3.9 -17.8,7.4 -99.6,7.6 -113.4,0.3 -1.8,-1 -2,-1.7 -1.4,-5.7 2.8,-18.9 27.2,-91.9 39.8,-119.5 l 3.5,-7.7 7.4,3.1 c 6.3,2.7 8.8,3.2 18.3,3.6 z m -34.5,-1.2 c 0,0.3 -0.5,1.4 -1.1,2.5 -1,2 -1.1,2 -3,0.3 -1.5,-1.3 -1.7,-1.9 -0.7,-2.6 1.5,-0.9 4.8,-1.1 4.8,-0.2 z m -5,11.1 c 0,1.5 -2.4,7.3 -3.1,7.3 -0.3,0 -1.8,-0.9 -3.3,-2.1 -2.1,-1.6 -2.4,-2.4 -1.6,-3.4 1.5,-1.8 8,-3.2 8,-1.8 z m 74,0.8 c -0.7,0.8 -1.6,1.5 -2.1,1.5 -0.5,0 -0.9,-0.7 -0.9,-1.5 0,-0.9 0.9,-1.5 2.1,-1.5 1.8,0 1.9,0.2 0.9,1.5 z m 2.3,9.1 c 0.3,0.4 0.1,1.6 -0.5,2.8 -1.1,2 -1.1,2 -1.8,0.1 -1.1,-2.8 0.5,-4.7 2.3,-2.9 z m -82,5.4 c -0.6,2.2 -1.1,2.4 -3.3,1 -1.3,-0.9 -1.3,-1.1 0,-2 2.4,-1.6 3.9,-1.2 3.3,1 z m -3.9,154.9 c 1.3,2 -19.9,22.1 -23.2,22.1 -1.5,0 -1.6,-4.9 -0.2,-8.4 1.8,-4.8 9,-11.5 13.9,-13 5.4,-1.7 8.8,-1.9 9.5,-0.7 z m 51,39 c 7.8,3.6 13.7,8.4 12.3,9.8 -0.4,0.3 -4.6,-0.1 -9.3,-1.1 -8.5,-1.7 -13.7,-3.6 -14.9,-5.6 -1.1,-1.8 0.6,-7 2.2,-7 0.8,0 5.2,1.7 9.7,3.9 z"
       id="path60-4"
       style="fill:#493323;fill-opacity:1;stroke:none;stroke-width:0.1;stroke-opacity:1" /><path
       d="m 4849.3851,227.3537 c -2.7,1.5 -2.3,5.7 0.7,7.1 1.9,0.8 2.8,0.8 4,-0.2 2.1,-1.8 1.9,-5.7 -0.4,-7 -2.3,-1.2 -2.2,-1.2 -4.3,0.1 z"
       id="path62-0"
       style="fill:#493323;fill-opacity:1;stroke:none;stroke-width:0.1;stroke-opacity:1" /><path
       d="m 4819.3851,231.3537 c -2.4,1.4 -2.3,5.6 0.2,6.9 4.2,2.2 8.2,-3.4 4.8,-6.8 -1.4,-1.4 -2.7,-1.5 -5,-0.1 z"
       id="path64-0"
       style="fill:#493323;fill-opacity:1;stroke:none;stroke-width:0.1;stroke-opacity:1" /><path
       d="m 4860.1851,237.4537 c -0.3,0.7 -1.2,3.6 -2,6.4 -3.7,11.7 -17,17.6 -28.1,12.5 -2.3,-1 -5.9,-3.9 -8.2,-6.5 -4.4,-5 -6.8,-5.8 -7.6,-2.6 -0.8,3.1 8.2,12.4 14.1,14.7 13.5,5.2 28.6,-0.9 34.1,-13.7 1.1,-2.6 2.2,-6.3 2.3,-8.1 0.3,-2.9 -0.1,-3.5 -2,-3.7 -1.2,-0.2 -2.4,0.3 -2.6,1 z"
       id="path66-3"
       style="fill:#493323;fill-opacity:1;stroke:none;stroke-width:0.1;stroke-opacity:1" /><path
       d="m 4814.1851,292.3537 c -3.3,2.6 -3.5,7.1 -0.4,9.3 4.9,3.4 10.8,0.7 10.8,-4.9 0,-2.4 -0.7,-3.9 -2.2,-4.9 -3,-2.1 -5,-2 -8.2,0.5 z"
       id="path68-6"
       style="fill:#493323;fill-opacity:1;stroke:none;stroke-width:0.1;stroke-opacity:1" /><path
       d="m 4845.2851,303.0537 c -2.4,2.6 -2.1,6.7 0.5,9.2 2.8,2.5 4.8,2.5 8.2,-0.1 3,-2.4 3.5,-6.9 1,-9.3 -2.1,-2.2 -7.7,-2 -9.7,0.2 z"
       id="path70-5"
       style="fill:#493323;fill-opacity:1;stroke:none;stroke-width:0.1;stroke-opacity:1" /><path
       d="m 4827.0851,325.9537 c -7.7,1.9 -6.8,13.3 1,13.3 4.9,0 9.2,-6.9 6.7,-10.6 -0.7,-1.1 -4.7,-3.5 -5.4,-3.3 -0.2,0.1 -1.2,0.4 -2.3,0.6 z m 2.5,6.3 c 0,0.5 -0.7,1 -1.6,1 -0.8,0 -1.2,-0.5 -0.9,-1 0.3,-0.6 1,-1 1.6,-1 0.5,0 0.9,0.4 0.9,1 z"
       id="path72-5"
       style="fill:#493323;fill-opacity:1;stroke:none;stroke-width:0.1;stroke-opacity:1" /><path
       d="m 4795.7851,343.5537 c -2.4,2.5 -2.9,7.6 -1,9.5 2,2 9.1,1.5 11.6,-0.8 2.8,-2.6 2.8,-5 0.1,-8.4 -2.7,-3.4 -7.7,-3.6 -10.7,-0.3 z m 6.3,4.8 c -0.4,0.5 -1.3,0.9 -2.2,0.9 -1.3,0 -1.3,-0.3 -0.3,-1.5 1.3,-1.5 3.5,-1.1 2.5,0.6 z"
       id="path74-2"
       style="fill:#493323;fill-opacity:1;stroke:none;stroke-width:0.1;stroke-opacity:1" /><path
       d="m 4847.1851,350.4537 c -3.9,3.5 -4.3,7.2 -1.1,10.4 2.2,2.2 3.2,2.5 6.3,1.9 7.4,-1.3 9.9,-7.8 4.8,-12.2 -3.4,-2.9 -6.8,-2.9 -10,-0.1 z m 6.5,5.3 c 0,0.5 -0.9,1.1 -2.1,1.3 -2,0.3 -2.7,-0.8 -1.3,-2.2 1,-0.9 3.4,-0.3 3.4,0.9 z"
       id="path76-5"
       style="fill:#493323;fill-opacity:1;stroke:none;stroke-width:0.1;stroke-opacity:1" /><path
       d="m 4818.5851,367.9537 c -7.3,2.7 -6.2,13.3 1.3,13.3 4.8,0 7.7,-2.4 7.7,-6.4 0,-4.6 -4.9,-8.4 -9,-6.9 z m 3.2,6.8 c 0,0.5 -0.5,1.1 -1.1,1.3 -0.6,0.2 -1.1,-0.4 -1.1,-1.3 0,-0.9 0.5,-1.5 1.1,-1.3 0.6,0.2 1.1,0.8 1.1,1.3 z"
       id="path78-5"
       style="fill:#493323;fill-opacity:1;stroke:none;stroke-width:0.1;stroke-opacity:1" /><path
       d="m 4844.5851,389.9537 c -5,1.8 -6.6,7.5 -3.1,10.7 2.7,2.5 8.9,2.5 10.7,0.1 2.3,-3.1 1.7,-7.1 -1.2,-9.4 -2.7,-2.1 -3.8,-2.4 -6.4,-1.4 z m 3.5,6.3 c 0.3,0.5 -0.1,1 -0.9,1 -0.9,0 -1.6,-0.5 -1.6,-1 0,-0.6 0.4,-1 0.9,-1 0.6,0 1.3,0.4 1.6,1 z"
       id="path80-5"
       style="fill:#493323;fill-opacity:1;stroke:none;stroke-width:0.1;stroke-opacity:1" /><path
       d="m 4789.1851,395.4537 c -3.7,5.2 -0.5,10.2 6,9.6 3,-0.2 4.2,-0.9 5.4,-3.1 1.3,-2.4 1.3,-3 0,-5.5 -1.3,-2.1 -2.4,-2.8 -5.7,-3 -3.3,-0.2 -4.4,0.1 -5.7,2 z m 6.4,3.8 c 0,0.5 -0.4,1 -1,1 -0.5,0 -1,-0.5 -1,-1 0,-0.6 0.5,-1 1,-1 0.6,0 1,0.4 1,1 z"
       id="path82-1"
       style="fill:#493323;fill-opacity:1;stroke:none;stroke-width:0.1;stroke-opacity:1" /></g></svg>
