<?xml version="1.0" encoding="UTF-8" standalone="no"?>
<svg
   version="1.0"
   width="378.99658pt"
   height="265.31567pt"
   viewBox="0 0 378.99658 265.31567"
   preserveAspectRatio="xMidYMid"
   id="svg522"
   sodipodi:docname="iStock_1321221451_1733912860171 - VŠE.svg"
   inkscape:version="1.2 (dc2aedaf03, 2022-05-15)"
   xml:space="preserve"
   xmlns:inkscape="http://www.inkscape.org/namespaces/inkscape"
   xmlns:sodipodi="http://sodipodi.sourceforge.net/DTD/sodipodi-0.dtd"
   xmlns="http://www.w3.org/2000/svg"
   xmlns:svg="http://www.w3.org/2000/svg"><defs
     id="defs526" /><sodipodi:namedview
     id="namedview524"
     pagecolor="#ffffff"
     bordercolor="#666666"
     borderopacity="1.0"
     inkscape:showpageshadow="2"
     inkscape:pageopacity="0.0"
     inkscape:pagecheckerboard="0"
     inkscape:deskcolor="#d1d1d1"
     inkscape:document-units="pt"
     showgrid="false"
     inkscape:zoom="0.1251579"
     inkscape:cx="-1877.6282"
     inkscape:cy="5413.1621"
     inkscape:window-width="1920"
     inkscape:window-height="1001"
     inkscape:window-x="-9"
     inkscape:window-y="-9"
     inkscape:window-maximized="1"
     inkscape:current-layer="svg522" /><metadata
     id="metadata2">
Created by potrace 1.16, written by Peter Selinger 2001-2019
</metadata><g
     id="g2803"
     transform="translate(-4124.7782,-1457.4382)"
     style="fill:#493323;fill-opacity:1"><g
       id="g4069"><path
         d="m 4327.4851,1459.2537 c -12.6,6.6 -25.7,31.5 -41.3,77.9 l -5.2,15.4 -4.3,-10.9 c -7.2,-18.3 -12.4,-25.9 -20.5,-29.9 -6,-3 -7.1,-3.1 -12.9,-0.6 -22.6,9.7 -62.4,75.8 -109.2,181.7 -5.3,11.9 -9.5,22.4 -9.3,23.3 0.2,0.9 1.2,1.6 2.2,1.6 1.6,0 4.2,-5.1 13.6,-26 12.1,-27.3 33.8,-72.9 37.1,-78.5 l 2,-3.2 2.6,5.2 c 5.3,10.7 14.8,13.8 26.1,8.5 5.9,-2.7 16.4,-12.2 22,-19.9 l 3.5,-4.8 1.9,3.5 c 1,2 2.8,4.3 4,5.1 3,2.2 8.6,2 12.5,-0.3 l 3.1,-2 4.1,3.9 4.1,3.9 -4.9,19.8 c -8.7,34.8 -17.2,72.5 -16.7,73.9 0.9,2.3 4.5,1.7 5.1,-0.9 0.3,-1.2 2.8,-12.1 5.5,-24.2 9.6,-41.9 24.3,-98 32.2,-122.8 l 3.1,-9.8 1.2,3.5 c 3,8.7 8.6,11.7 15.4,8.2 2.7,-1.5 9.2,-8.1 12.3,-12.6 l 1.7,-2.5 v 2.5 c 0.1,3.6 2.7,13.5 5.2,19.7 2.4,5.9 7.8,11.3 11.2,11.3 5.1,0 9.5,-6.1 11.1,-15.5 1.4,-7.8 1.6,-7.9 4.7,-1.5 3.7,7.3 7.5,10.3 12.7,9.8 l 3.7,-0.3 0.8,8.3 0.7,8.3 -8.2,15.2 c -4.5,8.4 -11.2,21.7 -15,29.7 -15.7,32.9 -37.2,84.5 -36.6,87.8 0.2,0.9 1.2,1.7 2.2,1.7 1.5,0 2.7,-1.8 4.9,-7.5 11.2,-28.3 26.8,-64.4 33.9,-78.4 l 3.5,-6.9 0.6,5.1 c 1,8.4 4.5,14.1 10.9,17.3 7.3,3.7 14.5,1.9 22.5,-5.5 l 5.8,-5.4 2.7,6.7 c 5.1,12.3 12.1,18.1 21.9,18.1 4.9,0 5.5,-0.3 9.4,-4.3 4.3,-4.5 6.5,-10.4 8,-21 l 0.6,-4.8 3.9,3.1 c 4.7,3.8 10,6 14,6 5.1,0 11.7,-7 14.5,-15.4 l 2.3,-6.9 7.5,22.9 c 4.1,12.6 10.5,33.5 14.2,46.4 6.8,23.4 8.6,27.4 11.2,24.7 1.2,-1.1 0.4,-4.8 -4.7,-22.3 -17.5,-59.9 -26.1,-84.3 -39.5,-111.9 -11.7,-24.2 -21.5,-36.8 -32.9,-42.5 -7.4,-3.8 -9.8,-3.7 -17.4,0.1 -7.7,3.8 -19.4,16 -28.3,29.5 -4,6 -6.5,9 -7,8.2 -0.3,-0.7 -0.9,-4.9 -1.3,-9.3 -0.8,-9.8 -5.9,-40.8 -8.7,-53 -7.5,-32.4 -14.8,-49.6 -23.8,-55.6 -5.1,-3.4 -7.2,-3.5 -12.2,-0.9 z m 11.7,7.5 c 8.9,9.5 18.5,40.9 24.5,80.6 2.2,14.1 2.2,14.8 0.5,17.4 -1.6,2.4 -1.9,2.5 -3.9,1.2 -3.1,-2 -6.6,-9.4 -9.7,-20 -1.4,-5 -3,-9.2 -3.5,-9.4 -2.5,-0.7 -3.5,1.9 -4.5,12.2 -1.7,17.8 -5,26.6 -9.1,24.5 -3.9,-2.1 -8.9,-17.2 -10.4,-31.5 -1,-9.3 -1.3,-10.5 -3.5,-10.5 -1.4,0 -2.2,1.1 -3,3.7 -2,7.4 -8.8,17.2 -14.5,20.9 -5.4,3.6 -9,-2.7 -8.9,-15.6 0.1,-7.8 0.5,-9.7 5.3,-22 10.5,-27.3 20.3,-45.3 28.3,-51.8 5.2,-4.2 8.2,-4.1 12.4,0.3 z m -82.9,51.4 c 6.1,4.4 10.6,12.5 17.7,31.9 l 4.2,11.2 -6.3,22.2 c -3.5,12.2 -6.5,22.4 -6.8,22.6 -1,1 -4.4,-3.1 -5,-6 -1,-4.5 -3.2,-4.6 -7,-0.5 -1.8,2 -4.6,3.9 -6.1,4.3 -3.8,1 -7.1,-2.9 -7.9,-9.3 -0.9,-6.6 -1.2,-7.3 -3.2,-7.3 -1.1,0 -3,2.1 -5,5.8 -7.8,14.1 -24,28.2 -32.3,28.2 -6.4,0 -14,-9.3 -14,-17 0,-10.5 39.3,-72.1 52.8,-82.9 8.8,-6.9 12.8,-7.6 18.9,-3.2 z m 170.1,28.5 c 11.5,7.7 24.5,27.8 35.3,54.6 l 4.2,10.5 -1.1,7.7 c -1.2,8.3 -5,17.1 -8.1,18.8 -3.2,1.6 -7.6,1.2 -11.2,-1.3 -2.9,-1.9 -5.7,-5.2 -11.3,-13.2 -1.1,-1.6 -1.6,-1.7 -2.8,-0.7 -1.2,0.9 -1.7,4.2 -2,13 -0.4,9.4 -0.9,12.8 -2.8,17 -3.9,9 -11.1,10.5 -18.6,4 -4.2,-3.7 -6.5,-7.9 -9.4,-17.5 -2.2,-7.3 -3.8,-9.7 -5.6,-8.5 -0.5,0.4 -2.5,3.1 -4.4,6.1 -4.3,6.8 -10.7,11.1 -16.6,11.1 -8.6,0 -13.4,-8 -13.4,-22.3 0,-6.7 0.3,-7.6 6.5,-19.3 16.5,-31.4 32.1,-52.8 44.1,-60.3 6.5,-4.2 10.7,-4.1 17.2,0.3 z"
         id="path448-1"
         style="fill:#493323;fill-opacity:1;stroke:none;stroke-width:0.1" /><path
         d="m 4295.1851,1593.9537 c -1.9,5.4 -2,8.9 -0.5,9.9 1.6,1 3.5,-1.5 5.4,-7.3 1.8,-5.6 1.4,-7.3 -1.5,-7.3 -1.3,0 -2.3,1.4 -3.4,4.7 z"
         id="path478-6"
         style="fill:#493323;fill-opacity:1;stroke:none;stroke-width:0.1" /><path
         d="m 4341.1851,1599.1537 c -0.3,0.5 -0.3,3.7 0.1,7 0.6,6.7 2.9,9.5 5.3,6.6 1.2,-1.5 0.5,-9.5 -1.2,-12.8 -0.9,-1.8 -3.3,-2.3 -4.2,-0.8 z"
         id="path480-3"
         style="fill:#493323;fill-opacity:1;stroke:none;stroke-width:0.1" /><path
         d="m 4320.0851,1610.5537 c -0.8,1.3 -1.8,5 -2.1,8.4 -0.5,4.9 -0.4,6.1 0.9,6.6 2.3,0.9 3.4,-1 4.7,-8 1.7,-8.7 0,-12.2 -3.5,-7 z"
         id="path482-6"
         style="fill:#493323;fill-opacity:1;stroke:none;stroke-width:0.1" /><path
         d="m 4225.5851,1636.1537 c -0.5,1.1 -1.7,4.5 -2.5,7.7 -1.3,5.2 -1.3,6 0,7.3 1.3,1.3 1.7,1.3 2.8,0.1 1.4,-1.5 4.7,-12.6 4.7,-15.5 0,-2.2 -3.7,-1.9 -5,0.4 z"
         id="path484-8"
         style="fill:#493323;fill-opacity:1;stroke:none;stroke-width:0.1" /><path
         d="m 4191.0851,1643.5537 c -2.1,3.2 -4.5,11.6 -3.8,13.3 0.3,0.9 1.4,1.4 2.5,1.2 1.5,-0.2 2.6,-2.1 4.3,-7.6 2.2,-7 2.2,-7.3 0.4,-8.2 -1.5,-0.8 -2.1,-0.6 -3.4,1.3 z"
         id="path496-0"
         style="fill:#493323;fill-opacity:1;stroke:none;stroke-width:0.1" /><path
         d="m 4315.9851,1650.3537 c -0.3,0.6 -1.6,6.2 -2.9,12.5 -1.8,9.4 -1.9,11.6 -0.9,12.5 2.8,2.3 4.1,0 6.4,-11.5 1.2,-6.3 2,-12.2 1.7,-13.1 -0.7,-1.7 -3.3,-2 -4.3,-0.4 z"
         id="path498-3"
         style="fill:#493323;fill-opacity:1;stroke:none;stroke-width:0.1" /><path
         d="m 4281.7851,1660.4537 c -1.7,2.1 -5.3,15.5 -4.6,17.2 0.7,1.9 2.8,2.1 4.1,0.3 1.4,-1.9 5.4,-16.7 4.8,-17.8 -0.9,-1.3 -3.1,-1.1 -4.3,0.3 z"
         id="path500-3"
         style="fill:#493323;fill-opacity:1;stroke:none;stroke-width:0.1" /><path
         d="m 4444.8851,1664.8537 c -1,2.5 3,13.8 5,14.2 2.7,0.5 3.1,-2.6 1.2,-8.7 -2.1,-6.8 -4.8,-9.2 -6.2,-5.5 z"
         id="path502-7"
         style="fill:#493323;fill-opacity:1;stroke:none;stroke-width:0.1" /><path
         d="m 4206.7851,1668.5537 c -2,2.4 -4.6,13.7 -3.4,14.9 1.3,1.3 4.1,0.4 4.6,-1.4 0.2,-0.7 1.1,-3.7 1.9,-6.7 1.2,-4 1.3,-5.8 0.5,-6.8 -1.3,-1.6 -2.3,-1.6 -3.6,0 z"
         id="path504-8"
         style="fill:#493323;fill-opacity:1;stroke:none;stroke-width:0.1" /><path
         d="m 4395.7851,1668.4537 c -1.3,1.7 -3.2,8.6 -3.2,12.1 0,2.3 0.4,2.8 2.2,2.5 1.7,-0.2 2.5,-1.6 3.9,-6.8 1.2,-4.6 1.4,-6.8 0.7,-7.7 -1.3,-1.6 -2.3,-1.6 -3.6,-0.1 z"
         id="path506-1"
         style="fill:#493323;fill-opacity:1;stroke:none;stroke-width:0.1" /><path
         d="m 4359.1851,1682.3537 c -2.3,3.3 -5.8,14.4 -5.4,17.1 0.2,1.5 1,2.3 2.2,2.3 1.4,0 2.5,-2 4.8,-8.5 1.6,-4.7 3,-9.4 3.1,-10.5 0.3,-2.8 -2.8,-3 -4.7,-0.4 z"
         id="path508-2"
         style="fill:#493323;fill-opacity:1;stroke:none;stroke-width:0.1" /><path
         d="m 4165.1851,1694.4537 c -2.6,4.1 -5.5,12.4 -4.6,13.7 1.6,2.7 4.2,0.5 7.1,-6.2 1.6,-3.8 2.9,-7.5 2.9,-8.3 0,-2.2 -3.8,-1.6 -5.4,0.8 z"
         id="path514-7"
         style="fill:#493323;fill-opacity:1;stroke:none;stroke-width:0.1" /><path
         d="m 4214.6851,1694.5537 c -1.9,4.9 -2.3,11.3 -0.9,12.5 2.1,1.7 3.9,-0.1 4.9,-4.9 1.4,-7.5 1.2,-9.9 -1.1,-9.9 -1.2,0 -2.4,1 -2.9,2.3 z"
         id="path516-9"
         style="fill:#493323;fill-opacity:1;stroke:none;stroke-width:0.1" /><path
         d="m 4426.0851,1704.2537 c -0.4,0.6 -0.2,3.4 0.5,6.3 0.6,2.9 1.3,6.2 1.6,7.4 0.5,2.6 3.9,3.1 4.8,0.8 0.7,-1.8 -0.9,-10.7 -2.4,-13.5 -1.2,-2.2 -3.5,-2.6 -4.5,-1 z"
         id="path518-8"
         style="fill:#493323;fill-opacity:1;stroke:none;stroke-width:0.1" /></g></g></svg>
