<?xml version="1.0" encoding="UTF-8" standalone="no"?>
<svg
   version="1.0"
   width="70.321655pt"
   height="78.305664pt"
   viewBox="0 0 70.321655 78.305663"
   preserveAspectRatio="xMidYMid"
   id="svg522"
   sodipodi:docname="iStock_1321221451_1733912860171 - VŠE.svg"
   inkscape:version="1.2 (dc2aedaf03, 2022-05-15)"
   xml:space="preserve"
   xmlns:inkscape="http://www.inkscape.org/namespaces/inkscape"
   xmlns:sodipodi="http://sodipodi.sourceforge.net/DTD/sodipodi-0.dtd"
   xmlns="http://www.w3.org/2000/svg"
   xmlns:svg="http://www.w3.org/2000/svg"><defs
     id="defs526" /><sodipodi:namedview
     id="namedview524"
     pagecolor="#ffffff"
     bordercolor="#666666"
     borderopacity="1.0"
     inkscape:showpageshadow="2"
     inkscape:pageopacity="0.0"
     inkscape:pagecheckerboard="0"
     inkscape:deskcolor="#d1d1d1"
     inkscape:document-units="pt"
     showgrid="false"
     inkscape:zoom="0.1251579"
     inkscape:cx="-1877.6282"
     inkscape:cy="5413.1621"
     inkscape:window-width="1920"
     inkscape:window-height="1001"
     inkscape:window-x="-9"
     inkscape:window-y="-9"
     inkscape:window-maximized="1"
     inkscape:current-layer="svg522" /><metadata
     id="metadata2">
Created by potrace 1.16, written by Peter Selinger 2001-2019
</metadata><g
     id="g2701"
     transform="translate(-4325.6235,-121.41464)"
     style="fill:#493323;fill-opacity:1"><path
       d="m 4354.5851,122.7537 c -1.1,1.3 -3.3,16.4 -4.2,29 l -0.3,4 -10.8,1.7 c -5.9,0.9 -11.5,2.2 -12.3,2.9 -3.1,2.6 -1.1,5.1 8,10.3 l 8.8,5 -0.6,4.6 c -2.4,16.3 -1.8,20.4 2.4,19.3 1,-0.3 6.4,-4.8 11.9,-10 l 10,-9.4 11.4,5.7 c 17.3,8.6 19.5,6.5 10.3,-9.5 l -5.3,-9.4 4.2,-6.1 c 8.1,-11.6 9.7,-16.5 5.9,-18 -1.3,-0.5 -11.4,1.1 -18.6,2.9 -2.6,0.7 -2.9,0.3 -7.4,-8.7 -7.3,-14.6 -10.4,-17.9 -13.4,-14.3 z m 9.1,17.7 c 2.7,5.7 5.3,10.6 5.8,11.1 0.4,0.4 5,-0.1 10.2,-1.2 5.2,-1 9.5,-1.8 9.7,-1.7 0.1,0.2 -2.5,4.2 -5.8,8.9 -3.3,4.8 -6,9 -6,9.4 0,0.5 2,4.2 4.5,8.3 2.4,4.1 4.2,7.6 4,7.8 -0.4,0.4 -12.2,-5.7 -17.2,-8.9 -2.2,-1.3 -2.8,-0.9 -11.9,8.1 l -9.6,9.5 0.6,-5.5 c 0.4,-3 1,-7.4 1.3,-9.7 l 0.5,-4.1 -7.8,-4.4 -7.9,-4.3 9.7,-1.5 c 5.4,-0.8 10.2,-2 10.7,-2.5 0.8,-0.9 3.1,-21.2 3.1,-27.4 0,-1.2 0.2,-2.1 0.5,-2.1 0.3,0 2.8,4.6 5.6,10.2 z"
       id="path4-8"
       style="fill:#493323;fill-opacity:1;stroke:none;stroke-width:0.1" /></g></svg>
