<?xml version="1.0" encoding="UTF-8" standalone="no"?>
<svg
   version="1.0"
   width="128.81177pt"
   height="145.23682pt"
   viewBox="0 0 128.81177 145.23681"
   preserveAspectRatio="xMidYMid"
   id="svg522"
   sodipodi:docname="iStock_1321221451_1733912860171 - VŠE.svg"
   inkscape:version="1.2 (dc2aedaf03, 2022-05-15)"
   xml:space="preserve"
   xmlns:inkscape="http://www.inkscape.org/namespaces/inkscape"
   xmlns:sodipodi="http://sodipodi.sourceforge.net/DTD/sodipodi-0.dtd"
   xmlns="http://www.w3.org/2000/svg"
   xmlns:svg="http://www.w3.org/2000/svg"><defs
     id="defs526" /><sodipodi:namedview
     id="namedview524"
     pagecolor="#ffffff"
     bordercolor="#666666"
     borderopacity="1.0"
     inkscape:showpageshadow="2"
     inkscape:pageopacity="0.0"
     inkscape:pagecheckerboard="0"
     inkscape:deskcolor="#d1d1d1"
     inkscape:document-units="pt"
     showgrid="false"
     inkscape:zoom="0.2503158"
     inkscape:cx="7166.9467"
     inkscape:cy="1300.3574"
     inkscape:window-width="1920"
     inkscape:window-height="1001"
     inkscape:window-x="-9"
     inkscape:window-y="-9"
     inkscape:window-maximized="1"
     inkscape:current-layer="svg522" /><metadata
     id="metadata2">
Created by potrace 1.16, written by Peter Selinger 2001-2019
</metadata><g
     id="g2620"
     transform="translate(-3425.5851,-1577.541)"
     style="fill:#493323;fill-opacity:1;stroke:none;stroke-opacity:1"><path
       d="m 3507.0851,1578.6537 c -8.4,2.7 -16.1,7.3 -22.6,13.7 -6.5,6.2 -6.8,6.4 -7.1,4 -0.2,-1.5 -1,-2.7 -2,-2.9 -3.2,-0.6 -4.1,4.2 -3.4,19.4 l 0.7,14 -8.3,1.8 c -14,2.9 -19.5,5.3 -25.8,11.5 -8.8,8.8 -13,19.5 -13,33.6 0,26.6 13.3,44.7 35.8,48.6 10.1,1.8 23.3,-1.8 63.2,-17.2 18.7,-7.3 27.6,-17.7 29.6,-34.6 1.4,-12.5 -4.3,-29.9 -12.3,-37.4 -5.1,-4.9 -14.4,-9.5 -22.1,-11 -7.4,-1.4 -24.6,-0.7 -34.2,1.4 -3.6,0.8 -6.7,1.3 -6.9,1.1 -0.2,-0.2 -0.6,-2.6 -0.9,-5.4 -0.4,-4.1 -0.2,-4.9 1,-4.5 2.6,1 15.7,-2.3 21.8,-5.6 3.3,-1.7 8,-5.4 10.6,-8.1 4.8,-5.2 10.4,-15.7 10.7,-20.5 0.2,-2.7 0.1,-2.8 -5.3,-3 -3,-0.1 -7.3,0.4 -9.5,1.1 z m 8.5,4.6 c 0,2.8 -5.4,11.1 -9.9,15.3 -6.1,5.7 -13.9,9.4 -21.8,10.3 l -5.6,0.7 1.9,-3.3 c 5.7,-9.9 18.1,-19.5 29.3,-22.6 5.9,-1.6 6.1,-1.6 6.1,-0.4 z m -0.2,44 c 20.4,2.7 31.7,15 32.9,36.1 1,16 -4,25.6 -16.8,32.4 -6.8,3.6 -21.5,9.3 -44.4,17.2 -12.3,4.3 -21.8,5.2 -29.6,3 -14.7,-4.3 -23.4,-15.8 -25.9,-34.1 -2.7,-19.2 5.4,-37.7 19.1,-43.5 4.5,-2 22.9,-6.6 23.3,-5.9 0.5,0.9 3.5,13.3 3.2,13.5 -0.1,0.2 -3.3,0.4 -7,0.5 -7.4,0.2 -9.8,1.6 -7.5,4.4 2.1,2.5 16.6,1.3 24,-1.9 6.3,-2.9 11.9,-7.2 11.9,-9.3 0,-2.6 -2.9,-2.7 -6.3,-0.2 -3.3,2.5 -8.7,5.1 -9.3,4.5 -0.4,-0.3 -3.4,-11.7 -3.4,-12.8 0,-0.8 9.6,-2.9 17.8,-3.9 9.4,-1 9.8,-1.1 18,0 z"
       id="path476-9"
       style="fill:#493323;fill-opacity:1;stroke:none;stroke-width:0.1;stroke-opacity:1" /></g></svg>
