<?xml version="1.0" encoding="UTF-8" standalone="no"?>
<svg
   version="1.0"
   width="194.86133pt"
   height="384.979pt"
   viewBox="0 0 194.86133 384.979"
   preserveAspectRatio="xMidYMid"
   id="svg522"
   sodipodi:docname="iStock_1321221451_1733912860171 - VŠE.svg"
   inkscape:version="1.2 (dc2aedaf03, 2022-05-15)"
   xml:space="preserve"
   xmlns:inkscape="http://www.inkscape.org/namespaces/inkscape"
   xmlns:sodipodi="http://sodipodi.sourceforge.net/DTD/sodipodi-0.dtd"
   xmlns="http://www.w3.org/2000/svg"
   xmlns:svg="http://www.w3.org/2000/svg"><defs
     id="defs526" /><sodipodi:namedview
     id="namedview524"
     pagecolor="#ffffff"
     bordercolor="#666666"
     borderopacity="1.0"
     inkscape:showpageshadow="2"
     inkscape:pageopacity="0.0"
     inkscape:pagecheckerboard="0"
     inkscape:deskcolor="#d1d1d1"
     inkscape:document-units="pt"
     showgrid="false"
     inkscape:zoom="0.2503158"
     inkscape:cx="7166.9467"
     inkscape:cy="1300.3574"
     inkscape:window-width="1920"
     inkscape:window-height="1001"
     inkscape:window-x="-9"
     inkscape:window-y="-9"
     inkscape:window-maximized="1"
     inkscape:current-layer="svg522" /><metadata
     id="metadata2">
Created by potrace 1.16, written by Peter Selinger 2001-2019
</metadata><g
     id="g2611"
     transform="translate(-3719.7239,-496.30846)"
     style="fill:#493323;fill-opacity:1;stroke:none;stroke-opacity:1"><path
       d="m 3815.3851,500.9537 c -13.9,18.4 -70.8,119.4 -70.8,125.7 0,2.4 2.6,3.7 10.9,5.3 l 8,1.6 -12.5,24.9 c -13.9,27.8 -25.4,52.3 -27.4,58.2 -1.2,3.7 -1.1,4.1 1,5.8 1.9,1.5 4.1,1.8 13.6,1.8 h 11.3 l -6.4,12.2 c -9.5,18.3 -22.6,46.7 -23.2,50.4 -0.4,2.5 -0.1,3.4 1.4,4.3 3.5,1.8 18.2,3.1 41.3,3.7 12.4,0.3 24.4,0.7 26.8,1 l 4.2,0.5 v 8.2 c 0,4.5 0.7,21.9 1.6,38.7 1.7,33.4 1.8,34 7.9,36.6 7.3,3 21.6,1 22.9,-3.3 0.3,-1 1.9,-13.7 3.6,-28.3 3.6,-31.4 6.1,-51.4 6.5,-51.8 0.1,-0.2 12.9,-0.7 28.3,-1.2 40.3,-1.3 50.2,-2.9 50.2,-7.8 0,-2 -17.4,-36.7 -29.7,-59.5 -4.1,-7.6 -7.3,-14 -7.1,-14.3 0.3,-0.2 5.6,-1.3 11.8,-2.5 13.7,-2.6 16.7,-4.6 14.8,-10 -1.5,-4.2 -22.2,-46.1 -28.2,-56.8 -2.5,-4.6 -4.6,-8.4 -4.6,-8.6 0,-0.1 3,-0.5 6.8,-0.9 9.3,-0.9 11.1,-1.5 11.8,-4 1.1,-4.7 -54.1,-117.7 -64.3,-131.4 -3.4,-4.6 -6.1,-4.2 -10.5,1.5 z m 13.9,14.8 c 6.1,10.7 36.6,72.5 48.1,97 4.3,9.4 6.6,15.4 6,16 -1.3,1.5 -77.7,1.9 -99.3,0.6 -16.9,-1.1 -31,-2.7 -32.8,-3.8 -2,-1.2 43.5,-83.1 62.6,-112.7 8.2,-12.5 6.6,-12.8 15.4,2.9 z m -3,120.2 39.3,0.6 2.2,3.6 c 1.2,2 8.8,16.8 17,33 11.1,21.9 14.6,29.7 13.6,30.2 -3.5,2 -34.2,6.4 -65.3,9.3 -41.4,4 -96.9,7.2 -101.6,5.8 l -2.7,-0.7 4,-9 c 5.3,-12 26.6,-55.7 32.4,-66.3 l 4.6,-8.5 8.7,0.7 c 4.7,0.3 26.3,0.9 47.8,1.3 z m 49.3,86 c 9.7,17.3 33,64.2 32.2,64.7 -0.5,0.3 -6.3,1.1 -12.8,1.8 -16.5,1.8 -140.1,1.7 -156.8,0 -6.6,-0.7 -12.2,-1.5 -12.4,-1.7 -0.7,-0.7 3.7,-10.3 17,-37.3 8.6,-17.4 12.7,-24.6 14.2,-25.1 1.1,-0.5 8.4,-1.1 16.1,-1.5 17.4,-0.8 55.8,-4.1 77,-6.5 8.8,-1 17.1,-1.9 18.6,-2 2.1,-0.1 3.1,1 6.9,7.6 z m -45.4,76 c -0.4,1.6 -3.2,25.1 -7.9,65.8 l -1.2,10.9 -3.8,0.9 c -3.9,0.9 -11.2,0.3 -13.6,-1.2 -1.3,-0.9 -2.1,-11.2 -4.6,-63.9 l -0.7,-14.2 h 16.2 c 14.9,0 16.1,0.1 15.6,1.7 z"
       id="path186-6"
       style="fill:#493323;fill-opacity:1;stroke:none;stroke-width:0.1;stroke-opacity:1" /><path
       d="m 3812.1851,546.4537 c -3.2,4.9 -10.7,21.9 -10.4,23.6 0.4,2.1 3.8,2.3 4.8,0.2 5.4,-10.4 11.1,-24 10.6,-24.9 -1.1,-1.8 -3.4,-1.3 -5,1.1 z"
       id="path188-3"
       style="fill:#493323;fill-opacity:1;stroke:none;stroke-width:0.1;stroke-opacity:1" /><path
       d="m 3832.9851,563.7537 c -0.7,1.8 7.3,26.4 9.2,28.5 1.2,1.2 1.6,1.2 2.9,-0.1 1.4,-1.3 1.1,-2.9 -2.6,-14.2 -3.9,-12 -5.8,-15.7 -8,-15.7 -0.5,0 -1.2,0.7 -1.5,1.5 z"
       id="path190-4"
       style="fill:#493323;fill-opacity:1;stroke:none;stroke-width:0.1;stroke-opacity:1" /><path
       d="m 3816.6851,589.0537 c -0.5,1 -1.8,5.7 -2.8,10.5 -1.8,8.9 -1.3,11.4 1.8,10.2 1.7,-0.6 6.4,-18.7 5.5,-21 -0.8,-2.1 -3.3,-1.9 -4.5,0.3 z"
       id="path192-0"
       style="fill:#493323;fill-opacity:1;stroke:none;stroke-width:0.1;stroke-opacity:1" /><path
       d="m 3782.7851,596.5537 c -6.1,9.8 -8.6,17.7 -5.5,17.7 1.8,0 3.1,-1.9 7.7,-10.3 3.7,-7.1 4.5,-9.2 3.5,-10.3 -1.8,-2.2 -2.7,-1.7 -5.7,2.9 z"
       id="path194-3"
       style="fill:#493323;fill-opacity:1;stroke:none;stroke-width:0.1;stroke-opacity:1" /><path
       d="m 3856.0851,600.2537 c -0.3,0.6 1.3,4.6 3.6,9.1 3.5,6.4 4.7,7.9 6.4,7.7 3.1,-0.5 2.8,-2.7 -1.5,-10.6 -2.8,-5 -4.6,-7.2 -6,-7.2 -1,0 -2.2,0.5 -2.5,1 z"
       id="path196-8"
       style="fill:#493323;fill-opacity:1;stroke:none;stroke-width:0.1;stroke-opacity:1" /><path
       d="m 3836.9851,645.7537 c -0.7,1.7 6.2,20.3 8.3,22.5 1.3,1.3 1.6,1.3 2.8,-0.4 1.5,-2 0.4,-5.8 -5.1,-18.4 -2.3,-5.1 -4.9,-6.8 -6,-3.7 z"
       id="path198-7"
       style="fill:#493323;fill-opacity:1;stroke:none;stroke-width:0.1;stroke-opacity:1" /><path
       d="m 3787.6851,650.4537 c -1.7,4.6 -5.3,22.9 -4.7,24.3 0.8,2.3 3.5,1.8 4.5,-0.8 2.3,-5.7 5.7,-23.7 4.7,-24.7 -1.7,-1.7 -3.6,-1.1 -4.5,1.2 z"
       id="path200-9"
       style="fill:#493323;fill-opacity:1;stroke:none;stroke-width:0.1;stroke-opacity:1" /><path
       d="m 3864.8851,674.8537 c -0.7,1.8 7.1,18.4 8.6,18.4 0.5,0 1.4,-0.7 2.2,-1.6 1.1,-1.3 0.6,-2.9 -2.9,-10 -4.1,-8.2 -6.5,-10.3 -7.9,-6.8 z"
       id="path202-2"
       style="fill:#493323;fill-opacity:1;stroke:none;stroke-width:0.1;stroke-opacity:1" /><path
       d="m 3808.4851,682.3537 c -2.1,1.3 -2.7,24.4 -0.7,25.2 2.9,1.1 3.6,-1 4.3,-12.9 0.6,-10.1 0.5,-12.2 -0.7,-12.7 -0.8,-0.3 -2.1,-0.1 -2.9,0.4 z"
       id="path204-3"
       style="fill:#493323;fill-opacity:1;stroke:none;stroke-width:0.1;stroke-opacity:1" /><path
       d="m 3762.5851,686.3537 c -3.2,5.9 -5.8,14.6 -4.9,16.2 0.7,1.2 1.5,1.5 2.6,0.9 1.6,-1 7.3,-14.5 7.3,-17.5 0,-2.4 -3.7,-2.2 -5,0.4 z"
       id="path206-8"
       style="fill:#493323;fill-opacity:1;stroke:none;stroke-width:0.1;stroke-opacity:1" /><path
       d="m 3851.7851,726.5537 c -1.6,1.9 7.2,17 9.6,16.5 2.9,-0.6 2.5,-3.6 -1.4,-10 -4.8,-8 -6.1,-9 -8.2,-6.5 z"
       id="path208-9"
       style="fill:#493323;fill-opacity:1;stroke:none;stroke-width:0.1;stroke-opacity:1" /><path
       d="m 3773.6851,736.4537 c -3.5,8.4 -4.4,11.9 -3.2,13.1 0.8,0.8 1.7,0.8 2.8,0.1 2,-1.2 6.7,-13.9 5.9,-15.9 -1,-2.8 -3.7,-1.5 -5.5,2.7 z"
       id="path210-2"
       style="fill:#493323;fill-opacity:1;stroke:none;stroke-width:0.1;stroke-opacity:1" /><path
       d="m 3821.9851,735.7537 c -0.6,1.6 2.6,12.6 5.3,17.7 1.5,3 4,3.7 4.9,1.4 0.9,-2.4 -5.9,-20 -7.9,-20.4 -0.9,-0.2 -2,0.4 -2.3,1.3 z"
       id="path212-5"
       style="fill:#493323;fill-opacity:1;stroke:none;stroke-width:0.1;stroke-opacity:1" /><path
       d="m 3792.7851,753.9537 c -1.3,2.4 -3.2,11.7 -3.2,15.2 0,2.9 1.8,4.5 3.7,3.3 1.3,-0.8 4.6,-17.9 3.8,-19.2 -1,-1.6 -3.4,-1.2 -4.3,0.7 z"
       id="path214-9"
       style="fill:#493323;fill-opacity:1;stroke:none;stroke-width:0.1;stroke-opacity:1" /><path
       d="m 3854.1851,767.8537 c -0.6,1.6 4.7,12.2 6.8,13.6 1.6,1.1 3.9,-1.7 3.2,-3.9 -1.2,-3.7 -6.6,-11.3 -8,-11.3 -0.7,0 -1.7,0.7 -2,1.6 z"
       id="path216-8"
       style="fill:#493323;fill-opacity:1;stroke:none;stroke-width:0.1;stroke-opacity:1" /><path
       d="m 3759.1851,773.4537 c -2.4,5.6 -2,9.3 1,8.1 2,-0.8 6.5,-9.8 5.8,-11.7 -1.3,-3.4 -4.4,-1.7 -6.8,3.6 z"
       id="path218-7"
       style="fill:#493323;fill-opacity:1;stroke:none;stroke-width:0.1;stroke-opacity:1" /></g></svg>
