<?xml version="1.0" encoding="UTF-8" standalone="no"?>
<svg
   version="1.0"
   width="339.81558pt"
   height="390.37354pt"
   viewBox="0 0 339.81558 390.37353"
   preserveAspectRatio="xMidYMid"
   id="svg522"
   sodipodi:docname="iStock_1321221451_1733912860171 - VŠE.svg"
   inkscape:version="1.2 (dc2aedaf03, 2022-05-15)"
   xml:space="preserve"
   xmlns:inkscape="http://www.inkscape.org/namespaces/inkscape"
   xmlns:sodipodi="http://sodipodi.sourceforge.net/DTD/sodipodi-0.dtd"
   xmlns="http://www.w3.org/2000/svg"
   xmlns:svg="http://www.w3.org/2000/svg"><defs
     id="defs526" /><sodipodi:namedview
     id="namedview524"
     pagecolor="#ffffff"
     bordercolor="#666666"
     borderopacity="1.0"
     inkscape:showpageshadow="2"
     inkscape:pageopacity="0.0"
     inkscape:pagecheckerboard="0"
     inkscape:deskcolor="#d1d1d1"
     inkscape:document-units="pt"
     showgrid="false"
     inkscape:zoom="0.2503158"
     inkscape:cx="7166.9467"
     inkscape:cy="1300.3574"
     inkscape:window-width="1920"
     inkscape:window-height="1001"
     inkscape:window-x="-9"
     inkscape:window-y="-9"
     inkscape:window-maximized="1"
     inkscape:current-layer="svg522" /><metadata
     id="metadata2">
Created by potrace 1.16, written by Peter Selinger 2001-2019
</metadata><g
     id="g2568"
     transform="translate(-3287.5919,858.3344)"
     style="fill:#493323;fill-opacity:1;stroke:none;stroke-opacity:1"><path
       d="m 3510.5919,-857.69715 c -2.1,0.5 -6.1,2.6 -8.8,4.6 -4.1,3 -5.3,3.4 -6.7,2.5 -5.4,-3.9 -10.1,-5.5 -16.9,-6 -14,-0.9 -23.3,5.5 -27.6,19 -0.4,1.5 -1.7,1.7 -7.8,1.6 -5.9,-0.2 -8.2,0.2 -12.2,2.1 -13.4,6.6 -14.3,24.3 -1.5,32.1 l 3.8,2.4 -4.2,2.1 c -5.5,2.8 -8.7,7.6 -8.7,12.9 0,7.5 5.3,13.3 12.9,14.3 3.8,0.5 4,0.7 5,5.3 0.6,2.6 2.2,7.4 3.6,10.5 l 2.5,5.8 -4,4.3 c -2.2,2.4 -4,4.9 -4.1,5.6 -0.3,4.4 -0.8,5.9 -3.2,8.7 -3.4,4.1 -10.8,16.5 -20.2,34 -9,16.8 -11.4,20.7 -16.8,27.6 -7,8.7 -9.1,14.6 -9.1,25.5 -0.1,11.6 1.2,16.1 6.9,24.5 l 4.5,6.5 h -3.3 c -5.6,0 -10.5,1.9 -13.3,5.2 -2.3,2.9 -2.6,3.8 -2.1,8.5 l 0.5,5.2 -6.2,-2.3 c -25.9,-9.8 -54.2,-1.1 -72.2,21.9 -9.3,12.1 -13.8,24.5 -13.8,39 0,18.8 9,40 21.7,51.2 4.9,4.3 15.1,9.8 21.6,11.7 23.1,6.8 52.4,-0.6 68.8,-17.2 l 5.4,-5.5 11.7,1.6 c 26.5,3.8 34.5,3.3 44.7,-2.3 3.3,-1.8 7.1,-2.9 11.1,-3.3 7.9,-0.6 10.6,-2.3 10.2,-6.2 -0.2,-2.1 -1.3,-3.6 -3.8,-5.3 -2.1,-1.4 -3.4,-3 -3.2,-4 0.2,-1 0.5,-6.1 0.7,-11.4 0.3,-9 0.6,-10.1 3.5,-14.3 4.7,-6.8 9.1,-17.2 9.3,-21.9 0.2,-3.6 0.7,-4.4 4.2,-6.6 3.6,-2.2 4.9,-2.5 12.1,-2.2 l 8.2,0.3 -3.5,5.7 c -4.2,7.1 -6.1,13.3 -7.4,24.2 -1.7,14.6 2.6,30 12.4,44.7 11.3,17.1 25.8,25.7 45.3,27 29,1.9 55,-16.2 64.2,-44.7 3.2,-9.9 3.5,-29.2 0.7,-38.5 -3.9,-13.3 -10.8,-23.7 -19.9,-30.4 -12.4,-9 -24.2,-13.8 -36.7,-14.8 l -7.8,-0.6 -1.1,-5.6 c -0.6,-3.1 -2.9,-12.8 -5,-21.6 -2.9,-11.7 -3.6,-16.3 -2.8,-17.2 1.7,-2.1 0.4,-14.2 -2.1,-19 -1.3,-2.7 -2.1,-6.1 -2.1,-9.4 0,-4.4 -0.4,-5.5 -3,-7.9 -3.3,-3.1 -9.6,-5 -16.6,-5 -6,0 -18.4,-6.4 -26.2,-13.4 -5.4,-5 -5.4,-5 -4.9,-9.9 0.3,-3.4 1,-5.2 2.5,-6.3 1.6,-1.1 2.3,-3 2.8,-7.4 0.6,-5.7 0.8,-6 4.3,-7.1 13.5,-4.4 26.9,-16.2 32.6,-28.8 1.6,-3.7 2.2,-4.1 5.3,-4.1 2,0 5.5,-0.9 7.8,-2 9.7,-4.8 9.2,-16.6 -1,-22.9 -2.6,-1.7 -3.5,-3 -3.9,-5.9 -0.4,-3.1 0,-4.2 2.4,-6.7 4.2,-4.4 5.9,-9.5 5.9,-17.3 0,-9.6 -2.8,-14.8 -9.8,-18.2 -3.6,-1.8 -5.2,-3.1 -5.2,-4.5 -0.1,-3.3 -3.5,-9.8 -7,-13.3 -6.3,-6.3 -15.3,-9.1 -23.4,-7.1 z m 15.8,8 c 5.9,4.2 7.9,7.5 8.5,14.3 0.6,5.9 0.7,6.1 3.6,6.4 7.7,0.7 11,4.1 12.1,12.6 0.8,5.4 -0.9,10.7 -4.8,15.2 -7.4,8.5 -19.5,5.6 -24.3,-5.9 -1.8,-4.4 -3.3,-4.6 -6.6,-1.1 -5.5,5.9 -15.5,8.2 -21.8,4.9 -1.7,-0.8 -3.7,-3.3 -5,-6 -1.1,-2.5 -2.4,-4.5 -2.9,-4.5 -1.4,0 -2.9,1.5 -3.6,3.6 -1.1,3.4 -5.1,6.5 -9.4,7.1 -4.9,0.7 -8,-1 -9.4,-4.8 -1.2,-3.6 -4,-3.8 -6.5,-0.5 -6.1,7.7 -20,7.2 -27.7,-1 -3.6,-4 -4.3,-8.5 -1.9,-13.1 3.6,-6.9 13,-9.9 22.6,-7.2 4.9,1.3 6.7,0 6.7,-5.1 0,-4.9 5,-11.7 10.5,-14.4 6.3,-3 14.8,-2.6 21.4,0.9 3,1.7 5.9,3.8 6.5,4.7 1.7,2.7 3.5,2.2 7.8,-2.3 2.2,-2.2 5.4,-4.7 7.1,-5.5 4.7,-2.1 12.9,-1.3 17.1,1.7 z m -35.9,51.5 c 2.2,1.4 4.8,1.9 10.1,1.9 6.2,0 7.7,-0.4 12.1,-3.1 l 4.9,-3.1 1.6,2.7 c 0.8,1.5 3.2,4 5.3,5.6 3.4,2.6 4.7,2.9 10.8,2.9 h 7 l -0.6,8 c -1.1,18.2 -11.9,37.3 -26.1,46.2 -7.4,4.7 -14.3,6.5 -25.1,6.6 -11.3,0 -19.4,-2.2 -27.7,-7.4 -9.8,-6.3 -17.5,-17.9 -19.8,-29.8 -1.3,-6.9 -1.3,-20.5 0,-25.3 0.9,-3.2 1.6,-3.8 4.8,-4.4 2,-0.3 5.3,-1.5 7.3,-2.6 3.5,-1.9 3.8,-1.9 6.2,-0.3 6.4,4.2 15,3.7 20.4,-1 2.7,-2.3 2.9,-2.3 4.3,-0.6 0.8,0.9 2.9,2.6 4.5,3.7 z m -54.2,13.6 c -0.3,5.1 -0.7,9.4 -0.8,9.6 -0.2,0.2 -1.8,-0.3 -3.8,-1.1 -8.6,-3.6 -8.8,-12.6 -0.3,-16.3 5.6,-2.4 5.6,-2.3 4.9,7.8 z m 116.6,9 c 2.7,4.7 -0.9,9.8 -7.1,9.8 -1.5,0 -1.8,-0.4 -1.3,-1.8 0.4,-0.9 1.2,-4.3 1.8,-7.4 1.1,-5.5 1.3,-5.7 3.2,-4.4 1.1,0.7 2.6,2.4 3.4,3.8 z m -92.9,42.5 c 2.5,1.7 6.2,3.6 8.3,4.4 2,0.7 3.6,1.8 3.4,2.3 -0.4,1.3 -4.7,4.3 -7.2,5 -2.5,0.7 -12.3,-4.9 -19.1,-10.8 l -4.7,-4.2 3.3,-3.7 3.3,-3.8 4.1,3.9 c 2.3,2.2 6.1,5.3 8.6,6.9 z m -7.1,13.2 c 9.1,5.9 14.9,5.3 22.7,-2.1 l 3.1,-2.9 0.7,3.6 c 1.5,7.6 4.3,10.5 10.2,10.5 2.6,0 2.6,0 1.9,6.2 -1.5,13.4 -7.8,37.8 -9.7,37.8 -0.6,0 -3.9,-2.8 -7.4,-6.2 -8.5,-8.1 -10.9,-13.2 -14,-29.6 -0.4,-1.7 -1,-2.2 -2.7,-2 -2,0.3 -2.2,0.8 -1.9,6 0.5,11.3 6.8,23.4 16.6,31.6 2.8,2.4 5.8,4.7 6.6,5.2 1.2,0.7 0.7,2.3 -2.9,9.2 -2.3,4.6 -5.7,10.1 -7.4,12.1 l -3.2,3.6 -16.7,-6.3 c -9.2,-3.5 -18.6,-7.5 -20.9,-8.9 -6.8,-4.1 -23.8,-16.1 -23.9,-16.9 0,-0.4 1.5,-3.1 3.3,-6 1.9,-2.9 6,-10.3 9.2,-16.3 8.7,-16.5 16.3,-29.5 19.8,-34.1 l 3.2,-4.2 3.5,2.8 c 1.9,1.5 6.4,4.6 9.9,6.9 z m 44.1,-1 c 0,3.4 -0.3,3.9 -2.7,4.4 -4.4,0.9 -8.1,-0.3 -8.7,-2.6 -1.4,-5.3 -1,-5.7 5.4,-5.7 h 6 z m 1.6,29.2 c 2,2.2 13.8,9.8 19.4,12.4 2.4,1.1 4.4,3.2 6,6.3 3.5,6.5 8.8,10.4 14.9,11 4.7,0.4 5,0.6 6.4,4.6 3.8,10.3 3.3,14 -2,16.2 -3,1.3 -4.1,1.3 -8.6,0 -6.8,-2.1 -7.3,-2.5 -8.1,-6.7 -0.9,-4.8 -3.8,-8.5 -8.9,-11 -3.4,-1.8 -5.3,-2.1 -11,-1.6 -6.8,0.4 -15.9,-1.1 -17.9,-3.1 -0.6,-0.6 0,-4.1 1.6,-9.2 1.5,-4.5 3.2,-11.1 3.8,-14.6 0.7,-3.5 1.5,-6.4 1.9,-6.4 0.3,0 1.4,0.9 2.5,2.1 z m 40.4,16.7 c 2.6,1.3 3.5,2.3 3.5,4.2 0,5.5 -10,2.5 -13.6,-4.1 -0.9,-1.7 -0.6,-1.9 2.8,-1.9 2.1,0 5.4,0.8 7.3,1.8 z m -127.1,18.8 c 13.2,9.5 18.6,12.2 38.2,19.4 16.5,6.2 24.6,9.7 25.5,11.1 1.2,2 -11.4,27.1 -16.9,33.5 l -2.3,2.6 -11.4,-4.7 c -19.8,-8 -38.1,-17.5 -42.7,-22.1 -10.8,-10.9 -13.8,-27.5 -7.2,-40.6 2.6,-5.2 3.8,-6.8 5.1,-6.8 0.6,0 5.8,3.4 11.7,7.6 z m 86.6,1.4 c 1.6,0 3.2,1.6 5.9,6 5.3,8.5 12.5,12.8 17.1,10.3 1.2,-0.7 3.5,-0.3 7.8,1.5 4.9,2 7.2,2.3 11.9,1.9 3.2,-0.3 5.8,-0.2 5.8,0.1 0,0.4 1.8,8.6 4.1,18.4 2.3,9.8 3.9,18.4 3.6,19.2 -0.3,0.8 -2.4,1.7 -4.6,2.1 -7.1,1.2 -19.1,7.8 -26.3,14.4 l -6.8,6.3 -9.7,-0.8 -9.8,-0.7 -3.7,-7.6 c -2.1,-4.2 -6.9,-11.8 -10.9,-17 l -7.1,-9.3 2.5,-5.7 c 4.2,-9.6 4.3,-11.4 0.8,-14.4 -1.7,-1.4 -4,-2.8 -5.1,-3.2 -1.1,-0.3 -2,-0.9 -2,-1.3 0,-0.4 1.8,-3.3 3.9,-6.5 2.2,-3.3 5.1,-8.5 6.6,-11.6 l 2.8,-5.7 5.5,1.8 c 3,1 6.5,1.8 7.7,1.8 z m 18.2,1.5 c 4.6,3.1 5.7,9.5 1.5,9.5 -2.8,0 -6.4,-3.2 -9.1,-8 l -2.4,-4.3 3.8,0.6 c 2,0.3 4.8,1.3 6.2,2.2 z m -95.8,54.4 c 7.9,3.8 14.8,7.4 15.3,7.9 0.7,0.7 0.2,1.5 -1.3,2.3 -1.8,1 -7.7,1.4 -22.7,1.4 h -20.3 l -3.5,-3.7 c -2.7,-3 -3.4,-4.6 -3.4,-7.7 0,-5.8 2.4,-7.1 13,-7.1 8.5,0 8.6,0 22.9,6.9 z m 57.9,2 c 5.4,7.2 12.2,18 12.2,19.3 0,0.5 -1.5,0.8 -3.4,0.8 -3,0 -3.7,-0.6 -6.2,-4.8 -1.5,-2.6 -4.7,-7.6 -7,-11.1 -3.7,-5.5 -4.1,-6.7 -3.2,-8.7 0.6,-1.3 1.4,-2.4 1.8,-2.4 0.3,0 3,3.1 5.8,6.9 z m -114.4,4.7 c 9.9,2.5 19.9,8 27.8,15.3 6.1,5.6 14.8,16.9 14.8,19.1 0,0.4 -5.3,1.2 -11.7,1.9 -6.5,0.7 -13.1,1.5 -14.8,1.8 -2.9,0.5 -2.8,0.3 2.8,-5.2 6,-6 6.6,-7.8 2.7,-8.3 -1.7,-0.3 -4.1,1.5 -10.1,7.6 -7.6,7.7 -8,8 -15.8,9.9 l -8.1,2.1 -0.4,-3.2 c -0.3,-1.7 -0.8,-8.7 -1.1,-15.6 -0.4,-9 -1,-12.9 -2,-14 -1.3,-1.3 -1.7,-1.3 -2.9,0 -1.2,1.2 -1.3,3.5 -0.6,12.5 0.5,6 0.9,13.5 0.9,16.7 0.1,5.4 0,5.7 -3.5,7.8 -2,1.1 -4.2,1.9 -4.8,1.6 -0.6,-0.2 -6.4,-5 -12.8,-10.5 -6.5,-5.6 -12.5,-10.1 -13.3,-10.1 -0.9,0 -1.5,0.9 -1.5,2.4 0,1.9 2.4,4.5 9.9,10.9 5.4,4.6 10.8,9.1 12,9.9 2,1.4 2,1.7 0.6,5.1 -3.5,8.3 2.3,16.1 17.8,23.7 9.8,4.8 10.4,5.3 15.7,12.8 3.6,5 6.4,7.8 7.8,8 3.7,0.6 3.6,-2.3 -0.3,-7.3 -2,-2.6 -3.4,-4.9 -3.3,-5 0.3,-0.3 23.4,5.5 27,6.7 2.4,0.8 -8.6,9.9 -16.7,13.8 -10.2,5 -19.3,7 -30.9,7 -14.1,0 -23.9,-3.1 -34.2,-10.9 -12.3,-9.2 -20.8,-26.8 -22.1,-45.4 -2.6,-37.2 35.7,-70.2 71.1,-61.1 z m 107.2,5.5 c 2.5,3.9 4.3,7.3 4,7.6 -0.5,0.5 -30.6,-4.4 -33.8,-5.6 -1.4,-0.5 -1.5,-0.8 -0.3,-2.5 1.4,-1.8 1.5,-1.8 6.7,0.2 9.7,3.9 10.1,3.8 14.2,-0.9 2,-2.3 3.6,-4.6 3.6,-5.1 0,-1.9 1.3,-0.4 5.6,6.3 z m 102.3,-3.6 c 12.9,2.7 28.2,11.2 35.6,19.7 4.9,5.7 8,12 10.6,21.5 2.8,10 2.3,26.4 -1,35.7 -8.7,24.5 -29.6,39.6 -55.1,39.8 -23.9,0.2 -43.6,-15.7 -53.1,-42.9 -2.9,-8.4 -3.6,-22.1 -1.4,-30.3 2.7,-10.5 8.1,-19.6 16.6,-28.2 8.2,-8.3 14.7,-12.1 24.9,-14.9 8.2,-2.2 14,-2.3 22.9,-0.4 z m -121,13.4 c 12.3,2.2 23.4,4.1 24.7,4.1 2,0 5.3,3.5 4.2,4.5 -0.6,0.4 -12,4.6 -21.8,7.9 -7.5,2.6 -10.2,3.1 -13,2.4 -1.9,-0.4 -10.3,-0.5 -18.7,-0.1 l -15.2,0.6 -1.1,-2.7 c -1.3,-3.5 -8.2,-13.6 -11,-16.1 -5.4,-4.9 -5.1,-5 12.9,-4.9 14.9,0.1 18.9,0.6 39,4.3 z m 31.1,15.6 c 0,1.8 -4.3,11.7 -7.6,17.3 l -2.6,4.4 -2.4,-3.4 c -2.7,-3.6 -10.1,-9.8 -11.7,-9.8 -2.4,0 1.1,-1.7 11.6,-5.6 13.2,-4.9 12.7,-4.8 12.7,-2.9 z m -64.8,10.7 c -1.9,2 -2.4,2.1 -3.2,0.8 -0.7,-1.2 -0.3,-1.6 1.8,-2.1 1.5,-0.4 2.9,-0.7 3.2,-0.8 0.2,0 -0.6,0.9 -1.8,2.1 z m -8.5,3 c 1,3.8 0.9,4.7 -1.4,9.3 -3,5.8 -4.2,17.5 -2.5,23.9 1,3.4 0.8,4.5 -1.4,8.7 -1.3,2.7 -3.1,4.9 -3.8,4.9 -2.2,0 -29.7,-7.1 -33.7,-8.7 -2,-0.7 -4.6,-2.7 -5.8,-4.3 -2.2,-3.1 -5.6,-4 -6.4,-1.8 -0.7,2 -11,-3.7 -15.2,-8.3 -1.9,-2.2 -3.5,-4.7 -3.5,-5.8 0,-4.7 7.7,-10.2 18.9,-13.5 3,-0.9 5.6,-1.6 5.9,-1.6 0.2,0 -0.6,1.2 -1.7,2.6 -2.5,3.2 -2.7,5.2 -0.5,6.1 1.2,0.4 3.3,-1.2 7.3,-5.4 l 5.6,-6 10,-1.3 c 14.9,-1.8 22.8,-2.7 25,-2.9 1.6,-0.1 2.3,0.8 3.2,4.1 z m 19.1,-1.4 c -7.2,4.4 -7.1,13.8 0.2,19.1 7.8,5.6 22,6.6 26.8,1.8 4.5,-4.6 0.7,-10.4 -10.9,-16.4 l -6.1,-3.1 5.6,-1.8 c 5.3,-1.7 5.8,-1.7 9.2,-0.1 8.4,4.1 14.6,11.4 16.5,19.5 1,4.7 -0.7,14.4 -3.6,20.2 -5.1,10.1 -13.6,14.5 -26.7,13.8 -18.3,-1 -29.3,-11.3 -29.3,-27.3 0.1,-11.1 5.6,-20.3 15.3,-25.4 4.6,-2.5 6.7,-2.7 3,-0.3 z m 9.5,7.6 c 6.5,2.7 12.4,6.5 13.2,8.4 0.8,2.1 -3.7,3.1 -9.5,2 -9.6,-1.7 -13.9,-5.3 -12.6,-10.4 0.8,-3 1.6,-3 8.9,0 z m 35.1,37.7 c -3.5,0.6 -3.6,0.6 -2.8,-1.4 0.5,-1.3 1,-1.4 3.2,-0.4 l 2.6,1.2 z m -59.9,2.9 2.8,2.9 -3.9,-0.6 c -2.1,-0.3 -4,-0.7 -4.2,-0.9 -0.4,-0.2 1.7,-4.4 2.1,-4.4 0.2,0 1.6,1.3 3.2,3 z"
       id="path24-4"
       style="fill:#493323;fill-opacity:1;stroke:none;stroke-width:0.1;stroke-opacity:1" /><path
       d="m 3475.2919,-785.69715 c -2.7,1 -3.1,5 -0.8,6.9 2.4,2 6.5,-0.3 6.5,-3.4 0,-3.1 -2.7,-4.7 -5.7,-3.5 z"
       id="path26-4"
       style="fill:#493323;fill-opacity:1;stroke:none;stroke-width:0.1;stroke-opacity:1" /><path
       d="m 3504.1919,-781.59715 c -3.1,3.1 1.1,8.8 5,6.7 3.4,-1.8 1.7,-7.9 -2.2,-7.9 -0.9,0 -2.1,0.5 -2.8,1.2 z"
       id="path28-4"
       style="fill:#493323;fill-opacity:1;stroke:none;stroke-width:0.1;stroke-opacity:1" /><path
       d="m 3463.9919,-766.79715 c 0,3.7 2.9,9.7 7,14.4 8,9 24,10.7 33.9,3.6 7.9,-5.7 13.1,-16 8.2,-16 -1.1,0 -2.8,1.5 -4.1,3.4 -10.4,16.9 -33.2,14.6 -39.3,-3.9 -1,-2.8 -2,-4.1 -3.5,-4.3 -1.9,-0.3 -2.2,0.1 -2.2,2.8 z"
       id="path30-0"
       style="fill:#493323;fill-opacity:1;stroke:none;stroke-width:0.1;stroke-opacity:1" /><path
       d="m 3297.5919,-532.09715 c -0.4,0.9 -0.3,2 0.1,2.4 1.4,1.4 27.4,2.6 29.1,1.3 4.7,-3.4 -2.8,-5.4 -20.3,-5.4 -6.8,0 -8.4,0.3 -8.9,1.7 z"
       id="path32-2"
       style="fill:#493323;fill-opacity:1;stroke:none;stroke-width:0.1;stroke-opacity:1" /><path
       d="m 3319.9919,-513.99715 c -9.7,5.7 -11.5,7.1 -11.5,9.2 0,3.6 2,2.9 15.2,-4.8 9,-5.3 11.3,-7.1 11.1,-8.7 -0.2,-1.1 -1,-2.1 -1.8,-2.2 -0.8,-0.2 -6.7,2.7 -13,6.5 z"
       id="path34-8"
       style="fill:#493323;fill-opacity:1;stroke:none;stroke-width:0.1;stroke-opacity:1" /><path
       d="m 3338.4919,-501.59715 c -5.4,11.4 -6.5,18.3 -3.1,18.3 1.4,0 2.4,-1.3 3.6,-5 0.9,-2.8 3.4,-8.6 5.4,-13 3.8,-8.2 4,-10.5 0.8,-10.5 -1.4,0 -3.1,2.6 -6.7,10.2 z"
       id="path36-2"
       style="fill:#493323;fill-opacity:1;stroke:none;stroke-width:0.1;stroke-opacity:1" /><path
       d="m 3562.5919,-578.59715 c -0.3,1.3 -0.7,9.3 -0.8,17.8 -0.3,14.9 -0.2,15.5 1.7,15.5 2.5,0 3.2,-3.8 3.6,-21.5 0.4,-13.3 0.4,-13.5 -1.8,-13.8 -1.6,-0.2 -2.4,0.3 -2.7,2 z"
       id="path38-0"
       style="fill:#493323;fill-opacity:1;stroke:none;stroke-width:0.1;stroke-opacity:1" /><path
       d="m 3536.3919,-569.29715 c -0.6,1.5 12.8,26.1 15.4,28.2 1.6,1.3 4.2,0.1 4.2,-1.9 0,-1.2 -12.8,-23.7 -14.8,-26.1 -1.8,-2.1 -4.1,-2.2 -4.8,-0.2 z"
       id="path40-3"
       style="fill:#493323;fill-opacity:1;stroke:none;stroke-width:0.1;stroke-opacity:1" /><path
       d="m 3589.2919,-565.09715 c -8.3,8.7 -17.3,20.3 -17.3,22.2 0,3.9 3.7,2.3 8.7,-3.7 2.6,-3.1 7.4,-8.7 10.7,-12.4 3.7,-4.3 5.6,-7.3 5.3,-8.3 -1,-2.5 -3.8,-1.7 -7.4,2.2 z"
       id="path42-8"
       style="fill:#493323;fill-opacity:1;stroke:none;stroke-width:0.1;stroke-opacity:1" /><path
       d="m 3517.1919,-544.59715 c -1.9,1.9 0.4,4.5 4.7,5.2 2.2,0.3 7.5,2 11.8,3.6 9.3,3.6 12.3,3.8 12.3,1 0,-2.4 -4,-4.3 -17,-8.4 -9.2,-2.9 -10.1,-3.1 -11.8,-1.4 z"
       id="path44-9"
       style="fill:#493323;fill-opacity:1;stroke:none;stroke-width:0.1;stroke-opacity:1" /><path
       d="m 3592.4919,-534.59715 c -7.7,0.5 -14.4,1.3 -14.9,1.8 -0.5,0.5 -0.6,1.6 -0.2,2.6 0.6,1.6 2.1,1.6 17.9,1 20.5,-0.8 21.9,-1.1 21.5,-4 -0.4,-2.6 -3.7,-2.8 -24.3,-1.4 z"
       id="path46-9"
       style="fill:#493323;fill-opacity:1;stroke:none;stroke-width:0.1;stroke-opacity:1" /><path
       d="m 3557.5919,-533.19715 c -2,2 -2,4.4 0,7.2 2.2,3.2 7.3,2.7 9.3,-0.9 1.3,-2.4 1.3,-2.9 -0.2,-5.3 -2,-3 -6.6,-3.5 -9.1,-1 z"
       id="path48-7"
       style="fill:#493323;fill-opacity:1;stroke:none;stroke-width:0.1;stroke-opacity:1" /><path
       d="m 3532.8919,-514.89715 c -9.9,9.5 -11.6,12.6 -7.2,12.6 2.9,0 22.7,-18.9 22,-20.9 -1.3,-3.4 -4.8,-1.4 -14.8,8.3 z"
       id="path50-7"
       style="fill:#493323;fill-opacity:1;stroke:none;stroke-width:0.1;stroke-opacity:1" /><path
       d="m 3571.9919,-515.99715 c 0,1.2 3,3.9 8.3,7.5 4.6,3.1 10.4,7.5 13,9.7 4.8,4.3 7.4,5 8.4,2.3 0.8,-2.1 -5.4,-7.9 -16.9,-15.7 -8.6,-5.8 -12.8,-7.1 -12.8,-3.8 z"
       id="path52-0"
       style="fill:#493323;fill-opacity:1;stroke:none;stroke-width:0.1;stroke-opacity:1" /><path
       d="m 3555.8919,-514.59715 c -1.1,0.9 -2.2,5.6 -3.4,14.3 -2.4,17.6 -2.4,17.9 0.1,18.3 2.8,0.4 2.9,0 5.4,-16.9 1.9,-12.1 2,-14.3 0.8,-15.5 -1.1,-1.2 -1.7,-1.2 -2.9,-0.2 z"
       id="path54-5"
       style="fill:#493323;fill-opacity:1;stroke:none;stroke-width:0.1;stroke-opacity:1" /><path
       d="m 3344.9919,-532.79715 c -1.1,1.1 -2,2.9 -2,4 0,2.4 3.4,6 5.5,6 1.9,0 6.5,-4.4 6.5,-6.2 0,-2.6 -3.1,-5.8 -5.6,-5.8 -1.3,0 -3.3,0.9 -4.4,2 z"
       id="path56-0"
       style="fill:#493323;fill-opacity:1;stroke:none;stroke-width:0.1;stroke-opacity:1" /><path
       d="m 3363.2919,-527.19715 c -3.7,2.7 0.4,4.1 16.4,5.9 8.4,0.9 15.7,1.4 16.3,1 1.8,-1.1 1.1,-3.5 -1.3,-4.4 -1.2,-0.5 -7.4,-1.4 -13.7,-2 -6.3,-0.7 -12.5,-1.3 -13.7,-1.5 -1.3,-0.2 -3.1,0.3 -4,1 z"
       id="path58-3"
       style="fill:#493323;fill-opacity:1;stroke:none;stroke-width:0.1;stroke-opacity:1" /></g></svg>
