<?xml version="1.0" encoding="UTF-8" standalone="no"?>
<svg
   version="1.0"
   width="206.03868pt"
   height="371.76465pt"
   viewBox="0 0 206.03868 371.76464"
   preserveAspectRatio="xMidYMid"
   id="svg522"
   sodipodi:docname="iStock_1321221451_1733912860171 - VŠE.svg"
   inkscape:version="1.2 (dc2aedaf03, 2022-05-15)"
   xml:space="preserve"
   xmlns:inkscape="http://www.inkscape.org/namespaces/inkscape"
   xmlns:sodipodi="http://sodipodi.sourceforge.net/DTD/sodipodi-0.dtd"
   xmlns="http://www.w3.org/2000/svg"
   xmlns:svg="http://www.w3.org/2000/svg"><defs
     id="defs526" /><sodipodi:namedview
     id="namedview524"
     pagecolor="#ffffff"
     bordercolor="#666666"
     borderopacity="1.0"
     inkscape:showpageshadow="2"
     inkscape:pageopacity="0.0"
     inkscape:pagecheckerboard="0"
     inkscape:deskcolor="#d1d1d1"
     inkscape:document-units="pt"
     showgrid="false"
     inkscape:zoom="0.2503158"
     inkscape:cx="7166.9467"
     inkscape:cy="1300.3574"
     inkscape:window-width="1920"
     inkscape:window-height="1001"
     inkscape:window-x="-9"
     inkscape:window-y="-9"
     inkscape:window-maximized="1"
     inkscape:current-layer="svg522" /><metadata
     id="metadata2">
Created by potrace 1.16, written by Peter Selinger 2001-2019
</metadata><g
     id="g2669"
     transform="translate(-6016.2809,-125.37314)"
     style="fill:#493323;fill-opacity:1;stroke:none;stroke-opacity:1"><path
       d="m 6137.0851,125.8537 c -1.1,0.2 -4.5,0.9 -7.5,1.5 -7.7,1.5 -20.5,7.9 -26.7,13.4 -10.3,9.1 -21.5,30.7 -18.5,35.6 1.7,2.6 1.6,2.7 -2.7,3.9 -7.5,2 -12.4,9.7 -10.7,16.5 0.3,1.3 2,4 3.7,6 2.5,2.8 4,3.6 8.1,4.1 3.3,0.5 5.2,1.2 5.5,2.3 3.6,10.6 9.4,18.9 17.9,25.7 l 6.2,4.8 -1.7,3.8 c -1.4,3.4 -2.9,4.4 -15.1,10.6 -23.2,11.7 -38,22.2 -38,27.2 0,3.1 7.7,17.2 14.5,26.3 l 6.5,8.7 -4.1,4.1 c -9.1,9.1 -14.2,20.2 -10.7,23.7 2.9,2.9 13.2,0.2 20.6,-5.5 3.1,-2.3 3.4,-2.4 4.6,-0.7 1.2,1.5 0.4,2.6 -6.8,9.1 -9.6,8.7 -18.6,19 -18.6,21.4 0,0.9 1,2.8 2.1,4.3 1.2,1.5 2,2.9 1.8,3 -0.2,0.2 -2.2,1.3 -4.5,2.4 -2.2,1.1 -5.5,3.5 -7.4,5.2 l -3.3,3.1 0.7,10.2 c 0.3,5.6 0.9,11.6 1.2,13.3 0.5,2.9 0.3,3.2 -2.7,3.8 -5,1 -17.2,7.2 -22.8,11.6 -8,6.4 -10.2,13.2 -4.7,14.6 l 2.3,0.6 -2.9,3.1 c -5.5,5.9 -7.2,10.4 -7.1,18.7 0.1,19.1 13.4,33.6 31.6,34.8 16.5,1 32.4,-7 38.7,-19.5 2.1,-4.1 2.5,-6.2 2.5,-14.3 0,-8.6 -0.3,-10.1 -3,-15.4 -3.3,-6.4 -9.8,-12.1 -17.2,-15.1 -4.3,-1.7 -4.3,-1.7 -2.1,-3.4 2.7,-2.3 2,-5.2 -2.6,-11.1 -2.8,-3.7 -3.7,-6.1 -5,-13.5 -2,-11.2 -2,-15.9 -0.1,-17.5 0.8,-0.6 4.2,-2.7 7.6,-4.5 l 6.3,-3.3 7.3,5 c 9.6,6.4 16.4,9.8 19.9,9.8 3.1,0 10.2,-5.2 17.9,-12.9 3.9,-4 5.6,-5.1 8.1,-5.1 3.8,0 4.9,1.1 6.4,7 2.9,11.6 4,13.8 7.2,14.9 1.7,0.6 5.3,1.1 7.9,1.1 h 4.9 v 3.7 c 0,8.3 2.2,66.9 2.6,69 0.6,3.2 9,4.6 23.9,4.1 14.1,-0.5 22,-3.1 23.2,-7.6 0.8,-3.5 -0.5,-5.3 -6.3,-8.2 -4.6,-2.4 -5.8,-2.5 -20.5,-2.5 l -15.6,0.1 -0.7,-22.1 c -0.3,-12.1 -0.9,-25.2 -1.2,-29 l -0.6,-7.1 12.1,-1.1 c 7.3,-0.6 12.7,-1.6 13.7,-2.4 1.5,-1.2 1.6,-3.3 1.1,-16.4 -0.3,-8.2 -1.3,-19.5 -2.2,-25 -1.4,-7.8 -1.5,-10 -0.5,-10.3 3.1,-1.1 5,-4.3 5,-8.6 v -4.5 l 3.8,1.6 c 9.4,4 20.6,5.5 23,3.1 3.1,-3.1 0.1,-9 -7.8,-15.2 -3,-2.4 -7,-5.1 -8.8,-6 l -3.4,-1.7 14.1,-14.4 c 7.7,-7.9 14.3,-15.5 14.7,-16.9 0.8,-3.4 -1.9,-7.1 -9.9,-13.4 -8.4,-6.7 -24.6,-17.2 -33.4,-21.6 -5.6,-2.9 -7.3,-4.3 -8.2,-6.8 -1.1,-3 -0.9,-3.3 4.3,-8 6.2,-5.5 12.7,-14.9 15.3,-22 1.5,-4.2 2,-4.8 4.6,-4.8 13.4,0 15.8,-16.2 3.5,-22.6 -3.3,-1.7 -3.7,-4.9 -0.7,-5.7 1.9,-0.5 2.1,-1.1 1.5,-4.4 -2.3,-12.7 -8,-23.9 -16.6,-32.6 -7.6,-7.5 -14,-11 -24.7,-13.2 -6.4,-1.4 -16.2,-1.8 -20.8,-0.9 z m 21.8,6.9 c 10.8,2.8 19.4,8.9 25.8,18.2 3.1,4.4 8.4,17.2 7.5,18 -0.8,0.8 -19.3,-10.8 -24.6,-15.5 -2.8,-2.4 -5.8,-4.2 -6.7,-4 -1,0.2 -2.7,2.1 -4,4.3 l -2.2,3.9 -1.6,-4.2 c -2.2,-5.3 -5.2,-5.7 -8,-1 l -1.9,3.2 -1.3,-3.2 c -1.8,-4.4 -4.1,-3.9 -7.3,1.8 l -2.4,4.5 -0.9,-4.5 c -1.5,-7.7 -2,-7.8 -14.6,-2.5 -6.1,2.6 -13.8,6.4 -17.1,8.6 -3.3,2.1 -6.3,3.9 -6.6,3.9 -1.7,0 6.1,-11.5 11.7,-17.1 7.2,-7.2 15.5,-11.9 25.5,-14.3 7.9,-1.9 21.6,-2 28.7,-0.1 z m -32.4,30.1 c 0.2,8.8 3.4,9.4 8.3,1.5 l 2.3,-3.6 0.5,4 c 0.7,5.9 3.6,5.4 7.4,-1.2 1.6,-2.9 3.2,-5 3.5,-4.7 0.3,0.3 1,2.4 1.6,4.7 1.5,6.3 3.8,6 8.2,-1.1 l 3.7,-5.9 7.4,5.4 c 4.2,3 10.4,7 13.8,8.9 6,3.3 6.3,3.7 7,8 0.8,5.6 -1.1,17.9 -4.1,26.1 -6.4,17.8 -19,29.7 -35.3,33.4 -6.3,1.4 -18.8,1.3 -24.7,-0.1 -20.1,-5 -33.7,-22.8 -35.2,-46 -0.8,-12.3 0.8,-19.1 5.5,-23 4.1,-3.4 14.6,-9.1 23.1,-12.5 6.6,-2.7 6.9,-2.4 7,6.1 z m -41.4,29.6 c 0.8,8.6 0.6,9.4 -2,8.9 -4.7,-0.7 -7.8,-5.9 -6.3,-10.4 0.9,-2.3 4.7,-5.5 7,-5.7 0.3,0 0.9,3.3 1.3,7.2 z m 115.9,1.4 c 0.8,2.7 -1.6,5.4 -4.8,5.4 -2.1,0 -2.2,-0.2 -1.2,-6 l 1,-6.1 2.2,2.3 c 1.2,1.3 2.5,3.3 2.8,4.4 z m -32.4,57.5 c 1.7,5.3 4.1,14.6 5.4,20.7 l 2.4,11.1 -5.2,1 c -16.2,3.3 -35.8,3.6 -58.4,0.9 -7.3,-0.8 -9.2,-1.4 -8.8,-2.5 0.3,-0.7 1.2,-3.9 2.1,-7.1 1.6,-6.3 7.3,-23.4 9.9,-29.8 l 1.7,-4.1 6.7,1.8 c 11,3.1 28.7,1.8 37.1,-2.6 3.3,-1.7 3.3,-1.6 7.1,10.6 z m 17.4,5.9 c 11.6,7.1 20.5,13.3 26.5,18.7 4.3,3.8 4.4,4 2.8,6.3 -1.5,2.1 -28.7,30 -29.3,30 -0.1,0 -0.5,-2.4 -0.9,-5.3 -2.6,-21.3 -7.5,-47.6 -10,-54 -1.1,-2.7 0.4,-2.1 10.9,4.3 z m -81,2.2 c -2.6,7.3 -9.2,32.3 -11.4,43 -1.2,5.7 -2.3,10.8 -2.5,11.5 -0.3,0.8 -1.3,0.8 -4.2,-0.2 -3,-0.9 -5.2,-3.1 -10.5,-10 -8.4,-11 -13.6,-21 -12.2,-23.3 1.5,-2.6 16.6,-12.3 29.4,-19.1 6.3,-3.3 11.8,-6.1 12.2,-6.1 0.4,0 0,1.9 -0.8,4.2 z m 13.1,31.8 c 13.5,1.5 35.3,1.2 47.6,-0.6 6.1,-0.9 11.2,-1.5 11.3,-1.3 0.2,0.2 0.6,2.3 1,4.6 l 0.6,4.1 -7.3,1.4 c -9.8,1.8 -50.2,1.8 -62,-0.1 l -8.9,-1.3 0.7,-3.7 c 0.9,-5 1.2,-5.2 4.8,-4.6 1.8,0.3 7.3,1 12.2,1.5 z m -6,14.2 c 12.7,1.8 48.7,1.5 59,-0.4 4.4,-0.9 8.2,-1.4 8.4,-1.2 0.2,0.2 0.6,8.1 0.9,17.7 l 0.5,17.4 -7.7,1.2 c -17.2,2.5 -61.6,0.1 -75.9,-4.1 l -3.9,-1.2 0.7,-4.5 c 0.3,-2.5 1.5,-9.7 2.7,-15.9 1.9,-10.6 2.2,-11.3 4.2,-10.8 1.1,0.3 6.2,1.1 11.1,1.8 z m 87.8,18.2 c 3.2,2.4 6.5,5.3 7.4,6.5 1.4,2.1 1.4,2.2 -1.4,1.6 -12.9,-2.9 -19.3,-6.1 -19.3,-9.8 0,-5.8 4,-5.3 13.3,1.7 z m -112.5,-3.2 c 0.7,0.7 1.2,2.7 1.2,4.4 0,2.6 -0.8,3.9 -4.2,6.6 -7.9,6.3 -15.8,10 -15.8,7.4 0,-3.5 13.5,-19.6 16.5,-19.6 0.6,0 1.6,0.5 2.3,1.2 z m 20.2,23.4 c 5.9,0.9 20.4,1.7 38.2,2.1 25.3,0.5 28.8,0.7 29.2,2.2 1.3,4.1 3.6,21.7 4.2,32.2 l 0.7,11.7 -5.9,0.6 c -10.1,1.2 -31.3,1.1 -32.5,-0.1 -0.5,-0.5 -1.9,-4.6 -3,-8.9 -2.7,-10.3 -3.2,-11.1 -8.1,-12.4 -6,-1.7 -9.8,-0.6 -14.4,4.1 -2.1,2.3 -6.5,6.3 -9.6,9 -5.4,4.5 -6,4.7 -8.9,3.7 -3.8,-1.3 -19,-11.3 -24.4,-16 l -3.9,-3.5 4.3,-4.9 c 5.8,-6.6 22,-21.4 23.5,-21.4 0.6,0.1 5.4,0.7 10.6,1.6 z m -47.7,77.9 2.8,3.5 -3.4,1.5 c -3.2,1.3 -14,4.5 -22.7,6.6 -1.9,0.5 -4.8,0.8 -6.5,0.8 h -3 l 4,-3.5 c 5.4,-4.9 19.9,-12.1 24.5,-12.3 0.8,-0.1 2.8,1.5 4.3,3.4 z m -0.3,14.5 c 2.5,1.6 -1.4,2.3 -7.8,1.5 -4.7,-0.7 -5.3,-0.9 -3.2,-1.6 3.6,-1 9.3,-1 11,0.1 z m -17.2,4 c 1.1,1.3 3.9,2.3 8.2,3 9.5,1.5 10.6,1.3 13.8,-2.1 2.6,-2.8 3.2,-3 5.3,-1.9 1.3,0.7 3.1,1.9 4,2.7 1.5,1.3 1.4,1.6 -1.1,4.2 -3.3,3.2 -5,12.3 -3.1,15.9 1.4,2.7 6.7,6.4 10.8,7.7 l 3.2,1 -1.5,3.4 c -1.3,3.1 -1.5,3.3 -3.2,1.8 -2.4,-2.2 -10.2,-5.7 -12.8,-5.7 -1.2,0 -4.2,1.6 -6.8,3.5 l -4.6,3.6 v 6.8 c 0,7.7 -0.8,8.5 -7.6,7.4 -3.3,-0.5 -3.4,-0.7 -3.4,-4.9 0,-3.7 -0.6,-5.1 -3.7,-8.5 l -3.7,-4.1 -5.8,0.6 c -5.7,0.7 -5.8,0.6 -6.9,-2.1 -0.6,-1.5 -1.3,-4.2 -1.6,-5.8 -0.4,-2.7 -0.1,-3.2 3,-4.3 2.7,-1 4.1,-2.6 6.6,-7.2 2.8,-5.1 3.1,-6.4 2.3,-9.4 -0.9,-3.2 -0.8,-3.4 2.7,-5.4 4.4,-2.6 3.9,-2.6 5.9,-0.2 z m -16,12.4 c -1.2,2.5 -2.8,4.6 -3.5,4.6 -1.1,0 -1,-0.7 0.3,-3.3 1.8,-3.6 4.5,-6.9 5.1,-6.3 0.2,0.2 -0.6,2.4 -1.9,5 z m 55.6,-0.3 c 0.9,2.3 1.9,6.1 2.3,8.4 0.5,4.2 0.5,4.4 -1.8,3.8 -1.3,-0.3 -3.8,-1.6 -5.5,-2.9 -2.9,-2.1 -3.1,-2.6 -2.4,-6.3 1.4,-7.9 4.9,-9.3 7.4,-3 z m 111,12.8 4.1,1.8 -3,1.3 c -4.7,1.9 -13.2,2.6 -24,2 -9.9,-0.5 -10,-0.5 -10.3,-3.2 -0.3,-2.4 0,-2.7 4,-3.2 13.6,-1.8 23.3,-1.4 29.2,1.3 z m -121.4,13.1 c 2.2,1.1 4,2.7 4,3.5 0,2.9 -10.4,8.2 -13.9,7 -3.4,-1 -2.9,-7.7 0.7,-10.4 3.4,-2.6 4.4,-2.6 9.2,-0.1 z m -35.8,3.7 c 1.9,1.7 2.5,6.3 0.8,6.3 -0.6,0 -3,-1.8 -5.3,-4 l -4.2,-3.9 3.4,-0.1 c 1.9,0 4.3,0.7 5.3,1.7 z"
       id="path92-6"
       style="fill:#493323;fill-opacity:1;stroke:none;stroke-width:0.1;stroke-opacity:1" /><path
       d="m 6123.5851,186.2537 c -2.4,2.4 -2.5,3.4 -0.4,5.4 2,2.1 3.7,2 5.7,-0.2 2.1,-2.3 2.1,-3.6 0.1,-5.6 -2,-2.1 -3,-2 -5.4,0.4 z"
       id="path94-5"
       style="fill:#493323;fill-opacity:1;stroke:none;stroke-width:0.1;stroke-opacity:1" /><path
       d="m 6152.9851,185.6537 c -1.5,4 2.1,8 5.4,6 3.7,-2.4 2.1,-7.4 -2.5,-7.4 -1.3,0 -2.6,0.6 -2.9,1.4 z"
       id="path96-3"
       style="fill:#493323;fill-opacity:1;stroke:none;stroke-width:0.1;stroke-opacity:1" /><path
       d="m 6163.0851,203.2537 c -0.3,0.6 -1.9,3.4 -3.4,6.2 -8.3,16.1 -29.6,15.2 -38.2,-1.5 -2.2,-4.3 -5.2,-4.7 -5.7,-0.9 -0.4,2.6 3.4,9 7.7,13 10.6,10 30,8.2 38.6,-3.7 4.5,-6 6.1,-10.7 4.5,-12.6 -1.5,-1.7 -2.6,-1.9 -3.5,-0.5 z"
       id="path98-9"
       style="fill:#493323;fill-opacity:1;stroke:none;stroke-width:0.1;stroke-opacity:1" /><path
       d="m 6038.7851,453.3537 c -2.9,3.4 -5.2,6.7 -5.2,7.4 0,1.9 7.3,11.4 9.3,12.1 1,0.3 4.6,-0.8 8.2,-2.5 7.2,-3.3 8.6,-5.4 8.8,-13.1 0.2,-4.5 0.2,-4.5 -5.2,-7.3 -8.2,-4.1 -9.9,-3.7 -15.9,3.4 z m 12.5,1.1 c 1.8,0.7 3.3,1.9 3.3,2.8 -0.1,4.1 -1.5,6.3 -5.4,8.1 l -4.1,1.9 -2.8,-3.1 -2.7,-3 3.2,-3.9 c 3.7,-4.4 3.8,-4.5 8.5,-2.8 z"
       id="path100-5"
       style="fill:#493323;fill-opacity:1;stroke:none;stroke-width:0.1;stroke-opacity:1" /></g></svg>
