<?xml version="1.0" encoding="UTF-8" standalone="no"?>
<svg
   version="1.0"
   width="263.66504pt"
   height="402.65283pt"
   viewBox="0 0 263.66504 402.65283"
   preserveAspectRatio="xMidYMid"
   id="svg522"
   sodipodi:docname="iStock_1321221451_1733912860171 - VŠE.svg"
   inkscape:version="1.2 (dc2aedaf03, 2022-05-15)"
   xml:space="preserve"
   xmlns:inkscape="http://www.inkscape.org/namespaces/inkscape"
   xmlns:sodipodi="http://sodipodi.sourceforge.net/DTD/sodipodi-0.dtd"
   xmlns="http://www.w3.org/2000/svg"
   xmlns:svg="http://www.w3.org/2000/svg"><defs
     id="defs526" /><sodipodi:namedview
     id="namedview524"
     pagecolor="#ffffff"
     bordercolor="#666666"
     borderopacity="1.0"
     inkscape:showpageshadow="2"
     inkscape:pageopacity="0.0"
     inkscape:pagecheckerboard="0"
     inkscape:deskcolor="#d1d1d1"
     inkscape:document-units="pt"
     showgrid="false"
     inkscape:zoom="0.2503158"
     inkscape:cx="7166.9467"
     inkscape:cy="1300.3574"
     inkscape:window-width="1920"
     inkscape:window-height="1001"
     inkscape:window-x="-9"
     inkscape:window-y="-9"
     inkscape:window-maximized="1"
     inkscape:current-layer="svg522" /><metadata
     id="metadata2">
Created by potrace 1.16, written by Peter Selinger 2001-2019
</metadata><g
     id="g2830"
     transform="translate(-4551.7736,-1321.4156)"
     style="fill:#493323;fill-opacity:1;stroke:none;stroke-opacity:1"><path
       d="m 4744.5851,1321.9537 c -7.8,1.3 -20.9,6.6 -26.5,10.7 -2.1,1.6 -5.7,2.6 -11.8,3.5 -16.8,2.3 -26.4,6.6 -35.1,15.6 -5,5.3 -11,15.9 -10.2,18.1 0.8,2.2 2.8,1.7 12.7,-3.1 5.1,-2.5 9.4,-4.3 9.6,-4.1 0.2,0.1 -1.3,3 -3.2,6.2 -2,3.2 -4.5,8.5 -5.7,11.6 -1.9,5.3 -2.3,5.8 -5.1,5.8 -4.5,0 -9.3,3.5 -11.1,8.2 -2,4.9 -1.4,8.7 2,12.8 2.6,3 8.6,5.6 10.4,4.5 0.6,-0.3 1.2,0 1.4,0.7 3.1,10.5 5.2,16.1 7.7,19.9 l 2.9,4.6 -4.6,6.9 c -7.1,10.5 -18.3,34.4 -27.8,59.6 -9.7,25.5 -12.3,34.8 -10.5,37.6 0.9,1.5 0.2,3.6 -4.1,12.1 -5.8,11.7 -14,31.2 -14,33.5 0,2.1 5.9,6.3 14.8,10.5 4,1.9 7.2,4 7.2,4.7 0,2 -8.6,13 -12.6,16 -3.1,2.4 -4.6,2.9 -8.8,2.7 -8,-0.3 -22.1,-4.8 -35.3,-11.4 -8.7,-4.4 -12.8,-5.9 -14.3,-5.4 -2.5,0.8 -13.7,15.5 -17.5,23 -3.3,6.5 -4.2,11.9 -2.4,14.1 3.5,4.3 14.2,-1.5 29.5,-15.9 l 7.9,-7.5 5,2 c 8.5,3.3 22.8,6.8 28.1,6.8 8.2,0 15.9,-6 23.7,-18.7 l 2.7,-4.2 6.9,2.6 c 10.2,3.7 10.9,3.4 17.6,-9.7 3,-6 6.2,-11 6.9,-11 2,0 2.8,4.5 2,11.7 -0.3,3.4 -0.3,8.4 0.1,10.9 0.6,4.2 1,4.8 4.6,6.2 2.1,0.8 3.9,2 3.9,2.7 0,2.7 -4.1,23.9 -5.3,27.3 -0.7,2 -5.2,9.5 -10,16.5 -9.8,14.6 -12,20.4 -11.5,30.1 l 0.3,6.4 -8.5,0.6 c -4.7,0.3 -14.4,0.8 -21.6,1.2 l -13.1,0.6 -1.7,-5.3 c -3.6,-11.2 -11.3,-19.7 -21.2,-23.5 -6.9,-2.6 -19.5,-1.6 -27,2.2 -5.9,2.9 -8,5.9 -5,7 0.9,0.3 3.6,-0.4 6.1,-1.6 19.1,-9.3 37.5,-0.4 42.6,20.5 0.6,2.7 1.5,5.3 1.8,5.7 0.4,0.5 14.2,0.1 30.6,-0.8 24.4,-1.3 33.7,-1.4 50,-0.5 11,0.6 25.1,1.1 31.3,1.1 12.6,0 11.1,1 14.6,-9.1 4.7,-13.4 23.1,-21.7 35.1,-15.9 4.9,2.3 6.4,3.6 9.4,7.8 2.3,3.2 4.4,4.1 5.6,2.1 1.2,-1.9 -0.4,-5.5 -4.2,-9.3 -5.2,-5.3 -11.4,-7.9 -19,-8 l -6.2,-0.1 -0.5,-3.5 c -3.8,-24.2 -3.7,-110.5 0,-133.9 0.6,-3.7 0.8,-3.8 7.7,-5.8 7,-2.1 7.1,-2.1 9.5,-0.2 3.7,2.9 9,4 13.3,2.9 4.6,-1.3 6.1,-3.1 6.8,-8.2 0.6,-4 0.7,-4.1 7.1,-6.2 4.4,-1.4 6.6,-2.7 6.8,-3.9 0.5,-2.8 -2.5,-3.1 -9.8,-1 -6.6,2 -7,2 -8.5,0.3 -0.9,-1 -3.6,-2.3 -6,-2.9 -5.5,-1.4 -10.6,-0.4 -19.7,3.9 -6,2.8 -7,3 -10.6,2 -7,-1.8 -13,-10.4 -19.5,-28 -1.5,-4 -2.2,-9 -2.6,-18.6 l -0.6,-13.2 5,-1.7 c 6.3,-2.2 13.8,-6.8 18.9,-11.4 4.3,-4 13.3,-17.1 14.2,-20.7 0.4,-1.4 1.3,-2.3 2.3,-2.2 6.5,0.5 12.3,-3.5 13.6,-9.3 0.9,-3.9 -2.5,-10.9 -6.4,-13.2 -2.6,-1.5 -3,-2.5 -3.6,-7.5 -0.4,-3.1 -1.1,-7.4 -1.7,-9.6 -1.1,-4.7 -0.6,-5.4 2.6,-3.2 1.4,0.9 3.4,1.6 4.6,1.6 3,0 2.6,-3.6 -1.5,-11.7 -4.2,-8.4 -10,-15.2 -16.8,-19.8 l -4.9,-3.3 3.8,-2 c 3.9,-1.9 8.4,-3.5 13.7,-4.6 2.2,-0.5 2.8,-1.2 2.5,-2.9 -0.4,-3.2 -8.2,-5.6 -18.8,-5.7 -6.3,0 -8,-0.3 -6.7,-1.1 2.1,-1.3 2.2,-4.5 0.1,-5.3 -1.7,-0.6 -10.3,-0.6 -14.4,0.1 z m 2,8.3 c -2.8,3.9 -2,6.4 1.8,5.7 19.9,-3.6 25.2,-3.3 16.2,0.9 -6.1,2.8 -9,5.1 -9,7 0,0.6 2.5,2.6 5.6,4.4 7.1,4 14.2,10.6 17.2,15.9 1.3,2.3 2.1,4.1 1.9,4.1 -0.3,0 -3.1,-1.2 -6.3,-2.6 -8.2,-3.6 -19.7,-6.4 -26.4,-6.4 -7.2,0 -14.4,2.1 -24.5,7.2 l -7.9,4 2.9,-3.8 c 1.6,-2.2 4.1,-5.4 5.7,-7.1 1.5,-1.9 2.5,-3.9 2.2,-4.8 -1.5,-3.8 -11.2,-0.1 -24.2,9.2 -9.2,6.5 -5.4,0.5 4.8,-7.5 2.1,-1.7 2.2,-2.2 1.1,-3.6 -1,-1.2 -2.4,-1.4 -5.5,-1 -6.5,0.9 -18.2,4.2 -24.8,7 -3.3,1.4 -6.2,2.3 -6.4,2.1 -0.2,-0.2 1.9,-2.8 4.8,-5.7 7.1,-7.3 15,-10.8 29.6,-13.2 7,-1.1 12.7,-2.6 14.2,-3.7 6.7,-4.8 21.6,-10.8 27.3,-11 1.7,-0.1 1.7,0.1 -0.3,2.9 z m -56,35.2 c -1,1.8 -2.4,5.3 -3,7.7 -1,3.7 -0.9,4.6 0.4,5.9 1.4,1.5 1.8,1.4 4.3,-0.6 7.5,-6.1 19.9,-15.2 20.6,-15.2 0.5,0 -0.1,1.3 -1.3,2.9 -2.3,3.3 -5,10.4 -5,13.3 0,3.4 2.8,3 8.2,-1 7.8,-5.9 15.4,-9.8 23.6,-12.2 8.5,-2.6 13,-2.3 25.2,1.6 7.6,2.4 7.9,2.6 9.4,6.7 2.8,7.7 3.6,12.1 3.6,19.7 0,18.7 -10.7,39.8 -24.8,48.9 -17.2,11 -40.5,10 -57.1,-2.5 -10.4,-7.8 -16.8,-21.2 -17.8,-37.3 -0.8,-13.1 3.8,-27.7 11.8,-37.4 3.8,-4.6 4.4,-4.7 1.9,-0.5 z m -19.2,33.3 c -0.2,6.6 -0.4,7.5 -2,7.5 -1.1,0 -3,-1.1 -4.3,-2.5 -3.9,-3.8 -3,-8.6 2,-11.3 4,-2.2 4.4,-1.6 4.3,6.3 z m 114.2,6 c 1.7,3.2 0.6,6.9 -2.6,8.4 -1.5,0.6 -2.9,1 -3.1,0.7 -0.2,-0.2 0.1,-3.1 0.8,-6.4 1.3,-6.3 2.6,-7 4.9,-2.7 z m -94.5,40.5 c 8.6,6.9 21.2,11 33.6,11 h 7.6 l 0.6,9.2 c 0.4,5.1 0.5,11.3 0.2,13.8 -0.2,2.5 -0.6,11.7 -1,20.5 -0.3,8.8 -0.8,18.1 -1.1,20.7 -0.6,4.3 -0.9,4.7 -3.8,5.3 -1.7,0.3 -9.3,2.7 -16.8,5.2 -13.2,4.4 -13.9,4.6 -17.5,3.2 -5.3,-2 -7.3,-6.3 -7.3,-16 0,-13.2 6,-31.7 14,-43.4 3.3,-4.9 3.4,-7.5 0.1,-7.5 -2.9,0 -11.2,14 -15,25.4 -4.1,12.4 -5.9,26.6 -4.3,33.6 3.3,14.2 12.1,17.2 30.6,10.5 5.3,-1.9 10.1,-3.5 10.5,-3.5 0.5,0 1.1,1.3 1.3,3 0.4,2.8 0.2,3 -7.6,6.1 -9.1,3.6 -11.1,5 -10.3,7.3 0.9,2.3 2.2,2 11.8,-1.8 7.8,-3.2 8.5,-3.3 10.2,-1.8 1.5,1.3 1.7,2.5 1.2,6.2 -1,7.5 -1.3,8 -5,8 -10.6,0 -62.5,-14 -74.8,-20.2 -3.6,-1.8 -3.8,-2.1 -3.2,-5.1 2,-9.1 19.1,-53 27,-69 6,-12.2 12.9,-23.7 14.3,-23.7 0.5,0 2.6,1.3 4.7,3 z m 58.6,70 c 6.8,5.9 15.2,7.4 21.9,4 4.8,-2.5 5,-2.5 5,-0.1 0,1.7 -2.5,2.8 -15.2,6.9 l -15.3,4.8 -3,-2.1 c -1.6,-1.2 -3.9,-2.5 -4.9,-2.9 -1.8,-0.6 -1.8,-1.4 -1.3,-10.4 0.4,-5.3 0.7,-12.2 0.7,-15.2 l 0.1,-5.5 4.8,9.2 c 2.6,5.1 5.8,10.1 7.2,11.3 z m 43.9,1.5 c 2.8,2.5 3.5,6.7 1.4,8.2 -5.7,4.2 -15.5,-2.9 -12.3,-8.9 0.9,-1.7 1.8,-1.9 5.1,-1.5 2.2,0.3 4.8,1.3 5.8,2.2 z m -55.9,15.1 c 3.4,1.7 6.3,7.5 5.4,10.5 -1.3,4.1 -8.2,4.1 -11.9,0 -0.9,-1 -1.9,-3.5 -2.3,-5.5 -1,-6.2 2.6,-8.2 8.8,-5 z m 20.5,6.1 c -3.5,26.9 -3.3,102.7 0.3,129.5 l 0.8,5.8 -4.3,2.1 c -7.5,3.6 -17.4,15.7 -17.4,21.3 0,0.8 -0.5,1.8 -1.1,2.2 -0.6,0.3 -7.7,0.3 -15.9,-0.1 -14,-0.7 -14.8,-0.8 -13.8,-2.5 2.7,-4.3 -5.4,-9.8 -21.9,-14.5 -4.7,-1.4 -9.4,-2.5 -10.4,-2.5 -3.7,0 -2,-3.5 9.2,-19.8 8.3,-12.1 9.6,-15.8 12.3,-34.7 l 1.1,-8 15,-0.5 c 10.2,-0.4 16,-1.1 18,-2.1 2.9,-1.4 3,-1.6 3.3,-9.4 0.1,-4.9 -0.7,-14.1 -2.2,-23.5 -1.4,-8.5 -2.1,-15.7 -1.7,-16 1.5,-1 2.9,-4.5 3.6,-9.3 l 0.7,-4.7 h 4.5 c 3.6,0 5,-0.6 7.4,-2.9 2.4,-2.5 2.9,-3.8 2.9,-7.9 0,-4.7 0.2,-5 3.3,-6 6.4,-2 7,-1.7 6.3,3.5 z m -81.1,17.8 c 13.5,3.9 33.1,8.5 42.6,10 l 3.5,0.5 2.2,14.3 c 1.2,7.8 2.5,17.4 2.8,21.4 l 0.7,7.2 -3.9,0.8 c -5,1 -28.9,0.7 -32.9,-0.5 l -3,-0.8 -0.3,-12.7 c -0.3,-12.2 -0.3,-12.7 -2.9,-14.7 -6.2,-4.8 -9.7,-2.2 -17.3,12.8 -3.9,8 -4.3,8.4 -6.8,7.7 -4.3,-1 -21.1,-8.4 -28,-12.2 -5.4,-3 -6.2,-3.7 -5.6,-5.6 0.9,-3.1 11.1,-26.1 14.5,-32.9 l 2.9,-5.7 8.2,3.1 c 4.6,1.6 15.1,4.9 23.3,7.3 z m -96.7,56.2 4.6,2.7 -7.8,7.3 c -8.9,8.2 -18.3,15 -19.3,13.9 -1.6,-1.6 14.2,-26.6 16.8,-26.6 0.6,0 3.1,1.2 5.7,2.7 z m 104.2,75.5 c 10,3 16.3,6 14.9,6.9 -2,1.2 -17.4,2.2 -23.3,1.5 -6.2,-0.8 -7.3,-2.3 -6.1,-8.2 0.6,-3.4 0.7,-3.5 4.3,-2.8 2,0.4 6.6,1.6 10.2,2.6 z"
       id="path412-8"
       style="fill:#493323;fill-opacity:1;stroke:none;stroke-width:0.1;stroke-opacity:1" /><path
       d="m 4711.9851,1391.2537 c -5.4,2.1 -2.9,9.2 2.6,7.5 2.2,-0.7 3.3,-3.1 2.5,-5.5 -0.7,-2.3 -2.4,-2.9 -5.1,-2 z"
       id="path414-2"
       style="fill:#493323;fill-opacity:1;stroke:none;stroke-width:0.1;stroke-opacity:1" /><path
       d="m 4737.7851,1393.4537 c -0.7,0.7 -1.2,2 -1.2,2.9 0,4.3 7.2,5.3 7.8,1.1 0.6,-4.2 -3.7,-6.9 -6.6,-4 z"
       id="path416-5"
       style="fill:#493323;fill-opacity:1;stroke:none;stroke-width:0.1;stroke-opacity:1" /><path
       d="m 4698.6851,1410.0537 c -1.3,2.5 2.4,10.5 6.9,15 5.4,5.5 10.6,7.6 18.5,7.6 11.2,0.1 20.1,-5.6 25,-16.1 1.6,-3.3 1.6,-3.6 0,-5.2 -1.5,-1.5 -1.8,-1.5 -3.1,0.4 -0.8,1.1 -2.9,4 -4.7,6.5 -5.7,8 -16.3,11.2 -24.9,7.6 -4.4,-1.9 -9.5,-7.2 -12.2,-12.7 -2.4,-4.9 -4,-5.9 -5.5,-3.1 z"
       id="path418-1"
       style="fill:#493323;fill-opacity:1;stroke:none;stroke-width:0.1;stroke-opacity:1" /><path
       d="m 4577.7851,1686.8537 c -14.7,7.5 -14.5,27.7 0.3,34.9 6.9,3.4 12.9,3 19,-1.3 10.9,-7.6 11.4,-23.9 1,-31.8 -3.1,-2.4 -4.9,-2.9 -10.4,-3.2 -4.7,-0.2 -7.5,0.2 -9.9,1.4 z m 16.4,5.9 c 3.4,2.2 6.8,9.9 6,13.7 -0.3,1.6 -1.5,4.3 -2.7,5.9 -7.7,10.9 -24.9,5.6 -24.9,-7.7 0,-10.9 12.6,-17.8 21.6,-11.9 z"
       id="path510-2"
       style="fill:#493323;fill-opacity:1;stroke:none;stroke-width:0.1;stroke-opacity:1" /><path
       d="m 4764.0851,1687.9537 c -3.1,0.8 -8.1,4.9 -10.4,8.6 -3.5,5.7 -3.7,10.9 -0.7,16.9 3.1,6.3 7.7,9.7 14.6,10.5 14,1.6 24.6,-13.9 18.1,-26.5 -4.3,-8.4 -12,-11.8 -21.6,-9.5 z m 9.9,5.7 c 13.3,5.6 9.4,24.6 -5.1,24.6 -7.7,0 -13.8,-7.9 -11.9,-15.4 0.9,-3.7 5.4,-8.5 8.9,-9.5 4.4,-1.3 4.4,-1.3 8.1,0.3 z"
       id="path512-7"
       style="fill:#493323;fill-opacity:1;stroke:none;stroke-width:0.1;stroke-opacity:1" /></g></svg>
