<?xml version="1.0" encoding="UTF-8" standalone="no"?>
<svg
   version="1.0"
   width="233.44981pt"
   height="206.34619pt"
   viewBox="0 0 233.44981 206.34619"
   preserveAspectRatio="xMidYMid"
   id="svg522"
   sodipodi:docname="iStock_1321221451_1733912860171 - VŠE.svg"
   inkscape:version="1.2 (dc2aedaf03, 2022-05-15)"
   xml:space="preserve"
   xmlns:inkscape="http://www.inkscape.org/namespaces/inkscape"
   xmlns:sodipodi="http://sodipodi.sourceforge.net/DTD/sodipodi-0.dtd"
   xmlns="http://www.w3.org/2000/svg"
   xmlns:svg="http://www.w3.org/2000/svg"><defs
     id="defs526" /><sodipodi:namedview
     id="namedview524"
     pagecolor="#ffffff"
     bordercolor="#666666"
     borderopacity="1.0"
     inkscape:showpageshadow="2"
     inkscape:pageopacity="0.0"
     inkscape:pagecheckerboard="0"
     inkscape:deskcolor="#d1d1d1"
     inkscape:document-units="pt"
     showgrid="false"
     inkscape:zoom="0.1251579"
     inkscape:cx="-1877.6282"
     inkscape:cy="5413.1621"
     inkscape:window-width="1920"
     inkscape:window-height="1001"
     inkscape:window-x="-9"
     inkscape:window-y="-9"
     inkscape:window-maximized="1"
     inkscape:current-layer="svg522" /><metadata
     id="metadata2">
Created by potrace 1.16, written by Peter Selinger 2001-2019
</metadata><g
     id="g2890"
     transform="translate(-5521.5851,-534.63278)"
     style="fill:#493323;fill-opacity:1"><path
       d="m 5684.0851,535.8537 c -20.3,4.4 -41.4,22.3 -49.6,42.2 l -2.1,5 -5.6,-3.4 c -21.1,-12.7 -44.3,-12 -69.5,2.3 -15.5,8.7 -35.7,28.7 -35.7,35.3 0,1.2 4,8.5 8.8,16.3 14.4,23 39,63.7 51.1,84.5 6.2,10.5 11.7,19.5 12.2,19.8 1.5,0.9 3.9,-1.6 3.9,-3.9 0,-1.8 0.8,-1.3 4.9,2.7 6.4,6.3 7.9,5.9 10,-2.4 6.5,-24.7 29.5,-46 44.5,-41 3.2,1 4.6,0.8 11.6,-1.5 6.7,-2.2 8.5,-3.3 11.2,-6.8 4.7,-5.9 7.4,-8.2 14.8,-12.1 13.5,-7.1 29,-8.7 40.6,-4 3.5,1.4 6.8,2.2 7.4,1.9 0.5,-0.3 1,-3.9 1,-8 0,-4.1 0.5,-7.7 1,-8 0.6,-0.3 2.8,0.4 5,1.6 7,3.9 7.1,2.6 1.2,-20.8 -5.7,-23.1 -9.1,-37.8 -16.2,-71.6 -2.6,-12.6 -5.2,-23.3 -5.6,-23.7 -0.5,-0.5 -4.5,-1.8 -8.9,-3 -10.7,-2.8 -26.8,-3.5 -36,-1.4 z m 35.4,7 5.5,1.9 1.3,6 c 9.8,46.2 13.3,62 17.3,78.5 2.7,10.7 4.8,19.6 4.7,19.7 -0.1,0.1 -2.9,-0.8 -6.2,-1.9 -7.5,-2.6 -26.2,-3.6 -36.1,-1.8 -13.5,2.3 -30.6,11.6 -38.5,20.9 l -3.5,4 -13.7,-41.3 -13.8,-41.3 2.1,-5.3 c 7.9,-19.9 26.6,-36.3 47.5,-41.4 1.1,-0.3 7.9,-0.3 15,-0.2 9.5,0.3 14.5,0.9 18.4,2.2 z m -105.8,36.3 c 3.2,1.2 8.4,3.9 11.7,6.1 l 6.1,3.9 13.9,42.3 13.8,42.3 -8,0.7 c -17.5,1.5 -27.3,5.8 -38,16.4 -9.3,9.3 -14.8,18 -18.2,28.6 -1,3.2 -2,5.8 -2.3,5.8 -0.3,-0.1 -10.2,-16.2 -21.9,-35.8 -11.7,-19.7 -26.4,-44 -32.7,-54 l -11.3,-18.3 3.5,-4.7 c 11.6,-15.5 31.9,-29.5 49.7,-34.3 9.6,-2.6 25.6,-2.1 33.7,1 z m 118.7,71.2 6.4,1.1 -0.4,5.4 c -0.3,3 -0.7,5.6 -0.9,5.8 -0.2,0.2 -3.5,-0.3 -7.4,-1.1 -17.8,-3.7 -40.7,4 -52.8,17.8 -5.9,6.7 -9.9,8.2 -22.7,8.3 -13.5,0.1 -17.5,1.9 -28.6,13.1 -6.7,6.7 -9,9.9 -13.3,18.4 -2.8,5.7 -5.1,10.9 -5.1,11.7 0,2.1 -1.1,1.7 -5.3,-1.9 l -3.9,-3.2 2.1,-5.6 c 4.6,-12.3 13.6,-24.3 23.4,-31.3 8.8,-6.2 14,-7.7 28.6,-8.4 l 12.4,-0.5 1.6,-3.1 c 2.4,-4.6 12.9,-14.6 19.2,-18.4 13.5,-7.9 30.6,-10.9 46.7,-8.1 z"
       id="path228-9"
       style="fill:#493323;fill-opacity:1;stroke:none;stroke-width:0.1" /><path
       d="m 5705.6851,573.2537 c -4.9,6.2 -8,7.4 -17.1,6.6 -7.1,-0.7 -7.7,-0.6 -9.8,1.7 -2,2.2 -2.7,2.3 -6,1.4 -7.5,-2 -12.4,1.6 -12.6,9.1 -0.1,3.1 0.3,3.8 2.1,4 1.8,0.3 2.3,-0.3 2.8,-3.2 0.9,-4.8 2.8,-6.2 6.1,-4.7 3.9,1.7 6.5,1.3 9.4,-1.4 2.3,-2.2 3,-2.4 6,-1.5 5.2,1.5 9,1.2 14,-1.1 7.8,-3.5 13.4,-10.5 10.9,-13.5 -1.7,-2.1 -2.2,-1.8 -5.8,2.6 z"
       id="path230-1"
       style="fill:#493323;fill-opacity:1;stroke:none;stroke-width:0.1" /><path
       d="m 5715.9851,610.3537 c -2.4,3.9 -2.8,4.1 -6.2,3.5 -13.4,-2.2 -12.8,-2.3 -17.7,2.7 -4.4,4.5 -4.6,4.6 -9.3,4 -4.6,-0.5 -4.9,-0.4 -8,3.1 -1.8,2 -3.2,4.6 -3.2,5.6 0,3 3.6,2.5 6,-0.8 2,-2.7 2.6,-2.9 7.2,-2.4 4.8,0.5 5.1,0.3 9.9,-4.4 l 4.9,-4.8 4.7,1.7 c 2.7,0.9 5.6,1.7 6.7,1.7 3.2,0 8.3,-3.9 10.1,-7.6 3.3,-7 -0.9,-8.9 -5.1,-2.3 z"
       id="path232-7"
       style="fill:#493323;fill-opacity:1;stroke:none;stroke-width:0.1" /><path
       d="m 5594.8851,608.3537 c -4.7,4.7 -5.5,5.2 -10.4,5.5 -5.3,0.4 -6.7,1.2 -9.4,5.9 -0.9,1.5 -1.5,1.6 -5.1,0.5 -5.1,-1.5 -7.5,-0.4 -9.8,4.5 -2.4,5.1 -1.8,9 1.4,9 2.1,0 2.6,-0.6 3.1,-3.8 0.8,-5 1.2,-5.2 5.8,-3.7 4.6,1.5 7.3,0.4 9.6,-4 1.3,-2.6 2.1,-3 5.8,-3 4.9,0 7.8,-1.7 14.3,-8.3 2.9,-2.9 4.4,-5.3 4,-6.2 -1,-2.7 -4.1,-1.5 -9.3,3.6 z"
       id="path234-7"
       style="fill:#493323;fill-opacity:1;stroke:none;stroke-width:0.1" /><path
       d="m 5623.6851,626.7537 c -2,3.4 -2.2,3.5 -8.5,3.5 -6.2,0 -6.6,0.2 -9.2,3.4 -2.4,3 -3.1,3.3 -6.9,2.8 -3.7,-0.4 -4.4,-0.1 -6.4,2.4 -2.6,3.3 -2.6,8.7 0.1,9.2 1.2,0.2 2.2,-0.8 3.2,-3.3 1.3,-3.1 1.9,-3.5 3.8,-2.9 4,1.3 6,0.6 9.1,-3.1 2.9,-3.5 3.1,-3.6 8.1,-3 4.3,0.6 5.5,0.3 7.7,-1.4 3,-2.3 6.3,-8.6 5.4,-10.1 -1.3,-2.1 -4.4,-0.9 -6.4,2.5 z"
       id="path236-7"
       style="fill:#493323;fill-opacity:1;stroke:none;stroke-width:0.1" /><path
       d="m 5616.0851,661.2537 c -1.6,1.1 -3.7,2 -4.5,2 -0.8,0 -3.2,0.5 -5.3,1.1 -3,0.8 -4.2,1.8 -5.3,4.5 -1.2,2.9 -1.9,3.4 -4.8,3.4 -6.5,0 -10.9,6.5 -8.5,12.7 2.2,5.9 6.3,4.6 5.3,-1.6 -0.7,-4.5 0.6,-5.8 6.1,-6.3 3.5,-0.3 4.2,-0.8 5.8,-3.9 1.5,-3.2 2.4,-3.8 6.2,-4.3 5.3,-0.8 11,-4.5 11,-7.1 0,-2.7 -2.4,-2.9 -6,-0.5 z"
       id="path238-5"
       style="fill:#493323;fill-opacity:1;stroke:none;stroke-width:0.1" /></g></svg>
