<?xml version="1.0" encoding="UTF-8" standalone="no"?>
<svg
   version="1.0"
   width="364.37079pt"
   height="317.98389pt"
   viewBox="0 0 364.37079 317.98388"
   preserveAspectRatio="xMidYMid"
   id="svg522"
   sodipodi:docname="iStock_1321221451_1733912860171 - VŠE.svg"
   inkscape:version="1.2 (dc2aedaf03, 2022-05-15)"
   xml:space="preserve"
   xmlns:inkscape="http://www.inkscape.org/namespaces/inkscape"
   xmlns:sodipodi="http://sodipodi.sourceforge.net/DTD/sodipodi-0.dtd"
   xmlns="http://www.w3.org/2000/svg"
   xmlns:svg="http://www.w3.org/2000/svg"><defs
     id="defs526" /><sodipodi:namedview
     id="namedview524"
     pagecolor="#ffffff"
     bordercolor="#666666"
     borderopacity="1.0"
     inkscape:showpageshadow="2"
     inkscape:pageopacity="0.0"
     inkscape:pagecheckerboard="0"
     inkscape:deskcolor="#d1d1d1"
     inkscape:document-units="pt"
     showgrid="false"
     inkscape:zoom="0.2503158"
     inkscape:cx="7166.9467"
     inkscape:cy="1300.3574"
     inkscape:window-width="1920"
     inkscape:window-height="1001"
     inkscape:window-x="-9"
     inkscape:window-y="-9"
     inkscape:window-maximized="1"
     inkscape:current-layer="svg522" /><metadata
     id="metadata2">
Created by potrace 1.16, written by Peter Selinger 2001-2019
</metadata><g
     id="g2904"
     transform="translate(-5225.4932,-1035.5089)"
     style="fill:#493323;fill-opacity:1;stroke:none;stroke-opacity:1"><path
       d="m 5574.2287,1035.7292 c -1.3,0.3 -4,2.1 -6.1,4.2 -5.5,5.5 -7.5,13.3 -20.6,81.1 -7.7,39.9 -16.6,62.9 -29.5,76.1 -3.2,3.3 -7.9,6.8 -10.4,8 -7.4,3.2 -19.8,4.2 -45.6,3.5 -25.9,-0.6 -38.2,-1.6 -57,-4.7 -16.8,-2.6 -20.1,-3.6 -19.4,-5.4 0.5,-1.2 2.8,-1.5 11.3,-1.5 13,0 15.3,-0.5 14.9,-3.4 -0.3,-2 -1,-2.1 -11.5,-2.4 -12.3,-0.3 -12,-0.1 -10.2,-6.4 0.7,-2.6 1.7,-3.9 3.2,-4.3 18,-4.2 22.2,-5.4 23.1,-6.8 0.7,-1.2 0.7,-2 -0.1,-2.8 -0.8,-0.8 -4,-0.4 -12.3,1.5 -6.2,1.5 -11.4,2.5 -11.5,2.4 -0.2,-0.2 0.4,-4.1 1.2,-8.8 0.8,-4.7 1.6,-15.5 1.7,-24 0.1,-13.1 -0.2,-16 -1.7,-18.7 -2.4,-4.6 -5,-5.7 -8.5,-3.9 -2.7,1.4 -12.3,10.8 -17.7,17.3 -3.1,3.8 -5.1,4.1 -10.5,1.3 -2.2,-1.1 -7.9,-3 -12.7,-4.2 -11.5,-2.8 -34.8,-3 -46.6,-0.4 -7.4,1.6 -9.7,1.5 -9.7,-0.4 0,-1.8 -7.5,-13.6 -11.3,-17.7 -6,-6.5 -9.9,-5.6 -13.8,3.3 -4.4,9.8 -8.9,35.7 -8.9,51.1 0,6.8 -0.3,9.3 -1.2,9.3 -0.7,0 -6.4,-1.2 -12.5,-2.7 -7.8,-1.9 -11.6,-2.4 -12.3,-1.7 -2.6,2.6 0.4,4.2 13.2,7.5 l 13.2,3.4 1.1,5.8 c 0.8,4.2 0.9,6 0.1,6.2 -0.6,0.2 -7.4,1.3 -15.1,2.4 -13.5,2.1 -15.9,3 -14.8,5.8 0.7,1.7 2.4,1.7 17.7,-0.7 7.1,-1.1 13.5,-2 14.2,-2 1.4,0 4.8,6.9 3.9,7.8 -0.2,0.3 -5.1,2.6 -10.7,5.2 -7.9,3.5 -10.3,5.1 -10.3,6.6 0,3.1 2.8,2.7 13.4,-2 5.6,-2.6 10.4,-4.6 10.9,-4.6 0.4,0.1 3.2,2.9 6.2,6.4 5.8,6.6 13.9,12.6 21,15.3 l 4.2,1.7 -0.6,8 c -2.9,37.7 -3.9,88.9 -1.8,94.8 2.6,7.2 9.4,9.8 15.7,6 4.7,-2.9 7.8,-10 15,-33.7 3.6,-12.1 7.2,-22.6 7.9,-23.3 1.7,-1.7 4.1,-0.7 5.4,2.3 0.6,1.4 1.6,13.3 2.2,26.6 0.6,13.2 1.5,25 1.9,26.2 1.2,2.9 5,6.3 8,7 3.3,0.8 8.2,-1.4 11.3,-5.1 2.7,-3.3 5.1,-11.9 8.4,-30.2 2,-11.2 3.9,-15.5 9,-20 8.2,-7.2 20.5,-10.7 40.5,-11.7 19.2,-0.9 32.4,2.1 40.8,9.3 5.9,5.1 7.8,9.5 8.6,19.4 1.1,14.8 2.6,24.2 4.1,26.5 3.3,5 11.5,6 16.3,1.9 3.6,-3 4.7,-6.4 9.1,-28.9 3.2,-16 4.3,-19.5 6,-19.5 1.2,0 2.4,4.5 5.5,21 3.1,16.3 4.7,19.9 9.8,22.4 3.3,1.6 4.5,1.7 7.8,0.7 4.3,-1.3 8.1,-5.6 9.7,-11.1 1.6,-5.3 2.7,-13.3 7.7,-53 8.2,-66 17.9,-115.5 36.2,-184.9 7.9,-30.2 9.4,-37.3 9.1,-41.8 -0.7,-8.6 -7.5,-14 -15.6,-12.6 z m 7.8,7.3 c 3.6,3.6 3.5,6.4 -0.8,22.8 -2.2,8.7 -7.4,29.1 -11.6,45.4 -7.7,30.2 -18.1,79.6 -23.5,112.3 -1.7,9.9 -5,34.4 -7.5,54.5 -5.6,44.3 -6.2,48.2 -9,52.3 -3.6,5.3 -9.5,4.7 -11.7,-1.1 -0.5,-1.3 -2.2,-9.5 -3.8,-18.2 -1.7,-8.8 -3.5,-16.8 -4.1,-17.9 -2.3,-4.5 -10,-3.9 -12.5,0.9 -0.9,1.7 -3.1,10.8 -5.1,20.3 -4,20.1 -4.8,22.9 -7.4,25.2 -2.3,2.1 -6.5,1.4 -8,-1.5 -0.6,-1.1 -1.5,-7.9 -2.1,-15.2 -1.6,-18.8 -2.9,-22.9 -9.3,-29.3 -5.8,-5.8 -11.8,-8.9 -21.6,-11 -10.6,-2.3 -18.9,-2.7 -30.5,-1.5 -20.2,2 -34.1,7.3 -41.6,15.8 -4.4,5.1 -5.6,8.7 -9.5,28.7 -3.7,19.3 -6,23.6 -11.9,22.1 -3.5,-0.9 -4.3,-4.9 -4.9,-26.1 -0.9,-27.2 -1.2,-29.3 -5.1,-33.2 -6.8,-6.8 -12.9,-3.5 -16.5,8.8 -7.5,26 -13.3,42.3 -16,45.1 -3.4,3.3 -5,3.5 -7.6,0.7 -1.7,-1.8 -1.9,-4 -2.2,-17.8 -0.5,-21 2.3,-79.6 3.8,-82.1 0.5,-0.8 2.9,-0.7 9,0.4 10.3,2 16.9,2 26.2,0.1 14,-3 25.7,-10 34.7,-20.9 3,-3.6 5.8,-6.6 6.1,-6.6 0.4,0 3.3,0.9 6.6,2 6.4,2.3 8.4,2 8.4,-0.9 0,-1.5 -1.3,-2.4 -5.2,-3.6 -6.7,-2.2 -7.1,-2.6 -5.9,-5.7 0.9,-2.4 1.2,-2.6 4.8,-1.7 2.1,0.5 8.9,1.8 15.2,2.9 6.3,1.1 11.6,2.2 11.8,2.4 0.7,0.7 -6,30.5 -8.7,38.6 -2.4,7.2 -2.6,8.7 -1.5,9.9 1.2,1.2 1.7,1.2 3,0.1 2.2,-1.8 7.1,-18.1 10.2,-34.3 l 2.8,-13.9 9.5,0.7 c 5.2,0.4 10.5,0.9 11.8,1.2 2.7,0.6 2.7,-0.6 -1,26.1 -1.7,12.1 -1.9,15.5 -0.9,16.5 1,0.9 1.6,0.7 3,-1 1.3,-1.5 2.4,-6.8 4,-18 1.1,-8.7 2.1,-17.5 2.1,-19.6 v -3.7 h 4.3 c 2.4,0 8.5,0.3 13.5,0.6 l 9.2,0.7 v 20.4 c 0,17.6 0.2,20.4 1.6,21 3.4,1.3 3.9,-1.4 4.2,-22.2 l 0.3,-20.4 8.6,-0.3 c 5.1,-0.2 8.7,0.1 8.8,0.7 0.2,0.5 0.8,6.5 1.4,13.2 1.2,13.3 2.3,17.3 4.6,17.3 2.4,0 2.8,-2.3 1.6,-9.7 -0.5,-3.7 -1.3,-10.4 -1.6,-14.8 l -0.7,-8 3.8,-1.4 c 9.1,-3.2 18.6,-12.7 25.3,-25.3 9.6,-17.8 14.7,-35.4 23.2,-79.8 6.6,-34.7 11.1,-54.5 13.4,-59 3,-5.8 8.8,-7.7 12.5,-4 z m -307.6,77.5 c 1.5,1.9 4.5,6.8 6.7,11 2.3,4.1 4.9,8 5.9,8.5 1.3,0.7 3.8,0.5 8.2,-0.5 10.2,-2.4 9.8,-2.7 9.8,6.5 0,6.7 0.3,8.1 1.8,8.9 3.2,1.7 4,-0.4 3.4,-9.5 l -0.5,-8.4 h 6.2 6.2 l -0.6,8.7 c -0.3,4.9 -0.8,9.8 -1,10.9 -0.3,1.2 0.2,2.7 1,3.4 2.8,2.3 4.2,-0.5 5,-9.8 1.1,-13.8 0.9,-13.5 6.9,-12.7 9.3,1.2 8.9,0.6 5.6,9.7 -3.3,8.9 -3.6,11.3 -1.8,12.4 1.8,1.1 4.4,-3 7.3,-11.6 l 2.6,-7.9 5.2,2 c 9.8,3.9 10.7,4.1 13,3.5 1.3,-0.3 5.5,-4.3 9.5,-9 8.3,-9.8 12.6,-13.3 13.9,-11.4 1.6,2.6 1.5,25.7 -0.2,37.4 -0.9,6.4 -1.8,12.1 -2.1,12.8 -0.3,0.7 -6.2,2.6 -13.1,4.2 -12.7,2.9 -16.2,4.9 -13.6,7.5 0.8,0.8 4.1,0.4 12.7,-1.6 6.4,-1.6 11.9,-2.6 12.1,-2.3 0.7,0.7 -1.6,7.2 -2.9,8 -0.6,0.4 -4.5,0.8 -8.8,0.8 -5.2,0 -7.8,0.4 -8.1,1.2 -1,3.1 0.6,3.8 7.9,3.8 4.4,0 7.4,0.4 7.4,1 0,2.6 -5.2,11.1 -6.5,10.7 -5.7,-2.3 -9.7,-2.9 -10.7,-1.9 -1.8,1.8 -0.1,4 4.1,5.3 2.4,0.7 4.1,1.8 4.1,2.7 0,0.8 -3.1,4.5 -6.9,8.3 -11.2,10.9 -23.7,15.9 -40.1,15.9 -18.1,0 -35.2,-6.5 -47.3,-17.9 -6,-5.6 -6.4,-7 -3.1,-9.6 1.9,-1.5 2.5,-2.7 2.1,-3.9 -0.7,-1.8 -2.5,-1.8 -7,0 -1.8,0.7 -4.1,-3 -3.3,-5.2 0.3,-0.8 1.9,-1.4 3.8,-1.4 4.2,0 6.1,-1.2 5.6,-3.6 -0.3,-1.7 -1.2,-1.9 -6.4,-1.6 l -6.1,0.3 -1.1,-4.3 c -0.6,-2.3 -0.9,-4.4 -0.8,-4.6 0.2,-0.2 4.1,0.6 8.6,1.8 9,2.3 11,2.1 11,-0.9 0,-2.1 -0.1,-2.2 -14.4,-5.7 l -6.9,-1.7 0.7,-12.3 c 1.1,-21.5 7.6,-51.4 11,-51.4 0.8,0 2.5,1.6 4,3.5 z"
       id="path360-4"
       style="fill:#493323;fill-opacity:1;stroke:none;stroke-width:0.1;stroke-opacity:1" /><path
       d="m 5292.6287,1171.6292 c -3.3,3.2 -1.3,7.4 3.5,7.4 2.6,0 5.9,-2.2 5.9,-3.8 0,-0.4 -0.7,-1.8 -1.6,-3 -1.8,-2.6 -5.6,-2.9 -7.8,-0.6 z"
       id="path362-7"
       style="fill:#493323;fill-opacity:1;stroke:none;stroke-width:0.1;stroke-opacity:1" /><path
       d="m 5337.7287,1171.8292 c -2.2,2.5 -2.1,4.9 0.2,6.2 6.2,3.3 12.2,-1.9 7.3,-6.3 -2.4,-2.2 -5.5,-2.1 -7.5,0.1 z"
       id="path364-6"
       style="fill:#493323;fill-opacity:1;stroke:none;stroke-width:0.1;stroke-opacity:1" /><path
       d="m 5315.0287,1189.5292 c -0.7,0.8 -1,2.5 -0.6,3.8 0.8,3.3 -4.4,11.3 -8.8,13.3 -4.9,2.4 -8.1,1.2 -10.6,-3.7 -1.4,-2.7 -2.7,-3.9 -3.8,-3.7 -3.9,0.7 -1.1,8.8 4.2,12.3 5.5,3.6 14.9,1 19.5,-5.5 l 2.6,-3.7 4.6,4.8 c 2.8,2.9 6.2,5.2 8.7,5.9 3.6,1.1 4.5,1 8.5,-0.9 4.9,-2.4 9.6,-9.4 8.4,-12.5 -1,-2.6 -3.8,-1.5 -5.9,2.4 -2.5,4.5 -4.5,6 -8,6 -5.4,0 -13.4,-9.8 -12.1,-14.8 1.1,-4.2 -4,-7 -6.7,-3.7 z"
       id="path366-6"
       style="fill:#493323;fill-opacity:1;stroke:none;stroke-width:0.1;stroke-opacity:1" /></g></svg>
