<?xml version="1.0" encoding="UTF-8" standalone="no"?>
<svg
   version="1.0"
   width="125.05395pt"
   height="120.70947pt"
   viewBox="0 0 125.05395 120.70947"
   preserveAspectRatio="xMidYMid"
   id="svg522"
   sodipodi:docname="iStock_1321221451_1733912860171 - VŠE.svg"
   inkscape:version="1.2 (dc2aedaf03, 2022-05-15)"
   xml:space="preserve"
   xmlns:inkscape="http://www.inkscape.org/namespaces/inkscape"
   xmlns:sodipodi="http://sodipodi.sourceforge.net/DTD/sodipodi-0.dtd"
   xmlns="http://www.w3.org/2000/svg"
   xmlns:svg="http://www.w3.org/2000/svg"><defs
     id="defs526" /><sodipodi:namedview
     id="namedview524"
     pagecolor="#ffffff"
     bordercolor="#666666"
     borderopacity="1.0"
     inkscape:showpageshadow="2"
     inkscape:pageopacity="0.0"
     inkscape:pagecheckerboard="0"
     inkscape:deskcolor="#d1d1d1"
     inkscape:document-units="pt"
     showgrid="false"
     inkscape:zoom="0.1251579"
     inkscape:cx="-1877.6282"
     inkscape:cy="5413.1621"
     inkscape:window-width="1920"
     inkscape:window-height="1001"
     inkscape:window-x="-9"
     inkscape:window-y="-9"
     inkscape:window-maximized="1"
     inkscape:current-layer="svg522" /><metadata
     id="metadata2">
Created by potrace 1.16, written by Peter Selinger 2001-2019
</metadata><g
     id="g2739"
     transform="translate(-5574.1853,-137.71217)"
     style="fill:#493323;fill-opacity:1"><path
       d="m 5628.5851,138.3537 c -9.3,1.6 -17.7,4.8 -25.2,9.9 -13.2,8.6 -22.4,20.2 -26.8,33.5 -3.2,9.6 -3.2,24.9 0,35 6,19.1 15.2,29.6 31.8,36.4 18.4,7.6 44.8,6.9 60.4,-1.6 6,-3.3 17.5,-15.3 21.6,-22.5 9.3,-16.8 11.4,-36.7 5.7,-55.5 -3,-10.1 -14.7,-22.4 -27,-28.5 -11.7,-5.9 -28.9,-8.7 -40.5,-6.7 z m 27.3,7.3 c 12.9,4.1 26.9,14.2 32.1,23.1 6.1,10.3 7.3,33 2.6,46.4 -6.2,17.4 -18.8,30.9 -33,35.1 -23.3,6.9 -50.3,1.2 -64.4,-13.8 -10.4,-10.9 -15.7,-31.5 -12.6,-48.3 3.7,-19.6 25,-40 46,-44 6.4,-1.1 23.6,-0.3 29.3,1.5 z"
       id="path112-7"
       style="fill:#493323;fill-opacity:1;stroke:none;stroke-width:0.1" /><path
       d="m 5625.0851,152.6537 c -2.7,0.7 -7.5,2.5 -10.5,4.1 -7.5,4 -18.9,15.6 -22.2,22.6 -9.6,19.9 -2.7,46.9 14.7,58 8.2,5.2 15.2,7.2 27.6,7.7 17.5,0.7 26,-2.2 36.1,-12.3 6.6,-6.5 12,-16.5 13.8,-25.2 1.6,-7.4 0.7,-23.3 -1.5,-29.5 -3.5,-9.9 -15.1,-19.7 -28.8,-24.3 -8.5,-2.8 -20.3,-3.3 -29.2,-1.1 z m 22.9,5.1 c 3.9,0.8 7.3,1.8 7.8,2.3 1,1 -16.4,31.6 -17.7,31.1 -0.8,-0.4 -11.4,-30.4 -11.5,-32.6 0,-1.1 3.4,-1.8 11,-2.1 1.9,-0.1 6.6,0.5 10.4,1.3 z m -21.2,19.7 c 3.2,9.4 5.6,17.4 5.3,17.6 -0.5,0.5 -34.6,-9.5 -35.4,-10.4 -1,-0.9 3.1,-7.7 7.7,-12.6 4.6,-5 13.7,-11.8 15.7,-11.8 0.6,0 3.6,7.7 6.7,17.2 z m 40.1,-11.3 c 6.7,5.1 10.6,11.1 12.2,18.7 0.8,3.8 1.5,8 1.5,9.4 v 2.5 l -14.7,-0.3 c -8.2,-0.1 -16.7,-0.3 -18.9,-0.5 l -4.2,-0.2 5.5,-9.5 c 3.1,-5.2 7.3,-12.5 9.5,-16.3 2.1,-3.7 4.2,-6.7 4.6,-6.7 0.4,0 2.4,1.4 4.5,2.9 z m -65,26 c 3.1,1.1 10.7,3.4 16.9,5.1 6.2,1.8 11.5,3.4 11.7,3.6 0.4,0.4 -24.7,26.6 -26.1,27.2 -1.3,0.6 -6.8,-9.2 -8.8,-15.7 -2.4,-7.6 -2.8,-22.1 -0.7,-22.1 0.8,0 3.9,0.9 7,1.9 z m 69.6,9.8 8.3,0.6 -0.6,4.1 c -1.8,10.8 -11.7,24.6 -21.2,29.2 -3,1.5 -5.7,2.5 -5.9,2.2 -0.2,-0.2 -2.8,-8.3 -5.8,-18.1 l -5.4,-17.6 4.1,-0.4 c 7.6,-0.7 18,-0.7 26.5,0 z m -30.2,20.2 c 5.7,19.3 6,18.1 -4.7,18.1 -9.5,0 -24.4,-4.6 -26.6,-8.1 -0.6,-1 24.1,-26.9 25.7,-26.9 0.3,0 2.8,7.6 5.6,16.9 z"
       id="path114-0"
       style="fill:#493323;fill-opacity:1;stroke:none;stroke-width:0.1" /></g></svg>
