<?xml version="1.0" encoding="UTF-8" standalone="no"?>
<svg
   version="1.0"
   width="193.95557pt"
   height="174.13867pt"
   viewBox="0 0 193.95557 174.13867"
   preserveAspectRatio="xMidYMid"
   id="svg522"
   sodipodi:docname="iStock_1321221451_1733912860171 - VŠE.svg"
   inkscape:version="1.2 (dc2aedaf03, 2022-05-15)"
   xml:space="preserve"
   xmlns:inkscape="http://www.inkscape.org/namespaces/inkscape"
   xmlns:sodipodi="http://sodipodi.sourceforge.net/DTD/sodipodi-0.dtd"
   xmlns="http://www.w3.org/2000/svg"
   xmlns:svg="http://www.w3.org/2000/svg"><defs
     id="defs526" /><sodipodi:namedview
     id="namedview524"
     pagecolor="#ffffff"
     bordercolor="#666666"
     borderopacity="1.0"
     inkscape:showpageshadow="2"
     inkscape:pageopacity="0.0"
     inkscape:pagecheckerboard="0"
     inkscape:deskcolor="#d1d1d1"
     inkscape:document-units="pt"
     showgrid="false"
     inkscape:zoom="0.2503158"
     inkscape:cx="7166.9467"
     inkscape:cy="1300.3574"
     inkscape:window-width="1920"
     inkscape:window-height="1001"
     inkscape:window-x="-9"
     inkscape:window-y="-9"
     inkscape:window-maximized="1"
     inkscape:current-layer="svg522" /><metadata
     id="metadata2">
Created by potrace 1.16, written by Peter Selinger 2001-2019
</metadata><g
     id="g2836"
     transform="translate(-5057.585,-1416.9031)"
     style="fill:#493323;fill-opacity:1;stroke:none;stroke-opacity:1"><path
       d="m 5168.1851,1417.3537 c -7.2,2.1 -10.9,9.6 -8,16.5 1.3,3 1.3,3.9 0.2,5.4 -0.7,1 -4.1,5.3 -7.4,9.7 -8.3,10.6 -18.5,26.3 -24.3,37.3 l -4.8,9.1 -4.8,-5.3 c -6.9,-7.5 -20.9,-20.2 -28.5,-26 -6.4,-4.9 -6.5,-5 -6.5,-9.8 0,-3.8 -0.6,-5.5 -2.5,-7.4 -5.5,-6 -15.2,-5.5 -20.9,0.9 -2.6,3 -3.1,4.4 -3.1,8.6 0,4.2 0.5,5.5 2.9,7.9 1.8,1.9 4.4,3.2 7,3.6 3.7,0.6 4.2,1 5.1,4.3 4.1,15.5 7.5,41.1 9,68.6 1.8,32.8 1.8,32.3 4.8,33.9 9.9,5.1 81.9,18.1 89.6,16.2 2.3,-0.6 3.5,-2.3 7.9,-11.9 14.5,-31.8 33.8,-67.7 44.1,-82.1 l 4.6,-6.4 5.8,0.5 c 5.5,0.5 6.1,0.3 9.2,-2.4 2.8,-2.5 3.4,-3.8 3.8,-8.5 0.4,-5 0.2,-5.8 -2.7,-9.1 -4.1,-4.6 -8.6,-6.2 -13.9,-4.8 -4.8,1.3 -6.9,3.6 -7.9,8.6 -1,4.4 -0.6,4.2 -14.3,9 -11.5,4.1 -30.6,13.2 -35.6,17 l -3.2,2.4 -0.6,-3.7 c -0.7,-4.7 -0.8,-52 0,-54.9 0.4,-1.3 1.7,-2.4 3.4,-2.8 7.2,-1.6 11.2,-11.7 7.1,-18.2 -3.2,-5 -10.1,-7.8 -15.5,-6.2 z m 8.8,7 c 3,2.4 3.6,7.8 1,10.3 -2.4,2.5 -8.1,2 -10.9,-0.9 -3.1,-3 -3.2,-6.8 -0.3,-9.5 2.8,-2.6 6.8,-2.6 10.2,0.1 z m -9.7,48.2 c 0.1,17.1 0.6,32.8 1,34.7 1.2,4.7 3.5,4.9 8.4,0.7 6.9,-6 26,-15.3 41.2,-20.3 4.5,-1.5 8.7,-2.7 9.2,-2.8 2.1,-0.2 0.6,3.2 -4.3,9.9 -7.6,10.5 -19.2,31.3 -32.1,57.6 l -11.6,23.5 -9.5,-1.8 c -23,-4.5 -67.1,-12.7 -73.6,-13.8 -6.9,-1.1 -7.2,-1.3 -7.8,-4.2 -0.3,-1.7 -0.6,-5.6 -0.6,-8.7 0,-16.9 -4.9,-57.1 -8.9,-73.1 -2,-7.8 -1.6,-10 1.8,-10 3.8,0 28.6,21.8 37.8,33.2 3.1,3.8 6,6.7 6.6,6.5 0.6,-0.2 3.6,-5.3 6.7,-11.4 8.1,-15.8 32.1,-51.3 34.8,-51.3 0.4,0 0.8,14.1 0.9,31.3 z m -90.5,-22.6 c 4.1,3.7 0.9,10.9 -5.5,12 -8.5,1.3 -11.8,-7.1 -4.8,-12.4 2.3,-1.8 8.1,-1.6 10.3,0.4 z m 166.8,23.3 c 3.1,3.1 3.6,6.8 1.3,9.8 -2.9,3.9 -6.7,4 -10.3,0.3 -3.3,-3.3 -3.8,-6.5 -1.4,-9.9 2,-2.9 7.6,-3 10.4,-0.2 z m -98.5,101.6 c 16.5,3.2 30.4,6 30.8,6.4 0.4,0.4 0.5,1.5 0.1,2.5 -0.7,1.6 -1.6,1.7 -9.8,1.2 -14.5,-1 -49.9,-7.5 -69.8,-12.8 -7.3,-2 -7.8,-2.3 -7.8,-4.9 v -2.7 l 13.3,2.3 c 7.2,1.3 26.7,4.9 43.2,8 z"
       id="path442-3"
       style="fill:#493323;fill-opacity:1;stroke:none;stroke-width:0.1;stroke-opacity:1" /></g></svg>
