<?xml version="1.0" encoding="UTF-8" standalone="no"?>
<svg
   version="1.0"
   width="93.506348pt"
   height="86.192383pt"
   viewBox="0 0 93.506348 86.192382"
   preserveAspectRatio="xMidYMid"
   id="svg522"
   sodipodi:docname="iStock_1321221451_1733912860171 - VŠE.svg"
   inkscape:version="1.2 (dc2aedaf03, 2022-05-15)"
   xml:space="preserve"
   xmlns:inkscape="http://www.inkscape.org/namespaces/inkscape"
   xmlns:sodipodi="http://sodipodi.sourceforge.net/DTD/sodipodi-0.dtd"
   xmlns="http://www.w3.org/2000/svg"
   xmlns:svg="http://www.w3.org/2000/svg"><defs
     id="defs526" /><sodipodi:namedview
     id="namedview524"
     pagecolor="#ffffff"
     bordercolor="#666666"
     borderopacity="1.0"
     inkscape:showpageshadow="2"
     inkscape:pageopacity="0.0"
     inkscape:pagecheckerboard="0"
     inkscape:deskcolor="#d1d1d1"
     inkscape:document-units="pt"
     showgrid="false"
     inkscape:zoom="0.1251579"
     inkscape:cx="-1877.6282"
     inkscape:cy="5413.1621"
     inkscape:window-width="1920"
     inkscape:window-height="1001"
     inkscape:window-x="-9"
     inkscape:window-y="-9"
     inkscape:window-maximized="1"
     inkscape:current-layer="svg522" /><metadata
     id="metadata2">
Created by potrace 1.16, written by Peter Selinger 2001-2019
</metadata><g
     id="g2754"
     transform="translate(-4933.869,-378.25344)"
     style="fill:#493323;fill-opacity:1"><path
       d="m 4957.4851,381.1537 c -4.9,5 -3.4,13.6 4.2,24.7 1.7,2.5 2.9,4.7 2.7,4.9 -0.2,0.3 -3.3,0 -6.9,-0.6 -11.7,-1.9 -20.6,0.5 -23,6.3 -2,5 1,10.6 7.1,13 2.8,1.1 15.5,1.3 20.3,0.3 3.2,-0.7 3.1,-0.6 -2.5,5.2 -6.1,6.2 -7.8,9.5 -7.8,14.9 0,5 5.3,10.5 10.1,10.7 6.4,0.2 11.3,-5.3 16.5,-18.8 0.7,-1.8 0.8,-1.8 1.1,0.5 1,6.7 4.7,15.4 7.9,18.6 4.7,4.6 10.2,4.8 14.5,0.5 5.4,-5.5 3.2,-15.3 -6.1,-26.5 -2.2,-2.6 -4,-4.9 -4,-5.1 0,-0.1 2.6,0.4 5.8,1.1 8.3,2 19.9,1.8 24.2,-0.4 6.9,-3.4 7.8,-11.7 1.8,-16.7 -3.1,-2.6 -3.5,-2.7 -12.3,-2.2 -4.9,0.3 -10.3,0.9 -12,1.3 l -3,0.7 4.5,-4.9 c 7,-7.6 9.4,-12 9.4,-17.6 0,-5.6 -2.8,-9.3 -7.9,-10.3 -6.1,-1.3 -14.6,7.7 -18.2,19.1 l -1.7,5.5 -1.8,-7.8 c -3.2,-13.4 -8.1,-19.3 -16.3,-19.3 -2.7,0 -4.4,0.8 -6.6,2.9 z m 12,5 c 3.1,3.4 5.8,10.9 6.7,19.2 0.5,4.7 0.4,5.7 -1.1,6.3 -1.2,0.4 -2.4,-0.2 -3.9,-2 -5.4,-6.8 -8.7,-12.3 -10.2,-17.2 -1.5,-5 -1.5,-5.5 0.2,-7.3 2.4,-2.7 5.2,-2.4 8.3,1 z m 33.9,1.3 c 2.5,2.5 0.9,8.2 -4.2,15.1 -2.4,3.3 -12.4,11.2 -13.2,10.4 -0.8,-0.8 4.4,-15.5 7.2,-20.3 3.6,-6.1 7.4,-8 10.2,-5.2 z m -40.8,29.1 c 3.8,1 4.5,1.6 4.5,3.7 0,2.2 -0.6,2.6 -5,3.6 -11.4,2.7 -22.5,0.8 -22.5,-3.7 0,-1.2 0.8,-2.8 1.8,-3.5 2.1,-1.7 14.9,-1.7 21.2,-0.1 z m 19.7,0.7 c 2,0 4.5,4.7 3.8,7 -1.8,5.8 -9.6,6.3 -12,0.7 -2,-4.7 0.8,-9.3 5,-8.2 1.1,0.2 2.6,0.5 3.2,0.5 z m 36.8,0 c 2.2,0.8 2.6,1.5 2.3,4.2 -0.4,4.7 -3.6,6 -12.3,5.4 -10.6,-0.7 -17.5,-2.6 -17.5,-4.7 0,-1.4 1.6,-2.1 7.8,-3.4 4.2,-0.9 8.2,-1.8 8.7,-2 2.2,-0.7 8.5,-0.4 11,0.5 z m -46.2,15.6 c 1.2,0.4 1.3,1.3 0.5,4.6 -1.2,5.4 -5.3,14.1 -7.8,16.3 -2.4,2.1 -6,1.4 -7.8,-1.5 -2.3,-3.7 -0.5,-8 6,-14.2 6.2,-6 6.6,-6.2 9.1,-5.2 z m 19.3,6.6 c 7.7,10.6 9.1,15.6 4.8,18.4 -2.4,1.6 -2.7,1.6 -5.2,-0.3 -1.5,-1.1 -3.5,-4.2 -4.5,-6.8 -1.8,-5 -3.7,-16.1 -2.9,-17 1.5,-1.5 3.7,0.1 7.8,5.7 z"
       id="path162-7"
       style="fill:#493323;fill-opacity:1;stroke:none;stroke-width:0.1" /></g></svg>
