<?xml version="1.0" encoding="UTF-8" standalone="no"?>
<svg
   version="1.0"
   width="99.437134pt"
   height="105.99365pt"
   viewBox="0 0 99.437134 105.99365"
   preserveAspectRatio="xMidYMid"
   id="svg522"
   sodipodi:docname="iStock_1321221451_1733912860171 - VŠE.svg"
   inkscape:version="1.2 (dc2aedaf03, 2022-05-15)"
   xml:space="preserve"
   xmlns:inkscape="http://www.inkscape.org/namespaces/inkscape"
   xmlns:sodipodi="http://sodipodi.sourceforge.net/DTD/sodipodi-0.dtd"
   xmlns="http://www.w3.org/2000/svg"
   xmlns:svg="http://www.w3.org/2000/svg"><defs
     id="defs526" /><sodipodi:namedview
     id="namedview524"
     pagecolor="#ffffff"
     bordercolor="#666666"
     borderopacity="1.0"
     inkscape:showpageshadow="2"
     inkscape:pageopacity="0.0"
     inkscape:pagecheckerboard="0"
     inkscape:deskcolor="#d1d1d1"
     inkscape:document-units="pt"
     showgrid="false"
     inkscape:zoom="0.1251579"
     inkscape:cx="-1877.6282"
     inkscape:cy="5413.1621"
     inkscape:window-width="1920"
     inkscape:window-height="1001"
     inkscape:window-x="-9"
     inkscape:window-y="-9"
     inkscape:window-maximized="1"
     inkscape:current-layer="svg522" /><metadata
     id="metadata2">
Created by potrace 1.16, written by Peter Selinger 2001-2019
</metadata><g
     id="g2873"
     transform="translate(-5912.148,-832.22894)"
     style="fill:#493323;fill-opacity:1"><path
       d="m 5967.5851,832.9537 c -4.2,1.5 -11,11.7 -11,16.5 0,2.6 -0.6,2.3 -4.8,-2.4 -8.6,-9.5 -21.8,-10.3 -27.2,-1.6 -3.8,6.3 -1.5,16.3 5.8,24.8 l 2.9,3.4 -7.7,3.8 c -5.8,2.8 -8.4,4.7 -10.6,7.9 -5.1,7.4 -3.2,15 4.7,19.2 2.7,1.4 5,1.7 11,1.4 l 7.6,-0.4 -2,4.6 c -2.7,6 -2.9,16.3 -0.4,20.9 3.6,6.7 12.6,9.1 20.2,5.5 4.6,-2.2 9.1,-9 10.5,-16 l 1.2,-5.5 2.9,3.5 c 3.2,3.8 11.9,8.7 15.6,8.7 1.3,0 4.1,-0.9 6.2,-2 9,-4.6 9.4,-17.4 0.8,-27.6 l -2.7,-3.2 6,-1 c 10.3,-1.9 15,-7.2 15,-16.9 0,-5.7 -2.5,-10.4 -7.2,-13.4 -2.7,-1.6 -4.5,-1.9 -9.8,-1.6 -3.6,0.2 -7.3,0.7 -8.2,1.1 -1.4,0.7 -1.3,-0.1 0.9,-3.9 3.3,-6 3.7,-14.5 0.9,-18.8 -3.9,-5.9 -14.2,-9.3 -20.6,-7 z m 10.4,5.7 c 9.1,3.8 8.7,14.2 -1,25.4 l -3.6,4.2 -2.5,-2 c -1.4,-1.1 -4.4,-2.5 -6.6,-3.1 l -4,-1 0.6,-5.9 c 0.8,-7.7 3.2,-13.4 6.9,-16.5 3.4,-2.9 5.5,-3.1 10.2,-1.1 z m -33.9,8.6 c 3.5,2.2 8,8.4 9,12.3 0.6,2.2 0.2,2.6 -2.9,3.7 -2,0.6 -5.1,2.9 -7,5.1 l -3.4,4 -4.5,-5.1 c -9.9,-11 -9.4,-22 1.1,-22 2.7,0 5.7,0.8 7.7,2 z m 55.6,20 c 2.7,0.8 4.1,1.9 5.3,4.4 2,4.2 2,5.7 0.1,10.2 -1.7,4.2 -6.4,6.4 -13.2,6.3 -8.5,-0.2 -9.7,-0.9 -10.5,-6.3 -0.3,-2.6 -1.3,-5.8 -2.2,-7.1 -1.5,-2.2 -1.4,-2.4 2.2,-4.1 3.5,-1.7 11.4,-4.2 13.7,-4.3 0.6,-0.1 2.6,0.4 4.6,0.9 z m -37,1.1 c 7.6,2.6 13.9,10.1 13.9,16.6 -0.1,4.5 -3.6,11.1 -7.1,13.2 -13.3,8.1 -29.7,-3.5 -25.9,-18.2 1.5,-5.5 3.4,-8.4 7.3,-10.7 3.7,-2.3 6.9,-2.5 11.8,-0.9 z m -24.9,17.4 c 0.3,3.6 1.3,7.6 2.2,9 0.9,1.4 1.4,3 1.1,3.5 -0.9,1.5 -11.5,3.2 -15.4,2.5 -8.4,-1.5 -10.6,-8.4 -4.6,-14.1 3.1,-2.9 12,-7.2 15.1,-7.3 0.7,-0.1 1.3,2.6 1.6,6.4 z m 52.6,17.3 c 11.1,16.1 -4.5,25.9 -16.6,10.4 -5.6,-7.1 -5.7,-8 -1.9,-10.2 1.9,-1.2 4.7,-3.8 6.2,-6 l 2.7,-3.9 2.9,2.1 c 1.6,1.2 4.6,4.6 6.7,7.6 z m -38.3,1.7 c 2.2,0.8 5.5,1.4 7.4,1.5 h 3.4 l -0.7,7.2 c -1.3,13.1 -5.7,19.3 -13.9,19.3 -9.8,0 -11.9,-13.2 -4,-25.8 2.6,-4.2 2.4,-4.2 7.8,-2.2 z"
       id="path294-9"
       style="fill:#493323;fill-opacity:1;stroke:none;stroke-width:0.1" /></g></svg>
