<?xml version="1.0" encoding="UTF-8" standalone="no"?>
<svg
   version="1.0"
   width="271.40076pt"
   height="377.48242pt"
   viewBox="0 0 271.40076 377.48242"
   preserveAspectRatio="xMidYMid"
   id="svg522"
   sodipodi:docname="iStock_1321221451_1733912860171 - VŠE.svg"
   inkscape:version="1.2 (dc2aedaf03, 2022-05-15)"
   xml:space="preserve"
   xmlns:inkscape="http://www.inkscape.org/namespaces/inkscape"
   xmlns:sodipodi="http://sodipodi.sourceforge.net/DTD/sodipodi-0.dtd"
   xmlns="http://www.w3.org/2000/svg"
   xmlns:svg="http://www.w3.org/2000/svg"><defs
     id="defs526" /><sodipodi:namedview
     id="namedview524"
     pagecolor="#ffffff"
     bordercolor="#666666"
     borderopacity="1.0"
     inkscape:showpageshadow="2"
     inkscape:pageopacity="0.0"
     inkscape:pagecheckerboard="0"
     inkscape:deskcolor="#d1d1d1"
     inkscape:document-units="pt"
     showgrid="false"
     inkscape:zoom="0.2503158"
     inkscape:cx="7166.9467"
     inkscape:cy="1300.3574"
     inkscape:window-width="1920"
     inkscape:window-height="1001"
     inkscape:window-x="-9"
     inkscape:window-y="-9"
     inkscape:window-maximized="1"
     inkscape:current-layer="svg522" /><metadata
     id="metadata2">
Created by potrace 1.16, written by Peter Selinger 2001-2019
</metadata><g
     id="g2860"
     transform="translate(-5723.5852,-1139.5734)"
     style="fill:#493323;fill-opacity:1;stroke:none;stroke-opacity:1"><path
       d="m 5762.5851,1139.8537 c -7.7,1.5 -18.7,7.2 -23.1,12 -5.3,6 -6.3,8.5 -6.7,17.6 l -0.4,8.6 -4.4,1.7 c -3.1,1.2 -4.4,2.2 -4.4,3.6 0,2.8 2,3.2 6.4,1.4 2.1,-0.9 3.9,-1.5 4.1,-1.3 0.4,0.5 4.5,14.6 4.5,15.5 0,0.4 -2,1.6 -4.5,2.6 -3,1.3 -4.5,2.5 -4.5,3.7 0,2.9 1.7,3.3 6.5,1.4 2.5,-0.9 4.7,-1.5 4.9,-1.3 0.1,0.2 1.5,3.5 3.1,7.4 1.5,3.8 2.9,7.5 3.2,8.2 0.2,0.6 -0.4,1.4 -1.5,1.7 -3,1 -6.2,4.5 -5.6,6.1 0.8,2 3.3,1.9 6.8,-0.4 l 2.9,-2 2.7,4.3 c 4.6,7.2 11.7,11.2 21.7,12.3 l 6.8,0.8 21.8,40.5 c 12,22.3 22.1,41 22.3,41.6 0.3,0.7 -2.3,1.8 -6.8,2.9 -8.7,2.1 -14.8,5.4 -18.2,9.8 -8,10.5 -8.7,22.4 -1.8,32.5 1.5,2.2 7.2,8.9 12.7,14.9 5.5,6 11.3,13.3 12.9,16.2 2.8,5.2 2.8,5.6 3.6,27.9 1,26.3 1.9,33 6.2,46.6 6.9,21.9 21.6,34.6 45.1,39.1 20.7,3.9 48.2,-1.1 72,-13.1 15.7,-8 30.8,-23.7 37.5,-38.9 5,-11.5 6.5,-18.8 6.6,-31.5 0.1,-28.3 -10.5,-42.6 -52.8,-71 -18.9,-12.7 -22,-17.5 -26.6,-41 -1.2,-5.8 -3.2,-12.8 -4.4,-15.6 -3.9,-8.5 -11.6,-12.8 -22.6,-12.8 -7.5,0 -12,2 -19.2,8.3 l -4.6,4.1 -24.1,-41.3 -24,-41.3 1.9,-5.2 c 2.2,-5.7 2.6,-12.6 1,-16.6 -0.9,-2.4 -0.6,-2.9 3,-5.2 4.1,-2.7 5.3,-6 2.5,-7 -0.8,-0.3 -2.8,0.4 -4.4,1.5 -1.6,1.2 -3.4,2.1 -3.9,2.1 -0.8,0 -8.4,-12.7 -11,-18.1 -0.2,-0.4 1.7,-1.8 4.1,-3.2 6.2,-3.7 7.5,-5.4 5.4,-7.4 -1.4,-1.5 -2,-1.3 -6.5,1.6 -2.7,1.7 -5.3,3.1 -5.9,3.1 -0.6,0 -3,-3 -5.4,-6.7 -4.1,-6.2 -4.2,-6.7 -2.5,-7.7 4.1,-2.3 7.9,-6.3 7.2,-7.4 -1.1,-1.8 -3.5,-1.4 -8.4,1.4 l -4.4,2.6 -3.1,-3 c -1.8,-1.6 -4.7,-3.8 -6.6,-4.7 -3.5,-1.7 -12.5,-2.7 -17.1,-1.9 z m 16.5,7.9 c 6.1,3.5 20.1,23.7 30.8,44.4 5.3,10.3 5.9,11.9 5.3,15.8 -2.1,15.7 -20.3,29.3 -38.8,29.3 -11.7,-0.1 -17.2,-4.3 -23.9,-18.6 -4.3,-9.1 -12.1,-31.9 -13.9,-40.8 -2.8,-13.8 1.6,-22.5 14.6,-28.7 10.8,-5.2 18.5,-5.6 25.9,-1.4 z m 59.4,122.4 22.3,38.3 -2.4,2.4 -2.4,2.4 -23.6,-41.2 -23.6,-41.3 2.1,-2.2 2,-2.3 1.7,2.8 c 0.9,1.5 11.7,20 23.9,41.1 z m -10,6 c 12.8,22.2 23,40.5 22.9,40.6 -3.7,2.5 -5.5,3.5 -6.4,3.5 -0.6,0 -10.7,-17.7 -22.4,-39.3 -11.8,-21.5 -22,-40.2 -22.7,-41.4 -1.3,-2 -1.2,-2.3 1.4,-3.7 1.5,-0.8 3.1,-1.1 3.5,-0.8 0.3,0.4 11,18.9 23.7,41.1 z m -11.9,5.4 c 13.4,24.6 21.9,41.2 21.3,41.8 -0.5,0.5 -2.2,1.1 -3.8,1.4 l -3,0.6 -22.3,-41.6 c -12.3,-22.9 -22.2,-41.8 -22,-41.9 1,-1 6.4,-2.3 6.9,-1.7 0.4,0.3 10.7,19 22.9,41.4 z m 80.7,17.2 c 7.8,3.3 9.5,6.3 12.8,22.3 5.2,25.3 9.2,31.4 29.9,45.4 25.7,17.4 34.5,25 41.8,36.2 5.2,8.1 6.9,14.1 7.5,27.1 0.4,9 0.1,12.5 -1.5,19.2 -5.9,23.1 -23.1,42.4 -46.8,52.3 -17,7 -31,10 -47.4,10 -17.4,-0.1 -29.5,-3.9 -39.8,-12.7 -14.3,-12.2 -19.4,-29.3 -20.7,-69.2 -0.4,-11.5 -1.2,-22.2 -2,-24.6 -1.7,-5.8 -5.6,-11.2 -17.4,-24 -11.5,-12.4 -14.4,-17.4 -14.4,-24.9 0,-8.2 5.6,-16.9 12.6,-19.5 4.5,-1.7 15.8,-4.2 16.7,-3.6 0.4,0.3 7.2,12.4 15,27 l 14.2,26.4 -2.2,5.8 c -4.9,13.2 -1.7,27.3 7.6,33.2 4,2.6 9.4,4.3 16.7,5.3 1.3,0.2 5.2,6.4 12.2,19.3 5.8,10.4 10.4,19.3 10.5,19.6 0,0.3 -2.2,1.8 -5,3.3 -5.4,2.9 -7,6.6 -2.9,6.6 4.6,0 63,-34.3 64.4,-37.8 1.2,-3.2 -2.5,-4.3 -6,-1.9 -1.1,0.8 -3.2,2.2 -4.6,3.1 l -2.7,1.7 -11.3,-19.8 -11.4,-19.8 v -10 c 0,-8.4 -0.4,-10.7 -2.2,-14.2 -3,-5.4 -8.6,-10 -14.8,-11.9 l -5,-1.5 -16.6,-28.7 -16.6,-28.7 4,-4.2 c 7.5,-7.9 16.9,-10.3 25.4,-6.8 z m -17.8,41.9 c 8.3,14.2 15.1,26 15.1,26.2 0,0.2 -1.7,0.4 -3.8,0.4 h -3.8 l -14.2,-24.7 -14.2,-24.7 2.2,-2.3 c 1.2,-1.3 2.5,-2 2.9,-1.6 0.4,0.5 7.6,12.4 15.8,26.7 z m -11.4,4.8 13.3,23.3 -4.6,1.7 c -2.5,1 -4.7,1.6 -4.7,1.5 -1.4,-2 -24.5,-45.1 -24.5,-45.7 0,-0.9 6.3,-4.9 6.9,-4.4 0.2,0.2 6.3,10.8 13.6,23.6 z m -13.2,6.4 12.8,23.7 -2.7,2.8 c -1.5,1.6 -3,2.6 -3.4,2.4 -1.1,-0.7 -27.3,-49.5 -26.8,-50 0.6,-0.6 5.2,-2.4 6.3,-2.4 0.6,-0.1 6.8,10.5 13.8,23.5 z m 51.9,35.9 c 4.8,8.2 8.8,15.7 8.8,16.6 0,0.9 -0.8,2.7 -1.9,4 l -1.8,2.3 -4,-7 c -10.8,-18.5 -17.3,-30.2 -17.3,-30.8 0,-0.4 1.7,-0.6 3.8,-0.4 3.7,0.3 3.8,0.5 12.4,15.3 z m -10.6,6.5 c 6.2,10.7 11.3,20 11.4,20.7 0,1.1 -6.6,6.3 -8.1,6.3 -0.8,0 -23.9,-42.4 -23.9,-43.8 0,-1.1 5,-3.1 7.4,-2.9 1.4,0.2 5.1,5.7 13.2,19.7 z m 19.3,-11.9 c 1.2,2.1 2.4,6.2 2.7,9.1 l 0.6,5.3 -3.4,-5.5 c -1.9,-3 -4.9,-8.2 -6.8,-11.4 l -3.3,-5.9 4,2.3 c 2.3,1.2 5,3.9 6.2,6.1 z m -33.3,19.6 c 6.2,11.4 11.1,20.9 10.9,21.2 -0.2,0.2 -2.2,0.7 -4.3,1.1 l -3.9,0.7 -9.9,-18.4 c -5.4,-10.1 -10,-18.8 -10.2,-19.2 -0.4,-1.1 4.9,-7.4 5.6,-6.7 0.3,0.3 5.6,9.9 11.8,21.3 z m -12.7,5.8 c 9.5,17.7 9.3,17 4.6,16.2 -5,-0.8 -11,-4.9 -13.1,-8.8 -0.8,-1.7 -1.8,-5.4 -2.1,-8.3 -0.6,-5.5 1.3,-14.4 2.7,-13 0.5,0.5 4,6.7 7.9,13.9 z m 60.9,20.5 c 5.6,9.8 10.2,18.3 10.2,18.7 0,0.5 -1.3,1.6 -2.8,2.5 l -2.8,1.7 -9.7,-16.9 c -5.3,-9.3 -9.7,-17.5 -9.7,-18 0,-1.2 3.2,-5.9 4,-5.9 0.3,0 5.1,8 10.8,17.9 z m -8.4,11.3 c 5.7,10 7.6,14 6.8,15 -1.9,2.2 -8.2,5.1 -9.1,4.1 -1,-1 -17,-30 -17.4,-31.4 -0.1,-0.4 1.8,-2.2 4.3,-3.8 l 4.4,-3.1 1.6,2.7 c 0.9,1.5 5.1,8.9 9.4,16.5 z m -16.3,5.6 c 4.9,9 8.9,16.7 8.9,17.1 0,0.5 -1.6,1.7 -3.5,2.8 l -3.4,2.1 -8.7,-16.2 c -4.8,-8.9 -9.3,-17.2 -10,-18.4 -1.3,-2.1 -1.2,-2.3 1.3,-2.9 1.6,-0.3 3.3,-0.7 3.8,-0.9 2.1,-0.7 3,0.5 11.6,16.4 z"
       id="path374-8"
       style="fill:#493323;fill-opacity:1;stroke:none;stroke-width:0.1;stroke-opacity:1" /><path
       d="m 5768.2851,1159.0537 c -2.9,3.1 -1.9,7.2 4.6,20.7 12,24.6 18.7,34.5 23.6,34.5 3.3,0 6.1,-2.9 6.1,-6.4 0,-3.6 -6.2,-16.1 -16.6,-33.7 -9.6,-16.3 -13.6,-19.6 -17.7,-15.1 z m 13.9,19.4 c 5.8,9.8 15.4,28 15.4,29.3 0,0.3 -0.7,0.5 -1.5,0.5 -0.8,0 -3.5,-3.5 -6,-7.8 -5.1,-8.5 -18.5,-35.3 -18.5,-36.8 0.1,-1.7 4.2,4 10.6,14.8 z"
       id="path376-9"
       style="fill:#493323;fill-opacity:1;stroke:none;stroke-width:0.1;stroke-opacity:1" /><path
       d="m 5747.5851,1170.1537 c -1.9,3.6 -1,6.5 5.8,20.6 8.4,17 15.6,29.4 18.5,31.7 4.7,3.8 10.7,1.3 10.7,-4.4 0,-4.5 -19.8,-41.4 -25.7,-48.1 -2.2,-2.4 -7.9,-2.3 -9.3,0.2 z m 13.9,17.5 c 8.2,13.7 16.1,28.8 16.1,30.6 0,2.5 -2.3,0.6 -5.7,-4.8 -4.1,-6.2 -20.3,-37.7 -20.3,-39.3 0,-2.4 2.5,1 9.9,13.5 z"
       id="path378-5"
       style="fill:#493323;fill-opacity:1;stroke:none;stroke-width:0.1;stroke-opacity:1" /></g></svg>
