<?xml version="1.0" encoding="UTF-8" standalone="no"?>
<svg
   version="1.0"
   width="113.36864pt"
   height="191.27441pt"
   viewBox="0 0 113.36864 191.27441"
   preserveAspectRatio="xMidYMid"
   id="svg522"
   sodipodi:docname="iStock_1321221451_1733912860171 - VŠE.svg"
   inkscape:version="1.2 (dc2aedaf03, 2022-05-15)"
   xml:space="preserve"
   xmlns:inkscape="http://www.inkscape.org/namespaces/inkscape"
   xmlns:sodipodi="http://sodipodi.sourceforge.net/DTD/sodipodi-0.dtd"
   xmlns="http://www.w3.org/2000/svg"
   xmlns:svg="http://www.w3.org/2000/svg"><defs
     id="defs526" /><sodipodi:namedview
     id="namedview524"
     pagecolor="#ffffff"
     bordercolor="#666666"
     borderopacity="1.0"
     inkscape:showpageshadow="2"
     inkscape:pageopacity="0.0"
     inkscape:pagecheckerboard="0"
     inkscape:deskcolor="#d1d1d1"
     inkscape:document-units="pt"
     showgrid="false"
     inkscape:zoom="0.1251579"
     inkscape:cx="-1877.6282"
     inkscape:cy="5413.1621"
     inkscape:window-width="1920"
     inkscape:window-height="1001"
     inkscape:window-x="-9"
     inkscape:window-y="-9"
     inkscape:window-maximized="1"
     inkscape:current-layer="svg522" /><metadata
     id="metadata2">
Created by potrace 1.16, written by Peter Selinger 2001-2019
</metadata><g
     id="g2919"
     transform="translate(-5356.1276,-459.83934)"
     style="fill:#493323;fill-opacity:1"><path
       d="m 5423.2851,460.7537 c -2,0.7 -4.4,1.9 -5.3,2.6 -2.3,1.9 -4.4,6.4 -4.4,9.5 0,3.4 3.5,9.1 6.1,9.9 1.6,0.5 1.9,1.2 1.4,2.8 -0.3,1.2 -1.5,5.8 -2.7,10.3 l -2.1,8.1 -3.6,-2 c -4.5,-2.5 -8.2,-1.8 -12.2,2.2 -2.4,2.4 -3,2.6 -4.2,1.4 -2.4,-2.5 -8.7,-4.1 -12.4,-3.3 -7.2,1.7 -10.3,7.3 -10.3,18.7 0.1,15.3 5.6,31.6 13.9,40.6 4,4.3 13.1,9.9 18.1,11 l 2.6,0.6 -0.8,8.7 c -0.7,8.3 -3.5,24 -4.5,25.7 -0.3,0.4 -1.9,-2.3 -3.7,-6 -5.7,-11.7 -15.9,-19.2 -26.4,-19.3 -12,0 -19.4,7.8 -15.7,16.7 2.4,5.7 5.6,7.9 16.5,11.2 11.3,3.5 22.1,8.3 24,10.6 1.5,1.8 -0.4,7.8 -6,19 -4.7,9.3 -5,11.8 -1.7,11.3 2.7,-0.4 6.1,-6.3 11.3,-19.7 l 3.7,-9.3 5.5,-2.6 c 3,-1.3 11.5,-4.2 19,-6.3 15.5,-4.5 28,-10.1 33.6,-15 13.5,-11.8 4.6,-26.5 -13.8,-22.9 -11.1,2.1 -18.1,6.3 -29.2,17.4 l -10.1,10.1 0.9,-4.6 c 0.5,-2.5 1.4,-9.1 2.1,-14.5 l 1.2,-9.9 6,-0.7 c 21.3,-2.7 41.7,-27.5 41.9,-51 0.1,-6.3 -0.3,-8.2 -2,-10.5 -3.3,-4.4 -6.8,-5.2 -11.7,-2.5 -2.6,1.4 -4.3,1.9 -4.5,1.2 -0.8,-2.4 -5.3,-6.8 -8.2,-8 -1.7,-0.7 -5.2,-1 -8.1,-0.8 l -5,0.5 0.7,-3.1 c 0.3,-1.7 1.4,-5.3 2.3,-8.1 1.4,-4.5 1.9,-5 5.1,-5.6 5,-0.8 7.8,-2.5 10,-6.2 5,-8.1 0,-16.6 -11,-19 -1.4,-0.3 -4.2,0 -6.3,0.8 z m 11.5,7.5 c 2.7,3.3 2.3,7.5 -0.8,9.9 -3.2,2.5 -6.4,2.7 -10.4,0.6 -5.6,-2.9 -6,-8.3 -0.8,-12 3.1,-2.2 9.7,-1.4 12,1.5 z m -23,39.7 c 0.8,1 2.2,3.1 2.9,4.8 2,4.3 4.5,4.4 6.3,0.2 1.7,-4.2 5.1,-6.7 8.9,-6.7 4,0 9.7,5.7 9.7,9.8 0,3.3 2.2,5.8 4.1,4.6 0.7,-0.4 2.6,-2.2 4.2,-4.1 6.3,-7.2 10.8,-1.9 8.6,10.3 -1.5,8.2 -7.8,20.8 -13.8,27.5 -18.5,20.7 -45.7,17.7 -57.4,-6.3 -4.4,-9.3 -6.1,-16.2 -6.1,-26.5 -0.1,-9.6 1.9,-13.6 7.1,-14.1 3.2,-0.3 9.3,3.8 9.3,6.3 0,0.7 0.7,1.8 1.5,2.5 1.8,1.5 4.5,-0.2 4.5,-3 0,-2.7 3.9,-7 6.4,-7 1.3,0 3,0.8 3.8,1.7 z m 50.3,74.6 c 2.1,1.8 2.5,2.8 2,4.9 -1.6,6.2 -12.7,13.1 -29,18.2 -19,5.8 -24.5,7.3 -24.5,6.7 0,-1.5 13.1,-16.8 17.2,-20.2 13.3,-10.9 28,-15.1 34.3,-9.6 z m -79.6,8.2 c 5.4,3.5 9.7,8.4 12.5,14.5 2.8,6.1 3.3,8.5 1.4,7.7 -9.7,-4.1 -19.4,-7.7 -23.7,-8.8 -6.4,-1.6 -11.1,-5.6 -11.1,-9.3 0,-7.2 12.4,-9.6 20.9,-4.1 z"
       id="path182-0"
       style="fill:#493323;fill-opacity:1;stroke:none;stroke-width:0.1" /></g></svg>
