<?xml version="1.0" encoding="UTF-8" standalone="no"?>
<svg
   version="1.0"
   width="112.62695pt"
   height="194.40869pt"
   viewBox="0 0 112.62695 194.40869"
   preserveAspectRatio="xMidYMid"
   id="svg522"
   sodipodi:docname="iStock_1321221451_1733912860171 - VŠE.svg"
   inkscape:version="1.2 (dc2aedaf03, 2022-05-15)"
   xml:space="preserve"
   xmlns:inkscape="http://www.inkscape.org/namespaces/inkscape"
   xmlns:sodipodi="http://sodipodi.sourceforge.net/DTD/sodipodi-0.dtd"
   xmlns="http://www.w3.org/2000/svg"
   xmlns:svg="http://www.w3.org/2000/svg"><defs
     id="defs526" /><sodipodi:namedview
     id="namedview524"
     pagecolor="#ffffff"
     bordercolor="#666666"
     borderopacity="1.0"
     inkscape:showpageshadow="2"
     inkscape:pageopacity="0.0"
     inkscape:pagecheckerboard="0"
     inkscape:deskcolor="#d1d1d1"
     inkscape:document-units="pt"
     showgrid="false"
     inkscape:zoom="0.1251579"
     inkscape:cx="-1877.6282"
     inkscape:cy="5413.1621"
     inkscape:window-width="1920"
     inkscape:window-height="1001"
     inkscape:window-x="-9"
     inkscape:window-y="-9"
     inkscape:window-maximized="1"
     inkscape:current-layer="svg522" /><metadata
     id="metadata2">
Created by potrace 1.16, written by Peter Selinger 2001-2019
</metadata><g
     id="g2893"
     transform="translate(-5555.5851,-799.65436)"
     style="fill:#493323;fill-opacity:1"><path
       d="m 5586.5851,800.8537 c -8.3,3 -11.5,7.8 -10.7,15.8 0.3,2.8 0.8,6.1 1.2,7.3 0.6,1.8 0.3,2.3 -1.1,2.3 -10.7,0 -20.3,10.1 -20.4,21.1 0,7.8 6.5,15 15,16.4 l 4,0.7 -1.5,3.5 c -4.9,11.7 3.3,24.2 15.8,24.3 5.8,0 9.6,-1.8 13.4,-6.5 l 3,-3.6 3.6,18.8 c 2.1,10.4 4.1,21.7 4.7,25.3 1.6,11 4.2,34.2 3.8,34.6 -0.2,0.2 -2.8,-3.1 -5.8,-7.2 -9.7,-13.6 -20,-21.5 -27.6,-21.4 -2.9,0.1 -8,3.2 -10.5,6.4 -2.7,3.4 -3.6,10.9 -1.9,16 2.8,8.5 16.8,16 37.2,20 l 10.6,2 0.7,7.8 c 0.8,8.3 2.4,11.3 5,8.7 1.1,-1.2 1.1,-3.4 -0.1,-14.4 -0.7,-7.2 -1.4,-13.5 -1.4,-14 0,-0.6 2.5,-1.6 5.6,-2.3 11.9,-2.4 28.9,-13.3 34.6,-22 7,-10.6 5.6,-20.5 -3.5,-25.4 -4.3,-2.3 -11.9,-2.3 -16.6,0.2 -7,3.5 -14.7,14.6 -20.8,29.9 -0.8,2 -1.3,-0.1 -2.7,-11 -1.7,-13.4 -9.1,-52.3 -10.3,-54.2 -0.4,-0.7 0.1,-0.8 1.3,-0.3 10.7,4.4 23.3,-1.5 26.5,-12.4 1.5,-4.9 0,-12.8 -3.1,-16.7 l -2,-2.6 3.6,-3.5 c 4.5,-4.4 6.4,-8.8 6.4,-14.9 0,-6.6 -2.7,-11.3 -8,-14.1 -6.9,-3.5 -16.7,-2.5 -22.1,2.4 -1.5,1.3 -1.7,1 -2.2,-3.5 -0.8,-6.5 -3,-10.7 -6.8,-12.6 -4.5,-2.4 -11.7,-2.8 -16.9,-0.9 z m 15,6.2 c 2.2,1.8 3.9,7.6 4,13.9 v 3.3 h -6 c -4.1,0 -7.4,0.7 -10,2 l -4,2 -1.9,-3.8 c -2.7,-5.2 -3.5,-10.5 -2.1,-13.1 3,-5.7 15.1,-8.3 20,-4.3 z m 28.3,12.3 c 4.3,1.2 7.7,5.7 7.7,10.2 0,4.2 -3.5,10.2 -7.3,12.6 -4.1,2.5 -5.7,2.7 -5.7,0.4 0,-3.9 -4.4,-10.6 -8.8,-13.4 l -4.5,-2.8 3.2,-3 c 2.5,-2.3 6.3,-4 11.1,-5 0.3,0 2.2,0.4 4.3,1 z m -21.3,12.1 c 8.4,3.1 12,9.7 10.1,18.2 -2.4,10.4 -9.8,17.6 -18.2,17.6 -8.5,0 -14.4,-3.8 -18,-11.5 -3.2,-6.8 -2,-13.8 3.4,-19.9 5.3,-6.1 13.8,-7.7 22.7,-4.4 z m -28.2,1.5 c -5.1,10 -6.5,18.3 -3.9,23.1 1.1,2.1 1,2.2 -2.6,2.2 -8.9,0 -14.5,-6.7 -12.4,-14.7 1.1,-4.2 5.1,-8.9 8.6,-10.4 2.5,-1 10.8,-1.1 10.3,-0.2 z m 47.8,19.1 c 1.2,0.9 2.7,2.7 3.3,3.9 1.4,2.8 1.4,9.5 -0.1,12.8 -2.6,5.8 -12.1,8.4 -18.6,5.1 -1.8,-0.9 -3.2,-1.8 -3.2,-2.1 0,-0.2 2.2,-2.5 5,-5.1 4.3,-4 7.4,-8.9 9.3,-14.7 0.8,-2.1 1.6,-2.1 4.3,0.1 z m -43.2,15.7 c 3.7,2.8 10.7,5.5 14.2,5.5 2.9,0 3,1.2 0.4,6.5 -3.4,7.1 -10.4,9.4 -16.7,5.5 -4,-2.4 -5.5,-5.3 -5.5,-10.1 0.1,-3.4 2.5,-9.9 3.8,-9.9 0.3,0 2,1.1 3.8,2.5 z m 72.1,51.9 c 7.9,3.3 7.3,12.6 -1.4,22 -3.3,3.5 -13,10.2 -17.9,12.3 -4.2,1.8 -13.2,4.3 -13.2,3.7 0,-1.9 5.1,-14.5 8.6,-21.4 4.9,-9.6 10.1,-15.6 14.8,-16.9 4.4,-1.3 5.3,-1.3 9.1,0.3 z m -64.5,21.5 c 6,4 24.1,27.3 22.5,28.9 -1.1,1.2 -20.4,-4.3 -27.3,-7.8 -6.2,-3.1 -8.2,-4.7 -10,-7.8 -2.6,-4.7 -2.7,-7.2 -0.7,-11.2 3,-5.8 8.8,-6.6 15.5,-2.1 z"
       id="path292-7"
       style="fill:#493323;fill-opacity:1;stroke:none;stroke-width:0.1" /></g></svg>
