<?xml version="1.0" encoding="UTF-8" standalone="no"?>
<svg
   version="1.0"
   width="194.18616pt"
   height="263.97461pt"
   viewBox="0 0 194.18616 263.97461"
   preserveAspectRatio="xMidYMid"
   id="svg522"
   sodipodi:docname="iStock_1321221451_1733912860171 - VŠE.svg"
   inkscape:version="1.2 (dc2aedaf03, 2022-05-15)"
   xml:space="preserve"
   xmlns:inkscape="http://www.inkscape.org/namespaces/inkscape"
   xmlns:sodipodi="http://sodipodi.sourceforge.net/DTD/sodipodi-0.dtd"
   xmlns="http://www.w3.org/2000/svg"
   xmlns:svg="http://www.w3.org/2000/svg"><defs
     id="defs526" /><sodipodi:namedview
     id="namedview524"
     pagecolor="#ffffff"
     bordercolor="#666666"
     borderopacity="1.0"
     inkscape:showpageshadow="2"
     inkscape:pageopacity="0.0"
     inkscape:pagecheckerboard="0"
     inkscape:deskcolor="#d1d1d1"
     inkscape:document-units="pt"
     showgrid="false"
     inkscape:zoom="0.2503158"
     inkscape:cx="7166.9467"
     inkscape:cy="1300.3574"
     inkscape:window-width="1920"
     inkscape:window-height="1001"
     inkscape:window-x="-9"
     inkscape:window-y="-9"
     inkscape:window-maximized="1"
     inkscape:current-layer="svg522" /><metadata
     id="metadata2">
Created by potrace 1.16, written by Peter Selinger 2001-2019
</metadata><g
     id="g2913"
     transform="translate(-4953.0902,-836.68673)"
     style="fill:#493323;fill-opacity:1;stroke:none;stroke-opacity:1"><path
       d="m 5039.4851,837.2537 c -33,4.2 -59.5,20.3 -73.8,44.8 -9,15.5 -14.1,38.2 -12.2,54.2 3.1,25 15.8,50 41.1,80.9 11.8,14.4 26.6,28.7 30.6,29.5 3.1,0.7 3.1,0.8 4.9,11.1 1.4,8.5 1.5,10.8 0.5,12 -2.9,3.5 3,27.3 7.3,29.7 1.3,0.7 6.7,1.2 13.3,1.2 14,0.1 15.5,-0.7 18.4,-10.1 2.9,-9.3 3.6,-18.2 1.7,-20.7 -1,-1.4 -1.2,-2.9 -0.6,-5 0.4,-1.7 1.5,-6.5 2.4,-10.8 1.5,-6.7 2,-7.7 4.2,-8.3 5.7,-1.4 27.9,-28.5 42.3,-51.6 8.6,-13.7 18.8,-34.4 22.5,-45.4 4.5,-13.6 6.1,-26.2 4.7,-36.9 -3.9,-30.6 -18.9,-52.5 -44.8,-65.3 -8.1,-4 -11,-5 -22.4,-7.8 -7.7,-1.9 -30.7,-2.7 -40.1,-1.5 z m 39.4,6.9 c 2,0.7 3.7,1.6 3.7,2.1 0,2.1 -10.2,9.8 -14.7,11.1 -12.1,3.5 -26.7,-0.1 -33.9,-8.4 -1.8,-2.2 -3.2,-4.2 -3,-4.4 2.3,-2.3 40.6,-2.6 47.9,-0.4 z m -51.9,4.5 c 1.5,2.4 1.4,2.5 -5.5,8.7 -32.9,29.1 -39.8,70 -20.9,123.4 2.7,7.7 7.6,19.8 10.8,27 3.3,7.1 5.9,13 5.8,13.1 0,0.1 -3.1,-0.2 -6.8,-0.6 -7.7,-0.8 -6.9,-0.2 -20.9,-18.6 -20,-26.5 -30.9,-52.3 -30.9,-73.1 0,-3.7 0.7,-10.4 1.4,-14.8 5.2,-28.8 22.4,-51 48.3,-62.4 13.5,-5.9 16.3,-6.3 18.7,-2.7 z m 71.6,2.2 c 19.7,9.4 33,24.8 39.6,46 2.5,7.9 2.8,10.5 2.9,22.4 0,15.2 -1,19.8 -7.7,36.7 -5.1,12.9 -13.4,28 -24.4,44.3 -11.4,17 -10.2,15.9 -17.3,16.8 -5.5,0.8 -6.2,0.7 -5.8,-0.7 0.3,-0.9 3.3,-8.4 6.7,-16.6 11.6,-28.3 17,-52.4 17,-76.4 0,-28.4 -7.1,-50 -21.8,-66.3 l -3.4,-3.7 1.8,-3.1 c 1,-1.6 2.5,-3 3.4,-3 0.9,0 4.9,1.6 9,3.6 z m -60.7,8.3 c 2,1.2 3.7,2.4 3.7,2.5 0,0 -0.5,1.7 -1,3.6 -4.9,16.1 -8,47.1 -8,79.5 0,19.7 1.9,55.7 3.5,66.2 0.3,1.8 0.7,4.9 1,6.8 l 0.6,3.5 h -6.9 -6.9 l -6.3,-13.3 c -27.4,-57.9 -29,-102 -4.8,-133.4 6.5,-8.4 18.7,-19.5 20.2,-18.5 0.6,0.4 2.8,1.8 4.9,3.1 z m 48.2,4.3 c 6.2,8.3 8.9,13 11.9,21.1 10,26.7 8.2,61 -5.3,99.9 -5.2,15 -12.7,31.9 -14.8,33.5 -1.8,1.4 -10.3,1.8 -10.3,0.5 0,-0.4 1.1,-6.1 2.5,-12.7 9.3,-45.5 9.9,-104.5 1.4,-135.5 -1.3,-4.9 -1.7,-7.6 -1,-7.8 0.6,-0.2 3,-1.4 5.4,-2.7 2.3,-1.3 4.5,-2.4 4.9,-2.4 0.3,-0.1 2.7,2.7 5.3,6.1 z m -22.4,1.7 c 1.3,1.2 3.9,10.8 5.4,19.6 2.4,14.2 3.5,40.6 2.4,61.2 -1.2,26 -3.4,43.1 -8.1,64.4 l -2.1,9.6 -9,0.7 c -4.9,0.4 -9.1,0.6 -9.2,0.4 -0.7,-0.7 -3.6,-33 -4.6,-51.2 -2,-36.9 1,-79.8 7,-102.4 l 1.1,-4 8.3,0.5 c 4.5,0.3 8.5,0.8 8.8,1.2 z m 28,158.8 c -0.5,1 -4.1,5.1 -7.8,9.2 -5.8,6.2 -7.5,7.4 -11.3,8.2 -8.1,1.6 -31.1,2.2 -39.3,1 -7.2,-1 -8.3,-1.5 -13.1,-5.7 -3,-2.5 -6.3,-5.8 -7.5,-7.4 l -2.1,-2.9 h 20.9 c 21.8,0 45.7,-1.6 60.4,-4 0.4,0 0.3,0.7 -0.2,1.6 z m -23.1,24.2 c 0,0.5 -0.9,5 -2.1,10 l -2.1,9.1 h -13.4 c -15.3,0 -13.3,1.4 -15.8,-11.7 l -1.4,-7.3 16.7,-0.3 c 9.1,-0.1 16.9,-0.4 17.4,-0.5 0.4,-0.1 0.7,0.2 0.7,0.7 z m -7,24.9 c 5.4,0.7 5.5,0.8 5.2,3.7 -0.6,7 -3.5,16.6 -5.2,17.5 -2.2,1.2 -19,1.3 -20.6,0.2 -1.4,-0.9 -4.3,-9.5 -5.3,-16 -0.7,-4.3 -0.5,-5.2 0.8,-5.5 2.5,-0.7 19,-0.6 25.1,0.1 z"
       id="path296-2"
       style="fill:#493323;fill-opacity:1;stroke:none;stroke-width:0.1;stroke-opacity:1" /></g></svg>
