<?xml version="1.0" encoding="UTF-8" standalone="no"?>
<svg
   version="1.0"
   width="113.13891pt"
   height="85.357422pt"
   viewBox="0 0 113.13891 85.357421"
   preserveAspectRatio="xMidYMid"
   id="svg522"
   sodipodi:docname="iStock_1321221451_1733912860171 - VŠE.svg"
   inkscape:version="1.2 (dc2aedaf03, 2022-05-15)"
   xml:space="preserve"
   xmlns:inkscape="http://www.inkscape.org/namespaces/inkscape"
   xmlns:sodipodi="http://sodipodi.sourceforge.net/DTD/sodipodi-0.dtd"
   xmlns="http://www.w3.org/2000/svg"
   xmlns:svg="http://www.w3.org/2000/svg"><defs
     id="defs526" /><sodipodi:namedview
     id="namedview524"
     pagecolor="#ffffff"
     bordercolor="#666666"
     borderopacity="1.0"
     inkscape:showpageshadow="2"
     inkscape:pageopacity="0.0"
     inkscape:pagecheckerboard="0"
     inkscape:deskcolor="#d1d1d1"
     inkscape:document-units="pt"
     showgrid="false"
     inkscape:zoom="0.1251579"
     inkscape:cx="-1877.6282"
     inkscape:cy="5413.1621"
     inkscape:window-width="1920"
     inkscape:window-height="1001"
     inkscape:window-x="-9"
     inkscape:window-y="-9"
     inkscape:window-maximized="1"
     inkscape:current-layer="svg522" /><metadata
     id="metadata2">
Created by potrace 1.16, written by Peter Selinger 2001-2019
</metadata><g
     id="g2810"
     transform="translate(-5104.7934,-1638.6535)"
     style="fill:#493323;fill-opacity:1"><path
       d="m 5203.5851,1639.2537 c -6.3,0.4 -18.2,0.8 -26.5,0.9 -16,0.1 -25.7,1.2 -34.3,3.7 -7.7,2.2 -16.4,10.8 -18.6,18.3 -4,13.7 0.2,24.7 12.1,31.8 l 3.3,2 -15.3,9 c -8.3,5 -16.2,9.6 -17.5,10.3 -2.8,1.4 -2.6,4.4 0.3,4.8 1.9,0.3 17.1,-8 29.7,-16.1 l 5.8,-3.7 0.5,2.8 c 1.1,5.1 5.6,12.7 9.2,15.5 2.1,1.5 6.2,3.5 9.2,4.3 10.8,3.2 19.6,-0.1 31.1,-11.6 11.9,-11.9 16.5,-22.4 22.1,-49.8 3.7,-18 4.1,-22.6 1.9,-22.8 -0.8,0 -6.7,0.2 -13,0.6 z m 8.6,6.7 c -0.3,1 -1.9,8.7 -3.6,17.1 -3.3,16.5 -6.9,27.3 -11.9,35.1 -4.2,6.5 -14,15.7 -19.3,18.1 -13.4,6.1 -28.8,-2.7 -28.8,-16.4 0,-3.4 0.5,-3.9 12.2,-11.8 14.3,-9.6 35.7,-25.6 41.7,-31 4.1,-3.8 5.5,-7.8 2.6,-7.8 -0.9,0 -5.9,3.5 -11.3,7.8 -11,8.9 -26.6,20.2 -39.4,28.7 -9.8,6.5 -11,6.6 -18.3,1.5 -5.9,-4.1 -7.8,-8.5 -7.3,-17.4 0.3,-5.8 0.9,-7.9 3.3,-11.4 6.6,-9.9 15.7,-12.2 52.5,-13.2 14.6,-0.3 26.9,-0.7 27.3,-0.8 0.5,-0.1 0.6,0.6 0.3,1.5 z"
       id="path486-5"
       style="fill:#493323;fill-opacity:1;stroke:none;stroke-width:0.1" /><path
       d="m 5163.6851,1654.9537 c -3.4,8.2 -3.2,12.3 0.4,12.3 1.5,0 5.9,-12.6 5,-14 -1.2,-2 -4.3,-1 -5.4,1.7 z"
       id="path488-3"
       style="fill:#493323;fill-opacity:1;stroke:none;stroke-width:0.1" /><path
       d="m 5143.4851,1660.9537 c -0.5,1.4 -0.9,5.6 -0.7,9.2 0.3,5.8 0.5,6.6 2.4,6.9 1.9,0.3 2.1,-0.3 2.8,-8.3 0.3,-4.8 0.4,-9.1 0.1,-9.6 -1.2,-1.8 -3.6,-0.9 -4.6,1.8 z"
       id="path490-2"
       style="fill:#493323;fill-opacity:1;stroke:none;stroke-width:0.1" /><path
       d="m 5191.5851,1675.2537 c -5.5,0.4 -6.5,0.8 -6.5,2.4 0,3.2 2.7,4.1 9.1,3 4.9,-0.7 6,-1.3 6.2,-3 0.4,-2.7 -0.8,-3 -8.8,-2.4 z"
       id="path492-9"
       style="fill:#493323;fill-opacity:1;stroke:none;stroke-width:0.1" /><path
       d="m 5165.2851,1692.9537 c -2.8,2.8 1.8,5.5 12.7,7.4 5.9,1 7,0.9 8.4,-0.4 2.2,-2.2 0,-4.7 -4.3,-4.7 -1.7,0 -5.4,-0.7 -8.1,-1.5 -5.4,-1.6 -7.7,-1.8 -8.7,-0.8 z"
       id="path494-7"
       style="fill:#493323;fill-opacity:1;stroke:none;stroke-width:0.1" /></g></svg>
