<?xml version="1.0" encoding="UTF-8" standalone="no"?>
<svg
   version="1.0"
   width="215.12767pt"
   height="285.71436pt"
   viewBox="0 0 215.12767 285.71435"
   preserveAspectRatio="xMidYMid"
   id="svg522"
   sodipodi:docname="iStock_1321221451_1733912860171 - VŠE.svg"
   inkscape:version="1.2 (dc2aedaf03, 2022-05-15)"
   xml:space="preserve"
   xmlns:inkscape="http://www.inkscape.org/namespaces/inkscape"
   xmlns:sodipodi="http://sodipodi.sourceforge.net/DTD/sodipodi-0.dtd"
   xmlns="http://www.w3.org/2000/svg"
   xmlns:svg="http://www.w3.org/2000/svg"><defs
     id="defs526" /><sodipodi:namedview
     id="namedview524"
     pagecolor="#ffffff"
     bordercolor="#666666"
     borderopacity="1.0"
     inkscape:showpageshadow="2"
     inkscape:pageopacity="0.0"
     inkscape:pagecheckerboard="0"
     inkscape:deskcolor="#d1d1d1"
     inkscape:document-units="pt"
     showgrid="false"
     inkscape:zoom="0.2503158"
     inkscape:cx="7166.9467"
     inkscape:cy="1300.3574"
     inkscape:window-width="1920"
     inkscape:window-height="1001"
     inkscape:window-x="-9"
     inkscape:window-y="-9"
     inkscape:window-maximized="1"
     inkscape:current-layer="svg522" /><metadata
     id="metadata2">
Created by potrace 1.16, written by Peter Selinger 2001-2019
</metadata><g
     id="g2662"
     transform="translate(-5785.8575,-123.48331)"
     style="fill:#493323;fill-opacity:1;stroke:none;stroke-opacity:1"><path
       d="m 5853.0851,124.7537 c -17.3,3.8 -29.3,13 -36.4,27.8 -7,14.8 -6.8,29.5 0.9,46.3 1.6,3.7 3,6.8 3,7 0,0.2 -3,0.4 -6.7,0.4 -4.7,0 -7.9,0.6 -11,2.1 -11.8,5.7 -19.5,23.3 -16.3,37.1 2.8,12 13.4,25.6 24.4,31.4 l 5.4,2.8 -3.5,3.9 c -1.9,2.2 -4.7,6.5 -6.2,9.6 -2.2,4.9 -2.6,6.9 -2.6,15.1 0.1,7.8 0.5,10.4 2.4,14.5 5,10.5 19,20.4 33.2,23.5 9,2 24.1,0.9 31.8,-2.2 l 6.3,-2.7 -0.6,7.7 c -0.3,4.2 -0.9,17.2 -1.2,28.7 -0.8,24.4 -0.3,26.3 6.9,29.6 11.1,5 34.7,-0.8 40,-9.8 1.8,-3.2 1.8,-3.6 -0.3,-22 -1.1,-10.3 -3.1,-25.9 -4.4,-34.6 -1.2,-8.6 -2.2,-15.7 -2.1,-15.7 0.2,0 2.7,1.1 5.8,2.5 7.9,3.5 20.8,5.9 27.8,5.2 18.3,-2 37.5,-17.9 45.6,-37.8 4.4,-10.9 5.7,-17.8 5.7,-30.4 -0.1,-26 -10.4,-42.1 -28.5,-44.2 -2.7,-0.3 -4.9,-0.7 -4.9,-0.9 0,-0.1 1.6,-2.9 3.5,-6.1 13.1,-22.1 5.4,-48.5 -17.3,-59.1 -5,-2.4 -6.9,-2.7 -15.7,-2.7 -8.8,0 -10.7,0.4 -16,2.8 -3.3,1.5 -7.9,4.6 -10.2,6.9 l -4.1,4 -1.2,-5.8 c -3.3,-16 -10.8,-26.2 -23.3,-31.9 -9.5,-4.4 -19.5,-5.4 -30.2,-3 z m 27.7,7.8 c 14.1,6.3 22.1,22.4 21.4,43.2 -0.1,3.4 0.2,4 1.9,4 1.3,0 2.6,-1.3 3.9,-4 4.7,-10.2 13.2,-16.6 24.6,-18.4 7.9,-1.3 12.8,-0.6 19.9,2.7 9.7,4.5 16.6,13.5 19.1,24.9 2.3,10 -1.7,22.2 -10.9,33.7 -4,5 -2.9,6.6 4.4,6.6 20.9,0 31.6,15.4 30.2,43.4 -1,18.8 -6.6,32.4 -18.3,44.1 -8.9,8.9 -19,13.8 -29.3,14.4 -4.1,0.2 -10,-0.2 -13,-0.9 -6.1,-1.4 -17.3,-6.3 -19,-8.4 -0.6,-0.7 -2.4,-8.5 -4.1,-17.4 -6.1,-32.5 -11.4,-48.7 -16.7,-51.1 -2.5,-1.2 -3,-1 -5,1.3 -1.2,1.4 -2.7,4.3 -3.3,6.4 -2.8,10 -6.2,37.7 -7.6,61.7 -0.4,6.6 -1.1,13 -1.5,14.3 -0.6,1.5 -3.2,3.4 -7.6,5.5 -6.3,2.9 -7.6,3.2 -17.3,3.2 -14.6,0 -25.3,-3.8 -34.3,-12.4 -6.4,-6 -9.1,-12.3 -9.1,-21.1 0.1,-10.1 2.6,-15.8 10.5,-23.2 3.4,-3.1 5.8,-6.1 5.5,-6.7 -0.4,-0.5 -4,-2.6 -8.1,-4.6 -23.8,-11.4 -33,-37.9 -18.9,-54.4 6.6,-7.7 15.4,-10 24.9,-6.6 8,2.9 9.1,1 4.1,-7.2 -4.8,-7.8 -8.2,-16.9 -9.7,-25.7 -1.1,-6.4 -1,-8.3 0.4,-14.2 3.7,-14.9 11.8,-25.5 24,-31.3 8.8,-4.2 13.3,-5.1 24.2,-4.7 7,0.3 10.3,0.9 14.7,2.9 z m 15.3,127.3 c 6.1,14.7 19.4,90.3 22.1,126 0.7,9 0.6,9.1 -2.1,11.2 -7.6,6 -25.8,8.8 -31.8,4.9 l -2.7,-1.7 v -15.8 c 0,-49.5 7.7,-131.4 12.1,-128.7 0.5,0.4 1.6,2.2 2.4,4.1 z"
       id="path6-4"
       style="fill:#493323;fill-opacity:1;stroke:none;stroke-width:0.1;stroke-opacity:1" /><path
       d="m 5865.9851,159.7537 c -1.1,2.7 0.4,15.6 2.6,22.7 2.4,7.7 4.9,11.4 7.3,10.5 1.8,-0.7 2.3,-4.2 0.7,-5.2 -1.5,-0.9 -4.2,-11 -5.4,-20.5 -0.9,-6.7 -1.5,-8.6 -2.9,-8.8 -0.9,-0.2 -2,0.4 -2.3,1.3 z"
       id="path8-6"
       style="fill:#493323;fill-opacity:1;stroke:none;stroke-width:0.1;stroke-opacity:1" /><path
       d="m 5854.4851,211.8537 c -1.2,1.4 -1,1.9 1.1,3.3 1.3,0.9 4.3,3.6 6.7,6 4.2,4.3 7.3,5 7.3,1.6 0,-2.4 -3.9,-7.2 -8.2,-10 -4.4,-2.9 -5.1,-3 -6.9,-0.9 z"
       id="path12-3"
       style="fill:#493323;fill-opacity:1;stroke:none;stroke-width:0.1;stroke-opacity:1" /><path
       d="m 5916.7851,219.9537 c -3.7,7.3 -5.5,14.2 -4.2,15.8 2,2.4 4,0.3 6.7,-7.1 3.1,-8.5 3.4,-11.7 1.1,-12.2 -1.1,-0.2 -2.3,0.9 -3.6,3.5 z"
       id="path14-9"
       style="fill:#493323;fill-opacity:1;stroke:none;stroke-width:0.1;stroke-opacity:1" /><path
       d="m 5825.2851,239.9537 c -3.2,3.2 7.6,14.6 18.9,20 7.6,3.6 10.7,3.9 11.2,1.1 0.2,-1.1 -1.9,-2.7 -7.5,-5.4 -5.5,-2.6 -9.7,-5.6 -14.1,-10.1 -6.4,-6.3 -7.3,-6.9 -8.5,-5.6 z"
       id="path16-9"
       style="fill:#493323;fill-opacity:1;stroke:none;stroke-width:0.1;stroke-opacity:1" /><path
       d="m 5840.1851,302.1537 c -0.9,1.5 0.4,4 2.5,4.6 1,0.4 4.2,2.9 7,5.6 4.9,4.7 7.8,5.8 8.6,3.2 0.5,-1.5 -5.1,-7.8 -10.1,-11.5 -3.9,-2.8 -7,-3.6 -8,-1.9 z"
       id="path22-2"
       style="fill:#493323;fill-opacity:1;stroke:none;stroke-width:0.1;stroke-opacity:1" /><path
       d="m 5938.2851,178.9537 c -0.2,0.5 -0.1,7.9 0.1,16.6 0.4,15.4 0.5,15.8 2.5,15.5 1.7,-0.2 2.3,-1.3 3,-4.8 1.1,-5.8 0.2,-23.1 -1.2,-25.9 -1.1,-2.1 -3.6,-2.8 -4.4,-1.4 z"
       id="path10-1"
       style="fill:#493323;fill-opacity:1;stroke:none;stroke-width:0.1;stroke-opacity:1" /><path
       d="m 5960.8851,247.4537 c -0.5,0.7 -1.5,2.7 -2.2,4.4 -1.2,3.1 -4.6,7 -9.6,11.2 -2.5,2.1 -2.6,2.5 -1.3,3.9 1.4,1.3 1.9,1.3 4.4,0 7,-3.7 15,-16.1 12.4,-19.3 -1.5,-1.7 -2.5,-1.8 -3.7,-0.2 z"
       id="path18-0"
       style="fill:#493323;fill-opacity:1;stroke:none;stroke-width:0.1;stroke-opacity:1" /><path
       d="m 5935.2851,284.9537 c -1.6,1.5 -0.5,4.3 3.4,8.7 2.2,2.5 4.9,4.6 6,4.6 2.8,0 3.6,-3 1.3,-4.9 -1.1,-0.9 -3.2,-3.3 -4.8,-5.4 -2.7,-3.5 -4.5,-4.5 -5.9,-3 z"
       id="path20-9"
       style="fill:#493323;fill-opacity:1;stroke:none;stroke-width:0.1;stroke-opacity:1" /></g></svg>
