<?xml version="1.0" encoding="UTF-8" standalone="no"?>
<svg
   version="1.0"
   width="267.90863pt"
   height="319.82373pt"
   viewBox="0 0 267.90863 319.82373"
   preserveAspectRatio="xMidYMid"
   id="svg522"
   sodipodi:docname="iStock_1321221451_1733912860171 - VŠE.svg"
   inkscape:version="1.2 (dc2aedaf03, 2022-05-15)"
   xml:space="preserve"
   xmlns:inkscape="http://www.inkscape.org/namespaces/inkscape"
   xmlns:sodipodi="http://sodipodi.sourceforge.net/DTD/sodipodi-0.dtd"
   xmlns="http://www.w3.org/2000/svg"
   xmlns:svg="http://www.w3.org/2000/svg"><defs
     id="defs526" /><sodipodi:namedview
     id="namedview524"
     pagecolor="#ffffff"
     bordercolor="#666666"
     borderopacity="1.0"
     inkscape:showpageshadow="2"
     inkscape:pageopacity="0.0"
     inkscape:pagecheckerboard="0"
     inkscape:deskcolor="#d1d1d1"
     inkscape:document-units="pt"
     showgrid="false"
     inkscape:zoom="0.2503158"
     inkscape:cx="7166.9467"
     inkscape:cy="1300.3574"
     inkscape:window-width="1920"
     inkscape:window-height="1001"
     inkscape:window-x="-9"
     inkscape:window-y="-9"
     inkscape:window-maximized="1"
     inkscape:current-layer="svg522" /><metadata
     id="metadata2">
Created by potrace 1.16, written by Peter Selinger 2001-2019
</metadata><g
     id="g2707"
     transform="translate(-4418.6765,-135.42968)"
     style="fill:#493323;fill-opacity:1;stroke:none;stroke-opacity:1"><path
       d="m 4556.6851,136.6537 c -0.7,0.8 -1.6,11.8 -2.3,29.9 l -1.2,28.6 -25.1,27.9 c -51.1,56.8 -82.5,93.2 -82.5,95.6 0,3.7 1.8,3.9 52.7,4.4 l 49.6,0.5 -0.6,14 c -0.4,7.7 -0.8,14.1 -1,14.3 -0.1,0.1 -18.4,0.5 -40.7,0.9 -49.9,0.8 -74.7,2 -76.7,3.7 -1.1,0.9 -1.4,2.3 -0.9,5.3 0.7,5.5 7.6,30.2 13,46.9 3.9,12.1 4.2,13.8 2.8,14.3 -13.2,4.3 -29.1,18.3 -24.2,21.3 1,0.6 3,-0.6 7,-4.3 10,-9.3 23.7,-14.7 33.4,-13.3 10.1,1.5 20,8.6 26.3,18.7 2,3.3 4.1,5.9 4.8,5.9 0.7,0 2.9,-2 4.8,-4.4 9.9,-12.1 27.7,-16.7 41.3,-10.7 6.5,2.9 13.2,8.6 16.7,14.3 1.7,2.6 3.6,4.8 4.3,4.8 0.6,0 2.3,-1.9 3.7,-4.3 9.2,-15.6 28.9,-22.6 42.6,-15.2 3.3,1.8 6.7,4.7 8.5,7.2 1.6,2.4 3.5,4.3 4.2,4.3 0.7,0 2.8,-2.8 4.6,-6.3 6.6,-11.9 17.4,-17.4 32.7,-16.4 10.6,0.6 18.3,3.4 24.4,8.7 5.2,4.6 7.7,5.1 7.7,1.6 0,-4.6 -11,-12 -22,-14.7 -3,-0.7 -9.4,-1.3 -14.2,-1.3 -4.9,0 -8.8,-0.3 -8.8,-0.7 0,-0.3 1.1,-3.1 2.4,-6 3.1,-7.1 18.3,-47.7 19,-50.9 0.9,-3.8 -0.5,-5 -7.5,-6.1 -5.2,-0.7 -73.9,-2.8 -97.4,-2.9 h -6 l 0.7,-12.8 c 0.4,-7 1.8,-42.6 3.2,-79.2 1.4,-36.6 2.9,-70.6 3.2,-75.6 l 0.6,-9.1 5.4,0.9 c 5.8,0.9 13.9,3.4 29.5,9.1 12.8,4.8 23.2,6.1 35.6,4.7 15.4,-1.7 26.9,-5.9 26.1,-9.7 -0.4,-2.1 -1.7,-2.7 -11.1,-5.2 -4.2,-1.2 -8.9,-2.6 -10.3,-3.1 l -2.6,-1 5.5,-4.5 c 6.2,-5 11.7,-11.5 11.7,-13.8 0,-2.2 -2.1,-2.6 -5,-1.2 -6.6,3.3 -23.9,4.5 -37.1,2.4 -3.9,-0.6 -11.6,-2.7 -17.2,-4.6 -7.9,-2.7 -12.4,-3.6 -20,-4 l -9.7,-0.6 0.6,-3.3 c 0.9,-4.9 -2,-8.1 -4.5,-5 z m 31.4,18 c 15.1,5 20.7,6 35.2,5.9 14.9,0 15,0.1 5.7,6.2 -3,2 -5.4,4.2 -5.4,5 0,1.8 3.3,3.5 14,7 l 8.5,2.9 -4.5,1.3 c -6.8,2.1 -24.7,2.8 -32.2,1.4 -3.5,-0.7 -12.1,-3.5 -19.3,-6.2 -7.1,-2.8 -16.9,-5.8 -21.8,-6.7 l -8.9,-1.7 0.6,-6.5 c 0.3,-3.6 0.6,-7.7 0.6,-9.2 0,-1.9 0.6,-2.8 2.3,-3.1 4.7,-1.1 15.6,0.5 25.2,3.7 z m -37.1,97.7 -1.8,47.2 -39.3,-0.5 c -21.7,-0.3 -39.6,-0.8 -40,-1.1 -0.3,-0.3 4.5,-6.3 10.7,-13.4 23.4,-26.6 71.5,-80.1 71.8,-79.8 0.2,0.2 -0.5,21.6 -1.4,47.6 z m -36.1,52.5 33.7,0.7 v 5.7 5.8 l -5.2,0.7 c -5.9,0.8 -87.1,-0.4 -88.6,-1.4 -0.6,-0.3 1.2,-3.3 4.1,-6.9 l 5.2,-6.2 8.5,0.5 c 4.7,0.2 23.7,0.7 42.3,1.1 z m 115.7,54.4 c 14,0.6 25.8,1.4 26.1,1.8 0.4,0.4 0,2.1 -0.7,3.8 l -1.3,3.1 -86.8,0.7 c -47.7,0.3 -96.9,1 -109.3,1.5 -14.9,0.5 -22.7,0.5 -23.1,-0.2 -0.9,-1.3 -2.1,-8.9 -1.5,-9.4 2,-2 154,-3 196.6,-1.3 z m 22,14.8 c 0,1.1 -13.3,35.8 -16.3,42.2 -1.8,4.2 -3.7,6.4 -7.8,9.3 -3,2.2 -6.9,5.9 -8.8,8.3 l -3.3,4.4 -4.4,-3.9 c -12.9,-11.4 -35.6,-8.5 -49.1,6.3 l -4.9,5.3 -5.3,-5.5 c -15.5,-15.8 -40.7,-16.4 -57.1,-1.2 l -4,3.6 -4.3,-5.6 c -7.7,-9.9 -19.4,-16 -30.7,-16 h -5.9 l -4.5,-14.3 c -6.2,-19.7 -9,-29.6 -8.5,-30.2 0.5,-0.4 68.5,-2.4 98.4,-2.8 43.7,-0.7 116.5,-0.6 116.5,0.1 z"
       id="path104-4"
       style="fill:#493323;fill-opacity:1;stroke:none;stroke-width:0.1;stroke-opacity:1" /><path
       d="m 4489.5851,389.9537 c -2.8,1 -6.9,5.6 -8,8.8 -1.5,4.6 1.1,10.8 5.7,13.6 7.3,4.5 16.1,2 19.8,-5.7 2.9,-6.2 0.1,-12.5 -7.2,-16.3 -2.2,-1.1 -7.7,-1.4 -10.3,-0.4 z m 7.9,5.4 c 5.5,1.9 6.8,7.3 2.6,11.4 -1.5,1.6 -3.6,2.5 -5.5,2.5 -3.8,0 -8,-3.9 -8,-7.4 0,-1.5 1.2,-3.4 3.1,-5 3.5,-3 3.5,-3 7.8,-1.5 z"
       id="path106-6"
       style="fill:#493323;fill-opacity:1;stroke:none;stroke-width:0.1;stroke-opacity:1" /><path
       d="m 4532.4851,391.5537 c -4.4,3 -7.3,8.9 -6.4,13.4 0.3,1.9 2.1,5.1 3.9,7 2.7,3 4.1,3.6 8.3,4 5.9,0.6 10.2,-1.7 12.8,-6.7 6.3,-12.1 -7.5,-25.2 -18.6,-17.7 z m 14.3,8.2 c 2.3,5.1 -3.4,12.4 -8.6,11.1 -3.8,-0.9 -6.6,-4.1 -6.6,-7.5 0,-3.5 3.3,-7.8 6.3,-8.3 3.1,-0.5 7.6,1.8 8.9,4.7 z"
       id="path108-6"
       style="fill:#493323;fill-opacity:1;stroke:none;stroke-width:0.1;stroke-opacity:1" /><path
       d="m 4574.3851,392.2537 c -3.9,3.2 -5.9,8 -5.1,12.3 1.2,5.9 10.9,11.9 16.6,10.1 5.6,-1.7 10.7,-7.6 10.7,-12.3 0,-3.1 -2.9,-8.4 -5.8,-10.5 -1.5,-1.1 -4.7,-2.1 -7.6,-2.4 -4.5,-0.3 -5.5,0 -8.8,2.8 z m 12.1,3.5 c 7.2,3.6 4.2,13.5 -4.1,13.5 -3.1,0 -7.8,-3.8 -7.8,-6.4 0,-2.7 2.2,-6.4 4.4,-7.4 2.9,-1.5 4.3,-1.4 7.5,0.3 z"
       id="path110-9"
       style="fill:#493323;fill-opacity:1;stroke:none;stroke-width:0.1;stroke-opacity:1" /></g></svg>
