<?xml version="1.0" encoding="UTF-8" standalone="no"?>
<svg
   version="1.0"
   width="172.17688pt"
   height="196.28174pt"
   viewBox="0 0 172.17688 196.28174"
   preserveAspectRatio="xMidYMid"
   id="svg522"
   sodipodi:docname="iStock_1321221451_1733912860171 - VŠE.svg"
   inkscape:version="1.2 (dc2aedaf03, 2022-05-15)"
   xml:space="preserve"
   xmlns:inkscape="http://www.inkscape.org/namespaces/inkscape"
   xmlns:sodipodi="http://sodipodi.sourceforge.net/DTD/sodipodi-0.dtd"
   xmlns="http://www.w3.org/2000/svg"
   xmlns:svg="http://www.w3.org/2000/svg"><defs
     id="defs526" /><sodipodi:namedview
     id="namedview524"
     pagecolor="#ffffff"
     bordercolor="#666666"
     borderopacity="1.0"
     inkscape:showpageshadow="2"
     inkscape:pageopacity="0.0"
     inkscape:pagecheckerboard="0"
     inkscape:deskcolor="#d1d1d1"
     inkscape:document-units="pt"
     showgrid="false"
     inkscape:zoom="0.2503158"
     inkscape:cx="7166.9467"
     inkscape:cy="1300.3574"
     inkscape:window-width="1920"
     inkscape:window-height="1001"
     inkscape:window-x="-9"
     inkscape:window-y="-9"
     inkscape:window-maximized="1"
     inkscape:current-layer="svg522" /><metadata
     id="metadata2">
Created by potrace 1.16, written by Peter Selinger 2001-2019
</metadata><g
     id="g2855"
     transform="translate(-4749.6977,-870.37204)"
     style="fill:#493323;fill-opacity:1;stroke:none;stroke-opacity:1"><path
       d="m 4807.3851,875.2537 c -25.1,18.5 -46.4,47.4 -54.8,74.5 -3.2,10.2 -3.8,28.4 -1.5,39 7.5,33.7 39,64.6 77,75.6 7.1,2.1 10.1,2.3 26,2.3 16.4,0 18.9,-0.2 27.9,-2.7 18.5,-5 36.7,-15.9 39.4,-23.6 1.7,-4.8 0.4,-6.7 -27.8,-43.1 -22.7,-29.2 -33,-43.4 -40.6,-56.2 -7.5,-12.6 -19.7,-36.8 -27.9,-55.3 -3.2,-7.2 -6.2,-13.6 -6.8,-14.3 -1.7,-2.1 -4,-1.3 -10.9,3.8 z m 13.7,15 c 6.9,15.5 20.4,42.2 27.4,53.9 7.9,13.2 16.7,25.5 40.8,56.5 10.8,13.8 21.2,27.5 23.1,30.4 3.4,5.1 3.4,5.3 1.6,6.7 -4.1,2.9 -14.4,7.5 -23,10.1 -8.1,2.5 -10.4,2.7 -24.9,2.7 -13.3,0 -17.3,-0.3 -23.7,-2.1 -27.4,-7.5 -52.2,-27 -63.3,-49.7 -5.2,-10.8 -6.6,-17.2 -6.6,-30.4 0,-16.3 5.4,-34.1 16.2,-53.6 8.4,-15.3 25.2,-37.6 27,-35.8 0.4,0.4 2.9,5.5 5.4,11.3 z m -31.1,11.5 c -6.3,9.7 -15.1,27.8 -18.2,37.5 -5,15.2 -6.4,33.1 -3.7,45 3.6,15.4 9.2,25.6 21.2,38.2 19,19.9 41.7,31.3 66.8,33.7 10.7,0.9 25.2,-0.1 34,-2.4 10,-2.6 10.2,-2.6 4.5,0 -17,8 -42.3,10.4 -62.4,5.9 -29.8,-6.7 -59.9,-31.5 -71.5,-59.1 -11,-25.9 -6.6,-52.5 13.4,-82.3 5.3,-7.9 19.7,-25 21.1,-25 0.2,0 -2.1,3.8 -5.2,8.5 z"
       id="path322-5"
       style="fill:#493323;fill-opacity:1;stroke:none;stroke-width:0.1;stroke-opacity:1" /><path
       d="m 4806.5851,921.8537 c -5.7,1.5 -10,5.1 -10,8.3 0,2.7 3.6,6.8 6.5,7.5 3.5,0.9 7.4,-1.4 12.9,-7.5 5.9,-6.6 5.9,-9.3 0.1,-9.6 -2.2,-0.1 -6.5,0.4 -9.5,1.3 z m 5,5.3 c 0,1.6 -6,5.3 -7.6,4.7 -2.4,-0.9 -1.1,-3 2.7,-4.3 4.3,-1.5 4.9,-1.5 4.9,-0.4 z"
       id="path324-6"
       style="fill:#493323;fill-opacity:1;stroke:none;stroke-width:0.1;stroke-opacity:1" /><path
       d="m 4801.0851,966.7537 c -6.9,2.8 -9.4,5.6 -9.5,10.3 0,4.1 3.8,8.2 7.6,8.2 3.7,0 8.7,-5.4 11.2,-12.2 3.5,-9.3 1.5,-10.7 -9.3,-6.3 z m 2,9.1 c -1.9,2.9 -4.2,4.1 -5.6,2.7 -1.6,-1.6 0.2,-4.4 3.5,-5.8 3.7,-1.6 4.5,-0.5 2.1,3.1 z"
       id="path326-0"
       style="fill:#493323;fill-opacity:1;stroke:none;stroke-width:0.1;stroke-opacity:1" /><path
       d="m 4834.8851,976.3537 c -10.5,5.1 -13.7,11 -9,16.5 5.4,6.2 12.7,2.1 17.3,-9.7 4.2,-10.6 2.4,-12 -8.3,-6.8 z m 0.7,10.4 c -2.4,3.9 -5.3,4.4 -5.8,1 -0.2,-1.5 0.8,-2.7 3.5,-4.2 4.5,-2.6 5.3,-1.6 2.3,3.2 z"
       id="path328-2"
       style="fill:#493323;fill-opacity:1;stroke:none;stroke-width:0.1;stroke-opacity:1" /><path
       d="m 4836.0851,1011.5537 c -7.2,4 -9.8,8.1 -8.4,13 1.1,4 3.4,5.7 7.5,5.7 4.4,0 7.7,-4.1 9.9,-12.4 2.9,-10.5 1,-11.8 -9,-6.3 z m 3,7.4 c -1.3,5.6 -6.5,8.2 -6.5,3.3 0,-1.7 4.4,-5.9 6.4,-6 0.4,0 0.5,1.2 0.1,2.7 z"
       id="path330-8"
       style="fill:#493323;fill-opacity:1;stroke:none;stroke-width:0.1;stroke-opacity:1" /><path
       d="m 4872.3851,1013.2537 c -9.5,6.3 -12.2,12.4 -7.5,16.8 2.7,2.6 7.3,2.9 10.5,0.7 2.4,-1.8 6.6,-13.9 6,-17.7 -0.5,-3.4 -3.7,-3.3 -9,0.2 z m 2,8.2 c -0.6,1.8 -1.6,3.9 -2.3,4.6 -1.1,1.3 -4.5,0.7 -4.5,-0.8 0,-0.8 6.7,-7 7.5,-7 0.2,0 -0.1,1.5 -0.7,3.2 z"
       id="path332-0"
       style="fill:#493323;fill-opacity:1;stroke:none;stroke-width:0.1;stroke-opacity:1" /></g></svg>
