<?xml version="1.0" encoding="UTF-8" standalone="no"?>
<svg
   version="1.0"
   width="110.04308pt"
   height="108.6626pt"
   viewBox="0 0 110.04308 108.6626"
   preserveAspectRatio="xMidYMid"
   id="svg522"
   sodipodi:docname="iStock_1321221451_1733912860171 - VŠE.svg"
   inkscape:version="1.2 (dc2aedaf03, 2022-05-15)"
   xml:space="preserve"
   xmlns:inkscape="http://www.inkscape.org/namespaces/inkscape"
   xmlns:sodipodi="http://sodipodi.sourceforge.net/DTD/sodipodi-0.dtd"
   xmlns="http://www.w3.org/2000/svg"
   xmlns:svg="http://www.w3.org/2000/svg"><defs
     id="defs526" /><sodipodi:namedview
     id="namedview524"
     pagecolor="#ffffff"
     bordercolor="#666666"
     borderopacity="1.0"
     inkscape:showpageshadow="2"
     inkscape:pageopacity="0.0"
     inkscape:pagecheckerboard="0"
     inkscape:deskcolor="#d1d1d1"
     inkscape:document-units="pt"
     showgrid="false"
     inkscape:zoom="0.1251579"
     inkscape:cx="-1877.6282"
     inkscape:cy="5413.1621"
     inkscape:window-width="1920"
     inkscape:window-height="1001"
     inkscape:window-x="-9"
     inkscape:window-y="-9"
     inkscape:window-maximized="1"
     inkscape:current-layer="svg522" /><metadata
     id="metadata2">
Created by potrace 1.16, written by Peter Selinger 2001-2019
</metadata><g
     id="g2916"
     transform="translate(-5392.7147,-690.5913)"
     style="fill:#493323;fill-opacity:1"><path
       d="m 5439.5851,691.2537 c -22.8,4.2 -42.4,21.7 -46,40.9 -3.4,18.1 3.4,40.2 16.2,53.3 10,10.1 19.8,13.8 36.2,13.8 26.4,-0.1 46.8,-14.9 54.6,-39.7 2.5,-7.7 2.9,-19.5 0.9,-27.8 -2.6,-11.4 -14.3,-26.6 -25.4,-33 -11.1,-6.6 -25.7,-9.6 -36.5,-7.5 z m 23.2,7.3 c 8.2,3 16.6,8.6 22.3,15 7.7,8.5 7.7,8.7 -0.1,8.7 -11.5,0 -26.4,-5.2 -35,-12.3 -3.4,-2.8 -9.4,-11 -9.4,-12.9 0,-0.4 3.6,-0.8 8,-0.8 5.7,0 9.6,0.6 14.2,2.3 z m -25.7,3.9 c 2.2,5.1 10,12.8 17,16.8 8,4.6 19.8,7.9 30.9,8.8 l 10,0.7 1.3,5 c 0.7,2.7 1.3,7.4 1.3,10.3 0,5.5 -1.8,14.2 -2.9,14.2 -0.3,0 -3.3,-2 -6.6,-4.6 -16.9,-12.8 -61.2,-28.4 -80.9,-28.4 -3.1,0 -5.6,-0.3 -5.6,-0.8 0,-2.1 7.7,-11.7 12.3,-15.4 4.8,-3.8 17.7,-10.7 20.3,-10.8 0.5,0 1.9,1.9 2.9,4.2 z m -19.4,29.4 c 25.5,4.4 58,17.8 71,29.3 l 4.3,3.8 -3.3,5.4 c -3.3,5.4 -9.8,12.9 -11.3,12.9 -0.4,0 -1.7,-1.9 -2.9,-4.3 -3.2,-6.2 -14.4,-16.7 -21.3,-20 -10,-4.7 -16.7,-6 -29.1,-5.4 -7.3,0.3 -13.2,1.2 -17.5,2.5 -3.7,1.2 -6.8,1.8 -7.3,1.3 -1.1,-1.1 -2.2,-21 -1.3,-24.5 0.6,-2.3 1.1,-2.6 4.9,-2.6 2.4,0 8.6,0.7 13.8,1.6 z m 22.8,27.9 c 8.2,2 17,6.7 22.3,11.9 4.5,4.5 9.8,12.2 9.8,14.4 0,2 -9.6,5.8 -18.3,7.3 -5.9,1 -9.5,1 -16.1,0.1 -9.7,-1.3 -15.9,-4 -22.9,-10.2 -4.3,-3.8 -12.7,-16.1 -12.7,-18.6 0,-1.2 5.5,-3.3 13,-5 7.7,-1.7 17.4,-1.6 24.9,0.1 z"
       id="path280-4"
       style="fill:#493323;fill-opacity:1;stroke:none;stroke-width:0.1" /></g></svg>
