<?xml version="1.0" encoding="UTF-8" standalone="no"?>
<svg
   version="1.0"
   width="109.80077pt"
   height="100.41602pt"
   viewBox="0 0 109.80077 100.41601"
   preserveAspectRatio="xMidYMid"
   id="svg522"
   sodipodi:docname="iStock_1321221451_1733912860171 - VŠE.svg"
   inkscape:version="1.2 (dc2aedaf03, 2022-05-15)"
   xml:space="preserve"
   xmlns:inkscape="http://www.inkscape.org/namespaces/inkscape"
   xmlns:sodipodi="http://sodipodi.sourceforge.net/DTD/sodipodi-0.dtd"
   xmlns="http://www.w3.org/2000/svg"
   xmlns:svg="http://www.w3.org/2000/svg"><defs
     id="defs526" /><sodipodi:namedview
     id="namedview524"
     pagecolor="#ffffff"
     bordercolor="#666666"
     borderopacity="1.0"
     inkscape:showpageshadow="2"
     inkscape:pageopacity="0.0"
     inkscape:pagecheckerboard="0"
     inkscape:deskcolor="#d1d1d1"
     inkscape:document-units="pt"
     showgrid="false"
     inkscape:zoom="0.1251579"
     inkscape:cx="-1877.6282"
     inkscape:cy="5413.1621"
     inkscape:window-width="1920"
     inkscape:window-height="1001"
     inkscape:window-x="-9"
     inkscape:window-y="-9"
     inkscape:window-maximized="1"
     inkscape:current-layer="svg522" /><metadata
     id="metadata2">
Created by potrace 1.16, written by Peter Selinger 2001-2019
</metadata><g
     id="g2785"
     transform="translate(-4197.0851,-1345.4104)"
     style="fill:#493323;fill-opacity:1"><path
       d="m 4240.5851,1347.1537 c -19.4,5.4 -34.1,16.5 -40.8,30.8 -2.3,5 -2.7,7.1 -2.7,14.8 0,4.9 0.6,11.2 1.4,14 5.5,20.2 21.8,35.4 41.5,38.5 11.6,1.8 25.9,-0.7 38.6,-6.7 18.8,-9 28.4,-23.8 28.3,-43.8 0,-24.5 -17,-43.5 -42.9,-48 -11,-1.9 -15.3,-1.8 -23.4,0.4 z m 22.3,4.7 c 2,0.4 3.7,0.9 3.7,1.3 0,0.3 -1,1.8 -2.3,3.3 l -2.2,2.8 -9.9,-1.4 c -5.9,-0.9 -10.5,-2.1 -11.4,-3 -1.3,-1.3 -1.3,-1.6 -0.1,-2 0.8,-0.2 2.1,-0.7 2.9,-0.9 2.2,-0.8 14.9,-0.8 19.3,-0.1 z m -25.9,6.8 c 3,3.2 3.5,3.3 15,4.6 l 11.9,1.4 4.5,-4.8 c 5.2,-5.6 5.8,-5.6 15.2,0.5 l 6.5,4.2 -2.5,1.6 c -6.7,4.4 -7.7,5.9 -8.9,12.8 -0.7,3.8 -1.4,7.8 -1.7,9.1 -0.3,1.6 0.7,3.5 4.1,7 4.8,5.3 8.7,7.6 15.2,9.2 3.9,1 4.1,1.2 3.4,3.8 -1.1,3.8 -5,11.2 -5.9,11.2 -0.4,0 -1.3,-0.9 -2,-2.1 -1.5,-2.3 -16.5,-9.9 -19.7,-9.9 -2.3,0 -8.5,3.9 -13.2,8.3 -3.2,3 -3.3,3.3 -3.3,11.8 0,6.7 0.4,9 1.6,10 1.4,1.2 1.4,1.4 -0.3,2 -2.3,0.9 -12.6,1.1 -17.5,0.3 l -3.8,-0.7 v -7.7 -7.7 l -5.4,-5.1 c -4.5,-4.3 -6,-5.1 -8.3,-4.7 -1.5,0.2 -5.4,0.7 -8.5,1 -5.2,0.5 -5.8,0.3 -6.9,-1.7 -1.8,-3.4 -3.9,-11.9 -3.9,-16.1 0,-3.1 0.3,-3.7 2,-3.7 5.6,0 8.6,-2.6 13.1,-11.3 l 4.3,-8.5 -1.3,-5.2 c -0.7,-2.9 -0.9,-5.5 -0.5,-6 1.1,-0.9 12.4,-7 13.2,-7 0.3,0 1.9,1.5 3.6,3.4 z m -21.4,11.1 c 0.8,2.1 0.4,3.7 -1.9,8.3 -3.8,7.5 -5,8.8 -8.4,9.6 -2.8,0.7 -2.9,0.6 -2.2,-2.6 1,-4.6 4,-10.1 7.6,-14.3 1.7,-1.9 3.3,-3.5 3.5,-3.5 0.3,0 0.9,1.1 1.4,2.5 z m 83,9.5 c 1.2,3 2.4,8.9 2.7,13.2 l 0.6,7.6 -5.6,-1.5 c -4,-1.2 -6.7,-2.7 -9.7,-5.8 l -4.1,-4.2 1.2,-6.9 c 1.1,-6.6 1.3,-7.1 5.3,-9.7 l 4.1,-2.6 1.7,2.2 c 0.9,1.2 2.7,4.7 3.8,7.7 z m -17.5,37.3 c 7.9,4.2 9.4,7.7 5,11.4 -1.7,1.3 -6.3,4 -10.4,6 -7.1,3.5 -7.4,3.5 -10.6,2 -3.8,-1.8 -5.1,-5.5 -4.1,-12 0.6,-3.6 1.4,-4.7 5.3,-7.5 2.6,-1.7 5.6,-3.2 6.8,-3.2 1.1,0 4.7,1.5 8,3.3 z m -54.3,5.4 c 2.4,2.3 2.8,3.4 2.8,8.5 0,3.2 -0.3,5.8 -0.7,5.8 -1.8,0 -10.8,-6.8 -14.4,-10.9 l -4.1,-4.6 3.3,-0.6 c 7.4,-1.4 10.2,-1 13.1,1.8 z"
       id="path420-7"
       style="fill:#493323;fill-opacity:1;stroke:none;stroke-width:0.1" /><path
       d="m 4239.4851,1372.4537 c -0.9,0.7 -4.7,4.6 -8.3,8.7 -4.5,5.1 -6.6,8.3 -6.6,10 0,3.9 9.8,16.5 13.1,16.9 3.1,0.4 17.1,-5.2 19.3,-7.7 2.4,-2.6 6.2,-16.9 5,-18.9 -1,-1.8 -14,-8.6 -18.4,-9.7 -1.4,-0.3 -3.2,0 -4.1,0.7 z m 10.6,7.7 c 3.6,1.7 6.5,3.6 6.5,4.4 0,0.7 -0.7,3.7 -1.6,6.6 -1.5,5.1 -1.7,5.3 -8.6,8.6 -5.6,2.7 -7.4,3.2 -8.6,2.3 -2,-1.7 -7.2,-9.5 -7.2,-10.9 0,-1.5 10.8,-13.9 12.1,-13.9 0.5,0 3.9,1.3 7.4,2.9 z"
       id="path422-9"
       style="fill:#493323;fill-opacity:1;stroke:none;stroke-width:0.1" /></g></svg>
