<?xml version="1.0" encoding="UTF-8" standalone="no"?>
<svg
   version="1.0"
   width="132.81616pt"
   height="131.0791pt"
   viewBox="0 0 132.81616 131.0791"
   preserveAspectRatio="xMidYMid"
   id="svg522"
   sodipodi:docname="iStock_1321221451_1733912860171 - VŠE.svg"
   inkscape:version="1.2 (dc2aedaf03, 2022-05-15)"
   xml:space="preserve"
   xmlns:inkscape="http://www.inkscape.org/namespaces/inkscape"
   xmlns:sodipodi="http://sodipodi.sourceforge.net/DTD/sodipodi-0.dtd"
   xmlns="http://www.w3.org/2000/svg"
   xmlns:svg="http://www.w3.org/2000/svg"><defs
     id="defs526" /><sodipodi:namedview
     id="namedview524"
     pagecolor="#ffffff"
     bordercolor="#666666"
     borderopacity="1.0"
     inkscape:showpageshadow="2"
     inkscape:pageopacity="0.0"
     inkscape:pagecheckerboard="0"
     inkscape:deskcolor="#d1d1d1"
     inkscape:document-units="pt"
     showgrid="false"
     inkscape:zoom="0.1251579"
     inkscape:cx="-1877.6282"
     inkscape:cy="5413.1621"
     inkscape:window-width="1920"
     inkscape:window-height="1001"
     inkscape:window-x="-9"
     inkscape:window-y="-9"
     inkscape:window-maximized="1"
     inkscape:current-layer="svg522" /><metadata
     id="metadata2">
Created by potrace 1.16, written by Peter Selinger 2001-2019
</metadata><g
     id="g2882"
     transform="translate(-5466.7542,-1037.2536)"
     style="fill:#493323;fill-opacity:1"><path
       d="m 5550.9851,1040.6537 c -2.6,2.6 -3.4,4.2 -3.4,7.1 0,4.7 1.5,7.5 4.1,7.5 2.5,0 3.4,-2.2 2,-4.9 -1.5,-2.7 0.5,-7 3.5,-7.7 5.1,-1.3 8.4,2.1 8.4,8.4 0,2.9 -5.3,18.9 -6.7,20.3 -0.4,0.4 -2.4,0.4 -4.4,0 -6.7,-1.5 -12.6,2.9 -15.1,11.1 -0.9,3 -0.9,4.7 0,7 0.6,1.7 0.9,3.5 0.5,4.1 -0.3,0.5 -1.4,-1.5 -2.3,-4.6 -2.3,-7.2 -6.2,-14 -11.8,-19.9 -12.6,-13.5 -30.3,-15.4 -38.8,-4.2 -2.6,3.4 -2.9,4.5 -2.9,11.3 0,6.2 0.5,8.7 2.7,13.3 l 2.7,5.8 h -4.1 c -9,0 -16.7,4.9 -18.4,11.6 -1,4.1 1.3,9.8 5.9,14.5 4.2,4.2 18.6,11.9 22.3,11.9 1.3,0 0.2,1.7 -4,5.9 -4,4 -5.7,6.5 -5.3,7.5 1.1,2.8 3.7,1.7 9.5,-3.8 l 5.8,-5.5 2.9,5.7 c 3.6,7.1 16.7,20.5 22.6,23.2 9.9,4.4 19.2,1.7 23.7,-7 2,-3.8 2.3,-5.7 2,-12.8 -0.3,-7 -0.1,-8.1 1.2,-7.6 2.9,1.3 9.6,2.3 14.7,2.4 6,0 12.7,-2.6 16.2,-6.3 3.3,-3.6 3.9,-10.9 1.3,-15.7 -4.1,-7.5 -18.9,-15.6 -34.4,-18.8 -4.3,-0.9 -7.6,-2.1 -7.4,-2.7 0.2,-0.5 1,-0.8 1.7,-0.6 0.8,0.2 3.5,0.4 6.2,0.4 4,0.1 5.2,-0.4 8.2,-3.3 4.5,-4.3 6.2,-9.6 4.6,-14 -0.6,-1.8 -0.8,-3.6 -0.5,-4.1 1.1,-1.9 13,-9.3 17.6,-11.1 6.3,-2.4 7.4,-2.3 10.3,0.7 4.3,4.2 2.9,8.4 -3.1,9.4 -3,0.5 -4,1.1 -4.2,2.8 -0.7,4.7 8.1,4.1 12.3,-0.9 2.9,-3.4 3.3,-8.4 1,-12.8 -3.8,-7.3 -11.1,-8 -22.9,-2.1 -7.2,3.7 -7.7,3.8 -7.1,1.8 1.8,-6.2 2.5,-9.7 2.5,-14.6 0,-4.7 -0.4,-5.7 -3.4,-8.7 -2.9,-2.9 -4.1,-3.4 -8.1,-3.4 -4,0 -5.2,0.5 -8.1,3.4 z m -40.6,24.1 c 9,3.8 17.3,12.9 21.3,23.6 3.1,8.1 2.6,11.1 -2.5,15.5 -2.5,2.2 -9.7,8.8 -16.1,14.8 l -11.6,10.9 -5.7,-1.8 c -16,-5 -24.8,-13.1 -22.8,-21 1.2,-4.8 7.7,-6.5 19.7,-5.1 8.3,0.9 9.1,-0.3 4.2,-6.5 -4.6,-5.8 -6.1,-8.8 -7.4,-14.9 -1.5,-6.9 0.7,-13.1 5.4,-15.4 4.1,-2 10.7,-2 15.5,-0.1 z m 47.4,14.2 c 2.2,2 2.3,5.4 0.3,9.2 -2.2,4.4 -7.1,5.5 -11.3,2.5 -3.2,-2.2 -3,-7.4 0.5,-11.4 2.2,-2.7 3.1,-3.1 5.7,-2.6 1.6,0.4 3.8,1.4 4.8,2.3 z m -7.5,26.9 c 21.7,4.5 36.2,15.8 30.9,23.9 -4.3,6.5 -16.1,7.8 -27.9,3 -8.5,-3.3 -9.6,-2.7 -7.9,4.2 2.2,9.5 2.4,11.5 1.2,16.3 -1.4,5.9 -5.6,10 -10.1,10 -7.5,0 -20.1,-10 -26.6,-21.1 -5.2,-9 -5.8,-7.8 11.6,-24 17.6,-16.4 14.8,-15.2 28.8,-12.3 z"
       id="path358-9"
       style="fill:#493323;fill-opacity:1;stroke:none;stroke-width:0.1" /></g></svg>
