<?xml version="1.0" encoding="UTF-8" standalone="no"?>
<svg
   version="1.0"
   width="216.4138pt"
   height="240.23779pt"
   viewBox="0 0 216.4138 240.23779"
   preserveAspectRatio="xMidYMid"
   id="svg522"
   sodipodi:docname="iStock_1321221451_1733912860171 - VŠE.svg"
   inkscape:version="1.2 (dc2aedaf03, 2022-05-15)"
   xml:space="preserve"
   xmlns:inkscape="http://www.inkscape.org/namespaces/inkscape"
   xmlns:sodipodi="http://sodipodi.sourceforge.net/DTD/sodipodi-0.dtd"
   xmlns="http://www.w3.org/2000/svg"
   xmlns:svg="http://www.w3.org/2000/svg"><defs
     id="defs526" /><sodipodi:namedview
     id="namedview524"
     pagecolor="#ffffff"
     bordercolor="#666666"
     borderopacity="1.0"
     inkscape:showpageshadow="2"
     inkscape:pageopacity="0.0"
     inkscape:pagecheckerboard="0"
     inkscape:deskcolor="#d1d1d1"
     inkscape:document-units="pt"
     showgrid="false"
     inkscape:zoom="0.2503158"
     inkscape:cx="7166.9467"
     inkscape:cy="1300.3574"
     inkscape:window-width="1920"
     inkscape:window-height="1001"
     inkscape:window-x="-9"
     inkscape:window-y="-9"
     inkscape:window-maximized="1"
     inkscape:current-layer="svg522" /><metadata
     id="metadata2">
Created by potrace 1.16, written by Peter Selinger 2001-2019
</metadata><g
     id="g2751"
     transform="translate(-5029.5852,-126.42393)"
     style="fill:#493323;fill-opacity:1;stroke:none;stroke-opacity:1"><path
       d="m 5147.5851,126.9537 c -5.8,0.9 -11.9,2.8 -17.4,5.5 -7.2,3.6 -17.7,14.2 -22.6,22.7 -1.9,3.3 -3.7,6.1 -4,6.1 -0.3,0 -1.4,-1.7 -2.5,-3.7 -5.5,-10.3 -18.3,-19.4 -29.3,-20.9 -16.7,-2.2 -35.5,9.8 -40.3,25.8 -4.1,13.4 -0.3,25.3 11.9,37.1 l 6.9,6.6 -5.3,2.6 c -8.7,4.3 -15.4,13.6 -15.4,21.4 0,3.9 3.9,13.4 6.7,16.4 4.9,5.2 11.7,7.7 20.9,7.7 13.1,0 33.9,-6.5 44.3,-13.9 4,-2.9 4.8,-2.7 5.5,1.6 1.9,12 12.6,25.2 23.7,29.4 19.1,7.2 44.6,-1.5 55.9,-19.1 l 3.2,-4.9 4.8,2.5 c 7.3,3.8 17.3,5 24.5,2.9 3.2,-0.9 7.4,-2.7 9.4,-3.9 5.4,-3.5 12,-11.1 14.9,-17.4 2.3,-5 2.7,-6.9 2.6,-16.2 0,-8.6 -0.4,-11.3 -2.1,-15.1 -4.5,-9.8 -13.5,-15.9 -24.5,-16.7 -3.7,-0.2 -6.6,-0.8 -6.3,-1.1 0.2,-0.4 0,-3.9 -0.5,-7.8 -3.1,-24.5 -17.5,-41.7 -39.2,-46.8 -5.7,-1.3 -19.6,-1.8 -25.8,-0.8 z m 26,6.5 c 19.2,4.6 32.3,22.3 33.9,45.8 l 0.6,9.5 7.5,0.1 c 5.8,0 8.7,0.6 12.3,2.3 10.9,5.3 16.1,19.2 12.2,32.7 -3.1,11.1 -9.2,18.2 -19.2,22.6 -8.9,3.9 -23.2,1.2 -29,-5.6 -1.3,-1.4 -2.7,-2.6 -3.3,-2.6 -0.5,0 -2.1,2.4 -3.5,5.4 -3.2,6.8 -10.3,14.8 -16.2,18.2 -10.4,6.2 -24.9,8.1 -35.3,4.7 -11.2,-3.6 -20.5,-16.2 -21.8,-29.8 -1,-9.3 -2.5,-10.2 -8.6,-4.8 -12.6,11.1 -40.8,19.8 -53.3,16.4 -11.6,-3.2 -18.1,-17.2 -12,-26.2 3.2,-4.7 10.1,-9.7 14.5,-10.4 7.7,-1.3 8.3,-1.5 8,-3.4 -0.2,-1 -3.9,-4.7 -8.2,-8.2 -12.8,-10.3 -17.2,-18.5 -16.4,-30.4 1,-15.3 13.6,-26.5 30.8,-27.3 12.9,-0.6 20.9,4.5 30.7,19.6 3,4.6 5.9,8.2 6.6,7.9 0.7,-0.2 3.6,-4.2 6.5,-8.8 9.5,-15.3 16.5,-22 27.1,-26 9.8,-3.6 25,-4.4 36.1,-1.7 z"
       id="path102-7"
       style="fill:#493323;fill-opacity:1;stroke:none;stroke-width:0.1;stroke-opacity:1" /><path
       d="m 5084.9851,285.0537 c -0.6,0.4 -4.3,5 -8.2,10.2 -14,18.7 -16.2,25.8 -9.8,32.8 3.1,3.3 4,3.7 8.4,3.7 5.6,0 9.4,-2.6 11.7,-8 1.9,-4.4 3.1,-36 1.5,-38 -1.4,-1.7 -2,-1.8 -3.6,-0.7 z m -1.9,30.8 c -0.7,7.2 -3.1,10.4 -7.5,10.4 -3.1,0 -5.5,-1.8 -6.5,-5 -0.8,-2.7 2.2,-9 8.6,-18 l 5.4,-7.5 0.3,7 c 0.2,3.8 0.1,9.8 -0.3,13.1 z"
       id="path134-8"
       style="fill:#493323;fill-opacity:1;stroke:none;stroke-width:0.1;stroke-opacity:1" /><path
       d="m 5176.8851,287.4537 c -2,2.5 -6,11.3 -8.3,18.2 -3.7,11.3 -1.4,19.7 6.1,22.2 6.3,2.1 13,-1.7 15.1,-8.8 1.4,-4.8 0.1,-10.9 -5,-23.3 -3.7,-8.8 -5.7,-11 -7.9,-8.3 z m 4.7,15 c 1.3,3.5 2.5,8.5 2.8,11.1 0.4,4 0.1,5.2 -1.8,7.2 -4.8,5.1 -10,2.1 -10,-5.6 0,-4.7 4.5,-18.9 6,-18.9 0.4,0 1.8,2.8 3,6.2 z"
       id="path136-7"
       style="fill:#493323;fill-opacity:1;stroke:none;stroke-width:0.1;stroke-opacity:1" /><path
       d="m 5121.5851,321.8537 c -1.8,2.5 -5.7,9.4 -8.7,15.2 -5.2,10 -5.5,11 -5.1,16.4 0.3,4.7 1,6.4 3.3,8.8 6.1,6.4 13.5,5.8 19.1,-1.6 2.7,-3.5 2.9,-4.3 2.7,-12.3 -0.1,-4.7 -1.3,-13.5 -2.6,-19.6 -2.7,-13 -3.9,-14 -8.7,-6.9 z m 4.5,14.8 c 1.8,9.2 1.9,16.6 0.4,19.9 -2.5,5.6 -9.7,6 -12.4,0.7 -1.9,-3.7 -1.9,-6.1 0,-10.8 2,-4.7 9.7,-18.3 10.2,-17.8 0.2,0.2 1,3.8 1.8,8 z"
       id="path144-9"
       style="fill:#493323;fill-opacity:1;stroke:none;stroke-width:0.1;stroke-opacity:1" /></g></svg>
