<?xml version="1.0" encoding="UTF-8" standalone="no"?>
<svg
   version="1.0"
   width="426.38644pt"
   height="192.83545pt"
   viewBox="0 0 426.38644 192.83545"
   preserveAspectRatio="xMidYMid"
   id="svg522"
   sodipodi:docname="iStock_1321221451_1733912860171 - VŠE.svg"
   inkscape:version="1.2 (dc2aedaf03, 2022-05-15)"
   xml:space="preserve"
   xmlns:inkscape="http://www.inkscape.org/namespaces/inkscape"
   xmlns:sodipodi="http://sodipodi.sourceforge.net/DTD/sodipodi-0.dtd"
   xmlns="http://www.w3.org/2000/svg"
   xmlns:svg="http://www.w3.org/2000/svg"><defs
     id="defs526" /><sodipodi:namedview
     id="namedview524"
     pagecolor="#ffffff"
     bordercolor="#666666"
     borderopacity="1.0"
     inkscape:showpageshadow="2"
     inkscape:pageopacity="0.0"
     inkscape:pagecheckerboard="0"
     inkscape:deskcolor="#d1d1d1"
     inkscape:document-units="pt"
     showgrid="false"
     inkscape:zoom="0.2503158"
     inkscape:cx="7166.9467"
     inkscape:cy="1300.3574"
     inkscape:window-width="1920"
     inkscape:window-height="1001"
     inkscape:window-x="-9"
     inkscape:window-y="-9"
     inkscape:window-maximized="1"
     inkscape:current-layer="svg522" /><metadata
     id="metadata2">
Created by potrace 1.16, written by Peter Selinger 2001-2019
</metadata><g
     id="g2681"
     transform="translate(-5542.1695,-1530.4413)"
     style="fill:#493323;fill-opacity:1;stroke:none;stroke-opacity:1"><path
       d="m 5676.6851,1531.4537 c -15.6,2.2 -28.3,9.1 -40.7,22.1 -13.1,13.5 -20.9,26.6 -25.9,43.2 -1.5,5 -3.3,9.5 -4.1,10.1 -0.8,0.7 -4.5,1.7 -8.2,2.4 -33.8,5.9 -42.3,9.3 -47.3,19.1 -6.4,12.6 -9.5,28.6 -7.9,40.2 1.8,12.6 6.5,18.3 17.8,21.7 11.5,3.4 19.8,4.2 52.9,4.7 l 32.1,0.5 0.7,2.5 c 0.9,3.9 6.7,11.9 11.1,15.4 2.1,1.7 6.8,4.5 10.4,6.2 8.4,4 19.9,4.9 28.5,2.1 10.4,-3.2 20,-14.4 24,-27.9 l 1.2,-4 9.4,-0.6 c 12,-0.7 20.6,-2.6 22.9,-4.9 2,-2 3.5,-8.5 4.6,-19.3 l 0.6,-6.7 h 7.3 c 8.4,0 8.4,0.1 8.5,10.5 0.1,7.3 1.4,13.5 3.2,14.7 1.9,1.3 28.8,-0.3 76.3,-4.4 2.7,-0.3 3,0 3.7,4 1.7,10.2 10,20.6 19.8,25 7.2,3.2 18.4,4.1 25.7,1.9 13.4,-4 24.1,-17.6 26,-32.9 l 0.8,-6.3 6,-0.7 c 15.9,-1.9 27.8,-4.2 29.8,-5.9 2,-1.5 2.2,-2.9 2.6,-12.1 0.6,-17.5 -2.7,-53.9 -6.3,-69 -0.7,-3.2 -2.1,-6.9 -3.1,-8.4 l -1.7,-2.7 -12.2,0.6 c -31.8,1.7 -135.2,15.8 -159.1,21.8 -12.6,3.1 -11.9,1.4 -12.3,32.4 l -0.4,26.5 h -6.9 -6.9 l 0.6,-32.3 c 0.6,-28.8 0.5,-32.9 -1.1,-39.1 -5.1,-20.1 -19,-38.7 -34,-45.8 -10.7,-5 -31.9,-7 -48.4,-4.6 z m 33.4,5.8 c 20.4,2.9 38.4,22.3 44,47.5 1.5,6.8 1.6,10.6 0.6,39.3 -1.1,29.5 -2.3,46.7 -3.7,53.5 -0.4,1.7 -1.5,3.2 -3,3.7 -3,1.2 -25.2,3.6 -25.9,2.8 -0.3,-0.3 -1.2,-3 -2,-6.2 -3.4,-13 -11.2,-22.7 -23.2,-28.7 -6.3,-3.1 -7.5,-3.4 -15.8,-3.4 -7.7,0.1 -9.7,0.5 -14,2.7 -7,3.6 -14,11.5 -18,20.1 -3.2,6.9 -6,18.1 -5,19.7 1,1.5 -28.4,2.2 -47.7,1.1 -36.7,-2.1 -44.7,-5.1 -47.8,-18.1 -1.2,-5.1 -0.9,-19.4 0.5,-23.1 0.5,-1.3 2.6,-1.7 10.3,-2.1 11,-0.5 16.1,-2.5 22.5,-8.7 4.7,-4.4 6.6,-7.8 8.6,-15.5 l 1.6,-6 6.7,-1.2 c 11.2,-2.1 12.8,-3.7 16.4,-16 4.7,-16.4 17.1,-35.8 29.9,-46.7 7.3,-6.3 18.4,-12.2 26.6,-14.2 6.5,-1.5 28.7,-1.8 38.4,-0.5 z m 246.2,45 c 1.6,5.5 3.9,20.6 5.3,35.6 1.1,12.3 1.7,41.1 0.7,42 -3.4,3.4 -145.2,18.4 -174.3,18.4 h -7.1 l -0.6,-6.3 c -1.1,-11.5 -1.8,-52.1 -1,-61.2 l 0.8,-9 3.9,-1.3 c 16.4,-5.3 149.1,-23.3 168.1,-22.8 2.6,0.1 3.1,0.6 4.2,4.6 z m -371.1,38.5 c -1,5.1 -5.7,12.6 -9.6,15.3 -6.3,4.2 -19.2,6.6 -22.9,4.3 -1.1,-0.7 -0.7,-2.2 2,-7.7 3.9,-7.8 7.2,-10 19.9,-13.3 10.9,-2.9 11.4,-2.8 10.6,1.4 z m 105.4,31.7 c 9.1,2.8 17.9,10.8 22.2,20.5 3.5,7.6 3.2,17.9 -0.8,26.4 -6.9,14.6 -18.3,20.6 -33.5,17.9 -21.3,-3.9 -33.2,-21.7 -26.9,-40.4 6.8,-20.6 21.4,-29.7 39,-24.4 z m 233.5,23.5 c -1.4,9.4 -6.6,19 -13,23.8 -4.5,3.5 -12.6,6.5 -17.5,6.5 -5.8,0 -15.9,-3.7 -20.5,-7.5 -4.5,-3.7 -9,-11.1 -10,-16.7 l -0.7,-3.6 4.4,-0.6 c 2.3,-0.3 15.6,-1.8 29.3,-3.2 13.8,-1.4 25.5,-2.7 26,-2.9 2.4,-0.9 2.7,-0.2 2,4.2 z"
       id="path454-0"
       style="fill:#493323;fill-opacity:1;stroke:none;stroke-width:0.1;stroke-opacity:1" /><path
       d="m 5684.5851,1555.9537 c -5.8,0.6 -16.1,4.4 -21.5,7.9 -13.1,8.4 -20.5,22.6 -22.3,42.6 -1.4,15.4 -0.7,16.7 10.3,18.8 9.8,1.8 42.8,3.2 59.5,2.5 29.5,-1.1 30,-1.3 30,-12.3 0,-16.8 -6.6,-35.4 -16.2,-45.7 -10.4,-11.2 -23.2,-15.6 -39.8,-13.8 z m 19.5,6.8 c 16.3,4.8 27.5,21.5 30.5,45.9 1.5,12.2 1.5,12.2 -11.7,13.1 -14.5,1 -61.1,-0.2 -69.8,-1.7 l -7,-1.3 -0.3,-5.3 c -0.4,-7.5 2.2,-20.3 5.7,-27.8 5.5,-11.6 17.1,-21 29.1,-23.3 7.3,-1.4 17.8,-1.2 23.5,0.4 z"
       id="path456-8"
       style="fill:#493323;fill-opacity:1;stroke:none;stroke-width:0.1;stroke-opacity:1" /><path
       d="m 5859.6851,1608.8537 c -40.3,5.1 -66.8,8.9 -67.2,9.6 -1.2,1.9 0.2,3.8 2.6,3.8 3,0 131.6,-15.9 133.3,-16.5 1.7,-0.6 1.5,-4.2 -0.4,-4.9 -0.9,-0.3 -1.6,-0.5 -1.7,-0.5 -0.1,0.1 -30.1,3.9 -66.6,8.5 z"
       id="path458-7"
       style="fill:#493323;fill-opacity:1;stroke:none;stroke-width:0.1;stroke-opacity:1" /><path
       d="m 5887.8851,1636.6537 c -30.2,3.5 -53.8,6.7 -54.4,7.3 -1.4,1.4 -0.5,4.3 1.3,4.3 6.3,-0.1 112.2,-13 113,-13.8 1.9,-1.9 0.1,-4.2 -3.4,-4.1 -1.8,0.1 -27.3,2.9 -56.5,6.3 z"
       id="path460-6"
       style="fill:#493323;fill-opacity:1;stroke:none;stroke-width:0.1;stroke-opacity:1" /></g></svg>
