<?xml version="1.0" encoding="UTF-8" standalone="no"?>
<svg
   version="1.0"
   width="372.97412pt"
   height="262.79492pt"
   viewBox="0 0 372.97412 262.79492"
   preserveAspectRatio="xMidYMid"
   id="svg522"
   sodipodi:docname="iStock_1321221451_1733912860171 - VŠE.svg"
   inkscape:version="1.2 (dc2aedaf03, 2022-05-15)"
   xml:space="preserve"
   xmlns:inkscape="http://www.inkscape.org/namespaces/inkscape"
   xmlns:sodipodi="http://sodipodi.sourceforge.net/DTD/sodipodi-0.dtd"
   xmlns="http://www.w3.org/2000/svg"
   xmlns:svg="http://www.w3.org/2000/svg"><defs
     id="defs526" /><sodipodi:namedview
     id="namedview524"
     pagecolor="#ffffff"
     bordercolor="#666666"
     borderopacity="1.0"
     inkscape:showpageshadow="2"
     inkscape:pageopacity="0.0"
     inkscape:pagecheckerboard="0"
     inkscape:deskcolor="#d1d1d1"
     inkscape:document-units="pt"
     showgrid="false"
     inkscape:zoom="0.1251579"
     inkscape:cx="-1877.6282"
     inkscape:cy="5413.1621"
     inkscape:window-width="1920"
     inkscape:window-height="1001"
     inkscape:window-x="-9"
     inkscape:window-y="-9"
     inkscape:window-maximized="1"
     inkscape:current-layer="svg522" /><metadata
     id="metadata2">
Created by potrace 1.16, written by Peter Selinger 2001-2019
</metadata><g
     id="g3156"
     style="fill:#493323;fill-opacity:1"
     transform="translate(-5629.1666,-1067.0882)"><path
       d="m 5766.5089,1068.2959 c -18.9,4.1 -33.3,18.3 -36.7,36.2 l -1.1,6.2 -4.7,-3.5 c -19.9,-14.6 -54.5,-8.2 -76.6,14.3 -14.5,14.6 -21.6,37.8 -16.7,54.3 2,6.8 10.9,16.2 17.2,18.1 l 4.1,1.2 -5.3,5.8 c -10.1,10.9 -13,25.5 -7.4,36.9 4.5,9.2 14.8,17.2 24,18.6 2.1,0.4 3.8,1.1 3.8,1.6 0,0.5 -2.5,9.1 -5.5,19.1 -7.3,24.1 -9.9,35 -9.1,38 1.1,4.7 18.2,10.8 25.6,9.2 6.1,-1.3 5.8,-0.5 12.5,-43.9 3.9,-25.4 4.5,-28.1 6.6,-29.7 2.3,-1.7 2.3,-1.7 5,2.9 2.6,4.6 11.2,13.5 13.8,14.3 1.1,0.4 0.8,4 -1.7,18.4 -4.4,25.5 -5.4,34.3 -4.1,36.7 2.8,5.2 21.2,8.6 27.9,5.1 4.1,-2.1 4.9,-4.9 4.9,-18.8 0.1,-5 0.4,-15.4 0.8,-23.2 l 0.6,-14.1 4,-1.8 c 5.1,-2.3 10.8,-6.9 14.6,-11.7 l 3,-3.8 2,3.9 c 2.8,5.5 11.2,12.7 17.6,15.1 11.3,4.2 25.2,3.4 34.2,-1.9 l 3.3,-1.9 v 27 27 l 2.4,2.4 c 4.3,4.3 21.9,4.9 27.3,0.9 2.5,-1.9 2.8,-2.8 3,-8.5 0.2,-3.5 -0.7,-19.3 -2,-35 l -2.2,-28.6 5.5,1.3 c 3,0.7 7.1,1.5 9,1.9 l 3.6,0.5 1.7,11.8 c 4.8,31.3 8.3,48.5 10.2,49.8 2.6,1.9 14.3,1.8 20.2,-0.2 6.5,-2.2 9.3,-4.9 9.3,-9.1 0,-1.9 -3.8,-15 -8.5,-29.2 -4.7,-14.2 -8.5,-26.2 -8.5,-26.7 0,-0.5 1.8,-1.7 3.9,-2.8 2.1,-1 6.4,-4.3 9.5,-7.3 6.5,-6.3 13.8,-20.1 15.8,-29.6 1,-4.6 1.5,-5.6 2.8,-5.1 11.9,5.3 20.9,5.8 29.1,1.6 10.6,-5.3 15.7,-16.4 16.6,-35.7 0.3,-6.1 0.1,-14.2 -0.5,-18 -0.5,-3.9 -0.8,-7.2 -0.6,-7.4 0.1,-0.2 1.6,0.6 3.2,1.8 9.7,6.9 20.2,8.2 25.3,3.2 3.4,-3.5 3.9,-8.3 1.2,-13.9 -2.5,-5.2 -14.9,-17.2 -20.8,-20.2 -2.7,-1.4 -5.2,-2.6 -5.4,-2.8 -0.3,-0.1 0.3,-1.8 1.2,-3.7 4.3,-9.1 0.5,-22.2 -8,-27.2 -3.6,-2.1 -5.2,-2.4 -10,-2.1 -3.2,0.2 -6.5,0.7 -7.4,1.1 -1.2,0.6 -1.8,-0.3 -2.8,-4.1 -3.5,-13.7 -19.7,-17.5 -32.6,-7.7 -3.1,2.4 -8.8,9.8 -9.8,12.8 -0.2,0.6 -1.7,0 -3.8,-1.5 -6.4,-4.9 -15.1,-5.7 -22.2,-2.1 -2.6,1.3 -3,1.2 -7.3,-2.1 -14.6,-11.2 -33.3,-9.6 -46.4,3.8 -2.4,2.5 -4.7,4.6 -5,4.6 -0.3,0 -1.4,-1.6 -2.4,-3.5 -2.7,-5 -11.8,-13.2 -17.1,-15.6 -10.3,-4.6 -23,-5.8 -34.1,-3.4 z m 25,6 c 10.8,2.8 21.9,12.8 24.1,21.8 0.4,1.4 1.4,3.2 2.2,3.9 1.4,1.1 2.1,0.7 4.7,-2.7 5.2,-6.7 10.4,-11.4 15.9,-14.2 9.4,-4.9 21.4,-3.3 30.1,3.9 l 2.8,2.4 -2.1,4.2 c -2.8,5.5 -2.7,11.7 0.2,17.2 l 2.3,4.4 -3.2,2.8 c -9.1,8 -9.9,20.4 -1.7,28.5 l 4.3,4.4 -4.5,6.3 c -5.9,8.3 -10.4,18.1 -11.2,24.3 -0.6,5.7 1.6,11.6 5,13.5 2.8,1.5 11.2,1.1 14.6,-0.7 4,-2 11.6,-9.9 14.7,-15.1 1.4,-2.4 2.7,-4.4 2.9,-4.4 0.2,0 2.5,3.3 5.2,7.2 2.6,4 8.5,11.2 13,15.9 4.9,5.1 8.3,9.4 8.3,10.6 0,3.3 -4,15.3 -7.1,21.4 -4.1,8.1 -11.5,15.4 -19.6,19.1 -14.9,6.9 -39.3,4.1 -49.7,-5.6 -1.5,-1.5 -3.5,-2.6 -4.4,-2.4 -0.9,0.2 -2.5,2.7 -3.7,5.5 -5.9,15.2 -18.4,24.2 -33.7,24.3 -15.3,0.1 -27.4,-8.4 -30.3,-21.3 -1.5,-6.8 -3.9,-7 -7.4,-0.7 -6.3,11.3 -18.1,19 -29.4,19 -11.7,0 -25,-10.1 -29,-22 -1.9,-5.7 -3.9,-6.1 -8.6,-1.7 -4.7,4.5 -8.3,6.3 -15.6,7.6 -10.9,2 -23.4,-1.6 -30.9,-8.7 -12.8,-12.2 -9.3,-32.4 7.5,-44.2 3.3,-2.3 5.9,-4.5 5.9,-4.9 0,-1.6 -2.5,-2.8 -6.8,-3.5 -4.6,-0.7 -11.5,-3.7 -14.6,-6.5 -2.7,-2.4 -5.5,-8.4 -6.6,-14.3 -1.4,-7 1,-19.4 5.5,-29.3 5,-11.1 15.9,-21.7 28.6,-27.9 15.3,-7.4 27.9,-9.3 40.3,-6.1 6.7,1.8 14.2,6.8 17.7,12 1.6,2.4 3.1,3.5 4.4,3.3 1.8,-0.3 2.1,-1.3 2.7,-8.8 0.9,-12.1 4,-19.5 11.6,-27.4 4.4,-4.7 13.8,-10.1 19.8,-11.5 6.2,-1.4 19.5,-1.2 25.8,0.4 z m 145.2,3 c 4.3,2.8 5.8,6.3 5.6,12.6 -0.1,3.1 0.2,6 0.8,6.4 0.6,0.3 3.4,-0.7 6.4,-2.4 3.1,-1.8 6.8,-3.1 8.7,-3.1 9.3,0 16.3,11.4 12.8,20.7 -4.9,13.2 -17.8,19 -29.4,13.2 -2.7,-1.4 -4.8,-1.9 -5.3,-1.3 -0.5,0.5 -1.4,3.1 -2.1,5.9 -4.1,16.5 -20.6,22.8 -31.1,12 -4.1,-4.2 -5.2,-4.3 -8.8,-0.9 -3.7,3.6 -10,6.4 -14.3,6.4 -7.5,0 -14.6,-8 -13.3,-15 0.7,-4.4 4.6,-9.6 9,-12.2 1.9,-1.1 3.4,-2.5 3.4,-3.2 0,-0.7 -1.5,-3.2 -3.2,-5.6 -5.5,-7.4 -4.2,-14.6 3.4,-20.3 6.6,-4.9 18.4,-2.4 22.6,4.8 3.2,5.3 4.5,4.7 7.7,-4 2.2,-5.9 9.8,-14 14.6,-15.4 4.2,-1.3 9.4,-0.7 12.5,1.4 z m 39.6,49.1 c 8.8,4.4 20.8,17.4 20.8,22.4 0,3.1 -3.6,5.3 -7.6,4.7 -10,-1.6 -20.3,-10 -23.2,-18.9 l -1.9,-5.7 2.6,-2.5 c 1.4,-1.5 2.9,-2.6 3.4,-2.6 0.4,0 3.1,1.2 5.9,2.6 z m -23.5,5.9 h 7.1 l 2.1,7 c 3.1,10.8 4.3,19.9 4.4,32.5 0,28.3 -10.4,41.2 -29.6,36.6 -14.9,-3.5 -30.1,-19.5 -44.7,-47 -4.3,-7.9 -5,-10 -3.9,-10.7 0.8,-0.5 1.8,-0.9 2.3,-0.9 0.5,0 2.4,-1.2 4.3,-2.6 l 3.4,-2.6 2.2,2 c 6.3,5.7 16.9,7.2 24.2,3.4 5.5,-2.8 11,-8.7 13.5,-14.5 2,-4.6 2.3,-4.8 4.8,-4 1.5,0.4 5.9,0.8 9.9,0.8 z m -67.3,28.4 3.9,7.8 -2.9,5.4 c -4.1,7.7 -12.2,15.6 -16.8,16.5 -2.2,0.4 -4.8,0.2 -6.2,-0.5 -6.3,-2.8 0.1,-22.1 11.4,-34.4 4.4,-4.7 6.3,-3.7 10.6,5.2 z m -38,113.5 c 0.9,12.2 2,25.1 2.3,28.8 l 0.6,6.8 h -10.7 -10.6 v -22.2 -22.1 l 3.9,-5.1 c 2.1,-2.8 4.6,-6.5 5.5,-8.3 1.6,-3.2 1.6,-3.2 4.5,-1.6 l 2.8,1.7 z m -159.1,-16.2 c -0.2,1.3 -1.9,12.3 -3.7,24.6 -1.9,12.3 -3.7,22.6 -4,22.9 -0.8,0.8 -13.1,-1.5 -17.2,-3.2 l -3.2,-1.3 3.3,-11.4 c 1.8,-6.2 4.7,-15.9 6.5,-21.6 l 3.2,-10.2 3.6,-0.1 c 2,-0.1 5.1,-0.5 6.7,-0.9 4.8,-1.2 5.2,-1.1 4.8,1.2 z m 206.6,18 c 3.5,10.6 6.6,19.8 6.8,20.4 0.2,0.6 -2.1,1.8 -5.4,2.7 -6.2,1.8 -14.3,3.2 -14.3,2.6 0,-0.2 -1.6,-9.8 -3.5,-21.3 -2,-11.5 -3.4,-21 -3.3,-21.1 0.4,-0.3 10,-2.2 11.8,-2.4 1.1,-0.1 3.2,5 7.9,19.1 z m -162,-2.6 5.1,0.7 v 18.5 18.5 l -7.2,-0.7 c -4,-0.4 -9,-1.2 -11,-1.7 -3.4,-0.9 -3.7,-1.2 -3.2,-3.7 1.2,-6.9 5.4,-32.2 5.4,-32.8 0,-0.4 1.3,-0.4 2.9,-0.1 1.5,0.3 5.1,0.9 8,1.3 z m 172,33.6 c 1,3.8 0.9,4.5 -0.9,6 -3.4,2.8 -15.9,4.8 -18.6,3 -0.6,-0.4 -1.4,-2.4 -1.7,-4.4 l -0.6,-3.7 6.8,-1.5 c 3.8,-0.9 7.9,-2 9.2,-2.5 4,-1.6 4.6,-1.3 5.8,3.1 z m -234.1,2.9 c 8.6,2 9.3,2.4 8.8,4.3 -0.3,1.2 -0.6,2.7 -0.6,3.5 0,2 -11.4,0.9 -17.3,-1.7 -4.4,-2 -4.7,-2.3 -4.1,-4.9 0.9,-3.8 1.4,-4.5 2.7,-3.9 0.7,0.2 5.4,1.4 10.5,2.7 z m 58.5,5.5 7.8,0.7 -0.3,3.6 -0.3,3.6 -6.5,0.3 c -3.7,0.2 -8.2,-0.3 -10.5,-1.1 -3.6,-1.3 -4,-1.8 -4.3,-5.2 l -0.3,-3.7 3.3,0.6 c 1.8,0.3 6.8,0.9 11.1,1.2 z m 121.5,3 c 0.2,1.8 -0.3,3.6 -1.2,4.3 -2.2,1.8 -11.5,2.5 -16.3,1.2 -4,-1.1 -4.3,-1.4 -4.3,-4.6 v -3.4 l 9.3,-0.4 c 12.8,-0.4 12.2,-0.6 12.5,2.9 z"
       id="path240-0"
       style="fill:#493323;fill-opacity:1;stroke-width:0.1" /><path
       d="m 5780.8089,1086.4959 c -1.6,1.5 -0.5,3.4 3.1,5.2 3.7,1.9 8.4,6.5 10.8,10.6 1.4,2.5 4.4,1.3 4.4,-1.8 0,-5.9 -15,-17.4 -18.3,-14 z"
       id="path242-83"
       style="fill:#493323;fill-opacity:1;stroke-width:0.1" /><path
       d="m 5677.2089,1122.4959 c -8.4,3 -19.6,16.2 -16.4,19.4 1.6,1.6 3.6,0.1 6.5,-4.6 3,-4.9 9.3,-9.4 14.4,-10.2 3.8,-0.6 5.9,-2.6 5,-4.8 -0.7,-1.9 -3.8,-1.8 -9.5,0.2 z"
       id="path244-9"
       style="fill:#493323;fill-opacity:1;stroke-width:0.1" /><path
       d="m 5815.1089,1242.1959 c -3.3,3.5 -7.7,6.1 -12.3,7.1 -2.2,0.4 -2.8,1.1 -2.5,2.8 0.3,1.9 0.9,2.2 4,2 2.1,-0.1 5.1,-0.9 6.7,-1.8 4.1,-2 10.1,-8.4 10.1,-10.5 0,-3.3 -2.9,-3.1 -6,0.4 z"
       id="path246-2"
       style="fill:#493323;fill-opacity:1;stroke-width:0.1" /><path
       d="m 5942.3089,1154.9959 c -1.8,1.8 -1.4,5.2 0.9,8.2 2.6,3.3 5.7,3.4 6.9,0.1 2.1,-5.6 -4,-12.1 -7.8,-8.3 z"
       id="path248-3"
       style="fill:#493323;fill-opacity:1;stroke-width:0.1" /><path
       d="m 5916.0089,1164.3959 c -1.1,1.3 -1.1,2 0.2,4.2 3,5.4 10.7,5.4 10.1,0.1 -0.5,-4.9 -7.4,-7.7 -10.3,-4.3 z"
       id="path250-0"
       style="fill:#493323;fill-opacity:1;stroke-width:0.1" /><path
       d="m 5952.1089,1185.2959 c -0.6,0.8 -1,2.9 -0.8,4.7 0.2,2.5 0.8,3.3 2.3,3.3 1.6,0 2.1,-0.8 2.3,-4.1 0.3,-4.5 -1.7,-6.5 -3.8,-3.9 z"
       id="path252-2"
       style="fill:#493323;fill-opacity:1;stroke-width:0.1" /><path
       d="m 5937.2089,1192.6959 c -1.9,1.2 -0.7,3.9 2.3,5.2 5.3,2.5 7.8,-1.9 2.6,-4.6 -3.4,-1.8 -3.1,-1.7 -4.9,-0.6 z"
       id="path254-9"
       style="fill:#493323;fill-opacity:1;stroke-width:0.1" /></g></svg>
