<?xml version="1.0" encoding="UTF-8" standalone="no"?>
<svg
   version="1.0"
   width="272.04663pt"
   height="321.39746pt"
   viewBox="0 0 272.04663 321.39746"
   preserveAspectRatio="xMidYMid"
   id="svg522"
   sodipodi:docname="iStock_1321221451_1733912860171 - VŠE.svg"
   inkscape:version="1.2 (dc2aedaf03, 2022-05-15)"
   xml:space="preserve"
   xmlns:inkscape="http://www.inkscape.org/namespaces/inkscape"
   xmlns:sodipodi="http://sodipodi.sourceforge.net/DTD/sodipodi-0.dtd"
   xmlns="http://www.w3.org/2000/svg"
   xmlns:svg="http://www.w3.org/2000/svg"><defs
     id="defs526" /><sodipodi:namedview
     id="namedview524"
     pagecolor="#ffffff"
     bordercolor="#666666"
     borderopacity="1.0"
     inkscape:showpageshadow="2"
     inkscape:pageopacity="0.0"
     inkscape:pagecheckerboard="0"
     inkscape:deskcolor="#d1d1d1"
     inkscape:document-units="pt"
     showgrid="false"
     inkscape:zoom="0.2503158"
     inkscape:cx="7166.9467"
     inkscape:cy="1300.3574"
     inkscape:window-width="1920"
     inkscape:window-height="1001"
     inkscape:window-x="-9"
     inkscape:window-y="-9"
     inkscape:window-maximized="1"
     inkscape:current-layer="svg522" /><metadata
     id="metadata2">
Created by potrace 1.16, written by Peter Selinger 2001-2019
</metadata><g
     id="g2617"
     transform="translate(-3426.3906,-1221.3566)"
     style="fill:#493323;fill-opacity:1;stroke:none;stroke-opacity:1"><path
       d="m 3528.0851,1222.6537 c -24.3,6 -40,31.2 -37.5,59.8 0.4,4.6 0.7,8.4 0.6,8.5 -0.2,0.2 -2.8,-0.2 -5.8,-0.7 -17.9,-3.3 -38.6,8.8 -43.8,25.6 -2.2,7.4 -2.5,12 -1,17.9 2.4,9 7.9,16.3 18.2,24 l 5.7,4.3 -3.8,0.6 c -12.9,2 -27.2,14.3 -32.1,27.3 -3.1,8.2 -2.9,15.5 0.5,22.6 5.6,11.9 14.7,17.5 32.8,20.2 2,0.3 3.7,0.8 3.7,1.1 0,0.3 -1.1,2 -2.4,3.7 -10.1,13.4 -13.4,32.4 -7.7,44 2.7,5.6 10.1,11.6 17.6,14.3 6.4,2.3 20.7,2.3 29.1,0.1 13,-3.5 28.4,-11.2 40.1,-19.8 l 5.2,-3.9 -0.5,9.2 c -1.8,31 -3,56.5 -2.7,57.5 0.7,1.9 10.9,3.7 21.3,3.7 l 9.5,0.1 -0.3,-7 c -0.2,-3.9 -1.7,-19.3 -3.5,-34.3 -1.8,-14.9 -3,-27.2 -2.7,-27.2 0.3,0 2.2,1.1 4.2,2.5 17.6,12 43.4,15.9 63.3,9.8 11.6,-3.6 21.6,-11.9 26,-21.6 6.1,-13.3 4.3,-28.2 -4.7,-39.7 l -2,-2.5 6,-0.7 c 22.7,-2.5 36.1,-14.3 37,-32.5 1.1,-20.4 -15.2,-34 -46.5,-38.9 l -4.1,-0.6 3.8,-5.9 c 8.1,-12.5 12.6,-30.3 11.7,-45.8 -0.7,-11.5 -2.8,-17.8 -8,-23.7 -8.1,-9.2 -19.2,-13.5 -35.2,-13.7 -13.3,-0.2 -20.9,1.3 -31,6.2 l -7.5,3.7 v -3.1 c 0,-5.5 -2.9,-16.7 -5.9,-23.1 -3.2,-6.9 -9.6,-14.4 -15.2,-18 -8.1,-5.1 -21.4,-6.7 -32.4,-4 z m 26.2,7 c 12.9,5.9 21.4,22 21.7,41.2 0.2,9.7 1.1,10.5 7.3,6 17.8,-12.8 46,-14.5 62,-3.8 7.7,5.1 11.5,12.4 12.8,24.2 1.7,16.3 -6.5,41.2 -16.9,51.1 -1.4,1.3 -2.6,3.2 -2.6,4.1 0,1.9 0.9,2.2 12.2,3.8 16.3,2.3 28,7.1 35.3,14.5 14.1,14 6.6,37.4 -13.9,43.7 -6.2,1.8 -14.7,2.6 -20.3,1.8 -4.4,-0.6 -6.1,-0.5 -7.2,0.6 -1.3,1.1 -0.7,2.2 4.3,7.3 9.9,10.4 13.5,22.1 10.2,33.3 -2.3,8.1 -7.1,14.6 -13.6,18.5 -20.7,12.4 -48.4,10.4 -71.7,-5.1 -3.5,-2.2 -6.5,-5 -6.8,-6.1 -0.3,-1.1 -2.6,-16.6 -5.1,-34.5 -2.5,-17.9 -5,-33.1 -5.6,-33.8 -1.2,-1.4 -3.4,-1.6 -4.2,-0.3 -0.4,0.5 -1.5,16.2 -2.5,34.8 l -2,33.8 -4.2,3.7 c -5.5,4.7 -22.5,14.7 -30.9,18.1 -28.2,11.5 -51.9,4.7 -54.6,-15.5 -1.6,-11.5 8,-32.5 17.2,-38 2.1,-1.2 3.4,-2.7 3.2,-3.7 -0.3,-1.3 -2.3,-1.7 -11.8,-2.2 -17.9,-1 -27.2,-5.7 -32.5,-16.4 -6.4,-12.8 2.1,-30.7 18.8,-39.6 5.7,-3 7,-3.3 16.6,-3.5 14.2,-0.4 15.8,-2.4 5.4,-6.9 -19,-8.4 -29.2,-20.5 -29.3,-34.5 0,-17.4 15.1,-31 34.6,-31 4.5,0 7.3,0.7 11.2,2.6 7.5,3.7 8.4,2.6 5.9,-6.8 -1.5,-5.8 -1.7,-9.4 -1.3,-17.3 0.5,-11.1 2.8,-18.5 8.2,-27 11.1,-17.3 33.1,-24.8 50.1,-17.1 z m 8.2,246.1 c 5.5,43.7 7.4,61.5 6.8,62.2 -0.4,0.3 -5,0 -10.3,-0.7 l -9.6,-1.3 0.6,-8.6 c 0.3,-4.7 1.5,-27.1 2.6,-49.6 1.1,-22.6 2.3,-43.5 2.7,-46.5 l 0.7,-5.5 1.2,9 c 0.7,4.9 3.1,23.4 5.3,41 z"
       id="path400-2"
       style="fill:#493323;fill-opacity:1;stroke:none;stroke-width:0.1;stroke-opacity:1" /><path
       d="m 3508.9851,1335.5537 c 0.7,6.3 0.7,6.5 -1.7,7.1 -1.4,0.3 -3.9,2.2 -5.6,4.1 -5.7,6.5 -3.8,17 4.1,22.8 3.8,2.8 12.4,2.7 17.1,-0.2 3.6,-2.2 6.7,-8 6.7,-12.5 0,-6 -4.9,-12.6 -10.8,-14.7 -2.2,-0.8 -3.4,-1.9 -3.8,-3.7 -1.5,-7.8 -2,-8.7 -4.3,-9 -2.3,-0.4 -2.3,-0.3 -1.7,6.1 z m 6,12.8 c 3.1,-2.6 8.6,2.9 8.6,8.5 0,4.6 -0.9,6.3 -4.1,7.9 -3.6,1.9 -8.9,1.9 -11.6,0 -2.8,-1.9 -4.6,-7.7 -3.8,-11.5 0.8,-3.7 5,-6.3 7.6,-4.7 1.3,0.8 2.1,0.7 3.3,-0.2 z"
       id="path402-0"
       style="fill:#493323;fill-opacity:1;stroke:none;stroke-width:0.1;stroke-opacity:1" /><path
       d="m 3594.9851,1356.4537 c -0.5,0.7 -1.3,3.9 -1.9,7.2 -1,5.5 -1.2,5.9 -4.9,7.1 -6.8,2.4 -12.6,10 -12.6,16.6 0,4.8 3.6,11.5 7.6,13.9 5.3,3.3 12.9,3.6 18.4,0.8 6.7,-3.5 9.7,-9.9 9.1,-20 -0.1,-3.6 -5.3,-9.4 -9.7,-10.8 -3.5,-1.2 -3.5,-1.3 -2.8,-5.4 1.3,-6.9 1.1,-10 -0.8,-10.4 -0.9,-0.2 -2,0.3 -2.4,1 z m -1.9,19.8 c 0.4,0.7 1.2,0.7 2.3,0.1 2,-1.1 6.4,0.9 8.6,4.1 3.1,4.5 1.3,12.8 -3.6,16.2 -2.9,2 -10,2 -13.9,0.1 -5.5,-2.9 -6.7,-11.3 -2.2,-16.5 3.4,-4.1 7.6,-6 8.8,-4 z"
       id="path404-7"
       style="fill:#493323;fill-opacity:1;stroke:none;stroke-width:0.1;stroke-opacity:1" /><path
       d="m 3527.0851,1396.1537 c -0.3,0.6 -0.9,3.3 -1.2,6 -0.6,4.9 -0.6,5 -4.5,5.6 -7.8,1.4 -12.7,9.1 -11.3,17.7 2,11.7 17.7,16.8 26.1,8.4 5.7,-5.7 5.8,-14.8 0.2,-21.1 -1.6,-1.9 -3.6,-3.5 -4.4,-3.5 -1,0 -1.3,-1.6 -1.1,-6.7 0.2,-5.6 -0.1,-6.8 -1.5,-7.1 -0.9,-0.2 -1.9,0.2 -2.3,0.7 z m -2.1,17.8 c 0.4,0.5 1.9,0.8 3.3,0.8 3.4,0 6.7,4.5 6.7,9 0,5 -3.6,8.5 -8.6,8.5 -7.2,0 -10.7,-3.2 -10.8,-9.8 0,-3.2 0.6,-4.9 2.5,-6.7 2.4,-2.5 5.4,-3.2 6.9,-1.8 z"
       id="path406-2"
       style="fill:#493323;fill-opacity:1;stroke:none;stroke-width:0.1;stroke-opacity:1" /></g></svg>
