<?xml version="1.0" encoding="UTF-8" standalone="no"?>
<svg
   version="1.0"
   width="271.11426pt"
   height="146.36328pt"
   viewBox="0 0 271.11426 146.36328"
   preserveAspectRatio="xMidYMid"
   id="svg522"
   sodipodi:docname="iStock_1321221451_1733912860171 - VŠE.svg"
   inkscape:version="1.2 (dc2aedaf03, 2022-05-15)"
   xml:space="preserve"
   xmlns:inkscape="http://www.inkscape.org/namespaces/inkscape"
   xmlns:sodipodi="http://sodipodi.sourceforge.net/DTD/sodipodi-0.dtd"
   xmlns="http://www.w3.org/2000/svg"
   xmlns:svg="http://www.w3.org/2000/svg"><defs
     id="defs526" /><sodipodi:namedview
     id="namedview524"
     pagecolor="#ffffff"
     bordercolor="#666666"
     borderopacity="1.0"
     inkscape:showpageshadow="2"
     inkscape:pageopacity="0.0"
     inkscape:pagecheckerboard="0"
     inkscape:deskcolor="#d1d1d1"
     inkscape:document-units="pt"
     showgrid="false"
     inkscape:zoom="0.2503158"
     inkscape:cx="7166.9467"
     inkscape:cy="1300.3574"
     inkscape:window-width="1920"
     inkscape:window-height="1001"
     inkscape:window-x="-9"
     inkscape:window-y="-9"
     inkscape:window-maximized="1"
     inkscape:current-layer="svg522" /><metadata
     id="metadata2">
Created by potrace 1.16, written by Peter Selinger 2001-2019
</metadata><g
     id="g2778"
     transform="translate(-5489.0183,-343.39052)"
     style="fill:#493323;fill-opacity:1;stroke:none;stroke-opacity:1"><path
       d="m 5607.0851,345.1537 c -6,2.8 -19.4,17.4 -24.1,26.3 -1.1,2.1 -2.3,2.7 -6.6,3.3 -24.6,3.1 -52.4,17.4 -72.7,37.5 -12.5,12.5 -16.8,20.8 -13.7,26.7 6.1,11.9 37.8,27.3 64.8,31.5 6.4,1 7.7,1.5 7.2,2.8 -0.4,0.8 -1.3,3.2 -2,5.2 -2.8,7.6 1.8,11.3 13.9,11.3 5.6,0 7.1,-0.4 8.2,-1.9 1.4,-1.8 3.8,-8.5 4.9,-13.7 0.5,-2.3 1.3,-2.7 7.3,-3.8 9.2,-1.7 25,-8 35.3,-14.1 4.7,-2.8 9.1,-5.7 9.8,-6.4 1.2,-1.1 3,-0.5 10.8,3.6 5.1,2.7 10.6,5.3 12.2,5.7 5.8,1.7 12.3,-3.5 15.7,-12.3 2.6,-6.8 1.5,-10.4 -5,-16.5 l -5.5,-5.2 5.8,-7.2 c 3.2,-4 6.8,-8.7 8.1,-10.5 l 2.3,-3.3 3.1,2.1 c 6.6,4.4 32.9,16.8 42.3,20 12.2,4 23.1,5.1 26.9,2.6 7.2,-4.7 5.3,-9.7 -9.8,-25.3 l -10.8,-11.1 6.5,-12.5 c 8.7,-16.7 9.6,-22.7 4.1,-26.3 -4,-2.6 -10.3,-2.1 -17.6,1.5 -8.2,4 -24.3,17.4 -36.1,30.1 -5.1,5.5 -9.6,10 -10.1,10 -0.5,0 -2.3,-1.1 -4,-2.4 -4.5,-3.5 -16.5,-9 -25.2,-11.7 -4.1,-1.3 -7.5,-2.7 -7.5,-3.2 0,-0.5 0.8,-2.1 1.9,-3.5 3.6,-5.1 8.1,-15.2 8.1,-18 0,-3.6 -2.3,-5.8 -8.7,-8.2 -12.9,-4.9 -32.6,-6.4 -39.8,-3.1 z m 20,4.1 c 8.4,1.2 21.1,4.8 22.4,6.4 1.2,1.4 -1.5,7.7 -6.7,15.9 -3.4,5.3 -4,5.7 -6.6,5.2 -1.6,-0.3 -3.7,-0.5 -4.7,-0.5 -1.1,0 -1.9,-0.4 -1.9,-0.9 0,-0.5 2.5,-4.3 5.5,-8.6 5.8,-8.1 6.5,-10.2 3.8,-11.2 -1.9,-0.7 -4,1.7 -11,12.2 -2.6,3.8 -4.7,7.1 -4.7,7.2 -0.2,0.4 -5.6,-1 -5.6,-1.6 0,-0.3 2.9,-4.5 6.5,-9.4 6.8,-9.1 7.6,-11.1 4.9,-12.1 -2,-0.8 -5.8,3.4 -13,14.1 -5.5,8.2 -6.7,9 -10.8,7.4 -1.6,-0.6 -0.9,-1.9 5.9,-10.5 7.2,-9.3 8.6,-12.6 5.1,-12.6 -1.7,0 -8.7,7.6 -15.3,16.6 -3.7,5 -5.4,6.5 -8,7 -6,1.1 -5.6,-0.3 3.6,-11.9 10.4,-13 14.9,-14.9 30.6,-12.7 z m 116.3,11.6 c 0.3,3.2 -1.8,8.4 -8.7,21.4 -2.3,4.1 -4.1,8.8 -4.1,10.3 0,2.3 2.3,5.2 11.4,14.6 11.5,12 14,15.6 11.5,17.3 -2.3,1.5 -12.4,0 -22.2,-3.2 -15.4,-5.1 -43.7,-19.5 -43.7,-22.2 0,-0.5 5.1,-6.1 11.3,-12.5 18.2,-18.7 33.8,-29.7 41.2,-29.1 2.6,0.3 3,0.8 3.3,3.4 z m -108.4,21.4 c 13.6,2.7 27.8,7.7 36.7,13 3.7,2.2 7,4.4 7.3,4.8 0.3,0.5 -2.4,4.8 -6,9.5 -16.9,22.5 -42.7,42.8 -64.9,51 -13,4.8 -19,5.9 -33.3,5.8 -7.4,0 -13.7,-0.2 -13.9,-0.5 -0.2,-0.2 0.5,-3.3 1.6,-6.9 7.1,-23.2 4.2,-47.9 -8.1,-67 -1.7,-2.6 -2.9,-4.9 -2.7,-5.1 1,-0.9 14.1,-4.6 19.4,-5.5 10.1,-1.8 12.3,-1.9 33,-1.6 15.6,0.2 22.4,0.8 30.9,2.5 z m -81,20.5 c 5.4,11.4 6.9,19.7 6.3,33.8 -0.3,8.6 -1.2,14.6 -2.9,20.2 -2.3,7.9 -2.4,8 -5.3,7.6 -4.5,-0.5 -19.1,-4.9 -27.5,-8.2 -15,-6 -30,-16.7 -30,-21.4 0,-3.5 7.4,-13.8 15.2,-21 8.3,-7.7 17.1,-14.1 27.7,-20.1 l 7.6,-4.4 2.8,3.2 c 1.5,1.8 4.3,6.4 6.1,10.3 z m 114.4,30.2 c 1.7,1.3 3.9,3.7 4.7,5.3 1.4,2.7 1.4,3.4 0,6.7 -1.7,4.1 -6.2,9.3 -8,9.3 -1.7,0 -17.2,-7.7 -17.9,-8.9 -0.4,-0.6 0,-1.4 0.8,-1.7 1,-0.4 4.3,1.1 8.2,3.6 6,4 6.6,4.2 8.1,2.7 2,-2 1,-3.4 -5.8,-7.7 -2.7,-1.8 -4.6,-3.6 -4.3,-4.1 0.9,-1.6 2.8,-1 8.1,2.7 3,2.1 5.9,3.4 6.8,3 2.9,-1.1 1.5,-4.1 -3.5,-7.5 -5.4,-3.7 -5.6,-4.1 -3.8,-5.9 1.2,-1.2 1.8,-1 6.6,2.5 z m -98.7,43.8 c -1.1,3.1 -1.2,4.8 -0.5,5.5 1.9,1.9 4.1,0 6.2,-5.1 1.6,-3.6 2.6,-4.9 4.1,-4.9 2.5,0 2.5,0.2 0.6,6.8 l -1.6,5.2 h -5.4 c -6,0 -8.5,-0.7 -8.5,-2.3 0,-2.2 4.2,-9.7 5.5,-9.7 1,0 0.9,1 -0.4,4.5 z"
       id="path146-2"
       style="fill:#493323;fill-opacity:1;stroke:none;stroke-width:0.1;stroke-opacity:1" /><path
       d="m 5725.4851,368.4537 c -10.7,7.7 -27.9,23.3 -27.9,25.4 0,3.9 3.4,2.2 13.9,-6.9 6.1,-5.3 13.5,-11.3 16.5,-13.4 5.5,-3.8 7.1,-5.7 6,-7.4 -1,-1.7 -4.1,-0.9 -8.5,2.3 z"
       id="path148-0"
       style="fill:#493323;fill-opacity:1;stroke:none;stroke-width:0.1;stroke-opacity:1" /><path
       d="m 5716.3851,388.2537 c -7.4,3.8 -9.8,5.5 -9.8,7 0,1.1 0.5,2 1.1,2 0.8,0 0.8,0.5 -0.1,1.5 -2.6,3.1 0.4,4.2 13.2,5 9.3,0.6 12.2,0.4 12.8,-0.5 1.6,-2.7 -0.2,-3.9 -6.8,-4.5 -3.7,-0.3 -8.7,-0.8 -11.2,-1.1 l -4.5,-0.6 10,-5.1 c 10,-5.2 12.5,-8 7.5,-8.4 -1.4,-0.1 -6.8,2 -12.2,4.7 z"
       id="path150-1"
       style="fill:#493323;fill-opacity:1;stroke:none;stroke-width:0.1;stroke-opacity:1" /><path
       d="m 5701.1851,403.1537 c -1.5,2.3 1.4,4.2 11.7,7.9 10.6,3.8 22,7.3 27.8,8.6 1.8,0.4 3.1,0.1 3.9,-0.9 1.9,-2.3 -0.2,-4 -6.7,-5.5 -3.2,-0.7 -12,-3.4 -19.5,-6.1 -14,-5 -16.3,-5.6 -17.2,-4 z"
       id="path152-1"
       style="fill:#493323;fill-opacity:1;stroke:none;stroke-width:0.1;stroke-opacity:1" /><path
       d="m 5570.7851,384.3537 c 0.2,1.4 1.6,2.5 4.3,3.5 2.2,0.7 4.5,2.1 5.2,3.1 1.9,2.5 1.6,7.4 -0.7,10.8 -2.8,4.3 -2.5,5.3 2,6.5 3,0.8 4.4,1.8 5.1,3.8 1.3,3.5 -0.2,9 -3.7,13.2 -2.1,2.5 -2.4,3.3 -1.4,4.5 0.7,0.8 2.8,1.5 4.6,1.5 5,0 7.8,3.2 7.1,8.2 -0.7,5.1 -2.8,8.2 -7.8,11.4 -4.4,2.7 -4.7,4.7 -0.8,5.2 6.2,0.7 14.2,-9.2 14.1,-17.5 -0.1,-5.1 -2,-8.6 -6.1,-11.1 -2.6,-1.6 -2.7,-1.9 -1.5,-4.7 1.6,-3.8 1.8,-10.9 0.3,-13.8 -0.6,-1.2 -2.2,-3.1 -3.6,-4.2 -2.1,-1.8 -2.2,-2.3 -1.1,-5.2 2.8,-7.3 -4.3,-17.3 -12.3,-17.3 -3.5,0 -4,0.3 -3.7,2.1 z"
       id="path154-9"
       style="fill:#493323;fill-opacity:1;stroke:none;stroke-width:0.1;stroke-opacity:1" /><path
       d="m 5606.5851,386.7537 c -1.5,1.8 0.2,4.5 2.9,4.5 4.9,0 5.4,5.9 1,10.1 -3.8,3.6 -3.3,5.2 2,6.7 5.1,1.6 6.7,4.2 4.7,7.9 -0.8,1.6 -2.3,3.7 -3.5,4.7 -2.7,2.4 -2.7,5.3 -0.1,6.1 3.2,1 5,3.4 5,6.7 0,2.8 -2.3,5.7 -8.4,10.6 -2.3,1.9 -1.5,3.6 1.8,4 5.6,0.7 13.9,-11.8 12,-18.1 -0.3,-1.2 -1.5,-3.2 -2.6,-4.3 -1.9,-2.1 -1.9,-2.2 0.1,-6 2.8,-5.1 2.7,-9.5 -0.2,-12.6 -1.3,-1.4 -3,-2.7 -3.8,-3 -1.1,-0.4 -1.1,-0.8 -0.3,-1.9 3.8,-4.8 1.7,-13 -4,-15.4 -4.4,-1.9 -5.1,-1.9 -6.6,0 z"
       id="path156-1"
       style="fill:#493323;fill-opacity:1;stroke:none;stroke-width:0.1;stroke-opacity:1" /><path
       d="m 5631.9851,392.7537 c -0.8,1.9 0.3,3.5 2.5,3.5 5,0 5.6,6.5 0.9,11 -3.2,3 -3.2,3.1 -1.4,4.5 1.1,0.8 2.7,1.5 3.7,1.5 0.9,0 2.7,0.8 3.9,1.8 2.9,2.4 2.1,6.3 -2.1,10.3 -3.3,3.1 -3.7,5.4 -1.2,6.4 1.3,0.4 3,-0.6 6,-3.9 3.8,-4 4.3,-5 4.3,-9.1 0,-3.9 -0.5,-5.2 -3,-7.5 -2.7,-2.5 -2.8,-3 -1.8,-6.2 1.3,-4.5 0.4,-8.3 -2.7,-11.4 -2.7,-2.7 -8.2,-3.3 -9.1,-0.9 z"
       id="path158-9"
       style="fill:#493323;fill-opacity:1;stroke:none;stroke-width:0.1;stroke-opacity:1" /><path
       d="m 5531.5851,421.2537 c -2.7,2.7 -2.5,4.6 0.5,6.6 2.3,1.5 2.7,1.5 5,0 3.1,-2 3.2,-5 0.3,-7 -2.9,-2 -3.4,-2 -5.8,0.4 z"
       id="path160-7"
       style="fill:#493323;fill-opacity:1;stroke:none;stroke-width:0.1;stroke-opacity:1" /></g></svg>
