<?xml version="1.0" encoding="UTF-8" standalone="no"?>
<svg
   version="1.0"
   width="292pt"
   height="285pt"
   viewBox="0 0 292 285"
   preserveAspectRatio="xMidYMid"
   id="svg522"
   sodipodi:docname="iStock_1321221451_1733912860171 - VŠE.svg"
   inkscape:version="1.2 (dc2aedaf03, 2022-05-15)"
   xml:space="preserve"
   xmlns:inkscape="http://www.inkscape.org/namespaces/inkscape"
   xmlns:sodipodi="http://sodipodi.sourceforge.net/DTD/sodipodi-0.dtd"
   xmlns="http://www.w3.org/2000/svg"
   xmlns:svg="http://www.w3.org/2000/svg"><defs
     id="defs526" /><sodipodi:namedview
     id="namedview524"
     pagecolor="#ffffff"
     bordercolor="#666666"
     borderopacity="1.0"
     inkscape:showpageshadow="2"
     inkscape:pageopacity="0.0"
     inkscape:pagecheckerboard="0"
     inkscape:deskcolor="#d1d1d1"
     inkscape:document-units="pt"
     showgrid="false"
     inkscape:zoom="0.1251579"
     inkscape:cx="-1877.6282"
     inkscape:cy="5413.1621"
     inkscape:window-width="1920"
     inkscape:window-height="1001"
     inkscape:window-x="-9"
     inkscape:window-y="-9"
     inkscape:window-maximized="1"
     inkscape:current-layer="svg522" /><metadata
     id="metadata2">
Created by potrace 1.16, written by Peter Selinger 2001-2019
</metadata><g
     id="g2866"
     transform="translate(-5420.5851,-1210.2538)"
     style="fill:#493323;fill-opacity:1"><path
       d="m 5573.2851,1210.9537 c -0.4,0.3 -0.7,2.5 -0.7,4.8 v 4.2 l -4.2,-0.8 c -11,-2.1 -38,-0.1 -41.2,3.1 -1.5,1.5 0.2,3.8 5.7,8 l 4.6,3.4 -4.7,1.8 c -8.5,3.3 -17.4,11 -15.8,13.7 0.4,0.6 2,1.1 3.7,1.1 h 2.9 l -4.8,5.9 c -2.6,3.3 -5.6,7.6 -6.6,9.6 -1.8,3.3 -1.8,3.7 -0.4,5.2 1.5,1.5 2,1.4 5.4,-0.6 4.1,-2.5 4.6,-2.4 3.7,0.7 -0.3,1.4 -1.3,2.2 -2.6,2.2 -3.9,0 -10.4,4.8 -12.6,9.3 -2.7,5.5 -2.6,8.6 0.2,12.7 3.5,5.3 7,7.3 12.5,7.4 l 5,0.1 2.3,5.4 c 1.2,3 4.4,8.2 7,11.6 l 4.8,6.3 -1.9,6.1 c -1,3.4 -2.1,7.9 -2.5,10.1 -0.4,2.2 -1,4.2 -1.5,4.5 -1.9,1.2 -26.6,-9 -40.1,-16.6 -8.8,-5 -13.2,-8.1 -20.5,-14.9 l -4.3,-4 1.4,-6.7 c 0.8,-3.8 1.5,-10.5 1.5,-15.1 0,-7.9 -0.2,-8.5 -2.9,-11.3 -3.5,-3.5 -6.6,-3.7 -11.2,-0.6 -4.1,2.7 -6.9,7.9 -6.9,12.8 0,7.8 9.3,21.5 22,32.1 8.6,7.3 17.4,12.7 31.1,19.2 8.6,4 25.2,10.5 28.6,11.1 0.1,0.1 -1.4,8.4 -3.3,18.5 -1.9,10.2 -4.4,24 -5.4,30.7 -1,6.8 -2.1,12.7 -2.4,13.1 -0.3,0.4 -7.9,5.2 -16.9,10.6 -9.1,5.4 -17.9,11.2 -19.7,12.9 -3.8,3.7 -3.6,5.5 2.1,14.6 3.3,5.3 3.8,6.6 2.7,7.7 -1,1 -22.7,14.5 -39.4,24.5 l -3.2,1.9 v -6.8 c -0.1,-9.6 -2.4,-14.7 -8.1,-18.3 -2.9,-1.9 -5.8,-2.9 -8.4,-2.9 -5.9,0 -7.7,1.4 -7.7,6.1 0,8.7 14.3,29.9 20.2,29.9 1.7,0 20.5,-11 40.6,-23.8 l 11,-7 5.3,5.5 c 5.1,5.1 5.6,5.4 9.5,5 2.3,-0.2 13.6,-4.9 27,-11.2 l 22.9,-10.8 9.6,-0.5 9.6,-0.4 15.2,8.1 c 19,10.3 29,15.1 31.3,15.1 0.9,0 4.6,-2.6 8,-5.9 l 6.3,-5.9 5,3 c 11.4,6.7 43.2,21.8 46,21.8 4,0 10,-3.3 15.3,-8.3 5.4,-5.2 8.1,-10.4 8.9,-16.7 0.5,-4.3 0.3,-5.1 -2.1,-7.5 -2.3,-2.3 -3.4,-2.7 -6.6,-2.2 -5.2,0.7 -10.1,3.8 -13.4,8.6 -2.7,3.9 -5.6,12.5 -5.6,16.8 0,1.3 -0.2,2.3 -0.5,2.3 -0.8,0 -34.4,-16.9 -39.2,-19.7 l -4.3,-2.5 4.6,-6.4 c 5,-7 5.8,-10.6 2.8,-13 -4.5,-3.4 -12.4,-8.3 -23.2,-14.4 l -11.7,-6.6 -0.2,-12.9 c -0.2,-7.2 -1,-20.9 -1.8,-30.5 -2,-23.6 -2.3,-21.6 2.8,-22.4 11,-1.8 44.7,-15.1 60,-23.7 3.8,-2.1 11,-5.3 16,-7 15.7,-5.2 22.7,-11.1 22.7,-19.2 0,-10.2 -9.4,-15.8 -17.8,-10.7 -3.9,2.4 -9.6,10.9 -14.3,21.3 l -3.4,7.6 -8.5,4.5 c -16.6,8.7 -45.3,19.8 -56.7,21.9 -3.7,0.7 -3.4,1.3 -5.3,-10.6 l -1.1,-6.7 6.8,-6.8 c 4.5,-4.5 8,-9.3 10.3,-13.9 3.4,-6.8 3.6,-7 8.4,-8.2 9.6,-2.3 15.3,-9.6 12.6,-16.2 -1.6,-3.7 -6.4,-7.8 -10.1,-8.6 -3.2,-0.6 -3.9,-3.4 -1.4,-5.9 1.7,-1.7 1.2,-5.8 -1.6,-12.3 -1.1,-2.4 -1.9,-4.5 -1.9,-4.8 0,-0.2 3,-0.3 6.7,-0.1 5.6,0.2 6.8,0 7.1,-1.3 0.8,-4 -11.2,-13.5 -21.9,-17.4 l -6.3,-2.2 3.9,-2.1 c 2.2,-1.1 5.9,-2.5 8.3,-3.1 4.7,-1.3 6.3,-3.5 4,-5.7 -2.9,-2.9 -35.3,-3.7 -39.7,-0.9 -0.6,0.3 -1.5,-0.4 -2.1,-1.5 -1.3,-2.4 -10.8,-9 -13.1,-9 -0.8,0 -1.9,0.3 -2.2,0.7 z m 11.8,13.3 c 1.4,2.2 2.8,4 3.1,4 0.3,0 1.9,-0.8 3.7,-1.7 2.2,-1.1 6.6,-1.8 14.2,-2.1 l 11,-0.4 -4.3,3.1 c -4.5,3.3 -6.8,7 -5.9,9.4 0.3,0.8 2.4,1.6 4.9,1.9 5.2,0.6 16,5.2 18.4,7.9 1.6,1.8 1.6,1.9 -1.9,1.9 -5.1,0 -8.7,1.6 -8.7,3.9 0,1 0.6,2.1 1.3,2.4 0.6,0.2 2.2,2.2 3.4,4.4 l 2.3,4 -7.5,-3.9 c -8.2,-4.3 -20.6,-8.8 -24.1,-8.8 -2.4,0 -3.3,2 -5,11.2 -0.3,2.1 -1,3.8 -1.6,3.8 -0.5,0 -4.3,-3.4 -8.4,-7.5 -4.1,-4.1 -7.7,-7.5 -8.1,-7.5 -0.3,0 -3,2.3 -6,5 -3.1,2.8 -7.5,6.4 -9.9,8.1 -4.1,2.8 -4.4,2.9 -4.4,1 0,-1.2 0.8,-4.2 1.8,-6.9 3.4,-9 1.8,-9.1 -17,-1.8 -7.6,2.9 -13.8,5 -13.8,4.6 0,-1.3 9.9,-10 12.5,-11 2.8,-1.1 3.4,-4.4 1,-5.4 -0.8,-0.3 -3,-0.3 -4.8,-0.1 -2.8,0.5 -2.5,0.2 2,-2.1 2.9,-1.4 7,-2.8 9,-3.1 8,-1.2 7.7,-3.4 -1.1,-9.3 -6.7,-4.4 -6.6,-4.5 5.9,-5.5 4.9,-0.4 11.2,-0.2 16,0.6 4.4,0.6 9.6,1.2 11.5,1.3 3.3,0.1 3.5,-0.1 3.8,-3.7 0.3,-3.3 0.5,-3.6 2.3,-2.7 1,0.6 3.1,2.9 4.4,5 z m 21.8,35.4 c 4.5,1.9 10.3,4.6 13,6.1 l 4.7,2.7 v 8.7 c 0,16.8 -5.7,31.8 -16,42.1 -9.3,9.3 -20.9,14 -34.3,14 -27.3,0 -46.3,-18.7 -48.4,-47.7 -0.4,-5.2 -0.1,-10.5 0.7,-14.4 1.5,-6.8 0.7,-6.2 14.3,-11.3 l 6.4,-2.4 -0.8,3.6 c -1.8,8 -1.3,14.2 1.1,14.2 1.2,0 13.5,-8.4 19.3,-13.3 l 4.7,-3.9 4.8,4.4 c 6.5,6.1 13.9,11 16,10.6 1.2,-0.2 1.9,-1.8 2.4,-5.3 1.6,-10.4 1.9,-11.5 2.9,-11.5 0.6,0 4.7,1.5 9.2,3.4 z m -86.9,25.8 c 0.4,3.5 1,7.5 1.3,9 0.5,2.6 0.3,2.8 -2.5,2.8 -4.5,0 -9.2,-4.3 -9.2,-8.3 0.1,-3.3 2.1,-6.5 5.5,-8.5 3.6,-2 4.2,-1.4 4.9,5 z m -56.3,-2 c 1.5,2.9 -0.2,21.8 -2,21.8 -1,0 -6.1,-8.6 -7.1,-12 -2.1,-7.4 5.8,-16 9.1,-9.8 z m 173,1.6 c 1.1,1.4 1.9,3.5 1.7,4.5 -0.3,2.3 -4.2,5.3 -7.9,6.2 l -2.5,0.6 1.4,-7.4 c 1.3,-6.5 1.7,-7.4 3.3,-7 1.1,0.3 2.9,1.7 4,3.1 z m 68.9,13.2 c 0.6,1.2 1,3.8 0.8,5.8 -0.3,3.2 -1,4.2 -5,6.8 -2.6,1.8 -7.4,4.1 -10.7,5.2 l -6.1,2.1 1.5,-3.6 c 2.4,-5.7 8.5,-15.2 10.8,-16.8 3.1,-2.2 7.4,-1.9 8.7,0.5 z m -158.3,34.2 c 3.8,2 4.2,2.7 5.2,7.9 2.1,10.7 9.3,16.9 19.4,16.9 9.2,-0.1 16.7,-6.2 18.9,-15.7 1.1,-4.4 1.7,-5.2 5.4,-7 l 4.2,-2.1 1.1,7.2 c 2.7,17.4 6.1,55.3 6.1,69 v 6.4 l -7.7,0.8 c -14,1.3 -71.9,-0.9 -73.8,-2.8 -1.8,-1.7 14.2,-82.8 16.3,-82.8 0.4,0 2.6,1 4.9,2.2 z m 29.1,6.1 c 8.2,-0.2 9.2,-0.1 9.2,1.5 0,2.4 -3.5,7.8 -6.2,9.5 -7.1,4.5 -16.5,1.9 -19.8,-5.5 -3,-6.6 -2.8,-7.1 2.8,-6.1 2.6,0.4 8.9,0.7 14,0.6 z m -7.3,82.3 37,0.6 14.8,8.1 c 8.1,4.5 14.7,8.5 14.7,8.9 0,0.8 -8.2,10.4 -17.3,20.3 l -5.5,6 -8.3,-4.2 c -4.6,-2.3 -12.7,-6.5 -17.9,-9.4 l -9.5,-5.1 -10.5,0.7 -10.4,0.6 -19.1,8.9 c -10.6,5 -19.6,9 -20.1,9 -0.9,-0.1 -5.9,-6.6 -15.8,-20.7 l -5.8,-8.3 3.4,-2 c 1.8,-1.1 8,-4.9 13.8,-8.4 9.6,-5.9 10.9,-6.4 15,-6 2.5,0.2 21.2,0.6 41.5,1 z m -76.2,21.4 c 1,1.6 5.5,8.1 10.1,14.3 l 8.4,11.5 -2.6,1.1 c -2.2,1.1 -2.9,0.8 -6,-2.1 -4.2,-4.1 -11,-12.8 -14.5,-18.8 l -2.6,-4.5 2.1,-2.2 c 2.7,-2.9 3,-2.9 5.1,0.7 z m 150.7,2.4 c 0,2.7 -19.2,24.6 -21.5,24.6 -0.5,0 -1.6,-0.4 -2.4,-0.9 -1.2,-0.8 0,-2.5 5.5,-8.6 3.8,-4.3 8.9,-10.1 11.3,-13.1 3.5,-4.2 4.7,-5.1 5.8,-4.3 0.7,0.6 1.3,1.7 1.3,2.3 z m 63,17.5 c 0,4.6 -1.8,8.2 -6.3,12.9 -4,4.2 -9.4,7.8 -10.3,6.9 -0.2,-0.2 0,-2.8 0.6,-5.7 1.8,-9.7 7.6,-16.9 13.8,-17 1.8,0 2.2,0.5 2.2,2.9 z m -272,5.1 c 1.7,1.2 3.4,3.6 4,5.8 1.2,4.3 1.4,14.2 0.3,14.2 -2.2,-0.1 -13.3,-18.4 -13.3,-21.7 0,-2.1 5.1,-1.1 9,1.7 z"
       id="path392-8"
       style="fill:#493323;fill-opacity:1;stroke:none;stroke-width:0.1" /><path
       d="m 5585.7851,1280.4537 c -0.7,0.7 -1.2,2 -1.2,2.9 0,4.3 7.2,5.3 7.8,1.1 0.6,-4.2 -3.7,-6.9 -6.6,-4 z"
       id="path394-2"
       style="fill:#493323;fill-opacity:1;stroke:none;stroke-width:0.1" /><path
       d="m 5556.3851,1281.3537 c -2.2,1.2 -2.3,5.2 -0.3,6.9 3.4,2.8 8.4,-3 5.5,-6.5 -1.4,-1.7 -2.8,-1.8 -5.2,-0.4 z"
       id="path396-3"
       style="fill:#493323;fill-opacity:1;stroke:none;stroke-width:0.1" /><path
       d="m 5596.7851,1291.4537 c -0.7,0.7 -1.2,1.9 -1.2,2.7 0,3 -5.9,11.9 -9.2,13.9 -5.6,3.5 -11.8,4.4 -17.6,2.7 -4,-1.2 -6.2,-2.8 -10.5,-7.5 -5.6,-6.3 -7.1,-7.1 -8.1,-4.4 -1.3,3.5 5.4,11.8 12.8,15.7 3.1,1.6 5.8,2.2 11.6,2.2 6.6,0 8.2,-0.4 13,-3.1 8.5,-4.8 16.2,-18 12.9,-22 -1.4,-1.7 -2.1,-1.8 -3.7,-0.2 z"
       id="path398-4"
       style="fill:#493323;fill-opacity:1;stroke:none;stroke-width:0.1" /></g></svg>
