<?xml version="1.0" encoding="UTF-8" standalone="no"?>
<svg
   version="1.0"
   width="271.81665pt"
   height="373.74756pt"
   viewBox="0 0 271.81665 373.74755"
   preserveAspectRatio="xMidYMid"
   id="svg522"
   sodipodi:docname="iStock_1321221451_1733912860171 - VŠE.svg"
   inkscape:version="1.2 (dc2aedaf03, 2022-05-15)"
   xml:space="preserve"
   xmlns:inkscape="http://www.inkscape.org/namespaces/inkscape"
   xmlns:sodipodi="http://sodipodi.sourceforge.net/DTD/sodipodi-0.dtd"
   xmlns="http://www.w3.org/2000/svg"
   xmlns:svg="http://www.w3.org/2000/svg"><defs
     id="defs526" /><sodipodi:namedview
     id="namedview524"
     pagecolor="#ffffff"
     bordercolor="#666666"
     borderopacity="1.0"
     inkscape:showpageshadow="2"
     inkscape:pageopacity="0.0"
     inkscape:pagecheckerboard="0"
     inkscape:deskcolor="#d1d1d1"
     inkscape:document-units="pt"
     showgrid="false"
     inkscape:zoom="0.2503158"
     inkscape:cx="7166.9467"
     inkscape:cy="1300.3574"
     inkscape:window-width="1920"
     inkscape:window-height="1001"
     inkscape:window-x="-9"
     inkscape:window-y="-9"
     inkscape:window-maximized="1"
     inkscape:current-layer="svg522" /><metadata
     id="metadata2">
Created by potrace 1.16, written by Peter Selinger 2001-2019
</metadata><g
     id="g2925"
     transform="translate(-5060.5848,-411.44385)"
     style="fill:#493323;fill-opacity:1;stroke:none;stroke-opacity:1"><path
       d="m 5111.2851,418.2537 c -3.7,3.8 -8.1,9.8 -9.9,13.3 -3.1,5.8 -3.3,6.9 -3.3,16.2 0,8 0.4,10.5 1.8,12.6 l 1.8,2.7 -4.8,0.7 c -2.6,0.3 -5.9,1.3 -7.2,2.2 -2,1.3 -2.3,2.1 -1.9,5.8 0.6,4.5 4.9,14.8 7.5,17.7 2.2,2.5 4.6,2.3 8.1,-0.7 3.8,-3.2 4.2,-3.1 4.2,0.4 0,3.9 3.8,9.3 8.3,11.4 3.1,1.6 3.7,2.4 3.7,5 0.1,7.5 7.5,16.5 14.9,18.2 2,0.4 3.1,1.5 4,4.1 0.8,2.1 2.5,4.3 4.2,5.3 2.2,1.2 2.8,2.1 2.4,3.6 -0.4,1.1 -1.3,4.6 -2.2,7.7 -1.4,5.3 -1.8,5.8 -4.3,5.8 -3.5,0 -8.8,3.6 -11.7,7.9 -6.2,9.2 0.9,21.1 12.7,21.1 3.5,0 4.2,0.4 5.1,2.7 1.9,5.4 6.3,12.8 10.3,17.7 l 4,4.9 -1.8,8.6 c -0.9,4.7 -2.1,8.9 -2.5,9.4 -2.1,2.2 -25,-5.2 -35.3,-11.4 -18.2,-11.1 -34.9,-31.2 -40.7,-49.1 -1.2,-3.5 -1,-4.1 2.3,-10 6.7,-12 7.8,-21.5 3.4,-30.1 -6.6,-13.2 -23.8,-8.3 -23.8,6.8 0,8.2 4.7,21.5 10.1,28.4 1.1,1.3 1.9,3 1.9,3.9 0,2.5 7.1,17.4 11.1,23.4 15.2,22.4 38.9,38.6 62.9,42.9 3.6,0.7 6.6,1.3 6.8,1.4 0.4,0.4 -7.7,27.2 -12.8,42 -5.5,15.7 -16.5,44.6 -22.1,57.7 l -3.3,7.8 2.5,2.6 c 3.4,3.6 11.9,8.5 22.6,13 l 9.1,3.8 -2.4,6.5 c -7.7,20.4 -12.6,19.5 -33,-6.1 -11.1,-13.8 -13.4,-15.7 -17,-13.7 -4.4,2.3 -18.5,17.8 -20.6,22.6 -6.8,15.3 10.5,23.3 18.2,8.4 1.8,-3.6 5.5,-16.7 6.2,-22.1 0.3,-2.1 1.6,-0.9 10,9.6 13.6,17 20.4,22.3 27.1,21 4.9,-0.9 9.8,-6.7 13.2,-15.7 1.6,-4.1 3.1,-7.7 3.4,-8.1 0.3,-0.4 5,0.4 10.4,1.7 14.7,3.6 28.2,4.9 44.8,4.2 l 14.6,-0.5 2.3,3.9 c 3.1,5.6 12.2,14.7 16.4,16.4 4.5,1.9 8.9,1.9 12.4,0.1 4.2,-2.2 12.1,-11 21.5,-23.7 4.7,-6.4 9,-12 9.6,-12.3 0.6,-0.4 4.4,2.6 8.4,6.7 8.4,8.4 14.3,11.7 20.8,11.7 3.5,0 5.1,-0.6 6.7,-2.3 4.7,-5 1.3,-15.8 -6.3,-20.3 -7,-4.1 -25.4,-5.8 -30.4,-2.8 -1.5,0.9 -6.8,7.1 -11.7,13.8 -10.5,14.3 -18.4,22.9 -22.4,24.6 -2.6,1.1 -3.5,0.9 -7.4,-1.4 -4,-2.4 -13.6,-12.6 -13.6,-14.5 0,-0.4 3.9,-1.6 8.7,-2.5 17.2,-3.4 27.3,-8.2 27.3,-13 0,-1.3 -0.9,-4.9 -2,-8.1 -10.4,-30.1 -23.6,-83.4 -26.6,-107.1 l -0.6,-5.1 6.8,-2.1 c 25.6,-7.9 47.7,-28.3 61.5,-56.9 3.2,-6.7 4.8,-8.8 8.6,-11.4 9.8,-6.8 16.8,-16.3 17.9,-24.2 0.5,-3.6 0.2,-5.3 -1.6,-8.5 -3.8,-6.7 -9.4,-7.9 -16.6,-3.7 -7.7,4.5 -12,17.9 -10.4,32 0.7,5.9 0.6,6.2 -4.6,16.4 -12.1,23.4 -28.5,39.5 -48.9,48 -4.1,1.7 -8.8,3.4 -10.4,3.7 -3.4,0.7 -3.5,0.4 -4.6,-13.4 -0.6,-6.9 -0.5,-7.4 2.3,-11 4.1,-5.4 7.7,-12 9.6,-17.8 1.6,-4.8 2,-5.3 5.4,-5.9 14.6,-2.7 16.8,-18.7 3.4,-24.8 -4.7,-2.1 -4.8,-2.3 -6.8,-9.4 -1.7,-5.9 -1.8,-7.3 -0.7,-7.3 2.3,0 6.3,-4.7 6.3,-7.4 0,-2 0.8,-2.9 3.3,-4 8.1,-3.4 15.7,-13.8 15.7,-21.7 0,-3 0.6,-3.9 4.6,-6.7 4.6,-3.3 8.3,-9.5 8.4,-14 0,-2.8 0.4,-2.8 4.5,0.4 1.9,1.4 4.2,2.4 5.2,2.2 2.5,-0.5 6,-7.2 7.8,-15.1 2.1,-9.1 1.2,-10.7 -5.6,-10.7 -4.7,0 -4.9,-0.1 -3.9,-2 0.6,-1.1 1.5,-6 2.1,-10.8 0.7,-6.2 1.8,-10.5 3.9,-14.8 3.4,-6.9 3.6,-8 1.6,-8.7 -2,-0.8 -12.9,1.9 -17.7,4.3 -9.1,4.7 -15.9,13.9 -15.9,21.5 0,1.9 -0.2,3.5 -0.4,3.5 -0.2,0 -2,-0.7 -4.1,-1.6 -2.1,-0.8 -4.8,-1.3 -6,-1 -4,1 -7.9,12.9 -7.3,21.8 0.3,4.2 0.4,4.3 4.3,4.8 l 4,0.5 0.3,7.2 c 0.1,4 -0.2,7.3 -0.6,7.3 -0.5,0 -2.9,1.3 -5.4,3 -4.6,3.1 -9.8,10.9 -9.8,14.9 0,1.7 -0.6,2.1 -3.5,2.1 -2.4,0 -4.4,0.8 -5.9,2.3 l -2.4,2.4 -6.3,-3.8 c -6.5,-3.8 -17.9,-6.9 -25.4,-6.9 -9.9,0 -27.5,5.8 -34.7,11.3 l -3.1,2.5 -3.5,-2.4 c -1.9,-1.3 -4,-2.4 -4.6,-2.4 -0.6,0 -2.4,-2.5 -4,-5.5 -2.9,-5.5 -6.7,-8.7 -11.8,-10 -2.6,-0.7 -2.8,-1.1 -2.8,-5.9 0,-3.1 -0.8,-6.7 -1.9,-8.9 l -1.9,-3.7 h 3.3 c 3.6,0 6.5,-2.1 6.5,-4.9 0,-3 -2.9,-13 -5,-17.1 -1.7,-3.3 -2.6,-4 -5,-4 -1.6,0 -3.2,0.4 -3.5,1 -1.6,2.6 -2,0.4 -1.1,-6 1.6,-11.6 -3,-31.9 -7.5,-32.8 -0.9,-0.2 -4.4,2.7 -8.2,6.8 z m 8.9,7.1 c 3,11.6 1.2,27.3 -4.2,35.1 -3.5,5 -5.8,4.7 -9.9,-1 -2.7,-3.9 -3,-5.1 -2.9,-11.5 0,-5.5 0.6,-8.5 2.6,-12.7 2.3,-5.1 11.5,-16.6 12.5,-15.6 0.2,0.2 1.1,2.8 1.9,5.7 z m 172.9,4.4 c -0.7,2.8 -1.6,8 -2,11.7 -0.8,8.1 -3.6,12.8 -8.3,14.2 -2.8,0.8 -3.6,0.6 -5.7,-1.4 -5,-4.7 -4,-14.7 2.3,-21.4 2.3,-2.4 14.1,-9 14.8,-8.3 0.2,0.2 -0.3,2.5 -1.1,5.2 z m -25.6,24.6 c 3.3,2.2 6.3,4.4 6.6,4.9 0.8,1.3 -16.7,7.2 -17.9,5.9 -1.2,-1.2 2.7,-14.9 4.3,-14.9 0.5,0 3.6,1.8 7,4.1 z m -133.8,6.5 c 2.7,7.5 2.5,8.4 -1.6,8.4 -4.6,0 -13.5,-2 -13.5,-3 0,-1.3 11.3,-11.1 12.4,-10.7 0.5,0.2 1.8,2.5 2.7,5.3 z m 165.4,1.6 c -1.1,4.8 -3.6,10.8 -4.6,10.8 -1.3,0 -12.5,-10.8 -11.8,-11.4 0.9,-0.9 8.7,-2.4 13.2,-2.5 3.8,-0.1 3.9,-0.1 3.2,3.1 z m -19.8,5 c 4.9,4.6 1.3,16.4 -6.3,20.5 -4,2.2 -4.1,2.5 -4.7,8.3 -0.8,7.3 -2.4,10.7 -7.1,14.8 -5.2,4.5 -7.1,4.8 -10.1,1.5 -3,-3.4 -3.1,-6 -0.4,-11.7 2.1,-4.6 4.6,-6.8 11.2,-9.8 l 3.8,-1.8 -0.7,-8.3 c -0.4,-5.3 -0.3,-9.1 0.4,-10.3 0.8,-1.4 7.7,-4.7 11.1,-5.3 0.3,-0.1 1.5,0.9 2.8,2.1 z m -168.7,2.4 c 0,0.7 -5.3,8.1 -8.8,12.3 l -2.8,3.3 -2.7,-6 c -2.7,-6.1 -3.2,-8.3 -2,-9.5 0.8,-0.8 16.3,-0.9 16.3,-0.1 z m 14.7,6.9 c 3.5,3.7 5.3,8.8 5.3,15.2 0,4.6 1.7,6.4 7.2,7.7 3,0.7 7.5,5 8.4,8 0.5,1.4 -0.1,2.5 -2.1,3.9 -1.5,1.1 -3.5,3.3 -4.4,4.8 l -1.8,2.9 -4.4,-2.3 c -5.2,-2.6 -7.8,-6.7 -8.6,-13.7 -0.6,-5 -0.8,-5.3 -4.9,-7 -2.7,-1.2 -4.9,-3 -5.8,-4.9 -2.1,-4 -2,-12.5 0.1,-16.1 1.4,-2.4 2.1,-2.8 4.7,-2.3 1.7,0.3 4.5,2 6.3,3.8 z m 86.9,30.9 c 7.8,2.1 15,6.4 20.4,12.3 5.4,5.9 10.6,16 11.6,22.4 l 0.7,4.2 -3.9,-0.7 c -7.2,-1.3 -16.3,-6.3 -21.9,-12.1 -3,-3 -5.8,-5.5 -6.2,-5.5 -0.4,0 -2.9,2.4 -5.5,5.4 -4.2,4.8 -14.4,11.4 -15.6,10.1 -0.2,-0.2 0.3,-2.2 1.2,-4.5 3.6,-9 1.1,-11 -6.6,-5.2 -9,6.9 -22.5,12.7 -36.2,15.7 -2.8,0.6 -2.8,0.6 -2.2,-3.1 2.6,-13.7 15.1,-29.2 28.2,-35 12,-5.2 25.7,-6.8 36,-4 z m 32.8,6.8 c 4.1,3.9 5.3,8 3,10.2 -2.3,2.4 -3,2.1 -7.4,-3.9 -3.4,-4.6 -3.9,-5.8 -3,-7.5 1.5,-2.8 3.5,-2.5 7.4,1.2 z m -88.7,2 c 0.8,0.7 0.1,2.4 -2.8,6.1 -2.1,2.9 -3.9,5.5 -3.9,5.9 0,1.4 -3.7,0.8 -5,-0.7 -1.8,-2.2 -1.5,-6.3 0.7,-9.3 2.9,-3.8 7.5,-4.7 11,-2 z m -77.5,7 c 3.6,5.1 3.2,13.4 -1,22.3 l -3.3,6.9 -1.9,-2.9 c -3,-4.5 -6.3,-15.4 -6.4,-20.6 -0.1,-5.9 2.3,-8.9 7,-8.9 2.5,0 3.8,0.7 5.6,3.2 z m 246,2.5 c 3.7,3.3 1.8,11 -4.5,18.3 -3.6,4.1 -9.5,9 -11,9 -1.5,0 -0.2,-15.8 1.6,-20.3 3.2,-7.5 9.7,-10.8 13.9,-7 z m -95.5,22 c 2.9,1.4 7.8,2.7 10.8,3 l 5.5,0.6 v 5.7 c 0,13.8 -6.7,29.8 -16.4,39.6 -7.2,7.2 -13.3,10.5 -23.3,12.8 -12.2,2.7 -21.4,1.8 -32.9,-3.4 -15.2,-6.8 -26.4,-25.8 -26.4,-44.6 v -6.1 l 5.3,-0.6 c 6.9,-0.9 18.1,-4.7 26.4,-9.1 3.7,-2 6.8,-3.4 7,-3.2 0.2,0.2 -0.2,1.5 -0.8,2.9 -1.5,3.2 -0.6,5.7 2,5.7 4.7,0 16,-5.3 21.2,-9.9 l 5.3,-4.8 5.6,4.5 c 3,2.5 7.9,5.6 10.7,6.9 z m 26.6,6.3 c 2.9,2.3 4.2,6.3 2.8,8.9 -1,1.9 -6.8,4.8 -7.7,3.9 -0.7,-0.8 0.8,-14.8 1.6,-14.8 0.4,0 1.9,0.9 3.3,2 z m -115,8.7 c 0.3,4.3 0.9,8.7 1.3,9.7 1.3,3.3 -6.5,1.4 -9.9,-2.5 -3,-3.2 -3.1,-6.5 -0.4,-9.8 1.3,-1.5 6.8,-5.1 7.8,-5.1 0.3,0 0.9,3.5 1.2,7.7 z m 89.1,50 c 1.2,13.2 4.3,33 8.1,51.2 2.8,13.1 3.4,17.6 2.5,18.1 -0.7,0.4 -7.2,1.6 -14.4,2.6 -15.4,2.1 -46.9,2.4 -58.9,0.6 -9.3,-1.4 -20.7,-4 -22.4,-5 -0.9,-0.6 0.4,-5.7 4.8,-19.2 3.3,-10.2 7.8,-26.1 10.1,-35.5 2.3,-9.3 4.3,-17.1 4.3,-17.2 0.1,-0.2 1.9,0.5 4,1.6 l 3.8,1.8 0.1,8.7 c 0.1,7.1 0.5,8.9 2.1,10.6 2.7,2.6 12.2,4 27.7,4 15.3,0 15,0.3 14.7,-13.3 l -0.3,-9.2 4.2,-2 c 2.3,-1.2 5,-2.9 5.9,-3.8 1,-0.9 2,-1.7 2.4,-1.7 0.4,0 1,3.5 1.3,7.7 z m -35.9,2.8 c 6.1,0 12.2,-0.3 13.7,-0.7 2.6,-0.8 2.6,-0.8 3.3,5.7 1.1,10.2 1.5,9.9 -13.3,9.1 -7,-0.4 -14.3,-1 -16.2,-1.4 l -3.5,-0.8 -0.3,-6.7 -0.3,-6.8 2.8,0.8 c 1.5,0.4 7.8,0.8 13.8,0.8 z m -36.3,73.7 c 9.9,2 14.3,2.3 35.3,2.3 18.1,0 27.2,-0.5 36.9,-1.8 13.5,-2 14.5,-1.8 14.6,2.4 0,1.8 0.4,1.7 -16.5,5.3 -25.9,5.6 -59.2,4.4 -83.2,-3.1 -5.5,-1.6 -6,-2.4 -4.3,-6.7 0.8,-2.2 1.3,-2.4 3.4,-1.6 1.4,0.5 7.6,2 13.8,3.2 z m -11.6,11.3 c 4.7,1.4 11.3,3 14.7,3.5 24.1,4.1 58.2,2.6 79.6,-3.6 2.9,-0.8 5.5,-1.4 5.6,-1.2 0.9,0.8 13.8,44.6 13.9,46.8 0.1,2.1 -0.7,2.8 -5.4,4.7 -3.1,1.2 -10.3,3.2 -16,4.4 -9.2,2 -13.5,2.3 -34,2.3 -21.1,0.1 -24.6,-0.1 -34,-2.2 -13,-3 -30.2,-9 -38.9,-13.8 -11,-6 -10.8,-3.8 -2.3,-24.9 4.1,-10.2 7.6,-18.5 7.8,-18.5 0.2,0 4.2,1.1 9,2.5 z m 161.4,45.6 c 8.1,1.7 14.4,9.9 10.6,13.7 -1.3,1.3 -2.2,1.4 -5.6,0.3 -4.2,-1.2 -15.2,-9.7 -17,-13.1 -1,-1.8 -0.8,-2 2.9,-2 2.2,0 6.3,0.5 9.1,1.1 z m -214.4,13.6 c -2.8,11.5 -7.6,18.2 -11,15.4 -2.2,-1.9 -2,-6.7 0.6,-10.4 2.7,-4.1 11,-12.8 11.6,-12.2 0.2,0.2 -0.3,3.5 -1.2,7.2 z"
       id="path164-1"
       style="fill:#493323;fill-opacity:1;stroke:none;stroke-width:0.1;stroke-opacity:1" /><path
       d="m 5205.6851,562.0537 c -1.4,2.6 1.3,6.4 4.1,6 2.9,-0.4 4.6,-3.3 3.2,-5.6 -1.6,-2.5 -6,-2.8 -7.3,-0.4 z"
       id="path166-4"
       style="fill:#493323;fill-opacity:1;stroke:none;stroke-width:0.1;stroke-opacity:1" /><path
       d="m 5175.5851,563.2537 c -1.5,2.8 0.4,6 3.6,6 3.1,0 5.4,-4.1 3.4,-6.5 -1.8,-2.1 -5.7,-1.9 -7,0.5 z"
       id="path168-4"
       style="fill:#493323;fill-opacity:1;stroke:none;stroke-width:0.1;stroke-opacity:1" /><path
       d="m 5216.8851,571.2537 c -1.5,5.6 -6,12.7 -9.9,15.3 -5.1,3.6 -14.1,4.7 -19.4,2.4 -3.9,-1.7 -10.6,-8 -11.5,-10.8 -0.6,-1.9 -3.2,-3.2 -4.6,-2.3 -3.9,2.4 3.7,13.1 12.6,17.7 11.3,5.7 27.4,0.6 34.1,-10.9 3.4,-5.7 3.9,-12.6 1.1,-13.2 -1.2,-0.3 -2,0.4 -2.4,1.8 z"
       id="path170-4"
       style="fill:#493323;fill-opacity:1;stroke:none;stroke-width:0.1;stroke-opacity:1" /></g></svg>
