<?xml version="1.0" encoding="UTF-8" standalone="no"?>
<svg
   version="1.0"
   width="294.64746pt"
   height="320.94873pt"
   viewBox="0 0 294.64746 320.94873"
   preserveAspectRatio="xMidYMid"
   id="svg522"
   sodipodi:docname="iStock_1321221451_1733912860171 - VŠE.svg"
   inkscape:version="1.2 (dc2aedaf03, 2022-05-15)"
   xml:space="preserve"
   xmlns:inkscape="http://www.inkscape.org/namespaces/inkscape"
   xmlns:sodipodi="http://sodipodi.sourceforge.net/DTD/sodipodi-0.dtd"
   xmlns="http://www.w3.org/2000/svg"
   xmlns:svg="http://www.w3.org/2000/svg"><defs
     id="defs526" /><sodipodi:namedview
     id="namedview524"
     pagecolor="#ffffff"
     bordercolor="#666666"
     borderopacity="1.0"
     inkscape:showpageshadow="2"
     inkscape:pageopacity="0.0"
     inkscape:pagecheckerboard="0"
     inkscape:deskcolor="#d1d1d1"
     inkscape:document-units="pt"
     showgrid="false"
     inkscape:zoom="0.2503158"
     inkscape:cx="7166.9467"
     inkscape:cy="1300.3574"
     inkscape:window-width="1920"
     inkscape:window-height="1001"
     inkscape:window-x="-9"
     inkscape:window-y="-9"
     inkscape:window-maximized="1"
     inkscape:current-layer="svg522" /><metadata
     id="metadata2">
Created by potrace 1.16, written by Peter Selinger 2001-2019
</metadata><g
     id="g2633"
     transform="translate(-3935.7679,-453.7091)"
     style="fill:#493323;fill-opacity:1;stroke:none;stroke-opacity:1"><path
       d="m 4023.4851,454.5537 c -9.4,2.7 -17.2,9 -20,16.4 -3,7.8 -0.2,22.7 6.1,32.7 3.5,5.5 3.5,5.6 1.2,5.6 -2.7,0 -9,4.7 -10.7,8 -2.3,4.5 -1.9,10.8 0.9,14.5 2.9,3.7 8.1,6.5 12.3,6.5 2.6,0 3,0.5 4.1,4.5 1.7,6.4 4.6,12.2 9,18 l 3.8,5 h -12.7 c -14.3,0.1 -16.3,0.9 -17.5,7.1 -0.3,1.9 -1,3.6 -1.4,3.9 -0.4,0.3 -2.8,-0.2 -5.4,-1.1 -17.9,-6.1 -29.6,-19.8 -37.1,-43.1 l -2.6,-8.1 2,-6.6 c 2.4,-7.9 3.6,-18 2.7,-23 -0.4,-2 -2.1,-5.2 -3.8,-7.1 -2.5,-2.9 -3.7,-3.5 -7,-3.5 -5.4,0 -7.6,1.4 -9.9,6.3 -3.7,8.3 -1.4,18.9 6.7,29.8 2.4,3.3 5,8.8 6.9,14.8 8.2,25.1 21.5,40 41.4,46.1 l 5.5,1.7 -0.3,11 c -0.3,14.3 0.3,15.2 11.2,16 4.2,0.3 7.7,0.9 7.7,1.2 0,0.3 -1.4,8.9 -3,19.1 -1.7,10.2 -3.3,23.1 -3.7,28.7 l -0.6,10.2 3.2,1.8 c 3.6,2.1 3.2,0.5 6,23.8 2.3,19.5 6.5,43.6 8.2,46.6 1.5,2.9 5.5,3.4 16.4,2 l 10,-1.3 2,2.8 c 6.3,8.6 10.1,12.8 14.3,15.9 14.3,10.3 27.5,6.6 60.6,-17 3.5,-2.5 6.5,-4.5 6.7,-4.5 0.2,0 0.3,3.1 0.1,7 -0.5,8.8 1.2,16.6 4.5,21.8 3.2,5 6.3,6.7 11.6,6.6 3.2,-0.1 4.6,-0.8 6.5,-3 2.1,-2.4 2.3,-3.4 1.8,-7.3 -1.5,-10.9 -15.5,-33.1 -20.9,-33.1 -1,0 -8.7,4.7 -17,10.4 -17.3,11.7 -24.8,16 -32.4,18.2 -4.8,1.4 -5.8,1.4 -10.6,0 -2.9,-0.8 -7.1,-3.1 -9.4,-5.1 -4.3,-3.6 -11.9,-13.3 -11.1,-14 0.2,-0.3 4.1,-1.5 8.7,-2.8 4.5,-1.4 8.8,-3 9.4,-3.6 0.8,-0.8 1.1,-4.2 1,-9.6 -0.2,-4.6 0.1,-8.6 0.5,-8.8 0.4,-0.3 2.1,-0.8 3.9,-1.1 2.7,-0.6 3.7,-0.2 8.2,3.8 7.6,6.8 8.3,7 13.8,4.6 2.5,-1.1 8.6,-4.3 13.5,-7.1 l 8.9,-5.1 5.2,2.1 c 8.7,3.4 16.9,5.4 22.7,5.5 4.9,0.1 6.2,-0.4 10.5,-3.5 6.2,-4.4 13.9,-13.8 20.2,-24.5 l 4.8,-8.2 2.4,4.2 c 8.4,14.5 22.1,21.7 31.9,16.7 5.1,-2.6 6.3,-5.9 3.7,-10.7 -4.3,-8 -30.3,-22.2 -37.7,-20.6 -1,0.2 -3.9,4.5 -6.8,10.1 -9.4,18 -21.4,31.1 -28.4,31.1 -3.7,0 -17.5,-3.4 -20.6,-5 -2,-1.1 -1.8,-1.3 2.9,-4.8 8.9,-6.6 8.1,-8 -12.5,-21.4 -12,-7.9 -14,-9.6 -13.1,-10.9 0.7,-1.2 0.4,-9.3 -1.2,-28 -1.3,-14.5 -2.1,-28 -2,-29.9 0.4,-3.8 -0.9,-3.3 17.2,-6.5 5.4,-0.9 10.7,-2.4 11.8,-3.4 2.1,-1.7 2.1,-1.8 0.5,-12.1 -0.9,-5.6 -1.5,-10.5 -1.3,-10.7 0.2,-0.2 3,-1 6.2,-1.8 8.6,-2.3 15.2,-6.2 22.5,-13.5 9.4,-9.4 17,-23.9 21.5,-41.5 1.1,-4.1 3.2,-8.9 5.2,-11.6 8.1,-11.3 12,-24.6 9,-30.5 -2.5,-4.9 -5.3,-6.7 -10.1,-6.7 -9.2,0 -13.3,6 -12.2,17.8 0.4,3.9 1.5,10.7 2.6,15.2 1.9,8 1.9,8.1 -0.2,15.4 -4.8,17.4 -11.1,29.3 -19.9,38.2 -6.2,6.2 -16,11.5 -22.8,12.4 -3.8,0.5 -3.8,0.5 -4.6,-3.3 -1.2,-6.8 -2.4,-7.4 -14.7,-7.4 h -10.9 l 3.9,-5.8 c 2.2,-3.1 4.8,-7.8 6,-10.5 1.9,-4.2 2.4,-4.7 5.2,-4.7 7.2,0 14,-5.8 14,-12 0,-5.6 -4.5,-11.7 -10.4,-13.9 -2.5,-1 -2.7,-1.5 -2.1,-3.9 2.7,-9.6 2.3,-19.7 -1,-26.6 -0.9,-1.9 -3.4,-5.5 -5.5,-7.9 -3.8,-4.2 -3.8,-4.4 -2.7,-9 0.9,-4.2 0.8,-5.1 -1,-7.5 -2.7,-3.7 -8.9,-4.2 -14,-1.2 -2.9,1.7 -4.1,1.9 -6.2,1.1 -7.2,-2.7 -13.7,-3.4 -25.5,-2.6 -17.9,1.1 -18.6,1.1 -25.2,-1.8 -7.4,-3.2 -15.4,-4.1 -21.5,-2.4 z m 22.1,8.8 c 7,3.7 16.6,12.1 21.2,18.3 1.5,2.1 2.8,4.2 2.8,4.6 0,0.4 -3,1 -6.8,1.3 -11.6,1 -27.2,7.7 -39.6,17.2 l -4.3,3.3 -3.1,-5.2 c -8.1,-13.3 -10,-23.2 -6.2,-31 5.9,-12.3 21.9,-16.1 36,-8.5 z m 42.4,1.9 c 9.5,2.4 15.8,5.7 23.1,12.2 7.3,6.6 10.5,12.2 11.2,19.7 0.9,9.3 0.3,9.8 -5.9,5.1 -10.6,-8 -23,-13.4 -33.8,-14.6 -5.8,-0.6 -6,-0.8 -8.7,-5.3 -1.4,-2.5 -5.3,-7.4 -8.6,-10.8 -5.6,-5.9 -5.8,-6.2 -3.6,-6.7 8.9,-2 17.6,-1.8 26.3,0.4 z m 23.6,1.6 c 0,2.9 -0.6,3 -4.5,0.4 l -2.9,-1.9 2.4,-0.9 c 3.4,-1.3 5,-0.5 5,2.4 z m 84.5,15.4 c 1.3,1.5 1.7,3.1 1.3,6.8 -0.5,5.1 -6.5,18.5 -8.3,18.4 -1.4,-0.1 -3.4,-10.4 -3.5,-17.5 0,-4.4 0.5,-6.2 2,-7.7 2.5,-2.5 6.2,-2.6 8.5,0 z m -245.1,10.3 c 1.7,2.3 2,4 1.8,8.5 -0.3,7 -2.4,15.7 -3.7,15.6 -0.5,0 -2.5,-2.7 -4.3,-6 -2.9,-5.2 -3.2,-6.6 -2.9,-12.3 0.2,-4.9 0.8,-6.7 2.2,-7.7 2.6,-1.9 4.4,-1.4 6.9,1.9 z m 135.8,1.6 c 9.1,2.4 19.1,7.2 27.7,13.6 l 6.4,4.7 -0.6,8.7 c -1,15.6 -8.9,32.8 -19.2,41.9 -19.3,16.9 -51.3,15.6 -67.9,-2.9 -8.3,-9.2 -12.6,-21.8 -12.6,-37 0,-8.3 0.1,-8.6 3.3,-11.6 16.4,-15.4 42.5,-22.6 62.9,-17.4 z m -71.8,29.2 c -0.1,4.9 -0.4,9.2 -0.7,9.5 -1,1.1 -7.6,-2.5 -9.3,-5 -2.3,-3.7 -0.9,-8.4 3.5,-11.3 6.1,-4.1 6.6,-3.5 6.5,6.8 z m 115.7,1.6 c 3.1,3.4 3.2,6.1 0.5,8.8 -2.9,2.9 -8.2,3.6 -7.2,0.8 0.4,-0.9 0.9,-4.2 1.3,-7.4 0.6,-6.2 1.6,-6.6 5.4,-2.2 z m -0.5,48.7 c 2.3,9.1 4.6,24.8 3.8,25.6 -0.5,0.5 -6.5,1.8 -13.4,3 -6.9,1.2 -13.6,2.8 -14.9,3.7 -2.3,1.5 -2.3,1.7 -1.7,12.2 0.4,5.8 1.5,19.3 2.5,29.9 0.9,10.7 1.3,19.6 0.9,19.8 -6.3,3.9 -86.4,2.3 -91.5,-1.8 -1.6,-1.3 -1.2,-4.8 3.3,-35 1.9,-12.4 3.4,-22.9 3.4,-23.1 0,-0.3 -0.7,-1.3 -1.6,-2.1 -1.1,-1.2 -3.6,-1.6 -9.6,-1.6 h -8.1 l 0.5,-13.8 c 0.3,-7.5 1,-15 1.7,-16.5 l 1.1,-2.9 15.8,0.4 c 14.8,0.3 16,0.5 20.7,3 8.5,4.6 16.5,6.1 29,5.5 12,-0.6 18.5,-2.5 26,-7.7 4.7,-3.2 7.8,-3.7 21.4,-3.6 l 9.5,0.1 z m -79.6,101.7 c 14.4,0.6 28.1,0.6 38.2,0 l 15.7,-0.9 16.7,11.1 16.7,11.1 -2.6,2.2 c -3.7,3.1 -19.1,12.6 -27.5,16.8 l -7.1,3.6 -5.7,-5 c -5.1,-4.4 -6.2,-5 -10.3,-5 -2.8,0 -5.9,0.8 -7.8,2 l -3.3,2 v 8.5 c 0,8.4 0,8.6 -2.7,9.6 -7.2,2.7 -24.5,6.1 -31.8,6.3 l -8,0.1 -1.7,-8.5 c -1.7,-8.7 -6.1,-38.3 -7.3,-49.9 l -0.7,-6.4 3.3,0.7 c 1.9,0.3 13.5,1.1 25.9,1.7 z m 155.5,6.9 c 13,6.5 21,13.8 17.4,16.1 -2.2,1.3 -8.7,1.1 -11.7,-0.5 -4.8,-2.5 -16.2,-15.9 -16.2,-19 0,-1.3 2.7,-0.4 10.5,3.4 z m -58.2,65.2 c 8,13.1 9.7,21 4.7,21.6 -3.1,0.4 -7.2,-3.7 -8.9,-8.7 -1,-3.2 -1.6,-20.1 -0.7,-20.1 0.3,0 2.5,3.3 4.9,7.2 z"
       id="path172-4"
       style="fill:#493323;fill-opacity:1;stroke:none;stroke-width:0.1;stroke-opacity:1" /><path
       d="m 4051.6851,515.8537 c -2.6,1.8 -2.5,5.1 0.2,6.8 2.3,1.5 5.1,-0.3 5.5,-3.7 0.4,-3.5 -2.6,-5.2 -5.7,-3.1 z"
       id="path174-7"
       style="fill:#493323;fill-opacity:1;stroke:none;stroke-width:0.1;stroke-opacity:1" /><path
       d="m 4080.5851,515.7537 c -1.9,2.3 0.3,6.5 3.4,6.5 3.5,0 5.2,-2.4 3.8,-5.5 -1.3,-2.9 -5.2,-3.4 -7.2,-1 z"
       id="path176-3"
       style="fill:#493323;fill-opacity:1;stroke:none;stroke-width:0.1;stroke-opacity:1" /><path
       d="m 4088.1851,537.9537 c -1.3,2.7 -3.7,6 -5.3,7.5 -10.3,9.8 -26.7,6.7 -33.4,-6.4 -2.3,-4.6 -3.7,-5.4 -5.5,-3.6 -1.8,1.8 -0.6,5.5 3.3,10.6 8.8,11.6 25.5,14.3 36.6,5.8 8.2,-6.2 14,-18.6 8.7,-18.6 -1.3,0 -2.7,1.5 -4.4,4.7 z"
       id="path178-2"
       style="fill:#493323;fill-opacity:1;stroke:none;stroke-width:0.1;stroke-opacity:1" /><path
       d="m 4060.6851,596.4537 c -1.2,1.2 -3.1,4.8 -4.3,8 l -2.3,5.8 h -6.5 c -7.1,0 -11,1.8 -11,5 0,1.9 4.8,6.6 9.9,9.6 2.1,1.3 2.9,2.3 2.5,3.4 -2.2,5.2 -4.4,13.6 -3.9,15.1 1.4,4.4 7.3,2.9 13.4,-3.5 1.9,-2 3.9,-3.6 4.4,-3.6 0.4,0 2.7,1.3 5,2.9 7.5,5 10.5,6.3 12.7,5.1 2.7,-1.4 2.5,-3.2 -1,-11.4 -1.6,-3.8 -2.9,-7 -2.7,-7.1 3.7,-2.1 10.8,-8.1 11.3,-9.7 1.1,-3.7 -2.7,-5.8 -10.6,-5.8 h -6.7 l -1.2,-6.1 c -1.1,-5.6 -3.8,-9.9 -6.1,-9.9 -0.5,0 -1.8,1 -2.9,2.2 z m 4.3,14 c 0.8,5.3 1.2,5.6 10.1,6 l 5,0.3 -4.7,3 c -2.6,1.6 -5,3.6 -5.2,4.3 -0.3,0.7 0.8,4 2.5,7.4 3.2,6.3 3.1,6.4 -4.2,1.1 -2.6,-1.8 -5.2,-3.3 -5.8,-3.3 -0.7,0 -3.5,2.1 -6.3,4.7 -5.4,5.1 -5.6,4.8 -2.2,-3.6 2.3,-5.5 1.8,-6.7 -4.1,-10 -7.2,-4.1 -7.2,-5.5 0.3,-4.9 3.1,0.3 6.2,0.3 6.8,0.1 0.7,-0.2 2.2,-3.1 3.5,-6.4 2.4,-6.7 3.2,-6.4 4.3,1.3 z"
       id="path180-5"
       style="fill:#493323;fill-opacity:1;stroke:none;stroke-width:0.1;stroke-opacity:1" /></g></svg>
