<?xml version="1.0" encoding="UTF-8" standalone="no"?>
<svg
   version="1.0"
   width="245.89989pt"
   height="210.7666pt"
   viewBox="0 0 245.89989 210.7666"
   preserveAspectRatio="xMidYMid"
   id="svg522"
   sodipodi:docname="iStock_1321221451_1733912860171 - VŠE.svg"
   inkscape:version="1.2 (dc2aedaf03, 2022-05-15)"
   xml:space="preserve"
   xmlns:inkscape="http://www.inkscape.org/namespaces/inkscape"
   xmlns:sodipodi="http://sodipodi.sourceforge.net/DTD/sodipodi-0.dtd"
   xmlns="http://www.w3.org/2000/svg"
   xmlns:svg="http://www.w3.org/2000/svg"><defs
     id="defs526" /><sodipodi:namedview
     id="namedview524"
     pagecolor="#ffffff"
     bordercolor="#666666"
     borderopacity="1.0"
     inkscape:showpageshadow="2"
     inkscape:pageopacity="0.0"
     inkscape:pagecheckerboard="0"
     inkscape:deskcolor="#d1d1d1"
     inkscape:document-units="pt"
     showgrid="false"
     inkscape:zoom="0.2503158"
     inkscape:cx="7166.9467"
     inkscape:cy="1300.3574"
     inkscape:window-width="1920"
     inkscape:window-height="1001"
     inkscape:window-x="-9"
     inkscape:window-y="-9"
     inkscape:window-maximized="1"
     inkscape:current-layer="svg522" /><metadata
     id="metadata2">
Created by potrace 1.16, written by Peter Selinger 2001-2019
</metadata><g
     id="g2685"
     transform="translate(-5259.6852,-1513.3816)"
     style="fill:#493323;fill-opacity:1;stroke:none;stroke-opacity:1"><path
       d="m 5340.8851,1514.4537 c -0.5,0.7 -1.5,3.3 -2.2,5.8 -0.8,2.8 -2.7,5.9 -5.2,8.2 -3.2,3 -4.8,3.8 -9.6,4.3 -14.7,1.7 -25.2,10.5 -31.6,26.5 l -2.6,6.5 -13.5,0.5 c -11.1,0.4 -13.9,0.8 -15.3,2.2 -1.6,1.6 -1.6,2 0,5.2 2,4.3 10.8,11 18.4,14.2 l 5.8,2.3 -0.3,6.3 c -0.8,19.8 8.8,40.9 26.4,58.4 10.8,10.7 22.1,17.9 36.3,23 5.1,1.8 9.5,3.5 9.7,3.7 0.2,0.2 -1.7,4.9 -4.3,10.5 l -4.6,10.2 h -4.3 c -5.8,0 -9.6,1.6 -9.2,3.8 0.3,1.3 1.4,1.7 5.1,1.6 2.6,0 4.7,0.2 4.7,0.5 0,0.2 -1.4,2.9 -3.1,5.9 -2.8,5.1 -2.9,5.6 -1.4,7.1 1.5,1.5 1.8,1.4 3.8,-1 1.2,-1.5 3.2,-4.4 4.4,-6.5 l 2.2,-3.9 1.7,4.2 c 1.9,4.7 3.7,5.9 5.5,3.7 1.5,-1.8 -0.4,-8.5 -3.1,-10.9 -1.7,-1.5 -1.4,-2.3 3.4,-13.1 l 5.1,-11.5 3.5,0.6 c 1.9,0.2 6.8,0.5 10.8,0.5 7.3,0 7.3,0 8.4,3.1 0.6,1.7 3,7.1 5.5,12.1 4.3,8.9 4.3,9.2 2.8,12.4 -1.9,4.1 -2,12 -0.1,12.7 1.9,0.8 3.6,-1.2 3.6,-4.2 0,-5.2 1.6,-5.6 4.1,-1 2.9,5.2 5.3,6.9 7.1,5.1 1.1,-1.1 0.7,-2.4 -1.9,-7.1 l -3.3,-5.9 4,1 c 4.6,1.2 7.3,0.5 6.8,-1.9 -0.4,-1.9 -5.9,-4.1 -10.6,-4.2 -3.2,-0.1 -3.5,-0.5 -8.2,-10.4 -2.8,-5.6 -5,-10.7 -5,-11.3 0,-0.6 3.3,-1.6 7.3,-2.2 31.1,-4.8 66.9,-25.2 94.9,-53.8 9.8,-10.2 12.8,-14.7 12.8,-19.4 0,-4.6 -2,-6.5 -7,-6.4 l -3.7,0.1 1.3,-3.8 c 1,-2.8 1.1,-4.5 0.3,-6.9 -2.6,-7.3 -11.3,-6.5 -20.1,1.7 l -2.6,2.5 0.5,-3.8 c 0.4,-3 0,-4.5 -1.7,-6.7 -3.5,-4.4 -8.8,-3.3 -21,4.5 -5.1,3.3 -15.4,8.8 -16.4,8.8 -0.2,0 0.3,-2.6 1.1,-5.7 2.9,-11.4 1.4,-18.3 -4.2,-18.3 -1.1,0 -5.9,1.8 -10.6,4.1 -4.6,2.2 -11.5,4.7 -15.3,5.5 -6.2,1.3 -8.1,1.3 -17.9,-0.2 -6.1,-0.9 -13.4,-1.4 -16.7,-1.1 l -5.8,0.5 -3,-6.7 c -3.1,-6.8 -8.8,-24 -8.1,-24.4 0.2,-0.2 2.8,-1.4 5.7,-2.7 8.3,-3.8 16.1,-14 13.3,-17.4 -1.5,-1.8 -5.1,-0.5 -5.1,1.7 0,2.2 -6.1,8.7 -10.1,10.7 -4.7,2.4 -6.7,2.5 -9.1,0.3 -1.7,-1.5 -1.7,-1.7 1.6,-3.9 7,-4.8 13.8,-20 10.7,-23.8 -2.1,-2.5 -3.9,-0.7 -5.1,5 -1.2,5.9 -5.9,12.9 -10.1,15.3 -2.4,1.3 -3,1.2 -6.7,-0.6 l -4.2,-2 2.1,-1.9 c 2.4,-2.1 6.3,-9.5 7.3,-13.7 1,-4.2 -1.9,-7.3 -4.1,-4.5 z m -4.7,26.6 c 8,4.1 12.3,10.7 16.8,25.4 1.5,4.7 3.8,10.8 5.2,13.4 l 2.6,4.8 -4.2,3.4 c -10.2,8.5 -14.8,24.4 -10,34.9 2.7,6.1 10.1,13.5 16.7,16.9 4.9,2.5 7.2,3 15.2,3.3 15.5,0.5 28.1,-4.2 38.4,-14.5 5.5,-5.5 12.7,-16.2 14.2,-21.2 0.3,-1.2 1.1,-2.2 1.7,-2.2 1.5,0 15.3,-7.1 23.2,-11.9 3.7,-2.3 8.1,-4.4 9.7,-4.8 2.6,-0.5 2.9,-0.3 2.9,2.1 0,3.6 -4.1,11.4 -7.9,15 -3.3,3.2 -4,6.3 -1.6,7.2 1.7,0.7 8.8,-4.4 18.6,-13.5 6.5,-6 11.2,-8.7 13,-7.5 2.8,1.7 -1.5,10.7 -9.3,19.2 -3.2,3.5 -3.7,4.6 -2.8,5.8 0.7,0.8 1.6,1.4 2.1,1.4 0.4,0 4.2,-2.5 8.4,-5.5 11.1,-7.9 14.7,-7.2 8.3,1.6 -7.3,10.3 -26.1,26.8 -43.3,38.2 -22.2,14.6 -43.4,22.4 -67.2,24.7 -39.8,3.7 -79.1,-20.8 -92.9,-58 -5.8,-15.6 -3.5,-43.6 5.2,-61.7 4.7,-9.8 10.8,-15.6 19.4,-18.4 4,-1.3 13.3,-0.3 17.6,1.9 z m -49,36.8 c -0.9,6.4 -1,6.5 -3.5,5.9 -5.5,-1.4 -17.6,-9.9 -16.5,-11.6 0.3,-0.5 5.1,-0.9 10.8,-0.9 h 10.2 z m 145,7.5 c -1.1,8.1 -7,23.2 -12.1,30.9 -9.6,14.4 -22.8,21.5 -40,21.5 -6.5,0 -9,-0.5 -13.6,-2.6 -10.2,-4.8 -16.5,-13.4 -16.3,-22.4 0.3,-11.2 7.6,-21.1 17.9,-24 5.1,-1.5 6.4,-1.5 17.2,0.1 15,2.1 21.9,1.5 33,-3.1 4.8,-1.9 9.1,-3.9 9.7,-4.5 0.5,-0.5 1.9,-1 2.9,-1 1.8,0 1.9,0.5 1.3,5.1 z"
       id="path450-8"
       style="fill:#493323;fill-opacity:1;stroke:none;stroke-width:0.1;stroke-opacity:1" /><path
       d="m 5316.5851,1566.0537 c -1.8,0.7 -3.9,3.3 -4,4.9 0,2.1 3.8,5.3 6.3,5.3 4.4,0 7.6,-6.3 4.5,-8.8 -1.9,-1.4 -5.1,-2.1 -6.8,-1.4 z"
       id="path452-8"
       style="fill:#493323;fill-opacity:1;stroke:none;stroke-width:0.1;stroke-opacity:1" /></g></svg>
