<?xml version="1.0" encoding="UTF-8" standalone="no"?>
<svg
   version="1.0"
   width="403.20267pt"
   height="254.00099pt"
   viewBox="0 0 403.20267 254.00099"
   preserveAspectRatio="xMidYMid"
   id="svg522"
   sodipodi:docname="iStock_1321221451_1733912860171 - VŠE.svg"
   inkscape:version="1.2 (dc2aedaf03, 2022-05-15)"
   xml:space="preserve"
   xmlns:inkscape="http://www.inkscape.org/namespaces/inkscape"
   xmlns:sodipodi="http://sodipodi.sourceforge.net/DTD/sodipodi-0.dtd"
   xmlns="http://www.w3.org/2000/svg"
   xmlns:svg="http://www.w3.org/2000/svg"><defs
     id="defs526" /><sodipodi:namedview
     id="namedview524"
     pagecolor="#ffffff"
     bordercolor="#666666"
     borderopacity="1.0"
     inkscape:showpageshadow="2"
     inkscape:pageopacity="0.0"
     inkscape:pagecheckerboard="0"
     inkscape:deskcolor="#d1d1d1"
     inkscape:document-units="pt"
     showgrid="false"
     inkscape:zoom="0.2503158"
     inkscape:cx="7166.9467"
     inkscape:cy="1300.3574"
     inkscape:window-width="1920"
     inkscape:window-height="1001"
     inkscape:window-x="-9"
     inkscape:window-y="-9"
     inkscape:window-maximized="1"
     inkscape:current-layer="svg522" /><metadata
     id="metadata2">
Created by potrace 1.16, written by Peter Selinger 2001-2019
</metadata><g
     id="g2580"
     transform="translate(-4002.1798,700.78889)"
     style="fill:#493323;fill-opacity:1;stroke:none;stroke-opacity:1"><path
       d="m 4163.9885,-699.52935 c -0.6,0.7 -2.4,11.5 -4.1,23.9 -1.7,12.4 -3.4,23.9 -3.7,25.7 -0.5,2.4 -0.3,3.3 1.1,3.8 3.2,1.3 4.3,-1.9 6.9,-21.1 1.5,-10.5 3,-21.6 3.5,-24.7 1,-7.2 -0.8,-11 -3.7,-7.6 z"
       id="path116-6"
       style="fill:#493323;fill-opacity:1;stroke:none;stroke-width:0.1;stroke-opacity:1" /><path
       d="m 4100.0885,-684.52935 c 0.5,3.5 14.2,36.4 15.9,38.5 1.4,1.7 3.7,1.6 4.4,-0.1 0.3,-0.7 -3.3,-10.3 -7.9,-21.2 -7.1,-16.8 -8.8,-20 -10.7,-20.2 -2.1,-0.3 -2.2,-0.1 -1.7,3 z"
       id="path118-3"
       style="fill:#493323;fill-opacity:1;stroke:none;stroke-width:0.1;stroke-opacity:1" /><path
       d="m 4226.0885,-675.52935 c -4.1,4.4 -26.3,35.3 -26.3,36.6 0,1.8 2.8,2.6 4.5,1.2 0.8,-0.6 7.3,-9.2 14.5,-19 8.5,-11.7 12.8,-18.4 12.4,-19.4 -0.9,-2.2 -2.7,-2 -5.1,0.6 z"
       id="path120-2"
       style="fill:#493323;fill-opacity:1;stroke:none;stroke-width:0.1;stroke-opacity:1" /><path
       d="m 4309.7885,-658.12935 c -9.3,2.5 -18,9.7 -22.6,18.7 l -2.4,4.7 -2.2,-2 c -3.3,-3 -9.7,-5.9 -15.9,-7 -12.2,-2.3 -24.6,3.2 -28.5,12.5 -2.9,7.1 -1.1,13.8 5.5,20.3 l 4.1,4 -3,1.2 c -3.9,1.6 -10.7,9 -13.1,14.3 -3.8,8.4 -1.9,17.8 5.1,24.8 5.7,5.7 11,7.3 22,6.7 6.8,-0.4 9.2,-1.1 15,-4 3.9,-2 7,-3.3 7,-2.8 0,1.6 8.4,10.2 12.3,12.4 6.4,3.7 15.5,5.3 22.4,3.8 12.1,-2.5 22.7,-10.6 27.5,-20.9 1.2,-2.6 2.4,-5 2.5,-5.2 0.1,-0.2 1.9,1 4,2.6 10.6,8.3 27.8,10.2 39.3,4.3 10.8,-5.6 18.9,-22.2 16,-32.9 -2,-7.3 -9.8,-14.1 -16.2,-14.1 -2.2,0 -2.3,-0.3 -1.9,-5.7 0.6,-10.1 -3.2,-16.7 -12.2,-21.5 -6.5,-3.4 -17.6,-3.2 -23.8,0.4 l -4.7,2.8 -1.2,-3 c -0.7,-1.7 -3.5,-5 -6.2,-7.5 -7.6,-6.8 -18.9,-9.6 -28.8,-6.9 z m 21,8 c 5.8,3.2 9.2,7.6 11,14.1 0.6,2.4 1.7,4.3 2.4,4.3 0.7,0 2.5,-1.4 4.2,-3.1 4.2,-4.4 7.9,-6.1 13.9,-6.1 14.2,-0.1 22.3,10.3 18.1,23.3 -2.4,7.2 -1.9,7.8 5.2,7.2 5.1,-0.5 6.5,-0.2 9,1.5 6.1,4.4 6.8,13.4 1.7,23.7 -4.7,9.7 -13.2,14.1 -25.5,13.3 -10.9,-0.8 -19.8,-6 -24.6,-14.3 -1.6,-2.8 -4,-1.2 -4.9,3.2 -1.9,10.5 -9.6,20.3 -19.6,24.8 -5.3,2.3 -7.1,2.7 -13.3,2.3 -11.4,-0.6 -19.4,-5.9 -23.3,-15.4 -1,-2.4 -2.4,-4.4 -3.2,-4.4 -0.7,0 -2.9,1.4 -4.9,3.1 -6,5.3 -10.6,6.9 -20.5,6.9 -9.8,0 -12.9,-1.1 -17.1,-6 -3.6,-4.4 -5,-10.2 -3.5,-14.8 2.6,-8.1 9.2,-14.7 15.8,-15.8 6.1,-1 7.1,-1.5 7.1,-3.4 0,-1.2 -1.9,-2.9 -5.4,-4.9 -12.9,-7.3 -14.6,-18.6 -3.7,-25.3 3,-1.9 5,-2.3 11.6,-2.3 7,0 8.7,0.4 13.3,2.9 2.9,1.7 6,4.2 7,5.8 0.9,1.5 2.2,3 3,3.3 1.7,0.6 4.2,-1.2 4.2,-3.2 0,-2.2 4.8,-10.9 8.1,-14.7 1.6,-1.9 5.8,-4.9 9.2,-6.6 5.5,-2.8 6.9,-3.1 12.8,-2.7 4.8,0.3 8.1,1.2 11.9,3.3 z"
       id="path122-8"
       style="fill:#493323;fill-opacity:1;stroke:none;stroke-width:0.1;stroke-opacity:1" /><path
       d="m 4147.2885,-631.32935 c -23.8,5.2 -37.8,21.8 -37.9,45.1 -0.1,12.5 4.2,21.6 14.6,31 9.6,8.7 23.9,13.9 38.3,13.9 31.2,0 53.4,-23.1 48.7,-50.7 -3.2,-18.6 -15,-32.2 -32.7,-37.7 -8.7,-2.7 -22.8,-3.4 -31,-1.6 z m 27,6.1 c 13,3.4 21.6,10.1 27.1,21.2 3.8,7.6 3.9,8.1 3.9,18.3 0,9.3 -0.3,11.2 -2.7,16.2 -9,19.2 -34.8,27.8 -58.6,19.5 -22.6,-7.9 -33.2,-25.9 -27.7,-47.1 3.7,-14.1 13.9,-24.1 28.8,-28.1 7,-1.9 21.9,-1.9 29.2,0 z"
       id="path124-0"
       style="fill:#493323;fill-opacity:1;stroke:none;stroke-width:0.1;stroke-opacity:1" /><path
       d="m 4059.7885,-620.12935 c -2.1,2.4 0.3,3.8 11.5,6.9 5.5,1.5 12.4,3.6 15.2,4.7 5.7,2.1 7.3,1.8 7.3,-1.3 0,-2.2 -1,-2.7 -16.5,-7.3 -15.7,-4.7 -16.1,-4.8 -17.5,-3 z"
       id="path126-8"
       style="fill:#493323;fill-opacity:1;stroke:none;stroke-width:0.1;stroke-opacity:1" /><path
       d="m 4069.7885,-574.12935 c -29.4,6.2 -38.5,9.2 -36.6,12.2 1,1.7 3.3,1.5 13.9,-1.3 5.1,-1.4 15.8,-3.8 23.7,-5.4 7.8,-1.6 14.6,-3.3 15.1,-3.8 1.5,-1.5 -0.1,-4.3 -2.5,-4.2 -1.1,0 -7.3,1.1 -13.6,2.5 z"
       id="path128-4"
       style="fill:#493323;fill-opacity:1;stroke:none;stroke-width:0.1;stroke-opacity:1" /><path
       d="m 4203.8885,-545.42935 c -1.6,2 -0.4,3.1 18.4,16.4 9.4,6.6 20.1,14.3 23.8,17.2 7.2,5.4 10.7,6.5 10.7,3.1 0,-2.1 -6,-6.9 -31,-24.7 -14.4,-10.2 -19.2,-13.3 -20.3,-13.3 -0.3,0 -1,0.6 -1.6,1.3 z"
       id="path138-5"
       style="fill:#493323;fill-opacity:1;stroke:none;stroke-width:0.1;stroke-opacity:1" /><path
       d="m 4048.0885,-537.22935 c -5.5,2.8 -10.9,9.5 -12,14.8 -0.4,2.1 -1,2.6 -2.2,2.1 -9.7,-4 -16.8,-4 -23.1,0.2 -3.9,2.6 -7.4,8.6 -8.5,14.5 -0.7,3.7 2.1,11.5 5,13.9 1.2,1 1,1.9 -1.2,5.2 -6.8,10.3 -2.5,27.2 8.8,34.4 15.7,9.9 39.8,5.7 56.1,-9.8 l 6.6,-6.3 2.3,4.3 c 2.7,5.2 7.8,9.8 13.8,12.6 6.6,2.9 20.8,2.9 27.2,0 5.9,-2.8 12.3,-8.5 15.6,-14.1 l 2.5,-4.3 4.5,4 c 7.7,6.8 21.2,10.5 29.8,8.1 13.5,-3.6 19.5,-20.1 12.7,-34.6 -4.8,-10.1 -12.5,-15.5 -23.3,-16.3 l -6.6,-0.4 -2.8,-6.5 c -3.4,-7.9 -10.9,-15.9 -18,-19.3 -4.3,-2.1 -6.4,-2.4 -15,-2.4 -12.9,0.1 -19.2,2.4 -27.6,10.1 -3.3,3.1 -6.1,5.4 -6.2,5.2 -8.6,-13.5 -13.4,-16.8 -25.5,-17.6 -6.9,-0.4 -8.2,-0.2 -12.9,2.2 z m 22.2,5.6 c 5.1,2.7 9,7.1 11.1,12.9 1,2.5 2.4,5.2 3.2,6 1.2,1.3 1.7,1.1 4,-2 4.9,-6.4 10.8,-11.6 15.8,-14 6.8,-3.2 20.5,-4 27.1,-1.5 8.4,3.2 15.1,10.9 18.4,21 l 1.6,5 7.5,0.6 c 9,0.8 13.8,2.9 18.4,8.2 3.5,4.1 6.4,11.8 6.4,16.8 0,7.1 -6.8,15.1 -13.9,16.3 -8.2,1.3 -22.9,-5.2 -28.2,-12.4 -2.9,-3.8 -5.6,-3.9 -6.9,-0.3 -5.8,16.1 -20.4,23.9 -36.2,19.4 -8.3,-2.3 -16.8,-12 -16.8,-19.1 0,-0.9 -0.7,-2.4 -1.6,-3.1 -1.5,-1.2 -2,-1 -4.3,2 -12.5,16.3 -24.7,23.2 -41.2,23.2 -15.2,0 -24.7,-7.3 -26.5,-20.4 -0.7,-4.8 1.6,-10.6 5.5,-14.1 2.9,-2.6 2.7,-3.7 -1.4,-7.6 -4.4,-4.3 -5.3,-8.6 -3.1,-14.5 2.1,-5.4 6.6,-8.5 12.4,-8.5 5.3,0 8.2,1.2 12.7,5.1 3.6,3.2 3.8,3.2 5.1,1.4 0.8,-1 1.4,-3.5 1.4,-5.4 0.1,-7.8 5.9,-15.3 13.4,-17.2 4.5,-1.2 11.4,-0.2 16.1,2.2 z"
       id="path140-5"
       style="fill:#493323;fill-opacity:1;stroke:none;stroke-width:0.1;stroke-opacity:1" /><path
       d="m 4186.1885,-524.42935 c -0.2,0.7 1.3,4.4 3.5,8.3 2.1,3.8 5.2,9.4 6.7,12.4 3,5.6 5.7,7.4 6.8,4.4 0.7,-1.8 -3.7,-11.3 -9.6,-21 -3.2,-5.3 -6.3,-7 -7.4,-4.1 z"
       id="path142-3"
       style="fill:#493323;fill-opacity:1;stroke:none;stroke-width:0.1;stroke-opacity:1" /></g></svg>
