<?xml version="1.0" encoding="UTF-8" standalone="no"?>
<svg
   version="1.0"
   width="238.32756pt"
   height="171.88477pt"
   viewBox="0 0 238.32756 171.88476"
   preserveAspectRatio="xMidYMid"
   id="svg522"
   sodipodi:docname="iStock_1321221451_1733912860171 - VŠE.svg"
   inkscape:version="1.2 (dc2aedaf03, 2022-05-15)"
   xml:space="preserve"
   xmlns:inkscape="http://www.inkscape.org/namespaces/inkscape"
   xmlns:sodipodi="http://sodipodi.sourceforge.net/DTD/sodipodi-0.dtd"
   xmlns="http://www.w3.org/2000/svg"
   xmlns:svg="http://www.w3.org/2000/svg"><defs
     id="defs526" /><sodipodi:namedview
     id="namedview524"
     pagecolor="#ffffff"
     bordercolor="#666666"
     borderopacity="1.0"
     inkscape:showpageshadow="2"
     inkscape:pageopacity="0.0"
     inkscape:pagecheckerboard="0"
     inkscape:deskcolor="#d1d1d1"
     inkscape:document-units="pt"
     showgrid="false"
     inkscape:zoom="0.2503158"
     inkscape:cx="7166.9467"
     inkscape:cy="1300.3574"
     inkscape:window-width="1920"
     inkscape:window-height="1001"
     inkscape:window-x="-9"
     inkscape:window-y="-9"
     inkscape:window-maximized="1"
     inkscape:current-layer="svg522" /><metadata
     id="metadata2">
Created by potrace 1.16, written by Peter Selinger 2001-2019
</metadata><g
     id="g2713"
     transform="translate(-4346.3676,-534.4708)"
     style="fill:#493323;fill-opacity:1;stroke:none;stroke-opacity:1"><path
       d="m 4423.0851,535.6537 c -3.7,1.7 -7,5.2 -8.4,8.9 -1.3,3.5 -1.4,13.7 -0.2,17 0.9,2.4 0.9,2.4 -6.4,3 -4.3,0.3 -9.8,1.6 -13.6,3.1 -3.5,1.4 -6.4,2.4 -6.5,2.3 -0.1,-0.1 -1.2,-2.7 -2.4,-5.7 -4.8,-12.2 -13.4,-18.6 -24.1,-17.8 -6.2,0.5 -9.7,2.3 -13.2,7 -2.4,3.3 -2.6,11.2 -0.3,15.6 4.3,8.3 19,8.7 24.2,0.6 1.6,-2.3 1.6,-2.7 0.1,-4.1 -1.4,-1.5 -1.9,-1.3 -5.2,1.5 -8.6,7.6 -19.1,0.1 -14.4,-10.2 2.8,-6 12.9,-7.1 19.5,-2.1 3.9,3 8.9,11.2 9.9,16.2 0.5,2.9 0.1,3.9 -3.3,7.9 -9.9,11.2 -11.6,25.1 -4.9,39.8 3.3,7.2 9.5,13.2 17.2,16.7 5.4,2.4 6.3,3.2 6.9,6.1 3.4,17.4 17.9,37.5 35.1,48.8 18.3,11.9 37.2,16.2 70,16.1 38.6,-0.1 62.3,-5.3 71.3,-15.6 5.7,-6.4 3.2,-12.6 -5.7,-14.1 -7.7,-1.3 -7.7,-1.2 -1.8,-6.5 8.5,-7.6 13,-16.8 16.3,-33.4 2.9,-15.1 1.6,-29.7 -3.7,-41 -8.7,-18.4 -26.6,-32 -47.7,-36.5 -8.4,-1.7 -24.9,-0.8 -32.2,1.8 -13,4.7 -24.8,14.6 -30.7,25.7 -1.7,3.3 -6.6,16.8 -10.8,30 -8,25 -13.1,38.5 -14.5,38.5 -1.7,0 -9.3,-9.7 -12.2,-15.5 l -3,-6.1 5,-6.6 c 8.3,-10.9 11.8,-24 10.1,-36.6 -1.6,-11 -5.7,-16.5 -16.3,-21.9 -6,-3 -6.2,-3.3 -7.7,-10.1 -1.4,-6.7 -0.3,-12.9 2.7,-15.9 2.8,-2.8 10.6,-3.2 14.3,-0.7 2,1.5 2.2,2.1 1.6,6.5 -0.6,4.6 -0.5,4.9 1.5,4.9 3.2,0 5.5,-6 4,-10.5 -2.1,-6.4 -13.6,-10.4 -20.5,-7.1 z m 115.1,31.1 c 26.2,8.8 42.8,31.8 41.1,57 -0.8,11.6 -3.3,22 -7.1,30 -6.6,13.9 -15.6,19.6 -31.7,20.3 -15.2,0.7 -26.3,-3.4 -36.4,-13.2 -12.9,-12.6 -16.3,-32.3 -7.8,-45.4 3.5,-5.4 9.1,-8.7 16.9,-10.2 16.4,-3.1 31,3.2 34.9,15.1 1.9,5.7 1.6,11.6 -0.9,15.4 -3.8,5.8 -14.9,8.5 -21.3,5.1 -4,-2 -5.6,-4.9 -5.7,-10.1 -0.1,-3.1 -0.5,-4.1 -2,-4.3 -2.4,-0.5 -3.6,1.4 -3.6,5.6 0,13.1 17.4,20.6 30,12.9 7.7,-4.8 10.5,-10.5 9.8,-20.1 -0.9,-10.5 -6.5,-18.2 -16.7,-22.9 -3.8,-1.7 -6.6,-2.1 -16.6,-2.1 -10.6,-0.1 -12.6,0.2 -17.3,2.3 -9.6,4.3 -16.1,14.3 -17.7,27.1 -0.9,7.1 1.4,17.1 5.7,24.6 3.9,7 12.6,15.7 18.7,18.9 l 4.6,2.4 -8,0.1 c -17.8,0 -36.5,-3.9 -50.3,-10.7 -4,-1.9 -7.5,-3.9 -7.7,-4.3 -0.3,-0.4 0.9,-4 2.5,-8 1.6,-4 6.8,-19.1 11.6,-33.6 9.4,-28.8 12.2,-34.6 21,-42.3 14.2,-12.5 34.5,-16.1 54,-9.6 z m -114,6.3 c 11.1,5.7 13.8,10.2 13.9,23.2 0,11 -2.2,18.3 -8,26.2 -5.6,7.7 -10.2,10.1 -19.8,10.6 -20.2,1 -33.6,-10.6 -34.5,-29.9 -0.5,-9.2 1.4,-14.4 7.8,-21.3 8.2,-8.9 15.3,-11.7 28,-11.3 6.3,0.3 9.6,0.9 12.6,2.5 z m 2.5,69.8 c 7.3,14.3 21.1,25.4 39.5,31.6 15.3,5.1 24.3,6 62.9,6.1 27.1,0.2 36,0.5 39.3,1.6 2.3,0.8 4.2,1.7 4.2,2.1 0,2 -7,7.2 -12.7,9.5 -12.4,4.9 -27,6.8 -54.8,6.9 -27.7,0.1 -34,-0.6 -49.6,-5.8 -23,-7.7 -41.8,-25.4 -49.8,-46.9 -3,-8.2 -2.9,-8.7 2.2,-8.8 2.3,0 6.5,-0.7 9.2,-1.4 2.8,-0.7 5.3,-1.3 5.6,-1.4 0.4,0 2.2,2.9 4,6.5 z"
       id="path220-0"
       style="fill:#493323;fill-opacity:1;stroke:none;stroke-width:0.1;stroke-opacity:1" /><path
       d="m 4415.5851,595.7537 c -1.8,2.2 -0.1,5 3.1,5 2,0 2.4,-0.5 2.4,-3 0,-2.3 -0.5,-3.1 -2.1,-3.3 -1.1,-0.2 -2.7,0.4 -3.4,1.3 z"
       id="path222-6"
       style="fill:#493323;fill-opacity:1;stroke:none;stroke-width:0.1;stroke-opacity:1" /><path
       d="m 4390.9851,598.6537 c -1,2.6 0.1,5.1 2.4,5.4 2.6,0.4 4.7,-3.4 3,-5.6 -1.4,-1.6 -4.7,-1.5 -5.4,0.2 z"
       id="path224-7"
       style="fill:#493323;fill-opacity:1;stroke:none;stroke-width:0.1;stroke-opacity:1" /><path
       d="m 4417.8851,607.6537 c -4.3,4.9 -9.8,6.2 -16.9,4 -5.8,-1.8 -8.3,-1.1 -7,2.1 1.5,4.1 13.5,5.8 20.4,3 6.6,-2.8 11.3,-8.5 9.1,-11.1 -1.6,-2 -2.2,-1.8 -5.6,2 z"
       id="path226-7"
       style="fill:#493323;fill-opacity:1;stroke:none;stroke-width:0.1;stroke-opacity:1" /></g></svg>
