<?xml version="1.0" encoding="UTF-8" standalone="no"?>
<svg
   version="1.0"
   width="102.64249pt"
   height="135.24268pt"
   viewBox="0 0 102.64249 135.24267"
   preserveAspectRatio="xMidYMid"
   id="svg522"
   sodipodi:docname="iStock_1321221451_1733912860171 - VŠE.svg"
   inkscape:version="1.2 (dc2aedaf03, 2022-05-15)"
   xml:space="preserve"
   xmlns:inkscape="http://www.inkscape.org/namespaces/inkscape"
   xmlns:sodipodi="http://sodipodi.sourceforge.net/DTD/sodipodi-0.dtd"
   xmlns="http://www.w3.org/2000/svg"
   xmlns:svg="http://www.w3.org/2000/svg"><defs
     id="defs526" /><sodipodi:namedview
     id="namedview524"
     pagecolor="#ffffff"
     bordercolor="#666666"
     borderopacity="1.0"
     inkscape:showpageshadow="2"
     inkscape:pageopacity="0.0"
     inkscape:pagecheckerboard="0"
     inkscape:deskcolor="#d1d1d1"
     inkscape:document-units="pt"
     showgrid="false"
     inkscape:zoom="0.1251579"
     inkscape:cx="-1877.6282"
     inkscape:cy="5413.1621"
     inkscape:window-width="1920"
     inkscape:window-height="1001"
     inkscape:window-x="-9"
     inkscape:window-y="-9"
     inkscape:window-maximized="1"
     inkscape:current-layer="svg522" /><metadata
     id="metadata2">
Created by potrace 1.16, written by Peter Selinger 2001-2019
</metadata><g
     id="g2870"
     transform="translate(-5282.805,-1317.882)"
     style="fill:#493323;fill-opacity:1"><path
       d="m 5326.6851,1318.2537 c -7.1,1.7 -11.6,6.9 -13.4,15.6 -1.2,6.1 -1.2,6.1 -2.9,3.9 -2.5,-3.3 -10.8,-8.5 -13.5,-8.5 -5.6,0 -12.7,6.4 -13.9,12.5 -0.8,4.6 1.1,10 5,13.7 1.8,1.7 8.2,6.1 14.2,9.8 l 11,6.6 -3.9,2.5 c -5.9,3.7 -13.3,12.2 -16.7,19.5 -4.2,8.7 -5.5,17 -4,25.9 0.8,4.6 0.8,7.9 0.2,9.5 -0.5,1.4 -0.7,3.1 -0.5,3.7 0.6,1.8 4.2,1.6 4.9,-0.1 0.5,-1.2 1.4,-0.9 4.7,1.5 2.2,1.6 7.2,3.9 10.9,5 l 6.9,2.1 -2.7,4.5 c -2.4,4.1 -2.5,4.7 -1.1,6.1 2,1.9 3.6,0.8 7.2,-5.4 3.2,-5.5 4.8,-5.7 3.9,-0.7 -0.3,2.1 -0.6,4 -0.6,4.3 0,2.5 0.5,3.1 2.4,2.8 2.1,-0.3 2.3,-0.7 4.2,-8.9 0.4,-2.1 1.4,-2.7 5.7,-3.7 8.9,-2.1 24.8,-11.1 30.3,-17.1 l 1.9,-2.1 4.3,4 c 4.6,4.3 7.1,5 8.1,2.4 0.4,-1 -1.1,-3.2 -4.3,-6.5 -2.6,-2.6 -4.5,-5.1 -4.1,-5.5 0.3,-0.3 3.1,0.4 6.1,1.6 3,1.3 6.2,2 7.1,1.6 2.5,-0.9 1.4,-3.9 -2,-5.4 -6.8,-2.9 -8,-3.8 -7.6,-5.8 0.2,-1 0.5,-6.6 0.7,-12.4 l 0.3,-10.5 5.1,-2.3 c 8.9,-3.9 4.3,-7.9 -4.7,-4.1 -3.2,1.3 -3.4,1.2 -7.5,-2.8 -4.7,-4.6 -11.8,-8.4 -18.8,-10.3 -4.3,-1.2 -14.4,-0.8 -20,0.7 -2.5,0.7 -2.5,0.6 -0.8,-1.8 7.8,-11 14.8,-26.5 14.8,-32.6 0,-9 -8.1,-15.3 -16.9,-13.3 z m 7.3,6.1 c 3.7,1.7 5,5.7 3.6,11 -1.6,5.7 -6.2,14.8 -11.8,23.3 l -4.6,6.8 -0.9,-2.8 c -0.6,-1.6 -1,-9.4 -1.1,-17.4 -0.1,-13 0.1,-14.8 1.9,-17.2 3.4,-4.6 8,-5.9 12.9,-3.7 z m -31.1,14 c 6.3,5.2 9.6,11 11.1,19.6 0.7,4.3 1.2,7.9 1.1,8.1 -0.6,0.6 -19.9,-11.4 -23.1,-14.4 -3.8,-3.5 -4.4,-7.5 -1.9,-12.4 2.6,-5 7.4,-5.3 12.8,-0.9 z m 43.2,36 c 9.5,8.8 14.3,19.8 15.2,34.9 l 0.6,9.6 -3.4,2.8 -3.4,2.9 -1.1,-8.4 c -0.6,-4.6 -1.6,-10.4 -2.3,-12.9 -2.7,-9.2 -11.3,-24.3 -17,-29.4 -2.7,-2.5 -1.8,-3.6 3,-3.6 3.2,0 4.7,0.7 8.4,4.1 z m 19.2,6.2 c 2.8,3.1 4.3,5.7 4.8,8.6 0.8,5.1 -0.1,13.4 -2,17.6 l -1.3,3 -0.1,-4.3 c -0.2,-8.9 -4.4,-19.8 -11.3,-29 l -3.9,-5.3 4.8,2.5 c 2.7,1.3 6.7,4.4 9,6.9 z m -32.5,-0.9 c 10,12.5 15.8,27.6 15.8,41.4 0,6.5 -0.2,7.3 -2.5,8.8 -3.3,2.2 -4.1,1.3 -4.8,-4.8 -1.4,-13.2 -10.2,-32.4 -19.9,-43.2 l -4.9,-5.5 3.3,-1.5 c 5.6,-2.5 7.8,-1.7 13,4.8 z m -13.2,8.7 c 9.7,12.9 17,31 17,42 0,3.6 -0.2,3.9 -4.2,5 -5.3,1.4 -17.7,0.6 -23.9,-1.6 -6.4,-2.2 -12.6,-7.7 -13.9,-12.3 -1.7,-6.3 -1.2,-15.4 1.2,-21.3 4,-9.9 13.4,-21.4 16.5,-20.2 0.7,0.3 4,4.1 7.3,8.4 z"
       id="path408-9"
       style="fill:#493323;fill-opacity:1;stroke:none;stroke-width:0.1" /><path
       d="m 5303.7851,1403.4537 c -1.9,1.9 -1.4,5.6 0.8,6.8 3.8,2.1 8,-2.2 6,-6.1 -1.2,-2.1 -5,-2.5 -6.8,-0.7 z"
       id="path410-7"
       style="fill:#493323;fill-opacity:1;stroke:none;stroke-width:0.1" /></g></svg>
