<?xml version="1.0" encoding="UTF-8" standalone="no"?>
<svg
   version="1.0"
   width="236.10008pt"
   height="547.35303pt"
   viewBox="0 0 236.10008 547.35302"
   preserveAspectRatio="xMidYMid"
   id="svg522"
   sodipodi:docname="iStock_1321221451_1733912860171 - VŠE.svg"
   inkscape:version="1.2 (dc2aedaf03, 2022-05-15)"
   xml:space="preserve"
   xmlns:inkscape="http://www.inkscape.org/namespaces/inkscape"
   xmlns:sodipodi="http://sodipodi.sourceforge.net/DTD/sodipodi-0.dtd"
   xmlns="http://www.w3.org/2000/svg"
   xmlns:svg="http://www.w3.org/2000/svg"><defs
     id="defs526" /><sodipodi:namedview
     id="namedview524"
     pagecolor="#ffffff"
     bordercolor="#666666"
     borderopacity="1.0"
     inkscape:showpageshadow="2"
     inkscape:pageopacity="0.0"
     inkscape:pagecheckerboard="0"
     inkscape:deskcolor="#d1d1d1"
     inkscape:document-units="pt"
     showgrid="false"
     inkscape:zoom="0.2503158"
     inkscape:cx="7166.9467"
     inkscape:cy="1300.3574"
     inkscape:window-width="1920"
     inkscape:window-height="1001"
     inkscape:window-x="-9"
     inkscape:window-y="-9"
     inkscape:window-maximized="1"
     inkscape:current-layer="svg522" /><metadata
     id="metadata2">
Created by potrace 1.16, written by Peter Selinger 2001-2019
</metadata><g
     id="g2592"
     transform="translate(-3426.4851,-568.25394)"
     style="fill:#493323;fill-opacity:1;stroke:none;stroke-opacity:1"><path
       d="m 3517.9851,589.4537 c -12.7,22.9 -44.7,78.5 -73.6,128 l -17.9,30.7 3.5,57.8 c 9.8,158.5 14.6,253.6 14.6,291.4 0,12.1 0.3,16.9 1.3,17.7 0.8,0.7 6.1,0.7 16.2,0.2 33.4,-2 90.7,-3.2 136.5,-2.8 26.7,0.1 49.1,-0.1 49.8,-0.6 1,-0.6 1.2,-2 0.8,-5 -1.8,-11.6 7.4,-275.1 12.4,-357.6 l 1,-16.4 -5.3,-5.6 c -15.5,-16.1 -34.5,-40 -80.7,-101.5 -37.7,-50.2 -43.4,-57.5 -45.4,-57.5 -0.8,0 -6.7,9.6 -13.2,21.2 z m 53.2,38.5 c 38.5,51.2 58.4,76.8 73.1,93.5 5.2,6 8.9,10.8 8.4,10.8 -0.6,0 -8.4,0.7 -17.3,1.5 -25.4,2.3 -199.6,12.1 -200.3,11.3 -0.1,-0.2 7.5,-13.4 16.8,-29.3 26.3,-45 56.8,-98 69,-119.8 l 11.1,-19.9 1.8,2.4 c 1,1.3 17.8,23.5 37.4,49.5 z m 85,118.5 c -3,43.5 -11.1,257.1 -12.3,323 l -0.6,37.7 h -60.1 c -54.8,0 -103.1,1.1 -124.3,2.7 l -8.3,0.6 v -3.8 c -0.2,-37.7 -5.5,-147.1 -14,-284.5 -2.2,-35.5 -4,-65.9 -4,-67.6 0,-3 0.1,-3.1 6.3,-3.7 3.4,-0.3 32.3,-2 64.2,-3.6 89.5,-4.6 147.1,-8.4 148.4,-9.6 0.2,-0.2 1.5,-0.4 2.9,-0.4 h 2.5 z"
       id="path258-1"
       style="fill:#493323;fill-opacity:1;stroke:none;stroke-width:0.1;stroke-opacity:1" /><path
       d="m 3553.2851,621.9537 c -0.4,0.3 -0.7,2.8 -0.7,5.5 0,4.1 -0.5,5.4 -2.8,7.8 -3.1,3.1 -8.6,4.6 -12.8,3.6 -2.5,-0.7 -3.7,-1.8 -8.3,-7.6 l -2,-2.5 -3.8,4.4 c -2.9,3.3 -4.4,4.2 -6.3,4 -2.2,-0.4 -2.6,-1 -3,-4.9 -0.5,-4.2 -0.9,-4.6 -4,-4.2 -1.8,0.3 -2.2,6.8 -0.6,10 3,5.8 9.4,7 14.4,2.7 l 3,-2.5 2.8,2.5 c 9.3,8.7 27.1,2.6 29,-10 0.9,-6.6 -2,-11.8 -4.9,-8.8 z"
       id="path260-2"
       style="fill:#493323;fill-opacity:1;stroke:none;stroke-width:0.1;stroke-opacity:1" /><path
       d="m 3580.2851,663.9537 c -0.3,1 -0.8,3 -1.1,4.5 -1,4.3 -6.2,9.6 -10.3,10.4 -6.4,1.2 -13.7,-2.6 -16.9,-8.9 -1.8,-3.3 -5.1,-3.6 -6.3,-0.5 -1.4,3.7 -6.1,7.7 -9.7,8.4 -4,0.7 -7,-0.9 -11,-6.1 -3.2,-4.2 -4.9,-4.4 -6.8,-0.8 -3.7,7.1 -12,11.9 -17.8,10.3 -4.5,-1.3 -7,-4.1 -7.7,-8.8 -0.5,-2.8 -1.1,-3.7 -2.6,-3.7 -1.7,0 -2,0.7 -2,5.2 0.1,4.1 0.6,5.8 2.5,7.9 7,7.6 17.7,7.2 26.9,-1.1 l 4,-3.7 3.8,3.1 c 3.1,2.6 4.6,3.1 8.8,3.1 5.1,0 10.7,-2.5 13.2,-5.9 1,-1.4 1.4,-1.3 4,1 9,8.5 19.8,8.7 27.9,0.5 4.1,-4 6.9,-10.6 6.2,-14.4 -0.5,-2.4 -4.5,-2.8 -5.1,-0.5 z"
       id="path262-6"
       style="fill:#493323;fill-opacity:1;stroke:none;stroke-width:0.1;stroke-opacity:1" /><path
       d="m 3608.2851,690.8537 c -0.4,0.4 -0.7,2.7 -0.7,5.1 0,5.1 -1.9,10 -4.9,12.7 -4.8,4.4 -17.8,2.9 -26.3,-3 -2,-1.4 -4.2,-2.4 -4.8,-2.2 -0.6,0.2 -2.1,2.8 -3.3,5.8 -1.8,4.6 -2.9,5.9 -6.6,7.7 -6.4,3.2 -14.1,1.1 -20.5,-5.6 -1.7,-1.7 -3.6,-3.1 -4.3,-3.1 -0.7,0 -2.2,1.8 -3.3,3.9 -3.6,7.3 -9.9,9.5 -17.8,6.6 -5,-1.9 -10.8,-6.7 -11.8,-9.7 -0.9,-3.1 -4.4,-2.2 -5.9,1.7 -3.6,8.5 -12.7,14.4 -19.9,13.1 -6.5,-1.2 -11.2,-6.7 -12.1,-14 -0.8,-5.8 -5.5,-5.1 -5.5,0.8 0,4.5 3.9,11.5 8.3,15 3.6,2.9 4.5,3.1 11.5,3.1 6.8,0 8.3,-0.4 12.2,-2.9 2.6,-1.6 5.6,-4.4 6.9,-6.3 l 2.3,-3.5 2.6,2.5 c 9,8.6 25.3,8.9 31.4,0.6 l 2.1,-2.8 3.2,2.4 c 4,3.1 10.7,5.5 15.5,5.5 6.5,0 15.2,-6.1 17.2,-12.1 0.2,-0.6 2.9,0.2 6.1,1.6 12,5.5 23.2,4 29.3,-4.1 2.6,-3.4 2.9,-4.5 2.9,-11.3 0,-6 -0.3,-7.6 -1.5,-7.9 -0.9,-0.1 -1.9,0 -2.3,0.4 z"
       id="path264-8"
       style="fill:#493323;fill-opacity:1;stroke:none;stroke-width:0.1;stroke-opacity:1" /><path
       d="m 3602.5851,785.2537 c -3.6,0.4 -13.1,1.1 -21.3,1.5 -8.1,0.4 -14.9,1.1 -15.2,1.5 -0.2,0.3 0.2,6 1,12.6 0.7,6.5 1.9,21.3 2.6,32.8 0.9,15.5 1.6,20.9 2.6,21.3 1.6,0.6 44.1,-1.2 44.8,-1.9 0.3,-0.3 0.1,-9.5 -0.5,-20.4 -0.6,-11 -1.4,-26.2 -1.8,-33.9 l -0.7,-14 -2.5,-0.1 c -1.4,-0.1 -5.4,0.2 -9,0.6 z m 7.4,25 c 0.3,11 0.9,24 1.3,28.9 l 0.6,8.8 -10.4,0.7 c -5.7,0.3 -13.8,0.7 -17.9,0.8 l -7.5,0.3 -0.2,-6 c -0.5,-10.2 -3.4,-46.9 -4,-49.3 -0.5,-2.2 -0.4,-2.2 9.3,-2.3 5.5,-0.1 13.1,-0.5 16.9,-0.9 3.9,-0.4 7.9,-0.8 9.1,-0.8 2,-0.2 2.1,0.3 2.8,19.8 z"
       id="path266-6"
       style="fill:#493323;fill-opacity:1;stroke:none;stroke-width:0.1;stroke-opacity:1" /><path
       d="m 3503.5851,795.8537 c -0.8,0.2 -9,0.8 -18.3,1.2 -9.2,0.5 -17,1.2 -17.4,1.5 -0.3,0.4 0.2,8 1.1,16.9 1,9 2,22.9 2.3,31 0.4,9.5 1,15.1 1.8,15.8 0.7,0.6 3.3,0.6 7.1,0 3.2,-0.5 11.9,-1.4 19.3,-2 7.4,-0.5 13.8,-1.3 14.2,-1.7 0.4,-0.5 0.4,-14.8 0,-31.8 l -0.6,-31 -4,-0.2 c -2.2,0 -4.7,0.1 -5.5,0.3 z m 4,13.1 c 0,4.3 0.3,16.2 0.7,26.4 l 0.6,18.6 -14.1,1.1 c -7.8,0.7 -14.7,1.5 -15.5,1.8 -1.2,0.4 -1.6,-1.5 -2.1,-10.3 -0.4,-5.9 -1.4,-17.9 -2.2,-26.6 -0.9,-8.8 -1.4,-16 -1.2,-16.2 0.3,-0.3 21.9,-2 30.6,-2.4 l 3.2,-0.1 z"
       id="path268-5"
       style="fill:#493323;fill-opacity:1;stroke:none;stroke-width:0.1;stroke-opacity:1" /><path
       d="m 3596.0851,896.7537 c -7.1,0.7 -16.4,1.3 -20.6,1.4 -4.8,0.1 -8,0.6 -8.7,1.3 -0.7,0.9 -0.6,5.3 0.3,13.8 0.7,6.9 1.8,20.8 2.5,31 0.7,12.5 1.5,18.9 2.4,19.8 1.1,1.1 4.8,1.2 20.6,0.2 10.6,-0.6 20.2,-1.6 21.3,-2.1 1.4,-0.8 1.7,-1.7 1.2,-3.2 -0.4,-1.2 -0.9,-15.5 -1.2,-31.7 -0.5,-28.4 -0.9,-32.2 -3.7,-31.8 -0.6,0 -6.9,0.7 -14.1,1.3 z m 11.9,31 c 0.4,14.6 0.9,27.1 1.2,27.9 0.8,2.1 -1.4,2.5 -18.1,3.2 l -15.5,0.7 v -5.4 c 0,-6.6 -2.8,-43.4 -3.6,-47.1 -0.6,-3.1 -0.6,-3.1 20.6,-4.6 6.9,-0.5 13,-1 13.6,-1 0.7,-0.1 1.3,8.1 1.8,26.3 z"
       id="path270-4"
       style="fill:#493323;fill-opacity:1;stroke:none;stroke-width:0.1;stroke-opacity:1" /><path
       d="m 3498.0851,899.4537 c -11.3,0.6 -18.4,1.4 -19.1,2.1 -1.4,1.5 0.1,68.6 1.5,70 0.6,0.6 7.1,0.5 17.3,-0.2 17.7,-1.3 24.4,-2.3 26,-3.9 0.6,-0.6 0.6,-6.4 -0.1,-17.3 -0.6,-9 -1.3,-24.1 -1.7,-33.4 -0.7,-16.9 -1.1,-18.6 -4.4,-18.3 -0.8,0 -9.6,0.5 -19.5,1 z m 18.8,24.5 c 0.4,10.9 1,24.3 1.3,29.9 l 0.7,10.1 -6.1,0.6 c -3.4,0.4 -11.1,1 -17.1,1.3 l -11.1,0.7 v -15.5 c 0,-8.5 -0.3,-22.3 -0.7,-30.6 l -0.6,-15.1 12.4,-0.4 c 6.8,-0.1 14.2,-0.4 16.5,-0.5 l 4.1,-0.2 z"
       id="path272-8"
       style="fill:#493323;fill-opacity:1;stroke:none;stroke-width:0.1;stroke-opacity:1" /><path
       d="m 3572.3851,1011.9537 c -0.3,0.5 -0.2,15.2 0.1,32.8 l 0.6,32 19.9,0.3 c 11,0.1 20.4,-0.2 20.9,-0.7 0.5,-0.5 0.9,-15.2 0.9,-32.7 v -31.9 l -21,-0.3 c -11.6,-0.1 -21.2,0.1 -21.4,0.5 z m 37.2,32 v 27.2 l -15.2,0.3 c -8.4,0.2 -15.4,0.3 -15.4,0.3 -0.1,0 -0.5,-12.4 -0.9,-27.6 l -0.7,-27.6 h 16.1 l 16.1,0.1 z"
       id="path274-3"
       style="fill:#493323;fill-opacity:1;stroke:none;stroke-width:0.1;stroke-opacity:1" /><path
       d="m 3495.8851,1013.9537 c -7.6,0.3 -11.2,0.7 -11.5,1.6 -0.1,0.7 -0.1,15.1 0.2,32.2 l 0.5,31 21.5,-0.4 c 12.5,-0.2 22,-0.8 22.8,-1.3 0.9,-0.8 1.2,-8.1 1,-32.2 l -0.3,-31.1 -11.5,-0.1 c -6.3,0 -16.5,0.1 -22.7,0.3 z m 28.7,31.1 v 26.9 l -16.7,0.6 c -9.1,0.4 -16.7,0.6 -16.8,0.5 -0.1,-0.2 -0.5,-12.3 -0.8,-27 l -0.7,-26.8 16.3,-0.3 c 8.9,-0.1 16.8,-0.4 17.5,-0.5 0.9,-0.2 1.2,5.7 1.2,26.6 z"
       id="path276-1"
       style="fill:#493323;fill-opacity:1;stroke:none;stroke-width:0.1;stroke-opacity:1" /></g></svg>
