<?xml version="1.0" encoding="UTF-8" standalone="no"?>
<svg
   version="1.0"
   width="284.39044pt"
   height="212.05908pt"
   viewBox="0 0 284.39044 212.05908"
   preserveAspectRatio="xMidYMid"
   id="svg522"
   sodipodi:docname="iStock_1321221451_1733912860171 - VŠE.svg"
   inkscape:version="1.2 (dc2aedaf03, 2022-05-15)"
   xml:space="preserve"
   xmlns:inkscape="http://www.inkscape.org/namespaces/inkscape"
   xmlns:sodipodi="http://sodipodi.sourceforge.net/DTD/sodipodi-0.dtd"
   xmlns="http://www.w3.org/2000/svg"
   xmlns:svg="http://www.w3.org/2000/svg"><defs
     id="defs526" /><sodipodi:namedview
     id="namedview524"
     pagecolor="#ffffff"
     bordercolor="#666666"
     borderopacity="1.0"
     inkscape:showpageshadow="2"
     inkscape:pageopacity="0.0"
     inkscape:pagecheckerboard="0"
     inkscape:deskcolor="#d1d1d1"
     inkscape:document-units="pt"
     showgrid="false"
     inkscape:zoom="0.2503158"
     inkscape:cx="7166.9467"
     inkscape:cy="1300.3574"
     inkscape:window-width="1920"
     inkscape:window-height="1001"
     inkscape:window-x="-9"
     inkscape:window-y="-9"
     inkscape:window-maximized="1"
     inkscape:current-layer="svg522" /><metadata
     id="metadata2">
Created by potrace 1.16, written by Peter Selinger 2001-2019
</metadata><g
     id="g2910"
     transform="translate(-5196.8097,-838.59446)"
     style="fill:#493323;fill-opacity:1;stroke:none;stroke-opacity:1"><path
       d="m 5379.7851,839.6537 c -2.3,0.8 -5.3,2.1 -6.6,2.9 -2,1.4 -2.9,1.3 -9.2,-0.4 -8.4,-2.3 -22.9,-2.5 -32.8,-0.4 -6,1.3 -7.2,1.3 -10.3,0 -4.7,-2 -13.8,-1.9 -20.2,0.2 -10.8,3.5 -17.4,12.9 -17.6,25.3 -0.1,5.4 -0.7,7.6 -3.2,12 -4.4,7.7 -8.7,19 -11.3,29.5 l -2.2,9 -7.6,-3.7 c -12.2,-6 -20.7,-7.1 -31.7,-4.3 -6.6,1.7 -12,5.5 -14.9,10.4 -3.6,6.1 -2,20.5 3.4,31.2 2.8,5.5 15.4,18 24,24 3.6,2.4 6.6,5.2 6.8,6.1 0.4,1.9 -5.4,5.6 -14.9,9.4 -4.9,2 -9,2.8 -17.8,3.3 -11.3,0.7 -11.4,0.7 -14.3,4 -2.4,2.7 -2.9,3.9 -2.4,6.5 0.3,1.7 1.8,4.2 3.3,5.5 2.5,2.1 2.8,3 2.5,7.2 -0.3,4.1 0,5.2 2.3,7.5 2.3,2.3 3.3,2.6 7,2.2 4.1,-0.5 4.4,-0.3 5.6,2.4 2.2,5.3 7.9,6.4 12.5,2.5 1.5,-1.3 3.7,-5 4.8,-8.2 2.1,-5.8 2.2,-6 10.1,-10 4.4,-2.2 13.1,-6.3 19.4,-9 l 11.5,-4.9 2,2.9 c 3.1,4.3 9.6,10.3 12.8,11.6 1.5,0.6 2.8,1.8 2.8,2.6 0,0.8 -2.7,4 -5.9,7 -9.1,8.4 -11.2,16.2 -5.8,22 2.5,2.8 7.6,3 11.7,0.6 2.8,-1.6 2.9,-1.6 5.3,1.2 1.8,2.2 3.3,2.9 6,2.9 3.7,0 7.7,-2.6 7.7,-5.1 0,-1.7 0.5,-1.6 3.5,0.3 3.9,2.5 8.5,2.1 11.2,-1 3.2,-3.7 3,-8.4 -0.8,-15.7 -1.7,-3.4 -2.9,-6.3 -2.7,-6.4 0.4,-0.4 30.2,1.6 30.7,2.1 0.2,0.2 -0.6,2.6 -1.8,5.3 -3.2,7.4 -2.8,11.6 1.3,15.7 4.3,4.3 7.4,4.4 12.1,0.3 3.5,-3.1 3.6,-3.1 6.9,-1.5 5.1,2.4 9.1,2.1 11.5,-1 1.2,-1.5 2.1,-3.3 2.1,-4 0,-1 0.6,-1.1 2.6,-0.4 9.3,3.6 15,-4.6 8.8,-12.7 -1.4,-1.8 -5,-4.6 -8.1,-6.1 l -5.6,-2.9 4.5,-2.6 c 4.8,-2.8 10.3,-8.4 13.4,-13.5 1,-1.8 2.2,-3.2 2.7,-3.2 1.6,0 29.4,13.1 32.8,15.4 2.3,1.6 4.1,4.2 5.9,8.7 2,5.2 3.2,6.8 6.3,8.4 3.4,1.8 3.9,1.9 6.4,0.5 1.6,-0.8 3.5,-3 4.3,-4.7 1.3,-2.9 2,-3.3 5.7,-3.3 6.1,0 9.9,-4.7 8.7,-10.9 -0.5,-2.4 -0.2,-3 1.6,-3.6 3.1,-1 5.5,-6.5 4.3,-10.1 -1.7,-5.2 -4.9,-6.5 -17.4,-7.4 -12,-0.8 -18.9,-2.7 -27.9,-7.6 -2.9,-1.6 -5,-3.4 -5,-4.4 0,-0.9 4.2,-4.5 10.2,-8.6 21.1,-14.3 31.8,-28.2 32.1,-41.4 0.1,-5.1 -0.2,-6.3 -2.9,-9.6 -5.7,-7 -17.7,-11.2 -28.9,-10 -4,0.4 -8.5,1.9 -13.6,4.4 l -7.7,3.8 -1.2,-7.5 c -1.4,-8.8 -4.4,-19 -7.2,-24.4 -1.9,-3.8 -1.9,-3.8 0.2,-6.4 6.9,-8.8 5.9,-24.7 -2.2,-33 -6.3,-6.5 -20.6,-9.8 -29.6,-6.9 z m 20.8,7.2 c 1.8,1 4.7,3.6 6.4,5.7 2.9,3.6 3.1,4.5 3.1,11.6 0,6.8 -0.3,8.3 -2.8,12 -7.3,11.1 -25.6,12.1 -34.1,2 -4.5,-5.3 -5.9,-9.5 -5.4,-16.5 0.5,-7.4 3.8,-12.6 10.2,-15.5 5.4,-2.6 17.7,-2.2 22.6,0.7 z m -82.2,-0.3 c 7.5,2.8 13.3,11.5 13.3,20.2 0,19.3 -23.6,28.6 -37.5,14.8 -7.4,-7.4 -7.5,-21.4 -0.3,-29.1 5.7,-6.2 16.5,-8.7 24.5,-5.9 z m 44.3,0.8 3.5,1.1 -1.9,4 c -4.2,8.4 -2.8,19.6 3.6,28 7.7,10.1 23.1,13.3 35,7.1 2.7,-1.4 2.8,-1.3 4.6,3 1,2.4 2.9,8.4 4.1,13.3 3.9,15.6 2.4,40.7 -4,66.3 -5.6,22.2 -10.5,31.7 -20,38.9 l -4.5,3.5 -0.3,-5.9 c -0.2,-3.3 0.1,-12.5 0.7,-20.7 1.2,-15.8 1.3,-33.3 0.2,-38.2 -0.4,-2.1 -1.3,-3.1 -2.8,-3.3 l -2.3,-0.3 0.1,16.8 c 0,9.2 -0.5,24 -1.2,32.7 -1.7,23.4 -0.7,26.9 8.5,31 4.7,2.1 9.6,6.5 9.6,8.7 0,1.4 -3.9,1 -7.6,-0.7 -4.3,-2.1 -6.4,-1.3 -6.4,2.4 0,1.5 -0.6,3.6 -1.3,4.6 -1.2,1.6 -1.7,1.7 -3.8,0.6 -1.3,-0.7 -3.6,-2.4 -5.1,-3.7 -3,-2.9 -4.1,-2.5 -6.4,2.2 -1.7,3.6 -3.7,4.9 -6.4,4 -3.1,-1 -3,-4.5 0.2,-12.9 l 3.1,-8 -2.7,-13.6 c -3.4,-17.1 -5.3,-31.6 -6.1,-45.2 -0.7,-10.9 -1.9,-13.5 -4.6,-10.2 -2.4,2.9 0.3,32 5.1,54.9 1.1,5.4 2,10 2,10.2 0,0.5 -17.7,0.1 -25.5,-0.6 -8.3,-0.7 -8.2,2.7 -1.5,-28.1 6.9,-31.6 7.7,-36.8 5.9,-38.5 -2.4,-2.4 -3.8,-0.2 -5.4,8.6 -0.8,4.7 -3.7,19 -6.5,31.9 -2.8,12.9 -5.1,25.3 -5.1,27.5 -0.1,2.5 1.3,6.8 3.6,11.7 3.9,8.2 4,11.8 0.3,11.8 -1.1,0 -3.7,-1.8 -5.8,-4.1 -3.4,-3.8 -3.8,-3.9 -5.3,-2.4 -1,0.9 -1.7,2.6 -1.7,3.9 0,1.2 -0.6,3.1 -1.4,4.2 -2,2.7 -4.8,0.8 -6.2,-4.1 -0.6,-2.2 -1.6,-4.1 -2.3,-4.3 -0.7,-0.2 -2.9,1.4 -5,3.7 -5.5,5.9 -9.1,5.3 -9.1,-1.6 0,-1.8 2.1,-4.7 7.3,-10 l 7.2,-7.5 0.7,-33.1 c 0.3,-18.3 0.9,-35.1 1.3,-37.4 0.6,-3.5 0.5,-4.4 -0.9,-4.9 -1,-0.4 -2.2,-0.2 -2.7,0.3 -2.1,2.1 -3,14 -3,38.5 0,17.2 -0.4,25.8 -1.1,25.8 -2,0 -6.8,-4.2 -9.8,-8.4 -3.4,-5 -6.1,-14.2 -9.2,-31.1 -1.8,-9.8 -2.2,-15.8 -2.3,-33 0,-18.9 0.2,-21.8 2.3,-29 2.4,-8.7 6.5,-19.2 9.5,-24.2 l 1.8,-3.2 3.6,4 c 5,5.6 10.5,8.1 18.5,8.7 13,0.9 21.6,-4 26.9,-15.2 4.3,-9.2 3.4,-19.3 -2.5,-27.1 l -2.6,-3.4 4.7,-0.6 c 2.7,-0.4 5.3,-0.8 5.8,-1.1 1.9,-0.7 19,0.5 22.6,1.7 z m -112.7,68.9 c 3.1,1 7.8,3.1 10.5,4.6 l 4.8,2.7 0.6,16.6 c 0.4,9.1 0.5,16.6 0.3,16.8 -0.1,0.2 -5,-4.4 -10.7,-10.2 -10.4,-10.5 -13.9,-12.6 -13.9,-8.3 0,1.6 3.9,6.2 13.3,15.3 l 13.3,13 2.8,13.8 c 1.6,7.6 2.7,14 2.5,14.1 -0.2,0.2 -6.2,3 -13.4,6.1 -25.5,11.2 -27,12.3 -30.5,21.7 -1.1,3.1 -2.8,5.9 -3.8,6.3 -2.3,0.9 -4.2,-2.1 -4.2,-6.7 0,-3.1 -0.4,-3.8 -1.9,-3.8 -1,0 -2.4,0.6 -3,1.4 -1.6,2 -6.9,2.5 -8.3,0.9 -0.8,-1 -0.6,-2.5 0.7,-5.8 2,-5.3 1.5,-7.5 -1.8,-7.5 -2.7,0 -4.7,-1.7 -4.7,-4.1 0,-2.8 1.7,-3.3 12,-3.5 7.4,-0.2 11,-0.8 16.3,-2.8 17.5,-6.6 24,-12.4 20.7,-18.4 -0.8,-1.4 -5.3,-5.3 -10,-8.6 -14.5,-10.3 -21.7,-19 -24.6,-29.8 -3.2,-12.2 -1.1,-19.3 6.9,-23.3 6.6,-3.2 17.5,-3.5 26.1,-0.5 z m 209.3,1.9 c 6.3,3.2 8.6,6.7 8.1,12.2 -0.3,2.5 -1.5,6.8 -2.8,9.5 -3.3,6.8 -15.5,18.6 -28.1,27.2 -10.4,7 -11.9,8.5 -11.9,12.1 0,4.9 8.6,10.6 23.4,15.6 5.7,1.9 9.5,2.5 16.4,2.5 6.6,0 9.3,0.4 10.2,1.5 1.9,2.3 0.7,4.7 -3,6 -2.9,1 -3.4,1.7 -3.2,3.6 1,7.6 0.7,9.4 -1.5,9.7 -1.2,0.2 -3.4,-0.3 -5,-1.1 -3.8,-1.9 -5.3,-1.2 -5.3,2.8 0,4.6 -0.9,6.5 -3,6.5 -2.4,0 -3.4,-1.5 -5.5,-7.8 -2.3,-7.3 -7.1,-10.5 -31.9,-21.4 -5,-2.2 -9.2,-4.1 -9.3,-4.2 -0.1,-0.1 1.1,-4.3 2.7,-9.3 1.5,-5.1 3.6,-12.5 4.5,-16.6 1.6,-7.3 1.7,-7.5 7.8,-12 10.7,-7.8 18.1,-15.1 17.4,-17 -1.1,-2.9 -3.7,-1.9 -9.7,3.7 -3.2,2.9 -7.3,6.4 -9.1,7.7 l -3.2,2.3 0.6,-5.5 c 0.4,-3 0.9,-9.1 1.3,-13.5 l 0.7,-8.1 6.1,-3.6 c 11.9,-6.9 23.5,-7.9 33.3,-2.8 z"
       id="path298-7"
       style="fill:#493323;fill-opacity:1;stroke:none;stroke-width:0.1;stroke-opacity:1" /><path
       d="m 5384.1851,858.3537 c -5.4,4.3 -2.3,12.9 4.7,12.9 6.9,0 10.1,-7.7 5.2,-12.5 -3,-3 -6.4,-3.2 -9.9,-0.4 z"
       id="path300-3"
       style="fill:#493323;fill-opacity:1;stroke:none;stroke-width:0.1;stroke-opacity:1" /><path
       d="m 5305.0851,861.7537 c -3.2,3.1 -3.3,7.4 -0.2,10.3 4.8,4.6 12.7,1.2 12.7,-5.4 0,-6.8 -7.7,-9.8 -12.5,-4.9 z"
       id="path302-5"
       style="fill:#493323;fill-opacity:1;stroke:none;stroke-width:0.1;stroke-opacity:1" /><path
       d="m 5361.1851,901.7537 c -0.9,0.9 -1.6,2.2 -1.6,2.9 0,2.2 -5.6,6.7 -9.1,7.2 -4.8,0.8 -10.4,-1.7 -12.4,-5.6 -1.8,-3.4 -4.7,-3.8 -5.3,-0.6 -1.1,5.5 7.2,11.6 15.7,11.6 6,0 9.8,-1.7 13.5,-6 3.4,-4.1 4.3,-7.7 2.4,-9.7 -1.3,-1.3 -1.7,-1.3 -3.2,0.2 z"
       id="path304-8"
       style="fill:#493323;fill-opacity:1;stroke:none;stroke-width:0.1;stroke-opacity:1" /></g></svg>
