<?xml version="1.0" encoding="UTF-8" standalone="no"?>
<svg
   version="1.0"
   width="157.78979pt"
   height="246.30518pt"
   viewBox="0 0 157.78979 246.30517"
   preserveAspectRatio="xMidYMid"
   id="svg522"
   sodipodi:docname="iStock_1321221451_1733912860171 - VŠE.svg"
   inkscape:version="1.2 (dc2aedaf03, 2022-05-15)"
   xml:space="preserve"
   xmlns:inkscape="http://www.inkscape.org/namespaces/inkscape"
   xmlns:sodipodi="http://sodipodi.sourceforge.net/DTD/sodipodi-0.dtd"
   xmlns="http://www.w3.org/2000/svg"
   xmlns:svg="http://www.w3.org/2000/svg"><defs
     id="defs526" /><sodipodi:namedview
     id="namedview524"
     pagecolor="#ffffff"
     bordercolor="#666666"
     borderopacity="1.0"
     inkscape:showpageshadow="2"
     inkscape:pageopacity="0.0"
     inkscape:pagecheckerboard="0"
     inkscape:deskcolor="#d1d1d1"
     inkscape:document-units="pt"
     showgrid="false"
     inkscape:zoom="0.1251579"
     inkscape:cx="-1877.6282"
     inkscape:cy="5413.1621"
     inkscape:window-width="1920"
     inkscape:window-height="1001"
     inkscape:window-x="-9"
     inkscape:window-y="-9"
     inkscape:window-maximized="1"
     inkscape:current-layer="svg522" /><metadata
     id="metadata2">
Created by potrace 1.16, written by Peter Selinger 2001-2019
</metadata><g
     id="g2745"
     transform="translate(-5316.6788,-125.40316)"
     style="fill:#493323;fill-opacity:1"><path
       d="m 5441.2851,127.3537 c -4.6,2.4 -8.9,8.1 -13.3,17.5 -4.7,10.1 -7.5,20.6 -12.8,47.4 -6.9,35.5 -12.2,52.7 -18.1,58.6 -2.4,2.4 -2.8,2.5 -4.8,1.1 -3.4,-2.3 -6.5,-9.6 -8.3,-19.8 -1.4,-7.5 -1.7,-16.9 -1.9,-47.4 -0.2,-37.9 -0.2,-38 -2.6,-43 -6.9,-14.3 -19.8,-6.7 -26.7,15.7 -8.3,26.9 -12.3,76.3 -8.8,108.8 0.9,8.5 2.6,21.1 3.8,28 1.1,6.9 2.3,13.9 2.5,15.6 l 0.5,3.1 -9.4,3.3 c -13.1,4.5 -24.2,10.1 -24.6,12.4 -0.7,3.6 2,3.5 9.7,-0.4 6,-3 23.9,-10 25.6,-10 0.4,0 3.5,10.4 3.5,11.8 0,0.5 -1.9,2.2 -4.1,3.7 -6.4,4.2 -12.9,10.5 -12.9,12.5 0,3.3 2.4,2.8 7.5,-1.5 5.8,-4.8 11.5,-8.9 11.8,-8.4 0.1,0.2 1.2,2.4 2.3,4.8 l 2.1,4.5 -4.9,6 c -5,6.3 -5.9,9.2 -3.2,10.3 1.2,0.4 2.4,-0.3 3.8,-2.3 1.2,-1.6 3.3,-4.2 4.7,-5.8 l 2.5,-2.9 5,5.3 c 8.7,9.3 16.2,13.3 28.4,15 20.1,2.9 36.8,-8.2 44.1,-29.3 2.7,-7.6 2.3,-7.5 13.5,-5.2 7.6,1.6 9.4,1.4 9.4,-1 0,-2.1 -2.9,-3.3 -11,-4.7 -7.6,-1.3 -8.6,-2.2 -7.6,-6.3 0.6,-2.5 0.8,-2.5 11,-2.5 8.3,0 10.8,-0.3 12.1,-1.6 1.2,-1.2 1.3,-1.9 0.4,-3 -0.8,-1 -4,-1.4 -12.1,-1.4 -9.6,0 -10.9,-0.2 -10.4,-1.6 0.3,-0.9 0.6,-4.2 0.6,-7.4 v -5.9 l 6.8,-2 c 3.7,-1.1 9.4,-2.6 12.7,-3.3 5,-1.1 6.1,-1.7 6.3,-3.6 0.3,-1.9 -0.1,-2.2 -3,-2.2 -3.1,0 -15.8,2.9 -20.3,4.6 -1.7,0.7 -1.8,0.1 -1.2,-8.2 0.4,-4.9 1.6,-28.3 2.7,-51.9 1.1,-23.7 2.7,-54.3 3.6,-68 1.3,-20.4 1.4,-26.2 0.4,-30.9 -2.1,-10 -7.1,-12.8 -15.3,-8.5 z m 8.9,6.4 c 1.7,4 1.8,16.5 0.4,33.5 -0.5,6.3 -1.4,22.3 -2,35.5 -1.9,44.2 -4,84 -4.6,89.2 l -0.5,5.3 -8,4.1 c -5.5,2.9 -7.9,4.7 -7.9,6 0,3.2 1.9,3.1 8.5,-0.2 3.5,-1.9 6.6,-3.1 6.8,-2.9 0.3,0.3 0.2,3.1 0,6.2 l -0.5,5.8 h -4.3 c -6.9,0 -7.1,4.2 -0.2,5.5 2.6,0.5 3.7,1.2 3.7,2.5 0,3.7 -1.2,5 -4.5,5 -3.5,0 -5.1,2 -3.2,3.9 0.6,0.6 2.2,1.1 3.5,1.1 2.8,0 2.6,1.1 -1.8,10.7 -3.5,7.7 -9.9,14.7 -16.5,18.1 -4.4,2.4 -6.1,2.7 -15,2.7 -8.2,0 -10.9,-0.4 -14.8,-2.3 -7,-3.2 -13.9,-8.5 -17.3,-13.3 l -2.8,-4.1 3.7,-3 c 2,-1.7 3.7,-3.8 3.7,-4.8 0,-3.1 -2.8,-3.1 -6.5,0.2 -2,1.7 -3.7,2.9 -3.9,2.7 -0.6,-0.7 -3.6,-8.2 -3.4,-8.4 0.2,-0.1 2.2,-1.2 4.6,-2.5 2.6,-1.5 4.2,-3.1 4.2,-4.2 0,-2.9 -2.6,-3.2 -6.6,-0.9 -2,1.2 -3.8,2 -4,1.8 -0.9,-0.8 -3.1,-9.6 -2.6,-10.1 0.3,-0.4 1.6,-0.6 2.8,-0.6 1.3,0 2.8,-0.9 3.3,-1.9 1.5,-2.6 -0.9,-4.5 -4.7,-3.6 -2.2,0.4 -3.1,0.2 -3.6,-1 -2.1,-5.6 -7,-42.5 -8.1,-62 -1.5,-23.9 4.2,-72.7 10.6,-91.3 3.6,-10.6 10.2,-18 13.9,-15.7 3,1.9 3.4,6.8 4,46.5 0.7,43.7 1.5,51.1 6.5,61.5 2.7,5.5 7.6,9.5 11.8,9.5 4,0 9,-5.7 12.6,-14.4 4.4,-10.5 8.3,-25.8 13.7,-53.5 5.9,-30.5 9.9,-42.7 17.4,-52.9 2.4,-3.4 7.1,-6.8 9.8,-7.2 0.2,0 1,1.6 1.8,3.5 z"
       id="path84-1"
       style="fill:#493323;fill-opacity:1;stroke:none;stroke-width:0.1" /><path
       d="m 5413.7851,282.3537 c -1.2,0.5 -2.4,1.9 -2.8,3.3 -1.3,5.5 4.3,9.3 9.1,6.2 2.8,-1.9 3.2,-4.2 1,-7.3 -1.7,-2.5 -4.3,-3.3 -7.3,-2.2 z"
       id="path86-8"
       style="fill:#493323;fill-opacity:1;stroke:none;stroke-width:0.1" /><path
       d="m 5374.9851,288.7537 c -1.3,2.1 -1.5,3.1 -0.6,5 2.4,5.2 11.2,4.1 11.2,-1.3 0,-5.9 -7.5,-8.5 -10.6,-3.7 z"
       id="path88-4"
       style="fill:#493323;fill-opacity:1;stroke:none;stroke-width:0.1" /><path
       d="m 5391.5851,308.9537 c -2.2,1.1 -3.6,2.7 -3.8,4.1 -0.5,3.2 3.2,8.7 8.6,12.8 3.6,2.7 5.4,3.4 8.2,3.2 3.1,-0.3 3.9,-1 6.7,-5.7 3.7,-6.2 5.1,-11.6 3.6,-14 -1.6,-2.5 -18.6,-2.7 -23.3,-0.4 z m 18,5 c 0,0.9 -1.1,3.6 -2.5,6 -2.6,4.3 -2.6,4.3 -5.4,2.8 -2.9,-1.5 -8.1,-6.9 -8.1,-8.5 0,-1 3.6,-1.6 10.8,-1.9 4.2,-0.1 5.2,0.2 5.2,1.6 z"
       id="path90-8"
       style="fill:#493323;fill-opacity:1;stroke:none;stroke-width:0.1" /></g></svg>
